<?xml version="1.0" encoding="UTF-8"?>
<svg xmlns="http://www.w3.org/2000/svg" xmlns:xlink="http://www.w3.org/1999/xlink"
     width="1000" height="996.4028776978419" viewBox="-5 -5 1668 1662">
<defs>
</defs>
<circle cx="1340" cy="1149" r="10" fill="red" />
<circle cx="1556" cy="1444" r="10" fill="red" />
<circle cx="1012" cy="824" r="10" fill="red" />
<circle cx="972" cy="792" r="10" fill="red" />
<circle cx="873" cy="720" r="10" fill="red" />
<circle cx="359" cy="366" r="10" fill="red" />
<circle cx="1579" cy="1493" r="10" fill="red" />
<circle cx="1529" cy="1399" r="10" fill="red" />
<circle cx="1631" cy="1599" r="10" fill="red" />
<circle cx="423" cy="415" r="10" fill="red" />
<circle cx="477" cy="452" r="10" fill="red" />
<circle cx="291" cy="310" r="10" fill="red" />
<circle cx="131" cy="165" r="10" fill="red" />
<circle cx="407" cy="403" r="10" fill="red" />
<circle cx="628" cy="555" r="10" fill="red" />
<circle cx="1644" cy="1626" r="10" fill="red" />
<circle cx="757" cy="645" r="10" fill="red" />
<circle cx="1053" cy="858" r="10" fill="red" />
<circle cx="1093" cy="894" r="10" fill="red" />
<circle cx="571" cy="517" r="10" fill="red" />
<circle cx="702" cy="607" r="10" fill="red" />
<circle cx="345" cy="355" r="10" fill="red" />
<circle cx="1393" cy="1212" r="10" fill="red" />
<circle cx="145" cy="180" r="10" fill="red" />
<circle cx="1302" cy="1110" r="10" fill="red" />
<circle cx="552" cy="504" r="10" fill="red" />
<circle cx="1488" cy="1335" r="10" fill="red" />
<circle cx="1215" cy="1005" r="10" fill="red" />
<circle cx="932" cy="762" r="10" fill="red" />
<circle cx="992" cy="808" r="10" fill="red" />
<circle cx="94" cy="121" r="10" fill="red" />
<circle cx="172" cy="208" r="10" fill="red" />
<circle cx="1233" cy="1025" r="10" fill="red" />
<circle cx="1284" cy="1089" r="10" fill="red" />
<circle cx="496" cy="464" r="10" fill="red" />
<circle cx="739" cy="632" r="10" fill="red" />
<circle cx="217" cy="247" r="10" fill="red" />
<circle cx="390" cy="390" r="10" fill="red" />
<circle cx="331" cy="344" r="10" fill="red" />
<circle cx="201" cy="235" r="10" fill="red" />
<circle cx="646" cy="568" r="10" fill="red" />
<circle cx="609" cy="542" r="10" fill="red" />
<circle cx="37" cy="40" r="10" fill="red" />
<circle cx="106" cy="136" r="10" fill="red" />
<circle cx="1658" cy="1652" r="10" fill="red" />
<circle cx="248" cy="273" r="10" fill="red" />
<circle cx="912" cy="748" r="10" fill="red" />
<circle cx="1376" cy="1190" r="10" fill="red" />
<circle cx="374" cy="378" r="10" fill="red" />
<circle cx="795" cy="668" r="10" fill="red" />
<circle cx="1458" cy="1294" r="10" fill="red" />
<circle cx="720" cy="619" r="10" fill="red" />
<circle cx="1267" cy="1067" r="10" fill="red" />
<circle cx="440" cy="428" r="10" fill="red" />
<circle cx="458" cy="440" r="10" fill="red" />
<circle cx="83" cy="106" r="10" fill="red" />
<circle cx="1502" cy="1356" r="10" fill="red" />
<circle cx="1073" cy="876" r="10" fill="red" />
<circle cx="1358" cy="1169" r="10" fill="red" />
<circle cx="304" cy="321" r="10" fill="red" />
<circle cx="952" cy="777" r="10" fill="red" />
<circle cx="24" cy="23" r="10" fill="red" />
<circle cx="1321" cy="1130" r="10" fill="red" />
<circle cx="277" cy="298" r="10" fill="red" />
<circle cx="683" cy="594" r="10" fill="red" />
<circle cx="1591" cy="1518" r="10" fill="red" />
<circle cx="514" cy="477" r="10" fill="red" />
<circle cx="1515" cy="1378" r="10" fill="red" />
<circle cx="1604" cy="1544" r="10" fill="red" />
<circle cx="1114" cy="913" r="10" fill="red" />
<circle cx="1196" cy="985" r="10" fill="red" />
<circle cx="1135" cy="931" r="10" fill="red" />
<circle cx="533" cy="490" r="10" fill="red" />
<circle cx="1156" cy="948" r="10" fill="red" />
<circle cx="233" cy="260" r="10" fill="red" />
<circle cx="590" cy="529" r="10" fill="red" />
<circle cx="852" cy="706" r="10" fill="red" />
<circle cx="1409" cy="1233" r="10" fill="red" />
<circle cx="813" cy="680" r="10" fill="red" />
<circle cx="1543" cy="1421" r="10" fill="red" />
<circle cx="1618" cy="1571" r="10" fill="red" />
<circle cx="263" cy="285" r="10" fill="red" />
<circle cx="665" cy="581" r="10" fill="red" />
<circle cx="73" cy="90" r="10" fill="red" />
<circle cx="62" cy="73" r="10" fill="red" />
<circle cx="118" cy="150" r="10" fill="red" />
<circle cx="1442" cy="1274" r="10" fill="red" />
<circle cx="1250" cy="1046" r="10" fill="red" />
<circle cx="317" cy="332" r="10" fill="red" />
<circle cx="50" cy="57" r="10" fill="red" />
<circle cx="1425" cy="1253" r="10" fill="red" />
<circle cx="1568" cy="1468" r="10" fill="red" />
<circle cx="776" cy="657" r="10" fill="red" />
<circle cx="1473" cy="1314" r="10" fill="red" />
<circle cx="1176" cy="966" r="10" fill="red" />
<circle cx="832" cy="693" r="10" fill="red" />
<circle cx="186" cy="222" r="10" fill="red" />
<circle cx="1032" cy="841" r="10" fill="red" />
<circle cx="893" cy="734" r="10" fill="red" />
<circle cx="158" cy="194" r="10" fill="red" />
<circle cx="0" cy="0" r="10" fill="blue" />
</svg>