<?xml version="1.0" encoding="UTF-8"?>
<svg xmlns="http://www.w3.org/2000/svg" xmlns:xlink="http://www.w3.org/1999/xlink"
     width="1000" height="1421.487603305785" viewBox="-89 -164 242 344">
<defs>
</defs>
<circle cx="0" cy="0" r="1" fill="blue" />
<circle cx="63" cy="57" r="1" fill="red" />
<circle cx="1" cy="2" r="1" fill="red" />
<circle cx="78" cy="62" r="1" fill="red" />
<circle cx="138" cy="153" r="1" fill="red" />
<circle cx="35" cy="44" r="1" fill="red" />
<circle cx="110" cy="104" r="1" fill="red" />
<circle cx="141" cy="175" r="1" fill="red" />
<circle cx="-53" cy="-137" r="1" fill="red" />
<circle cx="-2" cy="-74" r="1" fill="red" />
<circle cx="35" cy="-21" r="1" fill="red" />
<circle cx="136" cy="153" r="1" fill="red" />
<circle cx="144" cy="172" r="1" fill="red" />
<circle cx="142" cy="136" r="1" fill="red" />
<circle cx="142" cy="175" r="1" fill="red" />
<circle cx="-12" cy="-88" r="1" fill="red" />
<circle cx="118" cy="71" r="1" fill="red" />
<circle cx="103" cy="95" r="1" fill="red" />
<circle cx="118" cy="137" r="1" fill="red" />
<circle cx="24" cy="-35" r="1" fill="red" />
<circle cx="146" cy="141" r="1" fill="red" />
<circle cx="134" cy="162" r="1" fill="red" />
<circle cx="107" cy="67" r="1" fill="red" />
<circle cx="131" cy="159" r="1" fill="red" />
<circle cx="43" cy="-11" r="1" fill="red" />
<circle cx="-84" cy="-159" r="1" fill="red" />
<circle cx="-21" cy="-101" r="1" fill="red" />
<circle cx="96" cy="69" r="1" fill="red" />
<circle cx="96" cy="85" r="1" fill="red" />
<circle cx="94" cy="72" r="1" fill="red" />
<circle cx="132" cy="160" r="1" fill="red" />
<circle cx="136" cy="175" r="1" fill="red" />
<circle cx="7" cy="-60" r="1" fill="red" />
<circle cx="138" cy="119" r="1" fill="red" />
<circle cx="136" cy="98" r="1" fill="red" />
<circle cx="136" cy="106" r="1" fill="red" />
<circle cx="112" cy="112" r="1" fill="red" />
<circle cx="52" cy="5" r="1" fill="red" />
<circle cx="41" cy="49" r="1" fill="red" />
<circle cx="-32" cy="-115" r="1" fill="red" />
<circle cx="102" cy="68" r="1" fill="red" />
<circle cx="-75" cy="-156" r="1" fill="red" />
<circle cx="69" cy="38" r="1" fill="red" />
<circle cx="104" cy="66" r="1" fill="red" />
<circle cx="122" cy="143" r="1" fill="red" />
<circle cx="148" cy="153" r="1" fill="red" />
<circle cx="53" cy="57" r="1" fill="red" />
<circle cx="148" cy="162" r="1" fill="red" />
<circle cx="-61" cy="-147" r="1" fill="red" />
<circle cx="137" cy="156" r="1" fill="red" />
<circle cx="127" cy="77" r="1" fill="red" />
<circle cx="24" cy="36" r="1" fill="red" />
<circle cx="137" cy="113" r="1" fill="red" />
<circle cx="137" cy="155" r="1" fill="red" />
<circle cx="87" cy="72" r="1" fill="red" />
<circle cx="19" cy="33" r="1" fill="red" />
<circle cx="57" cy="18" r="1" fill="red" />
<circle cx="140" cy="125" r="1" fill="red" />
<circle cx="-45" cy="-127" r="1" fill="red" />
<circle cx="90" cy="71" r="1" fill="red" />
<circle cx="146" cy="167" r="1" fill="red" />
<circle cx="84" cy="65" r="1" fill="red" />
<circle cx="79" cy="64" r="1" fill="red" />
<circle cx="81" cy="61" r="1" fill="red" />
<circle cx="3" cy="7" r="1" fill="red" />
<circle cx="114" cy="69" r="1" fill="red" />
<circle cx="80" cy="66" r="1" fill="red" />
<circle cx="115" cy="121" r="1" fill="red" />
<circle cx="14" cy="25" r="1" fill="red" />
<circle cx="7" cy="12" r="1" fill="red" />
<circle cx="74" cy="52" r="1" fill="red" />
<circle cx="130" cy="84" r="1" fill="red" />
<circle cx="13" cy="18" r="1" fill="red" />
<circle cx="137" cy="165" r="1" fill="red" />
<circle cx="94" cy="73" r="1" fill="red" />
<circle cx="59" cy="58" r="1" fill="red" />
<circle cx="141" cy="132" r="1" fill="red" />
<circle cx="129" cy="153" r="1" fill="red" />
<circle cx="63" cy="29" r="1" fill="red" />
<circle cx="136" cy="159" r="1" fill="red" />
<circle cx="145" cy="147" r="1" fill="red" />
<circle cx="73" cy="61" r="1" fill="red" />
<circle cx="135" cy="158" r="1" fill="red" />
<circle cx="136" cy="153" r="1" fill="red" />
<circle cx="121" cy="74" r="1" fill="red" />
<circle cx="133" cy="91" r="1" fill="red" />
<circle cx="-66" cy="-152" r="1" fill="red" />
<circle cx="136" cy="168" r="1" fill="red" />
<circle cx="137" cy="154" r="1" fill="red" />
<circle cx="127" cy="151" r="1" fill="red" />
<circle cx="30" cy="39" r="1" fill="red" />
<circle cx="87" cy="67" r="1" fill="red" />
<circle cx="16" cy="-46" r="1" fill="red" />
<circle cx="45" cy="56" r="1" fill="red" />
<circle cx="133" cy="156" r="1" fill="red" />
<circle cx="70" cy="58" r="1" fill="red" />
<circle cx="115" cy="130" r="1" fill="red" />
<circle cx="125" cy="147" r="1" fill="red" />
<circle cx="134" cy="172" r="1" fill="red" />
<circle cx="130" cy="157" r="1" fill="red" />
<circle cx="17" cy="31" r="1" fill="red" />
</svg>