<?xml version="1.0" encoding="UTF-8"?>
<svg xmlns="http://www.w3.org/2000/svg" xmlns:xlink="http://www.w3.org/1999/xlink"
     width="1000" height="1000.0000000000001" viewBox="-15 -15 30 30">
<defs>
</defs>
<circle cx="0" cy="0" r="0.5" fill="blue" />
<circle cx="-8" cy="7" r="0.5" fill="red" />
<circle cx="-10" cy="4" r="0.5" fill="red" />
<circle cx="-6" cy="-1" r="0.5" fill="red" />
<circle cx="-5" cy="-8" r="0.5" fill="red" />
<circle cx="4" cy="10" r="0.5" fill="red" />
<circle cx="0" cy="-1" r="0.5" fill="red" />
<circle cx="-8" cy="-1" r="0.5" fill="red" />
<circle cx="-7" cy="-10" r="0.5" fill="red" />
<circle cx="2" cy="8" r="0.5" fill="red" />
<circle cx="10" cy="1" r="0.5" fill="red" />
<circle cx="5" cy="4" r="0.5" fill="red" />
<circle cx="-8" cy="-2" r="0.5" fill="red" />
<circle cx="-1" cy="5" r="0.5" fill="red" />
<circle cx="6" cy="-5" r="0.5" fill="red" />
<circle cx="-7" cy="-3" r="0.5" fill="red" />
<circle cx="-5" cy="-4" r="0.5" fill="red" />
<circle cx="9" cy="-5" r="0.5" fill="red" />
<circle cx="0" cy="0" r="0.5" fill="red" />
<circle cx="-9" cy="-4" r="0.5" fill="red" />
</svg>