<?xml version="1.0" encoding="UTF-8"?>
<svg xmlns="http://www.w3.org/2000/svg" xmlns:xlink="http://www.w3.org/1999/xlink"
     width="1000" height="1014.6341463414634" viewBox="-102.5 -104.0 205 208">
<defs>
</defs>
<circle cx="-41" cy="-63" r="1" fill="red" />
<circle cx="68" cy="43" r="1" fill="red" />
<circle cx="56" cy="-92" r="1" fill="red" />
<circle cx="-75" cy="-83" r="1" fill="red" />
<circle cx="-61" cy="76" r="1" fill="red" />
<circle cx="-74" cy="4" r="1" fill="red" />
<circle cx="-90" cy="86" r="1" fill="red" />
<circle cx="68" cy="-48" r="1" fill="red" />
<circle cx="54" cy="98" r="1" fill="red" />
<circle cx="10" cy="53" r="1" fill="red" />
<circle cx="-11" cy="94" r="1" fill="red" />
<circle cx="8" cy="39" r="1" fill="red" />
<circle cx="-7" cy="-38" r="1" fill="red" />
<circle cx="31" cy="67" r="1" fill="red" />
<circle cx="9" cy="55" r="1" fill="red" />
<circle cx="21" cy="-92" r="1" fill="red" />
<circle cx="-45" cy="68" r="1" fill="red" />
<circle cx="39" cy="-17" r="1" fill="red" />
<circle cx="72" cy="-39" r="1" fill="red" />
<circle cx="-44" cy="-64" r="1" fill="red" />
<circle cx="-81" cy="-68" r="1" fill="red" />
<circle cx="-26" cy="-57" r="1" fill="red" />
<circle cx="-95" cy="74" r="1" fill="red" />
<circle cx="77" cy="-96" r="1" fill="red" />
<circle cx="59" cy="-20" r="1" fill="red" />
<circle cx="-64" cy="1" r="1" fill="red" />
<circle cx="-85" cy="-75" r="1" fill="red" />
<circle cx="91" cy="-49" r="1" fill="red" />
<circle cx="-80" cy="-66" r="1" fill="red" />
<circle cx="45" cy="-98" r="1" fill="red" />
<circle cx="-10" cy="-76" r="1" fill="red" />
<circle cx="82" cy="-92" r="1" fill="red" />
<circle cx="-93" cy="70" r="1" fill="red" />
<circle cx="25" cy="-18" r="1" fill="red" />
<circle cx="-89" cy="-88" r="1" fill="red" />
<circle cx="7" cy="80" r="1" fill="red" />
<circle cx="-6" cy="52" r="1" fill="red" />
<circle cx="58" cy="76" r="1" fill="red" />
<circle cx="48" cy="-54" r="1" fill="red" />
<circle cx="-20" cy="-19" r="1" fill="red" />
<circle cx="79" cy="-80" r="1" fill="red" />
<circle cx="-95" cy="-30" r="1" fill="red" />
<circle cx="100" cy="-89" r="1" fill="red" />
<circle cx="-2" cy="2" r="1" fill="red" />
<circle cx="-40" cy="-22" r="1" fill="red" />
<circle cx="11" cy="-12" r="1" fill="red" />
<circle cx="-25" cy="39" r="1" fill="red" />
<circle cx="-81" cy="-90" r="1" fill="red" />
<circle cx="70" cy="8" r="1" fill="red" />
<circle cx="33" cy="20" r="1" fill="red" />
<circle cx="11" cy="20" r="1" fill="red" />
<circle cx="18" cy="53" r="1" fill="red" />
<circle cx="-68" cy="98" r="1" fill="red" />
<circle cx="-49" cy="-86" r="1" fill="red" />
<circle cx="9" cy="-88" r="1" fill="red" />
<circle cx="62" cy="9" r="1" fill="red" />
<circle cx="74" cy="78" r="1" fill="red" />
<circle cx="54" cy="-1" r="1" fill="red" />
<circle cx="-36" cy="-50" r="1" fill="red" />
<circle cx="-29" cy="-18" r="1" fill="red" />
<circle cx="74" cy="59" r="1" fill="red" />
<circle cx="73" cy="-30" r="1" fill="red" />
<circle cx="-38" cy="-18" r="1" fill="red" />
<circle cx="-89" cy="-62" r="1" fill="red" />
<circle cx="-38" cy="91" r="1" fill="red" />
<circle cx="99" cy="-77" r="1" fill="red" />
<circle cx="49" cy="-93" r="1" fill="red" />
<circle cx="17" cy="48" r="1" fill="red" />
<circle cx="52" cy="23" r="1" fill="red" />
<circle cx="32" cy="-61" r="1" fill="red" />
<circle cx="-93" cy="88" r="1" fill="red" />
<circle cx="-59" cy="-84" r="1" fill="red" />
<circle cx="95" cy="-1" r="1" fill="red" />
<circle cx="-49" cy="77" r="1" fill="red" />
<circle cx="40" cy="84" r="1" fill="red" />
<circle cx="64" cy="-99" r="1" fill="red" />
<circle cx="28" cy="-57" r="1" fill="red" />
<circle cx="37" cy="-69" r="1" fill="red" />
<circle cx="-75" cy="-72" r="1" fill="red" />
<circle cx="-89" cy="-94" r="1" fill="red" />
<circle cx="95" cy="22" r="1" fill="red" />
<circle cx="33" cy="-72" r="1" fill="red" />
<circle cx="10" cy="77" r="1" fill="red" />
<circle cx="-84" cy="87" r="1" fill="red" />
<circle cx="-67" cy="-45" r="1" fill="red" />
<circle cx="4" cy="-45" r="1" fill="red" />
<circle cx="27" cy="-39" r="1" fill="red" />
<circle cx="30" cy="-89" r="1" fill="red" />
<circle cx="55" cy="-92" r="1" fill="red" />
<circle cx="4" cy="83" r="1" fill="red" />
<circle cx="52" cy="28" r="1" fill="red" />
<circle cx="39" cy="40" r="1" fill="red" />
<circle cx="59" cy="-2" r="1" fill="red" />
<circle cx="82" cy="99" r="1" fill="red" />
<circle cx="66" cy="60" r="1" fill="red" />
<circle cx="1" cy="-93" r="1" fill="red" />
<circle cx="-48" cy="12" r="1" fill="red" />
<circle cx="-26" cy="9" r="1" fill="red" />
<circle cx="-83" cy="-49" r="1" fill="red" />
<circle cx="39" cy="-86" r="1" fill="red" />
</svg>