<?xml version="1.0" encoding="UTF-8"?>
<svg xmlns="http://www.w3.org/2000/svg" xmlns:xlink="http://www.w3.org/1999/xlink"
     width="1000" height="1512.0" viewBox="113 21 375 567">
<defs>
</defs>
<circle cx="0" cy="0" r="1" fill="blue" />
<circle cx="408" cy="193" r="1" fill="red" />
<circle cx="421" cy="219" r="1" fill="red" />
<circle cx="216" cy="185" r="1" fill="red" />
<circle cx="270" cy="294" r="1" fill="red" />
<circle cx="256" cy="503" r="1" fill="red" />
<circle cx="254" cy="528" r="1" fill="red" />
<circle cx="383" cy="277" r="1" fill="red" />
<circle cx="124" cy="48" r="1" fill="red" />
<circle cx="194" cy="164" r="1" fill="red" />
<circle cx="329" cy="405" r="1" fill="red" />
<circle cx="164" cy="27" r="1" fill="red" />
<circle cx="420" cy="119" r="1" fill="red" />
<circle cx="180" cy="534" r="1" fill="red" />
<circle cx="352" cy="254" r="1" fill="red" />
<circle cx="392" cy="159" r="1" fill="red" />
<circle cx="457" cy="95" r="1" fill="red" />
<circle cx="287" cy="538" r="1" fill="red" />
<circle cx="148" cy="79" r="1" fill="red" />
<circle cx="178" cy="104" r="1" fill="red" />
<circle cx="276" cy="304" r="1" fill="red" />
<circle cx="321" cy="498" r="1" fill="red" />
<circle cx="413" cy="132" r="1" fill="red" />
<circle cx="168" cy="137" r="1" fill="red" />
<circle cx="233" cy="568" r="1" fill="red" />
<circle cx="283" cy="432" r="1" fill="red" />
<circle cx="233" cy="149" r="1" fill="red" />
<circle cx="377" cy="254" r="1" fill="red" />
<circle cx="186" cy="186" r="1" fill="red" />
<circle cx="256" cy="546" r="1" fill="red" />
<circle cx="205" cy="531" r="1" fill="red" />
<circle cx="366" cy="274" r="1" fill="red" />
<circle cx="272" cy="378" r="1" fill="red" />
<circle cx="294" cy="330" r="1" fill="red" />
<circle cx="478" cy="85" r="1" fill="red" />
<circle cx="416" cy="140" r="1" fill="red" />
<circle cx="180" cy="87" r="1" fill="red" />
<circle cx="363" cy="385" r="1" fill="red" />
<circle cx="181" cy="550" r="1" fill="red" />
<circle cx="274" cy="540" r="1" fill="red" />
<circle cx="483" cy="37" r="1" fill="red" />
<circle cx="359" cy="352" r="1" fill="red" />
<circle cx="186" cy="583" r="1" fill="red" />
<circle cx="207" cy="104" r="1" fill="red" />
<circle cx="398" cy="256" r="1" fill="red" />
<circle cx="277" cy="454" r="1" fill="red" />
<circle cx="225" cy="175" r="1" fill="red" />
<circle cx="177" cy="93" r="1" fill="red" />
<circle cx="462" cy="107" r="1" fill="red" />
<circle cx="201" cy="126" r="1" fill="red" />
<circle cx="303" cy="456" r="1" fill="red" />
<circle cx="359" cy="341" r="1" fill="red" />
<circle cx="279" cy="564" r="1" fill="red" />
<circle cx="283" cy="436" r="1" fill="red" />
<circle cx="313" cy="428" r="1" fill="red" />
<circle cx="375" cy="198" r="1" fill="red" />
<circle cx="463" cy="78" r="1" fill="red" />
<circle cx="455" cy="141" r="1" fill="red" />
<circle cx="373" cy="358" r="1" fill="red" />
<circle cx="249" cy="531" r="1" fill="red" />
<circle cx="243" cy="261" r="1" fill="red" />
<circle cx="440" cy="107" r="1" fill="red" />
<circle cx="236" cy="538" r="1" fill="red" />
<circle cx="375" cy="261" r="1" fill="red" />
<circle cx="344" cy="363" r="1" fill="red" />
<circle cx="315" cy="506" r="1" fill="red" />
<circle cx="234" cy="210" r="1" fill="red" />
<circle cx="301" cy="532" r="1" fill="red" />
<circle cx="138" cy="73" r="1" fill="red" />
<circle cx="202" cy="137" r="1" fill="red" />
<circle cx="462" cy="43" r="1" fill="red" />
<circle cx="371" cy="310" r="1" fill="red" />
<circle cx="311" cy="386" r="1" fill="red" />
<circle cx="370" cy="272" r="1" fill="red" />
<circle cx="303" cy="445" r="1" fill="red" />
<circle cx="461" cy="60" r="1" fill="red" />
<circle cx="293" cy="486" r="1" fill="red" />
<circle cx="347" cy="327" r="1" fill="red" />
<circle cx="158" cy="120" r="1" fill="red" />
<circle cx="424" cy="140" r="1" fill="red" />
<circle cx="271" cy="368" r="1" fill="red" />
<circle cx="431" cy="119" r="1" fill="red" />
<circle cx="454" cy="51" r="1" fill="red" />
<circle cx="265" cy="541" r="1" fill="red" />
<circle cx="165" cy="107" r="1" fill="red" />
<circle cx="132" cy="55" r="1" fill="red" />
<circle cx="291" cy="467" r="1" fill="red" />
<circle cx="213" cy="225" r="1" fill="red" />
<circle cx="409" cy="245" r="1" fill="red" />
<circle cx="191" cy="51" r="1" fill="red" />
<circle cx="299" cy="303" r="1" fill="red" />
<circle cx="466" cy="120" r="1" fill="red" />
<circle cx="313" cy="312" r="1" fill="red" />
<circle cx="329" cy="335" r="1" fill="red" />
<circle cx="160" cy="73" r="1" fill="red" />
<circle cx="361" cy="330" r="1" fill="red" />
<circle cx="224" cy="180" r="1" fill="red" />
<circle cx="296" cy="477" r="1" fill="red" />
<circle cx="375" cy="217" r="1" fill="red" />
<circle cx="243" cy="579" r="1" fill="red" />
<circle cx="348" cy="294" r="1" fill="red" />
<circle cx="232" cy="555" r="1" fill="red" />
<circle cx="256" cy="571" r="1" fill="red" />
<circle cx="300" cy="524" r="1" fill="red" />
<circle cx="479" cy="60" r="1" fill="red" />
<circle cx="139" cy="65" r="1" fill="red" />
<circle cx="266" cy="250" r="1" fill="red" />
<circle cx="417" cy="191" r="1" fill="red" />
<circle cx="320" cy="352" r="1" fill="red" />
<circle cx="387" cy="224" r="1" fill="red" />
<circle cx="370" cy="297" r="1" fill="red" />
<circle cx="306" cy="418" r="1" fill="red" />
<circle cx="324" cy="384" r="1" fill="red" />
<circle cx="158" cy="94" r="1" fill="red" />
<circle cx="247" cy="559" r="1" fill="red" />
<circle cx="301" cy="374" r="1" fill="red" />
<circle cx="178" cy="54" r="1" fill="red" />
<circle cx="437" cy="45" r="1" fill="red" />
<circle cx="213" cy="167" r="1" fill="red" />
<circle cx="136" cy="55" r="1" fill="red" />
<circle cx="390" cy="148" r="1" fill="red" />
<circle cx="319" cy="421" r="1" fill="red" />
<circle cx="120" cy="32" r="1" fill="red" />
<circle cx="402" cy="141" r="1" fill="red" />
<circle cx="204" cy="85" r="1" fill="red" />
<circle cx="293" cy="309" r="1" fill="red" />
<circle cx="300" cy="490" r="1" fill="red" />
<circle cx="224" cy="205" r="1" fill="red" />
<circle cx="406" cy="132" r="1" fill="red" />
<circle cx="146" cy="95" r="1" fill="red" />
<circle cx="306" cy="351" r="1" fill="red" />
<circle cx="204" cy="155" r="1" fill="red" />
<circle cx="239" cy="244" r="1" fill="red" />
<circle cx="296" cy="538" r="1" fill="red" />
<circle cx="311" cy="491" r="1" fill="red" />
<circle cx="118" cy="29" r="1" fill="red" />
<circle cx="370" cy="371" r="1" fill="red" />
<circle cx="291" cy="359" r="1" fill="red" />
<circle cx="431" cy="163" r="1" fill="red" />
<circle cx="251" cy="181" r="1" fill="red" />
<circle cx="371" cy="294" r="1" fill="red" />
<circle cx="249" cy="315" r="1" fill="red" />
<circle cx="339" cy="354" r="1" fill="red" />
<circle cx="293" cy="432" r="1" fill="red" />
<circle cx="348" cy="252" r="1" fill="red" />
<circle cx="471" cy="40" r="1" fill="red" />
<circle cx="268" cy="545" r="1" fill="red" />
<circle cx="383" cy="327" r="1" fill="red" />
<circle cx="400" cy="290" r="1" fill="red" />
<circle cx="300" cy="377" r="1" fill="red" />
<circle cx="302" cy="525" r="1" fill="red" />
<circle cx="253" cy="238" r="1" fill="red" />
<circle cx="320" cy="453" r="1" fill="red" />
<circle cx="357" cy="266" r="1" fill="red" />
<circle cx="205" cy="213" r="1" fill="red" />
<circle cx="251" cy="327" r="1" fill="red" />
<circle cx="401" cy="236" r="1" fill="red" />
<circle cx="423" cy="119" r="1" fill="red" />
<circle cx="262" cy="555" r="1" fill="red" />
<circle cx="473" cy="52" r="1" fill="red" />
<circle cx="303" cy="466" r="1" fill="red" />
<circle cx="324" cy="408" r="1" fill="red" />
<circle cx="215" cy="247" r="1" fill="red" />
<circle cx="366" cy="366" r="1" fill="red" />
<circle cx="187" cy="100" r="1" fill="red" />
<circle cx="433" cy="102" r="1" fill="red" />
<circle cx="235" cy="173" r="1" fill="red" />
<circle cx="177" cy="36" r="1" fill="red" />
<circle cx="275" cy="548" r="1" fill="red" />
<circle cx="361" cy="365" r="1" fill="red" />
<circle cx="396" cy="131" r="1" fill="red" />
<circle cx="140" cy="68" r="1" fill="red" />
<circle cx="279" cy="256" r="1" fill="red" />
<circle cx="351" cy="408" r="1" fill="red" />
<circle cx="341" cy="346" r="1" fill="red" />
<circle cx="395" cy="301" r="1" fill="red" />
<circle cx="237" cy="253" r="1" fill="red" />
<circle cx="370" cy="290" r="1" fill="red" />
<circle cx="400" cy="187" r="1" fill="red" />
<circle cx="415" cy="181" r="1" fill="red" />
<circle cx="326" cy="351" r="1" fill="red" />
<circle cx="414" cy="100" r="1" fill="red" />
<circle cx="408" cy="120" r="1" fill="red" />
<circle cx="267" cy="211" r="1" fill="red" />
<circle cx="217" cy="197" r="1" fill="red" />
<circle cx="408" cy="124" r="1" fill="red" />
<circle cx="229" cy="143" r="1" fill="red" />
<circle cx="154" cy="92" r="1" fill="red" />
<circle cx="361" cy="368" r="1" fill="red" />
<circle cx="413" cy="186" r="1" fill="red" />
<circle cx="225" cy="580" r="1" fill="red" />
<circle cx="264" cy="245" r="1" fill="red" />
<circle cx="353" cy="394" r="1" fill="red" />
<circle cx="283" cy="342" r="1" fill="red" />
<circle cx="355" cy="275" r="1" fill="red" />
<circle cx="416" cy="255" r="1" fill="red" />
<circle cx="255" cy="332" r="1" fill="red" />
<circle cx="349" cy="289" r="1" fill="red" />
<circle cx="191" cy="534" r="1" fill="red" />
<circle cx="296" cy="468" r="1" fill="red" />
<circle cx="189" cy="128" r="1" fill="red" />
<circle cx="180" cy="162" r="1" fill="red" />
<circle cx="189" cy="167" r="1" fill="red" />
<circle cx="480" cy="38" r="1" fill="red" />
<circle cx="282" cy="529" r="1" fill="red" />
<circle cx="468" cy="59" r="1" fill="red" />
<circle cx="317" cy="431" r="1" fill="red" />
<circle cx="388" cy="258" r="1" fill="red" />
<circle cx="329" cy="425" r="1" fill="red" />
<circle cx="201" cy="569" r="1" fill="red" />
<circle cx="290" cy="557" r="1" fill="red" />
<circle cx="477" cy="64" r="1" fill="red" />
<circle cx="346" cy="288" r="1" fill="red" />
<circle cx="301" cy="524" r="1" fill="red" />
<circle cx="263" cy="523" r="1" fill="red" />
<circle cx="222" cy="215" r="1" fill="red" />
<circle cx="438" cy="64" r="1" fill="red" />
<circle cx="296" cy="422" r="1" fill="red" />
<circle cx="235" cy="163" r="1" fill="red" />
<circle cx="190" cy="545" r="1" fill="red" />
<circle cx="185" cy="575" r="1" fill="red" />
<circle cx="267" cy="242" r="1" fill="red" />
<circle cx="277" cy="274" r="1" fill="red" />
<circle cx="368" cy="339" r="1" fill="red" />
<circle cx="343" cy="411" r="1" fill="red" />
<circle cx="181" cy="145" r="1" fill="red" />
<circle cx="357" cy="319" r="1" fill="red" />
<circle cx="272" cy="294" r="1" fill="red" />
<circle cx="389" cy="281" r="1" fill="red" />
<circle cx="234" cy="218" r="1" fill="red" />
<circle cx="257" cy="192" r="1" fill="red" />
<circle cx="342" cy="293" r="1" fill="red" />
<circle cx="382" cy="226" r="1" fill="red" />
<circle cx="381" cy="239" r="1" fill="red" />
<circle cx="353" cy="243" r="1" fill="red" />
<circle cx="277" cy="316" r="1" fill="red" />
<circle cx="399" cy="261" r="1" fill="red" />
<circle cx="317" cy="485" r="1" fill="red" />
<circle cx="340" cy="438" r="1" fill="red" />
<circle cx="265" cy="243" r="1" fill="red" />
<circle cx="284" cy="436" r="1" fill="red" />
<circle cx="391" cy="244" r="1" fill="red" />
<circle cx="165" cy="83" r="1" fill="red" />
<circle cx="260" cy="564" r="1" fill="red" />
<circle cx="450" cy="164" r="1" fill="red" />
<circle cx="256" cy="527" r="1" fill="red" />
<circle cx="401" cy="244" r="1" fill="red" />
<circle cx="187" cy="575" r="1" fill="red" />
<circle cx="236" cy="544" r="1" fill="red" />
<circle cx="186" cy="186" r="1" fill="red" />
<circle cx="466" cy="118" r="1" fill="red" />
<circle cx="462" cy="61" r="1" fill="red" />
<circle cx="268" cy="271" r="1" fill="red" />
<circle cx="234" cy="140" r="1" fill="red" />
<circle cx="217" cy="208" r="1" fill="red" />
<circle cx="274" cy="282" r="1" fill="red" />
<circle cx="395" cy="160" r="1" fill="red" />
<circle cx="226" cy="159" r="1" fill="red" />
<circle cx="211" cy="141" r="1" fill="red" />
<circle cx="378" cy="172" r="1" fill="red" />
<circle cx="253" cy="300" r="1" fill="red" />
<circle cx="225" cy="582" r="1" fill="red" />
<circle cx="213" cy="106" r="1" fill="red" />
<circle cx="399" cy="144" r="1" fill="red" />
<circle cx="273" cy="498" r="1" fill="red" />
<circle cx="249" cy="208" r="1" fill="red" />
<circle cx="269" cy="279" r="1" fill="red" />
<circle cx="285" cy="362" r="1" fill="red" />
<circle cx="248" cy="573" r="1" fill="red" />
<circle cx="308" cy="349" r="1" fill="red" />
<circle cx="260" cy="529" r="1" fill="red" />
<circle cx="357" cy="264" r="1" fill="red" />
<circle cx="325" cy="462" r="1" fill="red" />
<circle cx="182" cy="127" r="1" fill="red" />
<circle cx="467" cy="79" r="1" fill="red" />
<circle cx="204" cy="208" r="1" fill="red" />
<circle cx="221" cy="194" r="1" fill="red" />
<circle cx="154" cy="95" r="1" fill="red" />
<circle cx="182" cy="38" r="1" fill="red" />
<circle cx="342" cy="334" r="1" fill="red" />
<circle cx="431" cy="215" r="1" fill="red" />
<circle cx="346" cy="357" r="1" fill="red" />
<circle cx="362" cy="382" r="1" fill="red" />
<circle cx="333" cy="461" r="1" fill="red" />
<circle cx="190" cy="135" r="1" fill="red" />
<circle cx="257" cy="563" r="1" fill="red" />
<circle cx="294" cy="374" r="1" fill="red" />
<circle cx="304" cy="496" r="1" fill="red" />
<circle cx="272" cy="317" r="1" fill="red" />
<circle cx="437" cy="73" r="1" fill="red" />
<circle cx="141" cy="26" r="1" fill="red" />
<circle cx="344" cy="436" r="1" fill="red" />
<circle cx="148" cy="75" r="1" fill="red" />
<circle cx="257" cy="513" r="1" fill="red" />
<circle cx="181" cy="91" r="1" fill="red" />
<circle cx="417" cy="221" r="1" fill="red" />
<circle cx="414" cy="248" r="1" fill="red" />
<circle cx="245" cy="180" r="1" fill="red" />
<circle cx="261" cy="229" r="1" fill="red" />
<circle cx="182" cy="111" r="1" fill="red" />
<circle cx="208" cy="142" r="1" fill="red" />
</svg>