<?xml version="1.0" encoding="UTF-8"?>
<svg xmlns="http://www.w3.org/2000/svg" xmlns:xlink="http://www.w3.org/1999/xlink"
     width="1000" height="680.5555555555555" viewBox="-99 -93 144 98">
<defs>
</defs>
<circle cx="-1" cy="0" r="1" fill="red" />
<circle cx="-4" cy="-2" r="1" fill="red" />
<circle cx="-6" cy="-6" r="1" fill="red" />
<circle cx="-7" cy="-9" r="1" fill="red" />
<circle cx="-10" cy="-11" r="1" fill="red" />
<circle cx="-11" cy="-12" r="1" fill="red" />
<circle cx="-12" cy="-15" r="1" fill="red" />
<circle cx="-15" cy="-20" r="1" fill="red" />
<circle cx="-17" cy="-23" r="1" fill="red" />
<circle cx="-17" cy="-28" r="1" fill="red" />
<circle cx="-15" cy="-32" r="1" fill="red" />
<circle cx="-11" cy="-36" r="1" fill="red" />
<circle cx="-5" cy="-42" r="1" fill="red" />
<circle cx="2" cy="-46" r="1" fill="red" />
<circle cx="8" cy="-50" r="1" fill="red" />
<circle cx="16" cy="-52" r="1" fill="red" />
<circle cx="22" cy="-54" r="1" fill="red" />
<circle cx="26" cy="-55" r="1" fill="red" />
<circle cx="31" cy="-57" r="1" fill="red" />
<circle cx="35" cy="-61" r="1" fill="red" />
<circle cx="37" cy="-67" r="1" fill="red" />
<circle cx="38" cy="-71" r="1" fill="red" />
<circle cx="40" cy="-73" r="1" fill="red" />
<circle cx="40" cy="-73" r="1" fill="red" />
<circle cx="38" cy="-75" r="1" fill="red" />
<circle cx="35" cy="-75" r="1" fill="red" />
<circle cx="31" cy="-77" r="1" fill="red" />
<circle cx="29" cy="-81" r="1" fill="red" />
<circle cx="27" cy="-85" r="1" fill="red" />
<circle cx="23" cy="-87" r="1" fill="red" />
<circle cx="19" cy="-88" r="1" fill="red" />
<circle cx="14" cy="-87" r="1" fill="red" />
<circle cx="8" cy="-85" r="1" fill="red" />
<circle cx="1" cy="-82" r="1" fill="red" />
<circle cx="-4" cy="-78" r="1" fill="red" />
<circle cx="-11" cy="-75" r="1" fill="red" />
<circle cx="-20" cy="-73" r="1" fill="red" />
<circle cx="-29" cy="-70" r="1" fill="red" />
<circle cx="-36" cy="-68" r="1" fill="red" />
<circle cx="-45" cy="-66" r="1" fill="red" />
<circle cx="-54" cy="-63" r="1" fill="red" />
<circle cx="-61" cy="-59" r="1" fill="red" />
<circle cx="-66" cy="-55" r="1" fill="red" />
<circle cx="-73" cy="-52" r="1" fill="red" />
<circle cx="-78" cy="-49" r="1" fill="red" />
<circle cx="-81" cy="-45" r="1" fill="red" />
<circle cx="-83" cy="-42" r="1" fill="red" />
<circle cx="-86" cy="-41" r="1" fill="red" />
<circle cx="-91" cy="-38" r="1" fill="red" />
<circle cx="-94" cy="-35" r="1" fill="red" />
<circle cx="0" cy="0" r="1" fill="blue" />
</svg>