<?xml version="1.0" encoding="UTF-8"?>
<svg xmlns="http://www.w3.org/2000/svg" xmlns:xlink="http://www.w3.org/1999/xlink"
     width="1000" height="918.9189189189188" viewBox="-7 -166 185 170">
<defs>
</defs>
<circle cx="0" cy="0" r="1" fill="blue" />
<circle cx="-2" cy="-1" r="1" fill="red" />
<circle cx="-2" cy="-2" r="1" fill="red" />
<circle cx="1" cy="-4" r="1" fill="red" />
<circle cx="1" cy="-5" r="1" fill="red" />
<circle cx="2" cy="-8" r="1" fill="red" />
<circle cx="4" cy="-11" r="1" fill="red" />
<circle cx="6" cy="-17" r="1" fill="red" />
<circle cx="6" cy="-20" r="1" fill="red" />
<circle cx="11" cy="-25" r="1" fill="red" />
<circle cx="12" cy="-29" r="1" fill="red" />
<circle cx="18" cy="-34" r="1" fill="red" />
<circle cx="21" cy="-38" r="1" fill="red" />
<circle cx="29" cy="-44" r="1" fill="red" />
<circle cx="35" cy="-48" r="1" fill="red" />
<circle cx="41" cy="-53" r="1" fill="red" />
<circle cx="48" cy="-57" r="1" fill="red" />
<circle cx="55" cy="-60" r="1" fill="red" />
<circle cx="59" cy="-63" r="1" fill="red" />
<circle cx="63" cy="-65" r="1" fill="red" />
<circle cx="70" cy="-68" r="1" fill="red" />
<circle cx="74" cy="-68" r="1" fill="red" />
<circle cx="79" cy="-69" r="1" fill="red" />
<circle cx="85" cy="-70" r="1" fill="red" />
<circle cx="87" cy="-73" r="1" fill="red" />
<circle cx="90" cy="-74" r="1" fill="red" />
<circle cx="94" cy="-78" r="1" fill="red" />
<circle cx="96" cy="-80" r="1" fill="red" />
<circle cx="97" cy="-84" r="1" fill="red" />
<circle cx="100" cy="-88" r="1" fill="red" />
<circle cx="103" cy="-94" r="1" fill="red" />
<circle cx="105" cy="-96" r="1" fill="red" />
<circle cx="107" cy="-102" r="1" fill="red" />
<circle cx="109" cy="-105" r="1" fill="red" />
<circle cx="112" cy="-111" r="1" fill="red" />
<circle cx="114" cy="-113" r="1" fill="red" />
<circle cx="116" cy="-117" r="1" fill="red" />
<circle cx="118" cy="-121" r="1" fill="red" />
<circle cx="122" cy="-125" r="1" fill="red" />
<circle cx="126" cy="-128" r="1" fill="red" />
<circle cx="129" cy="-133" r="1" fill="red" />
<circle cx="133" cy="-136" r="1" fill="red" />
<circle cx="137" cy="-140" r="1" fill="red" />
<circle cx="141" cy="-144" r="1" fill="red" />
<circle cx="143" cy="-147" r="1" fill="red" />
<circle cx="149" cy="-152" r="1" fill="red" />
<circle cx="153" cy="-154" r="1" fill="red" />
<circle cx="156" cy="-156" r="1" fill="red" />
<circle cx="161" cy="-158" r="1" fill="red" />
<circle cx="165" cy="-160" r="1" fill="red" />
<circle cx="173" cy="-161" r="1" fill="red" />
</svg>