<?xml version="1.0" encoding="UTF-8"?>
<svg xmlns="http://www.w3.org/2000/svg" xmlns:xlink="http://www.w3.org/1999/xlink"
     width="1000" height="1994.8453608247423" viewBox="-97.0 -193.5 194 387">
<defs>
</defs>
<circle cx="-9" cy="53" r="1" fill="red" />
<circle cx="-25" cy="84" r="1" fill="red" />
<circle cx="-1" cy="42" r="1" fill="red" />
<circle cx="-11" cy="218" r="1" fill="red" />
<circle cx="1" cy="38" r="1" fill="red" />
<circle cx="-23" cy="236" r="1" fill="red" />
<circle cx="-19" cy="69" r="1" fill="red" />
<circle cx="-132" cy="366" r="1" fill="red" />
<circle cx="8" cy="20" r="1" fill="red" />
<circle cx="-15" cy="193" r="1" fill="red" />
<circle cx="-29" cy="133" r="1" fill="red" />
<circle cx="-121" cy="350" r="1" fill="red" />
<circle cx="-35" cy="246" r="1" fill="red" />
<circle cx="-92" cy="287" r="1" fill="red" />
<circle cx="16" cy="10" r="1" fill="red" />
<circle cx="-83" cy="272" r="1" fill="red" />
<circle cx="-119" cy="344" r="1" fill="red" />
<circle cx="13" cy="14" r="1" fill="red" />
<circle cx="-17" cy="189" r="1" fill="red" />
<circle cx="-28" cy="106" r="1" fill="red" />
<circle cx="4" cy="3" r="1" fill="red" />
<circle cx="-27" cy="101" r="1" fill="red" />
<circle cx="-105" cy="318" r="1" fill="red" />
<circle cx="-11" cy="222" r="1" fill="red" />
<circle cx="-31" cy="244" r="1" fill="red" />
<circle cx="-20" cy="79" r="1" fill="red" />
<circle cx="-152" cy="368" r="1" fill="red" />
<circle cx="-24" cy="82" r="1" fill="red" />
<circle cx="15" cy="8" r="1" fill="red" />
<circle cx="-162" cy="371" r="1" fill="red" />
<circle cx="7" cy="4" r="1" fill="red" />
<circle cx="-114" cy="333" r="1" fill="red" />
<circle cx="13" cy="6" r="1" fill="red" />
<circle cx="-20" cy="66" r="1" fill="red" />
<circle cx="9" cy="18" r="1" fill="red" />
<circle cx="-141" cy="369" r="1" fill="red" />
<circle cx="-28" cy="118" r="1" fill="red" />
<circle cx="-28" cy="128" r="1" fill="red" />
<circle cx="10" cy="4" r="1" fill="red" />
<circle cx="-26" cy="91" r="1" fill="red" />
<circle cx="-20" cy="60" r="1" fill="red" />
<circle cx="-67" cy="258" r="1" fill="red" />
<circle cx="-24" cy="171" r="1" fill="red" />
<circle cx="-28" cy="242" r="1" fill="red" />
<circle cx="-167" cy="376" r="1" fill="red" />
<circle cx="-20" cy="234" r="1" fill="red" />
<circle cx="-11" cy="207" r="1" fill="red" />
<circle cx="-168" cy="378" r="1" fill="red" />
<circle cx="-117" cy="339" r="1" fill="red" />
<circle cx="-155" cy="368" r="1" fill="red" />
<circle cx="-17" cy="231" r="1" fill="red" />
<circle cx="-165" cy="374" r="1" fill="red" />
<circle cx="-12" cy="202" r="1" fill="red" />
<circle cx="-51" cy="251" r="1" fill="red" />
<circle cx="-17" cy="55" r="1" fill="red" />
<circle cx="-4" cy="48" r="1" fill="red" />
<circle cx="-168" cy="380" r="1" fill="red" />
<circle cx="-25" cy="238" r="1" fill="red" />
<circle cx="-19" cy="57" r="1" fill="red" />
<circle cx="-20" cy="63" r="1" fill="red" />
<circle cx="-25" cy="163" r="1" fill="red" />
<circle cx="-13" cy="197" r="1" fill="red" />
<circle cx="15" cy="12" r="1" fill="red" />
<circle cx="-18" cy="71" r="1" fill="red" />
<circle cx="-62" cy="255" r="1" fill="red" />
<circle cx="11" cy="15" r="1" fill="red" />
<circle cx="5" cy="27" r="1" fill="red" />
<circle cx="-19" cy="76" r="1" fill="red" />
<circle cx="-26" cy="240" r="1" fill="red" />
<circle cx="-6" cy="50" r="1" fill="red" />
<circle cx="16" cy="9" r="1" fill="red" />
<circle cx="-157" cy="368" r="1" fill="red" />
<circle cx="-110" cy="326" r="1" fill="red" />
<circle cx="12" cy="5" r="1" fill="red" />
<circle cx="-97" cy="301" r="1" fill="red" />
<circle cx="7" cy="23" r="1" fill="red" />
<circle cx="-19" cy="184" r="1" fill="red" />
<circle cx="-56" cy="253" r="1" fill="red" />
<circle cx="-45" cy="249" r="1" fill="red" />
<circle cx="-11" cy="225" r="1" fill="red" />
<circle cx="-22" cy="81" r="1" fill="red" />
<circle cx="-40" cy="248" r="1" fill="red" />
<circle cx="-145" cy="369" r="1" fill="red" />
<circle cx="-76" cy="265" r="1" fill="red" />
<circle cx="4" cy="31" r="1" fill="red" />
</svg>