<?xml version="1.0" encoding="UTF-8"?>
<svg xmlns="http://www.w3.org/2000/svg" xmlns:xlink="http://www.w3.org/1999/xlink"
     width="1000" height="1009.1024020227559" viewBox="-1954 -1991 3955 3991">
<defs>
</defs>
<circle cx="872" cy="-865" r="10" fill="red" />
<circle cx="-268" cy="-319" r="10" fill="red" />
<circle cx="-651" cy="1403" r="10" fill="red" />
<circle cx="-980" cy="-1304" r="10" fill="red" />
<circle cx="-1733" cy="-958" r="10" fill="red" />
<circle cx="1193" cy="-1381" r="10" fill="red" />
<circle cx="656" cy="-35" r="10" fill="red" />
<circle cx="-1437" cy="508" r="10" fill="red" />
<circle cx="1031" cy="-1785" r="10" fill="red" />
<circle cx="-913" cy="-1273" r="10" fill="red" />
<circle cx="-1869" cy="302" r="10" fill="red" />
<circle cx="-130" cy="-102" r="10" fill="red" />
<circle cx="-1678" cy="501" r="10" fill="red" />
<circle cx="1573" cy="1341" r="10" fill="red" />
<circle cx="-1663" cy="-772" r="10" fill="red" />
<circle cx="-588" cy="-1827" r="10" fill="red" />
<circle cx="-834" cy="102" r="10" fill="red" />
<circle cx="-1847" cy="1177" r="10" fill="red" />
<circle cx="1996" cy="-395" r="10" fill="red" />
<circle cx="-429" cy="1384" r="10" fill="red" />
<circle cx="-1423" cy="-1596" r="10" fill="red" />
<circle cx="1337" cy="-350" r="10" fill="red" />
<circle cx="-1250" cy="-985" r="10" fill="red" />
<circle cx="1965" cy="663" r="10" fill="red" />
<circle cx="865" cy="515" r="10" fill="red" />
<circle cx="1016" cy="-1986" r="10" fill="red" />
<circle cx="498" cy="663" r="10" fill="red" />
<circle cx="1461" cy="1991" r="10" fill="red" />
<circle cx="784" cy="172" r="10" fill="red" />
<circle cx="-1149" cy="1131" r="10" fill="red" />
<circle cx="1967" cy="806" r="10" fill="red" />
<circle cx="276" cy="-1626" r="10" fill="red" />
<circle cx="-44" cy="270" r="10" fill="red" />
<circle cx="-1749" cy="119" r="10" fill="red" />
<circle cx="-1908" cy="1714" r="10" fill="red" />
<circle cx="-739" cy="-208" r="10" fill="red" />
<circle cx="351" cy="353" r="10" fill="red" />
<circle cx="-1941" cy="543" r="10" fill="red" />
<circle cx="-1520" cy="399" r="10" fill="red" />
<circle cx="1920" cy="-829" r="10" fill="red" />
<circle cx="-1069" cy="884" r="10" fill="red" />
<circle cx="-630" cy="-615" r="10" fill="red" />
<circle cx="1502" cy="-1603" r="10" fill="red" />
<circle cx="1434" cy="-259" r="10" fill="red" />
<circle cx="-473" cy="1265" r="10" fill="red" />
<circle cx="848" cy="824" r="10" fill="red" />
<circle cx="1604" cy="-1743" r="10" fill="red" />
<circle cx="-1249" cy="-1744" r="10" fill="red" />
<circle cx="1336" cy="147" r="10" fill="red" />
<circle cx="-475" cy="1416" r="10" fill="red" />
<circle cx="1173" cy="-289" r="10" fill="red" />
<circle cx="-297" cy="-1734" r="10" fill="red" />
<circle cx="1342" cy="632" r="10" fill="red" />
<circle cx="1055" cy="-114" r="10" fill="red" />
<circle cx="222" cy="1664" r="10" fill="red" />
<circle cx="-636" cy="-965" r="10" fill="red" />
<circle cx="-22" cy="-537" r="10" fill="red" />
<circle cx="-1292" cy="1995" r="10" fill="red" />
<circle cx="1259" cy="1814" r="10" fill="red" />
<circle cx="-1196" cy="-1698" r="10" fill="red" />
<circle cx="1759" cy="611" r="10" fill="red" />
<circle cx="-582" cy="1644" r="10" fill="red" />
<circle cx="-1505" cy="-1985" r="10" fill="red" />
<circle cx="1851" cy="-617" r="10" fill="red" />
<circle cx="-1379" cy="-915" r="10" fill="red" />
<circle cx="-1939" cy="-149" r="10" fill="red" />
<circle cx="11" cy="1364" r="10" fill="red" />
<circle cx="-568" cy="-1951" r="10" fill="red" />
<circle cx="213" cy="-1792" r="10" fill="red" />
<circle cx="1011" cy="3" r="10" fill="red" />
<circle cx="-1358" cy="1200" r="10" fill="red" />
<circle cx="1376" cy="210" r="10" fill="red" />
<circle cx="1432" cy="1057" r="10" fill="red" />
<circle cx="-1949" cy="-522" r="10" fill="red" />
<circle cx="-118" cy="898" r="10" fill="red" />
<circle cx="-560" cy="1039" r="10" fill="red" />
<circle cx="1733" cy="1069" r="10" fill="red" />
<circle cx="-1708" cy="989" r="10" fill="red" />
<circle cx="-390" cy="-593" r="10" fill="red" />
<circle cx="693" cy="-200" r="10" fill="red" />
<circle cx="1488" cy="-1680" r="10" fill="red" />
<circle cx="-41" cy="-964" r="10" fill="red" />
<circle cx="-1653" cy="-1303" r="10" fill="red" />
<circle cx="1623" cy="1167" r="10" fill="red" />
<circle cx="-85" cy="-556" r="10" fill="red" />
<circle cx="1128" cy="-1766" r="10" fill="red" />
<circle cx="1599" cy="115" r="10" fill="red" />
<circle cx="-1260" cy="1668" r="10" fill="red" />
<circle cx="427" cy="-1765" r="10" fill="red" />
<circle cx="604" cy="-1532" r="10" fill="red" />
<circle cx="-833" cy="-1113" r="10" fill="red" />
<circle cx="1726" cy="-1018" r="10" fill="red" />
<circle cx="-440" cy="-1215" r="10" fill="red" />
<circle cx="1079" cy="-763" r="10" fill="red" />
<circle cx="1928" cy="1456" r="10" fill="red" />
<circle cx="-764" cy="-959" r="10" fill="red" />
<circle cx="-1221" cy="-1071" r="10" fill="red" />
<circle cx="-1224" cy="-787" r="10" fill="red" />
<circle cx="1261" cy="276" r="10" fill="red" />
<circle cx="347" cy="679" r="10" fill="red" />
<circle cx="0" cy="0" r="10" fill="blue" />
</svg>