<?xml version="1.0" encoding="UTF-8"?>
<svg xmlns="http://www.w3.org/2000/svg" xmlns:xlink="http://www.w3.org/1999/xlink"
     width="1000" height="1566.0377358490566" viewBox="-6 -145 106 166">
<defs>
</defs>
<circle cx="0" cy="1" r="1" fill="red" />
<circle cx="0" cy="1" r="1" fill="red" />
<circle cx="-1" cy="2" r="1" fill="red" />
<circle cx="-1" cy="4" r="1" fill="red" />
<circle cx="0" cy="7" r="1" fill="red" />
<circle cx="1" cy="10" r="1" fill="red" />
<circle cx="3" cy="12" r="1" fill="red" />
<circle cx="5" cy="13" r="1" fill="red" />
<circle cx="7" cy="14" r="1" fill="red" />
<circle cx="8" cy="14" r="1" fill="red" />
<circle cx="8" cy="13" r="1" fill="red" />
<circle cx="9" cy="13" r="1" fill="red" />
<circle cx="10" cy="14" r="1" fill="red" />
<circle cx="11" cy="15" r="1" fill="red" />
<circle cx="12" cy="15" r="1" fill="red" />
<circle cx="14" cy="16" r="1" fill="red" />
<circle cx="17" cy="16" r="1" fill="red" />
<circle cx="20" cy="15" r="1" fill="red" />
<circle cx="22" cy="15" r="1" fill="red" />
<circle cx="23" cy="14" r="1" fill="red" />
<circle cx="25" cy="12" r="1" fill="red" />
<circle cx="27" cy="10" r="1" fill="red" />
<circle cx="29" cy="8" r="1" fill="red" />
<circle cx="32" cy="6" r="1" fill="red" />
<circle cx="35" cy="4" r="1" fill="red" />
<circle cx="37" cy="2" r="1" fill="red" />
<circle cx="40" cy="-1" r="1" fill="red" />
<circle cx="44" cy="-4" r="1" fill="red" />
<circle cx="49" cy="-8" r="1" fill="red" />
<circle cx="53" cy="-11" r="1" fill="red" />
<circle cx="58" cy="-14" r="1" fill="red" />
<circle cx="63" cy="-18" r="1" fill="red" />
<circle cx="68" cy="-22" r="1" fill="red" />
<circle cx="72" cy="-26" r="1" fill="red" />
<circle cx="77" cy="-29" r="1" fill="red" />
<circle cx="81" cy="-33" r="1" fill="red" />
<circle cx="85" cy="-37" r="1" fill="red" />
<circle cx="88" cy="-42" r="1" fill="red" />
<circle cx="90" cy="-48" r="1" fill="red" />
<circle cx="92" cy="-55" r="1" fill="red" />
<circle cx="94" cy="-61" r="1" fill="red" />
<circle cx="95" cy="-68" r="1" fill="red" />
<circle cx="95" cy="-76" r="1" fill="red" />
<circle cx="94" cy="-84" r="1" fill="red" />
<circle cx="93" cy="-93" r="1" fill="red" />
<circle cx="92" cy="-102" r="1" fill="red" />
<circle cx="92" cy="-112" r="1" fill="red" />
<circle cx="92" cy="-122" r="1" fill="red" />
<circle cx="93" cy="-131" r="1" fill="red" />
<circle cx="94" cy="-140" r="1" fill="red" />
<circle cx="0" cy="0" r="1" fill="blue" />
</svg>