<?xml version="1.0" encoding="UTF-8"?>
<svg xmlns="http://www.w3.org/2000/svg" xmlns:xlink="http://www.w3.org/1999/xlink"
     width="1000" height="899.5215311004785" viewBox="-204 -184 209 188">
<defs>
</defs>
<circle cx="0" cy="0" r="1" fill="blue" />
<circle cx="-124" cy="-159" r="1" fill="red" />
<circle cx="-35" cy="-92" r="1" fill="red" />
<circle cx="-168" cy="-175" r="1" fill="red" />
<circle cx="-198" cy="-173" r="1" fill="red" />
<circle cx="-199" cy="-171" r="1" fill="red" />
<circle cx="-45" cy="-102" r="1" fill="red" />
<circle cx="-158" cy="-167" r="1" fill="red" />
<circle cx="-195" cy="-174" r="1" fill="red" />
<circle cx="-4" cy="-25" r="1" fill="red" />
<circle cx="-190" cy="-177" r="1" fill="red" />
<circle cx="-184" cy="-167" r="1" fill="red" />
<circle cx="-75" cy="-130" r="1" fill="red" />
<circle cx="-141" cy="-168" r="1" fill="red" />
<circle cx="-102" cy="-145" r="1" fill="red" />
<circle cx="-175" cy="-172" r="1" fill="red" />
<circle cx="-15" cy="-60" r="1" fill="red" />
<circle cx="-1" cy="-5" r="1" fill="red" />
<circle cx="-149" cy="-168" r="1" fill="red" />
<circle cx="-188" cy="-169" r="1" fill="red" />
<circle cx="-181" cy="-167" r="1" fill="red" />
<circle cx="-199" cy="-169" r="1" fill="red" />
<circle cx="-151" cy="-167" r="1" fill="red" />
<circle cx="-78" cy="-138" r="1" fill="red" />
<circle cx="-173" cy="-173" r="1" fill="red" />
<circle cx="-181" cy="-179" r="1" fill="red" />
<circle cx="-156" cy="-166" r="1" fill="red" />
<circle cx="-73" cy="-127" r="1" fill="red" />
<circle cx="-76" cy="-134" r="1" fill="red" />
<circle cx="-7" cy="-34" r="1" fill="red" />
<circle cx="-172" cy="-177" r="1" fill="red" />
<circle cx="-64" cy="-119" r="1" fill="red" />
<circle cx="-30" cy="-89" r="1" fill="red" />
<circle cx="-85" cy="-143" r="1" fill="red" />
<circle cx="-13" cy="-54" r="1" fill="red" />
<circle cx="-18" cy="-73" r="1" fill="red" />
<circle cx="-198" cy="-168" r="1" fill="red" />
<circle cx="0" cy="-3" r="1" fill="red" />
<circle cx="-115" cy="-151" r="1" fill="red" />
<circle cx="-52" cy="-109" r="1" fill="red" />
<circle cx="-170" cy="-172" r="1" fill="red" />
<circle cx="-172" cy="-172" r="1" fill="red" />
<circle cx="-197" cy="-174" r="1" fill="red" />
<circle cx="-167" cy="-172" r="1" fill="red" />
<circle cx="-188" cy="-178" r="1" fill="red" />
<circle cx="0" cy="-1" r="1" fill="red" />
<circle cx="-186" cy="-168" r="1" fill="red" />
<circle cx="-179" cy="-168" r="1" fill="red" />
<circle cx="-71" cy="-124" r="1" fill="red" />
<circle cx="-2" cy="-10" r="1" fill="red" />
<circle cx="-165" cy="-173" r="1" fill="red" />
<circle cx="-42" cy="-99" r="1" fill="red" />
<circle cx="-160" cy="-168" r="1" fill="red" />
<circle cx="-3" cy="-21" r="1" fill="red" />
<circle cx="-173" cy="-174" r="1" fill="red" />
<circle cx="-178" cy="-169" r="1" fill="red" />
<circle cx="-177" cy="-178" r="1" fill="red" />
<circle cx="-144" cy="-168" r="1" fill="red" />
<circle cx="-81" cy="-141" r="1" fill="red" />
<circle cx="-10" cy="-49" r="1" fill="red" />
<circle cx="-185" cy="-179" r="1" fill="red" />
<circle cx="-94" cy="-144" r="1" fill="red" />
<circle cx="-197" cy="-168" r="1" fill="red" />
<circle cx="-193" cy="-169" r="1" fill="red" />
<circle cx="-56" cy="-112" r="1" fill="red" />
<circle cx="-39" cy="-96" r="1" fill="red" />
<circle cx="-133" cy="-165" r="1" fill="red" />
<circle cx="-194" cy="-174" r="1" fill="red" />
<circle cx="-68" cy="-122" r="1" fill="red" />
<circle cx="-1" cy="-7" r="1" fill="red" />
<circle cx="-195" cy="-168" r="1" fill="red" />
<circle cx="-23" cy="-82" r="1" fill="red" />
<circle cx="-8" cy="-43" r="1" fill="red" />
<circle cx="-111" cy="-148" r="1" fill="red" />
<circle cx="-163" cy="-170" r="1" fill="red" />
<circle cx="-194" cy="-175" r="1" fill="red" />
<circle cx="-173" cy="-174" r="1" fill="red" />
<circle cx="-106" cy="-146" r="1" fill="red" />
<circle cx="-120" cy="-155" r="1" fill="red" />
<circle cx="-98" cy="-145" r="1" fill="red" />
<circle cx="-175" cy="-173" r="1" fill="red" />
<circle cx="-21" cy="-78" r="1" fill="red" />
<circle cx="-60" cy="-116" r="1" fill="red" />
<circle cx="-146" cy="-168" r="1" fill="red" />
<circle cx="-193" cy="-176" r="1" fill="red" />
<circle cx="-174" cy="-174" r="1" fill="red" />
<circle cx="-2" cy="-13" r="1" fill="red" />
<circle cx="-7" cy="-38" r="1" fill="red" />
<circle cx="-137" cy="-167" r="1" fill="red" />
<circle cx="-176" cy="-170" r="1" fill="red" />
<circle cx="-193" cy="-175" r="1" fill="red" />
<circle cx="-191" cy="-169" r="1" fill="red" />
<circle cx="-192" cy="-176" r="1" fill="red" />
<circle cx="-16" cy="-67" r="1" fill="red" />
<circle cx="-48" cy="-106" r="1" fill="red" />
<circle cx="-6" cy="-29" r="1" fill="red" />
<circle cx="-3" cy="-17" r="1" fill="red" />
<circle cx="-128" cy="-162" r="1" fill="red" />
<circle cx="-26" cy="-86" r="1" fill="red" />
<circle cx="-90" cy="-144" r="1" fill="red" />
<circle cx="-154" cy="-166" r="1" fill="red" />
</svg>