<?xml version="1.0" encoding="UTF-8"?>
<svg xmlns="http://www.w3.org/2000/svg" xmlns:xlink="http://www.w3.org/1999/xlink"
     width="1000" height="1000.0" viewBox="-504.5 -504.5 1009 1009">
<defs>
</defs>
<circle cx="984" cy="341" r="1" fill="red" />
<circle cx="106" cy="563" r="1" fill="red" />
<circle cx="833" cy="559" r="1" fill="red" />
<circle cx="771" cy="398" r="1" fill="red" />
<circle cx="431" cy="536" r="1" fill="red" />
<circle cx="113" cy="21" r="1" fill="red" />
<circle cx="607" cy="62" r="1" fill="red" />
<circle cx="629" cy="574" r="1" fill="red" />
<circle cx="731" cy="508" r="1" fill="red" />
<circle cx="913" cy="855" r="1" fill="red" />
<circle cx="414" cy="506" r="1" fill="red" />
<circle cx="445" cy="129" r="1" fill="red" />
<circle cx="373" cy="622" r="1" fill="red" />
<circle cx="310" cy="521" r="1" fill="red" />
<circle cx="61" cy="897" r="1" fill="red" />
<circle cx="492" cy="414" r="1" fill="red" />
<circle cx="581" cy="904" r="1" fill="red" />
<circle cx="434" cy="539" r="1" fill="red" />
<circle cx="813" cy="303" r="1" fill="red" />
<circle cx="206" cy="290" r="1" fill="red" />
<circle cx="190" cy="380" r="1" fill="red" />
<circle cx="713" cy="755" r="1" fill="red" />
<circle cx="660" cy="360" r="1" fill="red" />
<circle cx="551" cy="186" r="1" fill="red" />
<circle cx="588" cy="697" r="1" fill="red" />
<circle cx="666" cy="359" r="1" fill="red" />
<circle cx="508" cy="357" r="1" fill="red" />
<circle cx="497" cy="218" r="1" fill="red" />
<circle cx="292" cy="421" r="1" fill="red" />
<circle cx="940" cy="825" r="1" fill="red" />
<circle cx="641" cy="557" r="1" fill="red" />
<circle cx="367" cy="58" r="1" fill="red" />
<circle cx="406" cy="160" r="1" fill="red" />
<circle cx="822" cy="617" r="1" fill="red" />
<circle cx="153" cy="672" r="1" fill="red" />
<circle cx="578" cy="286" r="1" fill="red" />
<circle cx="798" cy="181" r="1" fill="red" />
<circle cx="120" cy="604" r="1" fill="red" />
<circle cx="964" cy="791" r="1" fill="red" />
<circle cx="612" cy="490" r="1" fill="red" />
<circle cx="467" cy="685" r="1" fill="red" />
<circle cx="909" cy="120" r="1" fill="red" />
<circle cx="810" cy="938" r="1" fill="red" />
<circle cx="752" cy="383" r="1" fill="red" />
<circle cx="399" cy="465" r="1" fill="red" />
<circle cx="244" cy="28" r="1" fill="red" />
<circle cx="854" cy="908" r="1" fill="red" />
<circle cx="628" cy="898" r="1" fill="red" />
<circle cx="429" cy="667" r="1" fill="red" />
<circle cx="858" cy="762" r="1" fill="red" />
<circle cx="318" cy="541" r="1" fill="red" />
<circle cx="702" cy="461" r="1" fill="red" />
<circle cx="654" cy="262" r="1" fill="red" />
<circle cx="246" cy="26" r="1" fill="red" />
<circle cx="593" cy="474" r="1" fill="red" />
<circle cx="825" cy="484" r="1" fill="red" />
<circle cx="762" cy="391" r="1" fill="red" />
<circle cx="606" cy="273" r="1" fill="red" />
<circle cx="201" cy="309" r="1" fill="red" />
<circle cx="4" cy="989" r="1" fill="red" />
<circle cx="227" cy="236" r="1" fill="red" />
<circle cx="77" cy="913" r="1" fill="red" />
<circle cx="265" cy="167" r="1" fill="red" />
<circle cx="739" cy="859" r="1" fill="red" />
<circle cx="890" cy="385" r="1" fill="red" />
<circle cx="277" cy="150" r="1" fill="red" />
<circle cx="856" cy="340" r="1" fill="red" />
<circle cx="863" cy="348" r="1" fill="red" />
<circle cx="211" cy="65" r="1" fill="red" />
<circle cx="754" cy="723" r="1" fill="red" />
<circle cx="650" cy="443" r="1" fill="red" />
<circle cx="712" cy="472" r="1" fill="red" />
<circle cx="734" cy="525" r="1" fill="red" />
<circle cx="229" cy="44" r="1" fill="red" />
<circle cx="410" cy="497" r="1" fill="red" />
<circle cx="919" cy="849" r="1" fill="red" />
<circle cx="823" cy="614" r="1" fill="red" />
<circle cx="893" cy="876" r="1" fill="red" />
<circle cx="311" cy="524" r="1" fill="red" />
<circle cx="619" cy="581" r="1" fill="red" />
<circle cx="531" cy="505" r="1" fill="red" />
<circle cx="577" cy="518" r="1" fill="red" />
<circle cx="299" cy="345" r="1" fill="red" />
<circle cx="735" cy="551" r="1" fill="red" />
<circle cx="520" cy="698" r="1" fill="red" />
<circle cx="930" cy="489" r="1" fill="red" />
<circle cx="637" cy="365" r="1" fill="red" />
<circle cx="811" cy="643" r="1" fill="red" />
<circle cx="849" cy="333" r="1" fill="red" />
<circle cx="613" cy="483" r="1" fill="red" />
<circle cx="395" cy="439" r="1" fill="red" />
<circle cx="525" cy="699" r="1" fill="red" />
<circle cx="632" cy="486" r="1" fill="red" />
<circle cx="234" cy="775" r="1" fill="red" />
<circle cx="458" cy="254" r="1" fill="red" />
<circle cx="966" cy="788" r="1" fill="red" />
<circle cx="885" cy="107" r="1" fill="red" />
<circle cx="248" cy="789" r="1" fill="red" />
<circle cx="498" cy="217" r="1" fill="red" />
<circle cx="587" cy="281" r="1" fill="red" />
<circle cx="717" cy="366" r="1" fill="red" />
<circle cx="623" cy="482" r="1" fill="red" />
<circle cx="724" cy="266" r="1" fill="red" />
<circle cx="651" cy="526" r="1" fill="red" />
<circle cx="773" cy="400" r="1" fill="red" />
<circle cx="405" cy="485" r="1" fill="red" />
<circle cx="647" cy="544" r="1" fill="red" />
<circle cx="396" cy="444" r="1" fill="red" />
<circle cx="97" cy="298" r="1" fill="red" />
<circle cx="408" cy="336" r="1" fill="red" />
<circle cx="540" cy="510" r="1" fill="red" />
<circle cx="412" cy="327" r="1" fill="red" />
<circle cx="615" cy="470" r="1" fill="red" />
<circle cx="358" cy="605" r="1" fill="red" />
<circle cx="725" cy="369" r="1" fill="red" />
<circle cx="782" cy="175" r="1" fill="red" />
<circle cx="627" cy="453" r="1" fill="red" />
<circle cx="137" cy="968" r="1" fill="red" />
<circle cx="585" cy="800" r="1" fill="red" />
<circle cx="789" cy="682" r="1" fill="red" />
<circle cx="673" cy="776" r="1" fill="red" />
<circle cx="496" cy="454" r="1" fill="red" />
<circle cx="604" cy="274" r="1" fill="red" />
<circle cx="295" cy="464" r="1" fill="red" />
<circle cx="118" cy="227" r="1" fill="red" />
<circle cx="544" cy="602" r="1" fill="red" />
<circle cx="342" cy="732" r="1" fill="red" />
<circle cx="370" cy="751" r="1" fill="red" />
<circle cx="722" cy="487" r="1" fill="red" />
<circle cx="719" cy="481" r="1" fill="red" />
<circle cx="494" cy="798" r="1" fill="red" />
<circle cx="915" cy="993" r="1" fill="red" />
<circle cx="428" cy="530" r="1" fill="red" />
<circle cx="586" cy="66" r="1" fill="red" />
<circle cx="871" cy="100" r="1" fill="red" />
<circle cx="136" cy="967" r="1" fill="red" />
<circle cx="902" cy="407" r="1" fill="red" />
<circle cx="527" cy="905" r="1" fill="red" />
<circle cx="827" cy="599" r="1" fill="red" />
<circle cx="648" cy="543" r="1" fill="red" />
<circle cx="625" cy="455" r="1" fill="red" />
<circle cx="423" cy="523" r="1" fill="red" />
<circle cx="546" cy="188" r="1" fill="red" />
<circle cx="701" cy="56" r="1" fill="red" />
<circle cx="645" cy="500" r="1" fill="red" />
<circle cx="640" cy="560" r="1" fill="red" />
<circle cx="195" cy="733" r="1" fill="red" />
<circle cx="768" cy="961" r="1" fill="red" />
<circle cx="672" cy="445" r="1" fill="red" />
<circle cx="832" cy="565" r="1" fill="red" />
<circle cx="683" cy="883" r="1" fill="red" />
<circle cx="341" cy="240" r="1" fill="red" />
<circle cx="837" cy="785" r="1" fill="red" />
<circle cx="617" cy="466" r="1" fill="red" />
<circle cx="245" cy="917" r="1" fill="red" />
<circle cx="764" cy="277" r="1" fill="red" />
<circle cx="667" cy="159" r="1" fill="red" />
<circle cx="594" cy="392" r="1" fill="red" />
<circle cx="618" cy="269" r="1" fill="red" />
<circle cx="534" cy="320" r="1" fill="red" />
<circle cx="962" cy="307" r="1" fill="red" />
<circle cx="828" cy="314" r="1" fill="red" />
<circle cx="193" cy="89" r="1" fill="red" />
<circle cx="484" cy="583" r="1" fill="red" />
<circle cx="638" cy="161" r="1" fill="red" />
<circle cx="864" cy="349" r="1" fill="red" />
<circle cx="601" cy="694" r="1" fill="red" />
<circle cx="530" cy="504" r="1" fill="red" />
<circle cx="981" cy="174" r="1" fill="red" />
<circle cx="487" cy="796" r="1" fill="red" />
<circle cx="59" cy="105" r="1" fill="red" />
<circle cx="697" cy="457" r="1" fill="red" />
<circle cx="616" cy="690" r="1" fill="red" />
<circle cx="931" cy="134" r="1" fill="red" />
<circle cx="123" cy="611" r="1" fill="red" />
<circle cx="644" cy="499" r="1" fill="red" />
<circle cx="495" cy="448" r="1" fill="red" />
<circle cx="90" cy="767" r="1" fill="red" />
<circle cx="394" cy="426" r="1" fill="red" />
<circle cx="732" cy="568" r="1" fill="red" />
<circle cx="598" cy="169" r="1" fill="red" />
<circle cx="347" cy="971" r="1" fill="red" />
<circle cx="268" cy="162" r="1" fill="red" />
<circle cx="733" cy="268" r="1" fill="red" />
<circle cx="806" cy="814" r="1" fill="red" />
<circle cx="84" cy="415" r="1" fill="red" />
<circle cx="417" cy="659" r="1" fill="red" />
<circle cx="485" cy="584" r="1" fill="red" />
<circle cx="384" cy="633" r="1" fill="red" />
<circle cx="357" cy="862" r="1" fill="red" />
<circle cx="133" cy="190" r="1" fill="red" />
<circle cx="521" cy="496" r="1" fill="red" />
<circle cx="726" cy="494" r="1" fill="red" />
<circle cx="204" cy="299" r="1" fill="red" />
<circle cx="390" cy="40" r="1" fill="red" />
<circle cx="761" cy="276" r="1" fill="red" />
<circle cx="646" cy="547" r="1" fill="red" />
<circle cx="630" cy="572" r="1" fill="red" />
<circle cx="502" cy="695" r="1" fill="red" />
<circle cx="916" cy="255" r="1" fill="red" />
<circle cx="597" cy="903" r="1" fill="red" />
<circle cx="308" cy="703" r="1" fill="red" />
<circle cx="561" cy="700" r="1" fill="red" />
<circle cx="409" cy="334" r="1" fill="red" />
<circle cx="576" cy="442" r="1" fill="red" />
<circle cx="705" cy="627" r="1" fill="red" />
<circle cx="557" cy="516" r="1" fill="red" />
<circle cx="232" cy="41" r="1" fill="red" />
<circle cx="493" cy="436" r="1" fill="red" />
<circle cx="545" cy="513" r="1" fill="red" />
<circle cx="723" cy="748" r="1" fill="red" />
<circle cx="194" cy="879" r="1" fill="red" />
<circle cx="805" cy="184" r="1" fill="red" />
<circle cx="427" cy="529" r="1" fill="red" />
<circle cx="107" cy="29" r="1" fill="red" />
<circle cx="111" cy="246" r="1" fill="red" />
<circle cx="257" cy="642" r="1" fill="red" />
<circle cx="398" cy="372" r="1" fill="red" />
<circle cx="611" cy="492" r="1" fill="red" />
<circle cx="642" cy="556" r="1" fill="red" />
<circle cx="621" cy="371" r="1" fill="red" />
<circle cx="729" cy="267" r="1" fill="red" />
<circle cx="372" cy="53" r="1" fill="red" />
<circle cx="819" cy="468" r="1" fill="red" />
<circle cx="580" cy="285" r="1" fill="red" />
<circle cx="980" cy="42" r="1" fill="red" />
<circle cx="965" cy="950" r="1" fill="red" />
<circle cx="622" cy="899" r="1" fill="red" />
<circle cx="339" cy="853" r="1" fill="red" />
<circle cx="730" cy="577" r="1" fill="red" />
<circle cx="686" cy="450" r="1" fill="red" />
<circle cx="236" cy="607" r="1" fill="red" />
<circle cx="917" cy="6" r="1" fill="red" />
<circle cx="676" cy="446" r="1" fill="red" />
<circle cx="274" cy="811" r="1" fill="red" />
<circle cx="535" cy="319" r="1" fill="red" />
<circle cx="350" cy="595" r="1" fill="red" />
<circle cx="85" cy="60" r="1" fill="red" />
<circle cx="518" cy="203" r="1" fill="red" />
<circle cx="331" cy="724" r="1" fill="red" />
<circle cx="669" cy="261" r="1" fill="red" />
<circle cx="812" cy="76" r="1" fill="red" />
<circle cx="108" cy="27" r="1" fill="red" />
<circle cx="953" cy="808" r="1" fill="red" />
<circle cx="836" cy="321" r="1" fill="red" />
<circle cx="88" cy="353" r="1" fill="red" />
<circle cx="689" cy="55" r="1" fill="red" />
<circle cx="130" cy="198" r="1" fill="red" />
<circle cx="202" cy="741" r="1" fill="red" />
<circle cx="905" cy="413" r="1" fill="red" />
<circle cx="17" cy="844" r="1" fill="red" />
<circle cx="189" cy="429" r="1" fill="red" />
<circle cx="850" cy="771" r="1" fill="red" />
<circle cx="297" cy="124" r="1" fill="red" />
<circle cx="504" cy="364" r="1" fill="red" />
<circle cx="468" cy="573" r="1" fill="red" />
<circle cx="260" cy="647" r="1" fill="red" />
<circle cx="352" cy="222" r="1" fill="red" />
<circle cx="538" cy="80" r="1" fill="red" />
<circle cx="330" cy="722" r="1" fill="red" />
<circle cx="198" cy="324" r="1" fill="red" />
<circle cx="1" cy="822" r="1" fill="red" />
<circle cx="524" cy="85" r="1" fill="red" />
<circle cx="162" cy="135" r="1" fill="red" />
<circle cx="583" cy="409" r="1" fill="red" />
<circle cx="393" cy="641" r="1" fill="red" />
<circle cx="579" cy="517" r="1" fill="red" />
<circle cx="653" cy="999" r="1" fill="red" />
<circle cx="934" cy="15" r="1" fill="red" />
<circle cx="129" cy="200" r="1" fill="red" />
<circle cx="720" cy="603" r="1" fill="red" />
<circle cx="844" cy="202" r="1" fill="red" />
<circle cx="859" cy="344" r="1" fill="red" />
<circle cx="303" cy="328" r="1" fill="red" />
<circle cx="721" cy="600" r="1" fill="red" />
<circle cx="5" cy="589" r="1" fill="red" />
<circle cx="928" cy="616" r="1" fill="red" />
<circle cx="807" cy="300" r="1" fill="red" />
<circle cx="425" cy="143" r="1" fill="red" />
<circle cx="208" cy="891" r="1" fill="red" />
<circle cx="541" cy="191" r="1" fill="red" />
<circle cx="81" cy="753" r="1" fill="red" />
<circle cx="101" cy="781" r="1" fill="red" />
<circle cx="98" cy="535" r="1" fill="red" />
<circle cx="553" cy="906" r="1" fill="red" />
<circle cx="870" cy="99" r="1" fill="red" />
<circle cx="591" cy="596" r="1" fill="red" />
<circle cx="397" cy="377" r="1" fill="red" />
<circle cx="443" cy="674" r="1" fill="red" />
<circle cx="549" cy="306" r="1" fill="red" />
<circle cx="250" cy="631" r="1" fill="red" />
<circle cx="263" cy="929" r="1" fill="red" />
<circle cx="738" cy="375" r="1" fill="red" />
<circle cx="15" cy="619" r="1" fill="red" />
<circle cx="378" cy="49" r="1" fill="red" />
<circle cx="708" cy="467" r="1" fill="red" />
<circle cx="946" cy="287" r="1" fill="red" />
<circle cx="935" cy="553" r="1" fill="red" />
<circle cx="803" cy="297" r="1" fill="red" />
<circle cx="950" cy="291" r="1" fill="red" />
<circle cx="365" cy="59" r="1" fill="red" />
<circle cx="119" cy="223" r="1" fill="red" />
<circle cx="266" cy="655" r="1" fill="red" />
<circle cx="995" cy="187" r="1" fill="red" />
<circle cx="200" cy="512" r="1" fill="red" />
<circle cx="463" cy="569" r="1" fill="red" />
<circle cx="466" cy="571" r="1" fill="red" />
<circle cx="421" cy="519" r="1" fill="red" />
<circle cx="536" cy="601" r="1" fill="red" />
<circle cx="994" cy="51" r="1" fill="red" />
<circle cx="700" cy="459" r="1" fill="red" />
<circle cx="694" cy="361" r="1" fill="red" />
<circle cx="336" cy="727" r="1" fill="red" />
<circle cx="932" cy="503" r="1" fill="red" />
<circle cx="603" cy="591" r="1" fill="red" />
<circle cx="510" cy="209" r="1" fill="red" />
<circle cx="469" cy="793" r="1" fill="red" />
<circle cx="415" cy="24" r="1" fill="red" />
<circle cx="910" cy="121" r="1" fill="red" />
<circle cx="501" cy="799" r="1" fill="red" />
<circle cx="411" cy="773" r="1" fill="red" />
<circle cx="192" cy="729" r="1" fill="red" />
<circle cx="831" cy="196" r="1" fill="red" />
<circle cx="451" cy="5" r="1" fill="red" />
<circle cx="671" cy="777" r="1" fill="red" />
<circle cx="736" cy="374" r="1" fill="red" />
<circle cx="766" cy="278" r="1" fill="red" />
<circle cx="633" cy="449" r="1" fill="red" />
<circle cx="436" cy="783" r="1" fill="red" />
<circle cx="614" cy="475" r="1" fill="red" />
<circle cx="816" cy="805" r="1" fill="red" />
<circle cx="608" cy="379" r="1" fill="red" />
<circle cx="473" cy="576" r="1" fill="red" />
<circle cx="247" cy="626" r="1" fill="red" />
<circle cx="590" cy="514" r="1" fill="red" />
<circle cx="665" cy="665" r="1" fill="red" />
<circle cx="758" cy="168" r="1" fill="red" />
<circle cx="906" cy="863" r="1" fill="red" />
<circle cx="643" cy="554" r="1" fill="red" />
<circle cx="401" cy="471" r="1" fill="red" />
<circle cx="539" cy="315" r="1" fill="red" />
<circle cx="287" cy="681" r="1" fill="red" />
<circle cx="222" cy="902" r="1" fill="red" />
<circle cx="787" cy="288" r="1" fill="red" />
<circle cx="582" cy="411" r="1" fill="red" />
<circle cx="482" cy="230" r="1" fill="red" />
<circle cx="925" cy="10" r="1" fill="red" />
<circle cx="921" cy="452" r="1" fill="red" />
<circle cx="52" cy="119" r="1" fill="red" />
<circle cx="507" cy="477" r="1" fill="red" />
<circle cx="424" cy="664" r="1" fill="red" />
<circle cx="788" cy="951" r="1" fill="red" />
<circle cx="605" cy="382" r="1" fill="red" />
<circle cx="522" cy="498" r="1" fill="red" />
<circle cx="714" cy="613" r="1" fill="red" />
<circle cx="65" cy="94" r="1" fill="red" />
<circle cx="992" cy="923" r="1" fill="red" />
<circle cx="791" cy="178" r="1" fill="red" />
<circle cx="460" cy="252" r="1" fill="red" />
<circle cx="718" cy="606" r="1" fill="red" />
<circle cx="780" cy="67" r="1" fill="red" />
<circle cx="281" cy="816" r="1" fill="red" />
<circle cx="763" cy="713" r="1" fill="red" />
<circle cx="532" cy="802" r="1" fill="red" />
<circle cx="273" cy="810" r="1" fill="red" />
<circle cx="225" cy="239" r="1" fill="red" />
<circle cx="454" cy="562" r="1" fill="red" />
<circle cx="471" cy="687" r="1" fill="red" />
<circle cx="802" cy="434" r="1" fill="red" />
<circle cx="345" cy="588" r="1" fill="red" />
<circle cx="430" cy="140" r="1" fill="red" />
<circle cx="970" cy="946" r="1" fill="red" />
<circle cx="216" cy="757" r="1" fill="red" />
<circle cx="821" cy="79" r="1" fill="red" />
<circle cx="799" cy="666" r="1" fill="red" />
<circle cx="670" cy="778" r="1" fill="red" />
<circle cx="314" cy="957" r="1" fill="red" />
<circle cx="366" cy="615" r="1" fill="red" />
<circle cx="379" cy="629" r="1" fill="red" />
<circle cx="891" cy="712" r="1" fill="red" />
<circle cx="272" cy="934" r="1" fill="red" />
<circle cx="745" cy="856" r="1" fill="red" />
<circle cx="639" cy="264" r="1" fill="red" />
<circle cx="226" cy="238" r="1" fill="red" />
<circle cx="951" cy="964" r="1" fill="red" />
<circle cx="53" cy="116" r="1" fill="red" />
<circle cx="895" cy="706" r="1" fill="red" />
<circle cx="363" cy="865" r="1" fill="red" />
<circle cx="489" cy="586" r="1" fill="red" />
<circle cx="857" cy="342" r="1" fill="red" />
<circle cx="285" cy="679" r="1" fill="red" />
<circle cx="775" cy="282" r="1" fill="red" />
<circle cx="609" cy="480" r="1" fill="red" />
<circle cx="748" cy="381" r="1" fill="red" />
<circle cx="516" cy="343" r="1" fill="red" />
<circle cx="567" cy="179" r="1" fill="red" />
<circle cx="220" cy="900" r="1" fill="red" />
<circle cx="166" cy="693" r="1" fill="red" />
<circle cx="786" cy="686" r="1" fill="red" />
<circle cx="334" cy="725" r="1" fill="red" />
<circle cx="275" cy="812" r="1" fill="red" />
<circle cx="294" cy="373" r="1" fill="red" />
<circle cx="447" cy="127" r="1" fill="red" />
<circle cx="205" cy="295" r="1" fill="red" />
<circle cx="301" cy="493" r="1" fill="red" />
<circle cx="707" cy="874" r="1" fill="red" />
<circle cx="188" cy="418" r="1" fill="red" />
<circle cx="360" cy="212" r="1" fill="red" />
<circle cx="100" cy="284" r="1" fill="red" />
<circle cx="337" cy="851" r="1" fill="red" />
<circle cx="315" cy="534" r="1" fill="red" />
<circle cx="309" cy="704" r="1" fill="red" />
<circle cx="356" cy="861" r="1" fill="red" />
<circle cx="907" cy="680" r="1" fill="red" />
<circle cx="674" cy="658" r="1" fill="red" />
<circle cx="19" cy="630" r="1" fill="red" />
<circle cx="238" cy="213" r="1" fill="red" />
<circle cx="284" cy="141" r="1" fill="red" />
<circle cx="207" cy="747" r="1" fill="red" />
<circle cx="509" cy="355" r="1" fill="red" />
<circle cx="28" cy="654" r="1" fill="red" />
<circle cx="46" cy="880" r="1" fill="red" />
<circle cx="351" cy="739" r="1" fill="red" />
<circle cx="943" cy="970" r="1" fill="red" />
<circle cx="847" cy="331" r="1" fill="red" />
<circle cx="715" cy="57" r="1" fill="red" />
<circle cx="753" cy="384" r="1" fill="red" />
<circle cx="840" cy="325" r="1" fill="red" />
<circle cx="404" cy="770" r="1" fill="red" />
<circle cx="368" cy="618" r="1" fill="red" />
<circle cx="321" cy="960" r="1" fill="red" />
<circle cx="340" cy="242" r="1" fill="red" />
<circle cx="769" cy="707" r="1" fill="red" />
<circle cx="242" cy="204" r="1" fill="red" />
<circle cx="927" cy="11" r="1" fill="red" />
<circle cx="696" cy="878" r="1" fill="red" />
<circle cx="391" cy="639" r="1" fill="red" />
<circle cx="924" cy="263" r="1" fill="red" />
<circle cx="374" cy="870" r="1" fill="red" />
<circle cx="24" cy="644" r="1" fill="red" />
<circle cx="323" cy="717" r="1" fill="red" />
<circle cx="695" cy="456" r="1" fill="red" />
<circle cx="376" cy="192" r="1" fill="red" />
<circle cx="116" cy="592" r="1" fill="red" />
<circle cx="517" cy="597" r="1" fill="red" />
<circle cx="217" cy="258" r="1" fill="red" />
<circle cx="400" cy="469" r="1" fill="red" />
<circle cx="422" cy="662" r="1" fill="red" />
<circle cx="464" cy="570" r="1" fill="red" />
<circle cx="402" cy="354" r="1" fill="red" />
<circle cx="25" cy="646" r="1" fill="red" />
<circle cx="933" cy="582" r="1" fill="red" />
<circle cx="848" cy="332" r="1" fill="red" />
<circle cx="664" cy="889" r="1" fill="red" />
<circle cx="22" cy="638" r="1" fill="red" />
<circle cx="221" cy="250" r="1" fill="red" />
<circle cx="948" cy="23" r="1" fill="red" />
<circle cx="364" cy="206" r="1" fill="red" />
<circle cx="296" cy="363" r="1" fill="red" />
<circle cx="678" cy="656" r="1" fill="red" />
<circle cx="818" cy="803" r="1" fill="red" />
<circle cx="316" cy="710" r="1" fill="red" />
<circle cx="413" cy="323" r="1" fill="red" />
<circle cx="276" cy="668" r="1" fill="red" />
<circle cx="998" cy="918" r="1" fill="red" />
<circle cx="740" cy="858" r="1" fill="red" />
<circle cx="922" cy="637" r="1" fill="red" />
<circle cx="38" cy="676" r="1" fill="red" />
<circle cx="749" cy="61" r="1" fill="red" />
<circle cx="251" cy="189" r="1" fill="red" />
<circle cx="835" cy="197" r="1" fill="red" />
<circle cx="872" cy="220" r="1" fill="red" />
<circle cx="282" cy="940" r="1" fill="red" />
<circle cx="584" cy="406" r="1" fill="red" />
<circle cx="353" cy="973" r="1" fill="red" />
<circle cx="151" cy="669" r="1" fill="red" />
<circle cx="620" cy="460" r="1" fill="red" />
<circle cx="865" cy="752" r="1" fill="red" />
<circle cx="338" cy="82" r="1" fill="red" />
<circle cx="0" cy="2" r="1" fill="red" />
<circle cx="706" cy="985" r="1" fill="red" />
<circle cx="698" cy="458" r="1" fill="red" />
<circle cx="259" cy="13" r="1" fill="red" />
<circle cx="9" cy="224" r="1" fill="red" />
<circle cx="795" cy="823" r="1" fill="red" />
<circle cx="359" cy="744" r="1" fill="red" />
<circle cx="926" cy="623" r="1" fill="red" />
<circle cx="826" cy="193" r="1" fill="red" />
<circle cx="929" cy="608" r="1" fill="red" />
<circle cx="829" cy="590" r="1" fill="red" />
<circle cx="747" cy="854" r="1" fill="red" />
<circle cx="688" cy="451" r="1" fill="red" />
<circle cx="624" cy="578" r="1" fill="red" />
<circle cx="772" cy="959" r="1" fill="red" />
<circle cx="596" cy="594" r="1" fill="red" />
<circle cx="3" cy="988" r="1" fill="red" />
<circle cx="442" cy="549" r="1" fill="red" />
<circle cx="349" cy="72" r="1" fill="red" />
<circle cx="30" cy="164" r="1" fill="red" />
<circle cx="304" cy="117" r="1" fill="red" />
<circle cx="947" cy="146" r="1" fill="red" />
<circle cx="231" cy="226" r="1" fill="red" />
<circle cx="817" cy="463" r="1" fill="red" />
<circle cx="444" cy="675" r="1" fill="red" />
<circle cx="96" cy="301" r="1" fill="red" />
<circle cx="750" cy="969" r="1" fill="red" />
<circle cx="961" cy="30" r="1" fill="red" />
<circle cx="851" cy="769" r="1" fill="red" />
<circle cx="869" cy="746" r="1" fill="red" />
<circle cx="386" cy="635" r="1" fill="red" />
<circle cx="449" cy="677" r="1" fill="red" />
<circle cx="558" cy="73" r="1" fill="red" />
<circle cx="355" cy="974" r="1" fill="red" />
<circle cx="681" cy="653" r="1" fill="red" />
<circle cx="134" cy="636" r="1" fill="red" />
<circle cx="435" cy="540" r="1" fill="red" />
<circle cx="978" cy="171" r="1" fill="red" />
<circle cx="269" cy="4" r="1" fill="red" />
<circle cx="127" cy="813" r="1" fill="red" />
<circle cx="214" cy="558" r="1" fill="red" />
<circle cx="649" cy="511" r="1" fill="red" />
<circle cx="635" cy="567" r="1" fill="red" />
<circle cx="602" cy="63" r="1" fill="red" />
<circle cx="809" cy="648" r="1" fill="red" />
<circle cx="592" cy="473" r="1" fill="red" />
<circle cx="830" cy="507" r="1" fill="red" />
<circle cx="419" cy="886" r="1" fill="red" />
<circle cx="880" cy="370" r="1" fill="red" />
<circle cx="589" cy="280" r="1" fill="red" />
<circle cx="990" cy="351" r="1" fill="red" />
<circle cx="483" cy="901" r="1" fill="red" />
<circle cx="145" cy="975" r="1" fill="red" />
<circle cx="971" cy="945" r="1" fill="red" />
<circle cx="135" cy="185" r="1" fill="red" />
<circle cx="298" cy="352" r="1" fill="red" />
<circle cx="796" cy="425" r="1" fill="red" />
<circle cx="361" cy="977" r="1" fill="red" />
<circle cx="179" cy="108" r="1" fill="red" />
<circle cx="875" cy="738" r="1" fill="red" />
<circle cx="181" cy="106" r="1" fill="red" />
<circle cx="486" cy="103" r="1" fill="red" />
<circle cx="853" cy="208" r="1" fill="red" />
<circle cx="326" cy="720" r="1" fill="red" />
<circle cx="898" cy="399" r="1" fill="red" />
<circle cx="631" cy="684" r="1" fill="red" />
<circle cx="475" cy="237" r="1" fill="red" />
<circle cx="488" cy="585" r="1" fill="red" />
<circle cx="765" cy="393" r="1" fill="red" />
<circle cx="354" cy="860" r="1" fill="red" />
<circle cx="610" cy="495" r="1" fill="red" />
<circle cx="42" cy="138" r="1" fill="red" />
<circle cx="490" cy="692" r="1" fill="red" />
<circle cx="797" cy="427" r="1" fill="red" />
<circle cx="50" cy="884" r="1" fill="red" />
<circle cx="223" cy="765" r="1" fill="red" />
<circle cx="455" cy="122" r="1" fill="red" />
<circle cx="293" cy="441" r="1" fill="red" />
<circle cx="161" cy="850" r="1" fill="red" />
<circle cx="54" cy="114" r="1" fill="red" />
<circle cx="552" cy="515" r="1" fill="red" />
<circle cx="43" cy="688" r="1" fill="red" />
<circle cx="307" cy="316" r="1" fill="red" />
<circle cx="213" cy="555" r="1" fill="red" />
<circle cx="333" cy="965" r="1" fill="red" />
<circle cx="407" cy="491" r="1" fill="red" />
<circle cx="479" cy="580" r="1" fill="red" />
<circle cx="329" cy="847" r="1" fill="red" />
<circle cx="523" cy="598" r="1" fill="red" />
<circle cx="751" cy="852" r="1" fill="red" />
<circle cx="186" cy="98" r="1" fill="red" />
<circle cx="896" cy="113" r="1" fill="red" />
<circle cx="988" cy="750" r="1" fill="red" />
<circle cx="459" cy="1" r="1" fill="red" />
<circle cx="566" cy="180" r="1" fill="red" />
<circle cx="159" cy="848" r="1" fill="red" />
<circle cx="514" cy="90" r="1" fill="red" />
<circle cx="306" cy="833" r="1" fill="red" />
<circle cx="728" cy="501" r="1" fill="red" />
<circle cx="911" cy="670" r="1" fill="red" />
<circle cx="48" cy="126" r="1" fill="red" />
<circle cx="693" cy="766" r="1" fill="red" />
<circle cx="305" cy="322" r="1" fill="red" />
<circle cx="64" cy="726" r="1" fill="red" />
<circle cx="67" cy="731" r="1" fill="red" />
<circle cx="800" cy="431" r="1" fill="red" />
<circle cx="886" cy="378" r="1" fill="red" />
<circle cx="989" cy="182" r="1" fill="red" />
<circle cx="164" cy="689" r="1" fill="red" />
<circle cx="141" cy="829" r="1" fill="red" />
<circle cx="23" cy="183" r="1" fill="red" />
<circle cx="470" cy="112" r="1" fill="red" />
<circle cx="684" cy="650" r="1" fill="red" />
<circle cx="239" cy="33" r="1" fill="red" />
<circle cx="383" cy="759" r="1" fill="red" />
<circle cx="554" cy="75" r="1" fill="red" />
<circle cx="403" cy="649" r="1" fill="red" />
<circle cx="776" cy="403" r="1" fill="red" />
<circle cx="438" cy="892" r="1" fill="red" />
<circle cx="528" cy="502" r="1" fill="red" />
<circle cx="346" cy="231" r="1" fill="red" />
<circle cx="757" cy="275" r="1" fill="red" />
<circle cx="945" cy="818" r="1" fill="red" />
<circle cx="792" cy="678" r="1" fill="red" />
<circle cx="555" cy="74" r="1" fill="red" />
<circle cx="573" cy="69" r="1" fill="red" />
<circle cx="996" cy="919" r="1" fill="red" />
<circle cx="10" cy="995" r="1" fill="red" />
<circle cx="846" cy="915" r="1" fill="red" />
<circle cx="392" cy="877" r="1" fill="red" />
<circle cx="472" cy="111" r="1" fill="red" />
<circle cx="87" cy="763" r="1" fill="red" />
<circle cx="852" cy="91" r="1" fill="red" />
<circle cx="312" cy="302" r="1" fill="red" />
<circle cx="103" cy="784" r="1" fill="red" />
<circle cx="302" cy="335" r="1" fill="red" />
<circle cx="958" cy="155" r="1" fill="red" />
<circle cx="820" cy="620" r="1" fill="red" />
<circle cx="703" cy="362" r="1" fill="red" />
<circle cx="142" cy="972" r="1" fill="red" />
<circle cx="131" cy="963" r="1" fill="red" />
<circle cx="668" cy="663" r="1" fill="red" />
<circle cx="901" cy="115" r="1" fill="red" />
<circle cx="505" cy="696" r="1" fill="red" />
<circle cx="418" cy="660" r="1" fill="red" />
<circle cx="325" cy="719" r="1" fill="red" />
<circle cx="944" cy="144" r="1" fill="red" />
<circle cx="7" cy="229" r="1" fill="red" />
<circle cx="286" cy="942" r="1" fill="red" />
<circle cx="956" cy="804" r="1" fill="red" />
<circle cx="453" cy="259" r="1" fill="red" />
<circle cx="31" cy="163" r="1" fill="red" />
<circle cx="462" cy="0" r="1" fill="red" />
<circle cx="74" cy="910" r="1" fill="red" />
<circle cx="888" cy="718" r="1" fill="red" />
<circle cx="433" cy="782" r="1" fill="red" />
<circle cx="426" cy="528" r="1" fill="red" />
<circle cx="785" cy="412" r="1" fill="red" />
<circle cx="478" cy="795" r="1" fill="red" />
<circle cx="27" cy="857" r="1" fill="red" />
<circle cx="499" cy="462" r="1" fill="red" />
<circle cx="767" cy="395" r="1" fill="red" />
<circle cx="66" cy="93" r="1" fill="red" />
<circle cx="599" cy="593" r="1" fill="red" />
<circle cx="759" cy="389" r="1" fill="red" />
<circle cx="57" cy="714" r="1" fill="red" />
<circle cx="873" cy="101" r="1" fill="red" />
<circle cx="11" cy="836" r="1" fill="red" />
<circle cx="261" cy="928" r="1" fill="red" />
<circle cx="327" cy="846" r="1" fill="red" />
<circle cx="727" cy="587" r="1" fill="red" />
<circle cx="432" cy="537" r="1" fill="red" />
<circle cx="255" cy="924" r="1" fill="red" />
<circle cx="690" cy="990" r="1" fill="red" />
<circle cx="79" cy="916" r="1" fill="red" />
<circle cx="465" cy="792" r="1" fill="red" />
<circle cx="656" cy="671" r="1" fill="red" />
<circle cx="169" cy="123" r="1" fill="red" />
<circle cx="903" cy="408" r="1" fill="red" />
<circle cx="380" cy="47" r="1" fill="red" />
<circle cx="91" cy="927" r="1" fill="red" />
<circle cx="317" cy="289" r="1" fill="red" />
<circle cx="450" cy="895" r="1" fill="red" />
<circle cx="29" cy="657" r="1" fill="red" />
<circle cx="841" cy="326" r="1" fill="red" />
<circle cx="377" cy="982" r="1" fill="red" />
<circle cx="959" cy="304" r="1" fill="red" />
<circle cx="55" cy="711" r="1" fill="red" />
<circle cx="165" cy="691" r="1" fill="red" />
<circle cx="897" cy="701" r="1" fill="red" />
<circle cx="511" cy="350" r="1" fill="red" />
<circle cx="794" cy="423" r="1" fill="red" />
<circle cx="68" cy="734" r="1" fill="red" />
<circle cx="571" cy="801" r="1" fill="red" />
<circle cx="477" cy="579" r="1" fill="red" />
<circle cx="716" cy="610" r="1" fill="red" />
<circle cx="801" cy="433" r="1" fill="red" />
<circle cx="271" cy="661" r="1" fill="red" />
<circle cx="784" cy="176" r="1" fill="red" />
<circle cx="879" cy="888" r="1" fill="red" />
<circle cx="416" cy="317" r="1" fill="red" />
<circle cx="332" cy="87" r="1" fill="red" />
<circle cx="124" cy="210" r="1" fill="red" />
<circle cx="506" cy="476" r="1" fill="red" />
<circle cx="178" cy="998" r="1" fill="red" />
<circle cx="574" cy="177" r="1" fill="red" />
<circle cx="550" cy="305" r="1" fill="red" />
<circle cx="183" cy="871" r="1" fill="red" />
<circle cx="446" cy="786" r="1" fill="red" />
<circle cx="568" cy="292" r="1" fill="red" />
<circle cx="109" cy="25" r="1" fill="red" />
<circle cx="743" cy="270" r="1" fill="red" />
<circle cx="793" cy="422" r="1" fill="red" />
<circle cx="122" cy="956" r="1" fill="red" />
<circle cx="441" cy="548" r="1" fill="red" />
<circle cx="774" cy="401" r="1" fill="red" />
<circle cx="212" cy="272" r="1" fill="red" />
<circle cx="105" cy="941" r="1" fill="red" />
<circle cx="937" cy="139" r="1" fill="red" />
<circle cx="991" cy="745" r="1" fill="red" />
<circle cx="900" cy="869" r="1" fill="red" />
<circle cx="985" cy="931" r="1" fill="red" />
<circle cx="163" cy="133" r="1" fill="red" />
<circle cx="983" cy="339" r="1" fill="red" />
<circle cx="842" cy="201" r="1" fill="red" />
<circle cx="677" cy="885" r="1" fill="red" />
<circle cx="18" cy="845" r="1" fill="red" />
<circle cx="954" cy="806" r="1" fill="red" />
<circle cx="711" cy="756" r="1" fill="red" />
<circle cx="679" cy="447" r="1" fill="red" />
<circle cx="500" cy="96" r="1" fill="red" />
<circle cx="861" cy="758" r="1" fill="red" />
<circle cx="975" cy="774" r="1" fill="red" />
<circle cx="6" cy="232" r="1" fill="red" />
<circle cx="779" cy="835" r="1" fill="red" />
<circle cx="382" cy="983" r="1" fill="red" />
<circle cx="600" cy="478" r="1" fill="red" />
<circle cx="114" cy="949" r="1" fill="red" />
<circle cx="969" cy="35" r="1" fill="red" />
<circle cx="783" cy="831" r="1" fill="red" />
<circle cx="894" cy="708" r="1" fill="red" />
<circle cx="537" cy="509" r="1" fill="red" />
<circle cx="209" cy="68" r="1" fill="red" />
<circle cx="252" cy="634" r="1" fill="red" />
<circle cx="70" cy="736" r="1" fill="red" />
<circle cx="519" cy="338" r="1" fill="red" />
<circle cx="636" cy="790" r="1" fill="red" />
<circle cx="877" cy="890" r="1" fill="red" />
<circle cx="173" cy="118" r="1" fill="red" />
<circle cx="60" cy="896" r="1" fill="red" />
<circle cx="86" cy="367" r="1" fill="red" />
<circle cx="210" cy="893" r="1" fill="red" />
<circle cx="923" cy="9" r="1" fill="red" />
<circle cx="543" cy="311" r="1" fill="red" />
<circle cx="889" cy="109" r="1" fill="red" />
<circle cx="104" cy="271" r="1" fill="red" />
<circle cx="322" cy="550" r="1" fill="red" />
<circle cx="13" cy="838" r="1" fill="red" />
<circle cx="283" cy="142" r="1" fill="red" />
<circle cx="564" cy="294" r="1" fill="red" />
<circle cx="777" cy="283" r="1" fill="red" />
<circle cx="94" cy="772" r="1" fill="red" />
<circle cx="256" cy="925" r="1" fill="red" />
<circle cx="503" cy="214" r="1" fill="red" />
<circle cx="328" cy="561" r="1" fill="red" />
<circle cx="154" cy="149" r="1" fill="red" />
<circle cx="892" cy="234" r="1" fill="red" />
<circle cx="744" cy="165" r="1" fill="red" />
<circle cx="291" cy="131" r="1" fill="red" />
<circle cx="756" cy="966" r="1" fill="red" />
<circle cx="121" cy="807" r="1" fill="red" />
<circle cx="737" cy="737" r="1" fill="red" />
<circle cx="982" cy="43" r="1" fill="red" />
<circle cx="963" cy="31" r="1" fill="red" />
<circle cx="979" cy="937" r="1" fill="red" />
<circle cx="240" cy="32" r="1" fill="red" />
<circle cx="770" cy="397" r="1" fill="red" />
<circle cx="476" cy="794" r="1" fill="red" />
<circle cx="420" cy="308" r="1" fill="red" />
<circle cx="456" cy="256" r="1" fill="red" />
<circle cx="14" cy="839" r="1" fill="red" />
<circle cx="547" cy="77" r="1" fill="red" />
<circle cx="69" cy="735" r="1" fill="red" />
<circle cx="196" cy="84" r="1" fill="red" />
<circle cx="912" cy="251" r="1" fill="red" />
<circle cx="230" cy="907" r="1" fill="red" />
<circle cx="942" cy="19" r="1" fill="red" />
<circle cx="388" cy="875" r="1" fill="red" />
<circle cx="920" cy="8" r="1" fill="red" />
<circle cx="704" cy="628" r="1" fill="red" />
<circle cx="845" cy="329" r="1" fill="red" />
<circle cx="152" cy="842" r="1" fill="red" />
<circle cx="461" cy="683" r="1" fill="red" />
<circle cx="862" cy="95" r="1" fill="red" />
<circle cx="918" cy="7" r="1" fill="red" />
<circle cx="138" cy="645" r="1" fill="red" />
<circle cx="174" cy="996" r="1" fill="red" />
<circle cx="972" cy="779" r="1" fill="red" />
<circle cx="904" cy="244" r="1" fill="red" />
<circle cx="526" cy="199" r="1" fill="red" />
<circle cx="999" cy="368" r="1" fill="red" />
<circle cx="125" cy="958" r="1" fill="red" />
<circle cx="369" cy="979" r="1" fill="red" />
<circle cx="270" cy="3" r="1" fill="red" />
<circle cx="790" cy="70" r="1" fill="red" />
<circle cx="224" cy="50" r="1" fill="red" />
<circle cx="839" cy="86" r="1" fill="red" />
<circle cx="993" cy="740" r="1" fill="red" />
<circle cx="219" cy="760" r="1" fill="red" />
<circle cx="16" cy="624" r="1" fill="red" />
<circle cx="319" cy="542" r="1" fill="red" />
<circle cx="199" cy="318" r="1" fill="red" />
<circle cx="89" cy="926" r="1" fill="red" />
<circle cx="375" cy="754" r="1" fill="red" />
<circle cx="884" cy="228" r="1" fill="red" />
<circle cx="746" cy="166" r="1" fill="red" />
<circle cx="938" cy="827" r="1" fill="red" />
<circle cx="687" cy="991" r="1" fill="red" />
<circle cx="710" cy="621" r="1" fill="red" />
<circle cx="439" cy="545" r="1" fill="red" />
<circle cx="371" cy="980" r="1" fill="red" />
<circle cx="977" cy="330" r="1" fill="red" />
<circle cx="565" cy="71" r="1" fill="red" />
<circle cx="143" cy="170" r="1" fill="red" />
<circle cx="634" cy="265" r="1" fill="red" />
<circle cx="72" cy="909" r="1" fill="red" />
<circle cx="289" cy="944" r="1" fill="red" />
<circle cx="855" cy="92" r="1" fill="red" />
<circle cx="158" cy="984" r="1" fill="red" />
<circle cx="280" cy="815" r="1" fill="red" />
<circle cx="815" cy="935" r="1" fill="red" />
<circle cx="881" cy="728" r="1" fill="red" />
<circle cx="36" cy="152" r="1" fill="red" />
<circle cx="986" cy="930" r="1" fill="red" />
<circle cx="513" cy="347" r="1" fill="red" />
<circle cx="95" cy="522" r="1" fill="red" />
<circle cx="172" cy="702" r="1" fill="red" />
<circle cx="2" cy="247" r="1" fill="red" />
<circle cx="936" cy="16" r="1" fill="red" />
<circle cx="262" cy="172" r="1" fill="red" />
<circle cx="437" cy="12" r="1" fill="red" />
<circle cx="278" cy="148" r="1" fill="red" />
<circle cx="78" cy="749" r="1" fill="red" />
<circle cx="12" cy="997" r="1" fill="red" />
<circle cx="47" cy="128" r="1" fill="red" />
<circle cx="115" cy="235" r="1" fill="red" />
<circle cx="939" cy="279" r="1" fill="red" />
<circle cx="778" cy="404" r="1" fill="red" />
<circle cx="685" cy="882" r="1" fill="red" />
<circle cx="960" cy="955" r="1" fill="red" />
<circle cx="440" cy="673" r="1" fill="red" />
<circle cx="755" cy="721" r="1" fill="red" />
<circle cx="112" cy="22" r="1" fill="red" />
<circle cx="866" cy="216" r="1" fill="red" />
<circle cx="150" cy="978" r="1" fill="red" />
<circle cx="533" cy="195" r="1" fill="red" />
<circle cx="987" cy="346" r="1" fill="red" />
<circle cx="288" cy="943" r="1" fill="red" />
<circle cx="562" cy="296" r="1" fill="red" />
<circle cx="691" cy="768" r="1" fill="red" />
<circle cx="682" cy="652" r="1" fill="red" />
<circle cx="967" cy="34" r="1" fill="red" />
<circle cx="171" cy="994" r="1" fill="red" />
<circle cx="203" cy="742" r="1" fill="red" />
<circle cx="595" cy="64" r="1" fill="red" />
<circle cx="474" cy="110" r="1" fill="red" />
<circle cx="218" cy="257" r="1" fill="red" />
<circle cx="381" cy="873" r="1" fill="red" />
<circle cx="249" cy="920" r="1" fill="red" />
<circle cx="148" cy="837" r="1" fill="red" />
<circle cx="35" cy="867" r="1" fill="red" />
<circle cx="235" cy="38" r="1" fill="red" />
<circle cx="542" cy="312" r="1" fill="red" />
<circle cx="34" cy="156" r="1" fill="red" />
<circle cx="914" cy="432" r="1" fill="red" />
<circle cx="180" cy="868" r="1" fill="red" />
<circle cx="491" cy="797" r="1" fill="red" />
<circle cx="448" cy="894" r="1" fill="red" />
<circle cx="139" cy="828" r="1" fill="red" />
<circle cx="185" cy="872" r="1" fill="red" />
<circle cx="457" cy="564" r="1" fill="red" />
<circle cx="343" cy="78" r="1" fill="red" />
<circle cx="177" cy="709" r="1" fill="red" />
<circle cx="781" cy="954" r="1" fill="red" />
<circle cx="258" cy="14" r="1" fill="red" />
<circle cx="237" cy="215" r="1" fill="red" />
<circle cx="300" cy="488" r="1" fill="red" />
<circle cx="149" cy="157" r="1" fill="red" />
<circle cx="75" cy="912" r="1" fill="red" />
<circle cx="279" cy="147" r="1" fill="red" />
<circle cx="804" cy="437" r="1" fill="red" />
<circle cx="387" cy="761" r="1" fill="red" />
<circle cx="824" cy="609" r="1" fill="red" />
<circle cx="228" cy="233" r="1" fill="red" />
<circle cx="132" cy="820" r="1" fill="red" />
<circle cx="976" cy="39" r="1" fill="red" />
<circle cx="8" cy="992" r="1" fill="red" />
<circle cx="33" cy="158" r="1" fill="red" />
<circle cx="362" cy="864" r="1" fill="red" />
<circle cx="760" cy="716" r="1" fill="red" />
<circle cx="968" cy="948" r="1" fill="red" />
<circle cx="58" cy="715" r="1" fill="red" />
<circle cx="512" cy="207" r="1" fill="red" />
<circle cx="63" cy="97" r="1" fill="red" />
<circle cx="957" cy="153" r="1" fill="red" />
<circle cx="908" cy="417" r="1" fill="red" />
<circle cx="254" cy="18" r="1" fill="red" />
<circle cx="452" cy="260" r="1" fill="red" />
<circle cx="45" cy="132" r="1" fill="red" />
<circle cx="320" cy="546" r="1" fill="red" />
<circle cx="887" cy="881" r="1" fill="red" />
<circle cx="168" cy="125" r="1" fill="red" />
<circle cx="808" cy="939" r="1" fill="red" />
<circle cx="110" cy="575" r="1" fill="red" />
<circle cx="876" cy="102" r="1" fill="red" />
<circle cx="102" cy="36" r="1" fill="red" />
<circle cx="941" cy="824" r="1" fill="red" />
<circle cx="147" cy="976" r="1" fill="red" />
<circle cx="71" cy="83" r="1" fill="red" />
<circle cx="814" cy="936" r="1" fill="red" />
<circle cx="156" cy="145" r="1" fill="red" />
</svg>