<?xml version="1.0" encoding="UTF-8"?>
<svg xmlns="http://www.w3.org/2000/svg" xmlns:xlink="http://www.w3.org/1999/xlink"
     width="1000" height="480.9338521400778" viewBox="-1277 -615 1285 618">
<defs>
</defs>
<circle cx="0" cy="0" r="10" fill="blue" />
<circle cx="-990" cy="-572" r="10" fill="red" />
<circle cx="-805" cy="-459" r="10" fill="red" />
<circle cx="-24" cy="-43" r="10" fill="red" />
<circle cx="-74" cy="-79" r="10" fill="red" />
<circle cx="-9" cy="-38" r="10" fill="red" />
<circle cx="-56" cy="-70" r="10" fill="red" />
<circle cx="-592" cy="-369" r="10" fill="red" />
<circle cx="-227" cy="-171" r="10" fill="red" />
<circle cx="-631" cy="-388" r="10" fill="red" />
<circle cx="-1258" cy="-522" r="10" fill="red" />
<circle cx="-335" cy="-243" r="10" fill="red" />
<circle cx="-9" cy="-33" r="10" fill="red" />
<circle cx="-921" cy="-514" r="10" fill="red" />
<circle cx="-684" cy="-405" r="10" fill="red" />
<circle cx="-262" cy="-190" r="10" fill="red" />
<circle cx="-373" cy="-265" r="10" fill="red" />
<circle cx="-570" cy="-361" r="10" fill="red" />
<circle cx="-8" cy="-27" r="10" fill="red" />
<circle cx="-469" cy="-317" r="10" fill="red" />
<circle cx="-661" cy="-403" r="10" fill="red" />
<circle cx="-1107" cy="-600" r="10" fill="red" />
<circle cx="-169" cy="-146" r="10" fill="red" />
<circle cx="-1242" cy="-531" r="10" fill="red" />
<circle cx="1" cy="-2" r="10" fill="red" />
<circle cx="-1096" cy="-604" r="10" fill="red" />
<circle cx="-1055" cy="-607" r="10" fill="red" />
<circle cx="-1272" cy="-526" r="10" fill="red" />
<circle cx="-705" cy="-420" r="10" fill="red" />
<circle cx="-1030" cy="-605" r="10" fill="red" />
<circle cx="-86" cy="-91" r="10" fill="red" />
<circle cx="-1228" cy="-536" r="10" fill="red" />
<circle cx="-189" cy="-153" r="10" fill="red" />
<circle cx="-905" cy="-501" r="10" fill="red" />
<circle cx="-1189" cy="-535" r="10" fill="red" />
<circle cx="-938" cy="-528" r="10" fill="red" />
<circle cx="-95" cy="-97" r="10" fill="red" />
<circle cx="-13" cy="-43" r="10" fill="red" />
<circle cx="-1119" cy="-562" r="10" fill="red" />
<circle cx="-1060" cy="-606" r="10" fill="red" />
<circle cx="-31" cy="-50" r="10" fill="red" />
<circle cx="-1128" cy="-560" r="10" fill="red" />
<circle cx="-521" cy="-340" r="10" fill="red" />
<circle cx="-1069" cy="-610" r="10" fill="red" />
<circle cx="-975" cy="-562" r="10" fill="red" />
<circle cx="-3" cy="-22" r="10" fill="red" />
<circle cx="-38" cy="-56" r="10" fill="red" />
<circle cx="-139" cy="-130" r="10" fill="red" />
<circle cx="-1000" cy="-579" r="10" fill="red" />
<circle cx="-546" cy="-350" r="10" fill="red" />
<circle cx="-1117" cy="-568" r="10" fill="red" />
<circle cx="3" cy="-16" r="10" fill="red" />
<circle cx="-1090" cy="-604" r="10" fill="red" />
<circle cx="-210" cy="-167" r="10" fill="red" />
<circle cx="-963" cy="-549" r="10" fill="red" />
<circle cx="-1078" cy="-603" r="10" fill="red" />
<circle cx="-353" cy="-257" r="10" fill="red" />
<circle cx="-394" cy="-277" r="10" fill="red" />
<circle cx="-870" cy="-482" r="10" fill="red" />
<circle cx="-1109" cy="-580" r="10" fill="red" />
<circle cx="-1106" cy="-603" r="10" fill="red" />
<circle cx="-890" cy="-495" r="10" fill="red" />
<circle cx="-9" cy="-22" r="10" fill="red" />
<circle cx="-156" cy="-139" r="10" fill="red" />
<circle cx="-421" cy="-293" r="10" fill="red" />
<circle cx="-246" cy="-179" r="10" fill="red" />
<circle cx="-780" cy="-452" r="10" fill="red" />
<circle cx="-1048" cy="-609" r="10" fill="red" />
<circle cx="-1101" cy="-600" r="10" fill="red" />
<circle cx="-1212" cy="-537" r="10" fill="red" />
<circle cx="-1112" cy="-574" r="10" fill="red" />
<circle cx="-281" cy="-204" r="10" fill="red" />
<circle cx="-727" cy="-429" r="10" fill="red" />
<circle cx="-127" cy="-122" r="10" fill="red" />
<circle cx="2" cy="-8" r="10" fill="red" />
<circle cx="-1106" cy="-587" r="10" fill="red" />
<circle cx="-1201" cy="-535" r="10" fill="red" />
<circle cx="-316" cy="-229" r="10" fill="red" />
<circle cx="-1095" cy="-602" r="10" fill="red" />
<circle cx="-948" cy="-542" r="10" fill="red" />
<circle cx="-1018" cy="-598" r="10" fill="red" />
<circle cx="-615" cy="-377" r="10" fill="red" />
<circle cx="-1157" cy="-548" r="10" fill="red" />
<circle cx="-1038" cy="-606" r="10" fill="red" />
<circle cx="-442" cy="-300" r="10" fill="red" />
<circle cx="-497" cy="-328" r="10" fill="red" />
<circle cx="-1114" cy="-598" r="10" fill="red" />
<circle cx="-854" cy="-478" r="10" fill="red" />
<circle cx="-50" cy="-60" r="10" fill="red" />
<circle cx="-298" cy="-219" r="10" fill="red" />
<circle cx="-67" cy="-73" r="10" fill="red" />
<circle cx="-1171" cy="-544" r="10" fill="red" />
<circle cx="-41" cy="-60" r="10" fill="red" />
<circle cx="-755" cy="-440" r="10" fill="red" />
<circle cx="-1134" cy="-560" r="10" fill="red" />
<circle cx="-1113" cy="-596" r="10" fill="red" />
<circle cx="-1014" cy="-590" r="10" fill="red" />
<circle cx="-109" cy="-112" r="10" fill="red" />
<circle cx="-831" cy="-470" r="10" fill="red" />
<circle cx="-1145" cy="-551" r="10" fill="red" />
<circle cx="-1084" cy="-603" r="10" fill="red" />
</svg>