<?xml version="1.0" encoding="UTF-8"?>
<svg xmlns="http://www.w3.org/2000/svg" xmlns:xlink="http://www.w3.org/1999/xlink"
     width="1000" height="899.5215311004785" viewBox="-204 -184 209 188">
<defs>
</defs>
<path d="M0,0 L0,-1" stroke="green" stroke-width="0.5" fill="none" />
<path d="M0,-1 L0,-3" stroke="green" stroke-width="0.5" fill="none" />
<path d="M0,-3 L-1,-5" stroke="green" stroke-width="0.5" fill="none" />
<path d="M-1,-5 L-1,-7" stroke="green" stroke-width="0.5" fill="none" />
<path d="M-1,-7 L-2,-10" stroke="green" stroke-width="0.5" fill="none" />
<path d="M-2,-10 L-2,-13" stroke="green" stroke-width="0.5" fill="none" />
<path d="M-2,-13 L-3,-17" stroke="green" stroke-width="0.5" fill="none" />
<path d="M-3,-17 L-3,-21" stroke="green" stroke-width="0.5" fill="none" />
<path d="M-3,-21 L-4,-25" stroke="green" stroke-width="0.5" fill="none" />
<path d="M-4,-25 L-6,-29" stroke="green" stroke-width="0.5" fill="none" />
<path d="M-6,-29 L-7,-34" stroke="green" stroke-width="0.5" fill="none" />
<path d="M-7,-34 L-7,-38" stroke="green" stroke-width="0.5" fill="none" />
<path d="M-7,-38 L-8,-43" stroke="green" stroke-width="0.5" fill="none" />
<path d="M-8,-43 L-10,-49" stroke="green" stroke-width="0.5" fill="none" />
<path d="M-10,-49 L-13,-54" stroke="green" stroke-width="0.5" fill="none" />
<path d="M-13,-54 L-15,-60" stroke="green" stroke-width="0.5" fill="none" />
<path d="M-15,-60 L-16,-67" stroke="green" stroke-width="0.5" fill="none" />
<path d="M-16,-67 L-18,-73" stroke="green" stroke-width="0.5" fill="none" />
<path d="M-18,-73 L-21,-78" stroke="green" stroke-width="0.5" fill="none" />
<path d="M-21,-78 L-23,-82" stroke="green" stroke-width="0.5" fill="none" />
<path d="M-23,-82 L-26,-86" stroke="green" stroke-width="0.5" fill="none" />
<path d="M-26,-86 L-30,-89" stroke="green" stroke-width="0.5" fill="none" />
<path d="M-30,-89 L-35,-92" stroke="green" stroke-width="0.5" fill="none" />
<path d="M-35,-92 L-39,-96" stroke="green" stroke-width="0.5" fill="none" />
<path d="M-39,-96 L-42,-99" stroke="green" stroke-width="0.5" fill="none" />
<path d="M-42,-99 L-45,-102" stroke="green" stroke-width="0.5" fill="none" />
<path d="M-45,-102 L-48,-106" stroke="green" stroke-width="0.5" fill="none" />
<path d="M-48,-106 L-52,-109" stroke="green" stroke-width="0.5" fill="none" />
<path d="M-52,-109 L-56,-112" stroke="green" stroke-width="0.5" fill="none" />
<path d="M-56,-112 L-60,-116" stroke="green" stroke-width="0.5" fill="none" />
<path d="M-60,-116 L-64,-119" stroke="green" stroke-width="0.5" fill="none" />
<path d="M-64,-119 L-68,-122" stroke="green" stroke-width="0.5" fill="none" />
<path d="M-68,-122 L-71,-124" stroke="green" stroke-width="0.5" fill="none" />
<path d="M-71,-124 L-73,-127" stroke="green" stroke-width="0.5" fill="none" />
<path d="M-73,-127 L-75,-130" stroke="green" stroke-width="0.5" fill="none" />
<path d="M-75,-130 L-76,-134" stroke="green" stroke-width="0.5" fill="none" />
<path d="M-76,-134 L-78,-138" stroke="green" stroke-width="0.5" fill="none" />
<path d="M-78,-138 L-81,-141" stroke="green" stroke-width="0.5" fill="none" />
<path d="M-81,-141 L-85,-143" stroke="green" stroke-width="0.5" fill="none" />
<path d="M-85,-143 L-90,-144" stroke="green" stroke-width="0.5" fill="none" />
<path d="M-90,-144 L-94,-144" stroke="green" stroke-width="0.5" fill="none" />
<path d="M-94,-144 L-98,-145" stroke="green" stroke-width="0.5" fill="none" />
<path d="M-98,-145 L-102,-145" stroke="green" stroke-width="0.5" fill="none" />
<path d="M-102,-145 L-106,-146" stroke="green" stroke-width="0.5" fill="none" />
<path d="M-106,-146 L-111,-148" stroke="green" stroke-width="0.5" fill="none" />
<path d="M-111,-148 L-115,-151" stroke="green" stroke-width="0.5" fill="none" />
<path d="M-115,-151 L-120,-155" stroke="green" stroke-width="0.5" fill="none" />
<path d="M-120,-155 L-124,-159" stroke="green" stroke-width="0.5" fill="none" />
<path d="M-124,-159 L-128,-162" stroke="green" stroke-width="0.5" fill="none" />
<path d="M-128,-162 L-133,-165" stroke="green" stroke-width="0.5" fill="none" />
<path d="M-133,-165 L-137,-167" stroke="green" stroke-width="0.5" fill="none" />
<path d="M-137,-167 L-141,-168" stroke="green" stroke-width="0.5" fill="none" />
<path d="M-141,-168 L-144,-168" stroke="green" stroke-width="0.5" fill="none" />
<path d="M-144,-168 L-146,-168" stroke="green" stroke-width="0.5" fill="none" />
<path d="M-146,-168 L-149,-168" stroke="green" stroke-width="0.5" fill="none" />
<path d="M-149,-168 L-151,-167" stroke="green" stroke-width="0.5" fill="none" />
<path d="M-151,-167 L-154,-166" stroke="green" stroke-width="0.5" fill="none" />
<path d="M-154,-166 L-156,-166" stroke="green" stroke-width="0.5" fill="none" />
<path d="M-156,-166 L-158,-167" stroke="green" stroke-width="0.5" fill="none" />
<path d="M-158,-167 L-160,-168" stroke="green" stroke-width="0.5" fill="none" />
<path d="M-160,-168 L-163,-170" stroke="green" stroke-width="0.5" fill="none" />
<path d="M-163,-170 L-165,-173" stroke="green" stroke-width="0.5" fill="none" />
<path d="M-165,-173 L-167,-172" stroke="green" stroke-width="0.5" fill="none" />
<path d="M-167,-172 L-170,-172" stroke="green" stroke-width="0.5" fill="none" />
<path d="M-170,-172 L-172,-172" stroke="green" stroke-width="0.5" fill="none" />
<path d="M-172,-172 L-173,-173" stroke="green" stroke-width="0.5" fill="none" />
<path d="M-173,-173 L-174,-174" stroke="green" stroke-width="0.5" fill="none" />
<path d="M-174,-174 L-175,-173" stroke="green" stroke-width="0.5" fill="none" />
<path d="M-175,-173 L-175,-172" stroke="green" stroke-width="0.5" fill="none" />
<path d="M-175,-172 L-176,-170" stroke="green" stroke-width="0.5" fill="none" />
<path d="M-176,-170 L-178,-169" stroke="green" stroke-width="0.5" fill="none" />
<path d="M-178,-169 L-179,-168" stroke="green" stroke-width="0.5" fill="none" />
<path d="M-179,-168 L-181,-167" stroke="green" stroke-width="0.5" fill="none" />
<path d="M-181,-167 L-184,-167" stroke="green" stroke-width="0.5" fill="none" />
<path d="M-184,-167 L-186,-168" stroke="green" stroke-width="0.5" fill="none" />
<path d="M-186,-168 L-188,-169" stroke="green" stroke-width="0.5" fill="none" />
<path d="M-188,-169 L-191,-169" stroke="green" stroke-width="0.5" fill="none" />
<path d="M-191,-169 L-193,-169" stroke="green" stroke-width="0.5" fill="none" />
<path d="M-193,-169 L-195,-168" stroke="green" stroke-width="0.5" fill="none" />
<path d="M-195,-168 L-197,-168" stroke="green" stroke-width="0.5" fill="none" />
<path d="M-197,-168 L-198,-168" stroke="green" stroke-width="0.5" fill="none" />
<path d="M-198,-168 L-199,-169" stroke="green" stroke-width="0.5" fill="none" />
<path d="M-199,-169 L-199,-171" stroke="green" stroke-width="0.5" fill="none" />
<path d="M-199,-171 L-198,-173" stroke="green" stroke-width="0.5" fill="none" />
<path d="M-198,-173 L-197,-174" stroke="green" stroke-width="0.5" fill="none" />
<path d="M-197,-174 L-195,-174" stroke="green" stroke-width="0.5" fill="none" />
<path d="M-195,-174 L-194,-175" stroke="green" stroke-width="0.5" fill="none" />
<path d="M-194,-175 L-193,-176" stroke="green" stroke-width="0.5" fill="none" />
<path d="M-193,-176 L-192,-176" stroke="green" stroke-width="0.5" fill="none" />
<path d="M-192,-176 L-190,-177" stroke="green" stroke-width="0.5" fill="none" />
<path d="M-190,-177 L-188,-178" stroke="green" stroke-width="0.5" fill="none" />
<path d="M-188,-178 L-185,-179" stroke="green" stroke-width="0.5" fill="none" />
<path d="M-185,-179 L-181,-179" stroke="green" stroke-width="0.5" fill="none" />
<path d="M-181,-179 L-177,-178" stroke="green" stroke-width="0.5" fill="none" />
<path d="M-177,-178 L-173,-174" stroke="green" stroke-width="0.5" fill="none" />
<path d="M-173,-174 L-172,-177" stroke="green" stroke-width="0.5" fill="none" />
<path d="M-172,-177 L-168,-175" stroke="green" stroke-width="0.5" fill="none" />
<path d="M-168,-175 L-193,-175" stroke="green" stroke-width="0.5" fill="none" />
<path d="M-193,-175 L-194,-174" stroke="green" stroke-width="0.5" fill="none" />
<circle cx="0" cy="0" r="1" fill="blue" />
<circle cx="0" cy="-1" r="1" fill="red" />
<circle cx="0" cy="-3" r="1" fill="red" />
<circle cx="-1" cy="-5" r="1" fill="red" />
<circle cx="-1" cy="-7" r="1" fill="red" />
<circle cx="-2" cy="-10" r="1" fill="red" />
<circle cx="-2" cy="-13" r="1" fill="red" />
<circle cx="-3" cy="-17" r="1" fill="red" />
<circle cx="-3" cy="-21" r="1" fill="red" />
<circle cx="-4" cy="-25" r="1" fill="red" />
<circle cx="-6" cy="-29" r="1" fill="red" />
<circle cx="-7" cy="-34" r="1" fill="red" />
<circle cx="-7" cy="-38" r="1" fill="red" />
<circle cx="-8" cy="-43" r="1" fill="red" />
<circle cx="-10" cy="-49" r="1" fill="red" />
<circle cx="-13" cy="-54" r="1" fill="red" />
<circle cx="-15" cy="-60" r="1" fill="red" />
<circle cx="-16" cy="-67" r="1" fill="red" />
<circle cx="-18" cy="-73" r="1" fill="red" />
<circle cx="-21" cy="-78" r="1" fill="red" />
<circle cx="-23" cy="-82" r="1" fill="red" />
<circle cx="-26" cy="-86" r="1" fill="red" />
<circle cx="-30" cy="-89" r="1" fill="red" />
<circle cx="-35" cy="-92" r="1" fill="red" />
<circle cx="-39" cy="-96" r="1" fill="red" />
<circle cx="-42" cy="-99" r="1" fill="red" />
<circle cx="-45" cy="-102" r="1" fill="red" />
<circle cx="-48" cy="-106" r="1" fill="red" />
<circle cx="-52" cy="-109" r="1" fill="red" />
<circle cx="-56" cy="-112" r="1" fill="red" />
<circle cx="-60" cy="-116" r="1" fill="red" />
<circle cx="-64" cy="-119" r="1" fill="red" />
<circle cx="-68" cy="-122" r="1" fill="red" />
<circle cx="-71" cy="-124" r="1" fill="red" />
<circle cx="-73" cy="-127" r="1" fill="red" />
<circle cx="-75" cy="-130" r="1" fill="red" />
<circle cx="-76" cy="-134" r="1" fill="red" />
<circle cx="-78" cy="-138" r="1" fill="red" />
<circle cx="-81" cy="-141" r="1" fill="red" />
<circle cx="-85" cy="-143" r="1" fill="red" />
<circle cx="-90" cy="-144" r="1" fill="red" />
<circle cx="-94" cy="-144" r="1" fill="red" />
<circle cx="-98" cy="-145" r="1" fill="red" />
<circle cx="-102" cy="-145" r="1" fill="red" />
<circle cx="-106" cy="-146" r="1" fill="red" />
<circle cx="-111" cy="-148" r="1" fill="red" />
<circle cx="-115" cy="-151" r="1" fill="red" />
<circle cx="-120" cy="-155" r="1" fill="red" />
<circle cx="-124" cy="-159" r="1" fill="red" />
<circle cx="-128" cy="-162" r="1" fill="red" />
<circle cx="-133" cy="-165" r="1" fill="red" />
<circle cx="-137" cy="-167" r="1" fill="red" />
<circle cx="-141" cy="-168" r="1" fill="red" />
<circle cx="-144" cy="-168" r="1" fill="red" />
<circle cx="-146" cy="-168" r="1" fill="red" />
<circle cx="-149" cy="-168" r="1" fill="red" />
<circle cx="-151" cy="-167" r="1" fill="red" />
<circle cx="-154" cy="-166" r="1" fill="red" />
<circle cx="-156" cy="-166" r="1" fill="red" />
<circle cx="-158" cy="-167" r="1" fill="red" />
<circle cx="-160" cy="-168" r="1" fill="red" />
<circle cx="-163" cy="-170" r="1" fill="red" />
<circle cx="-165" cy="-173" r="1" fill="red" />
<circle cx="-167" cy="-172" r="1" fill="red" />
<circle cx="-170" cy="-172" r="1" fill="red" />
<circle cx="-172" cy="-172" r="1" fill="red" />
<circle cx="-173" cy="-173" r="1" fill="red" />
<circle cx="-174" cy="-174" r="1" fill="red" />
<circle cx="-175" cy="-173" r="1" fill="red" />
<circle cx="-175" cy="-172" r="1" fill="red" />
<circle cx="-176" cy="-170" r="1" fill="red" />
<circle cx="-178" cy="-169" r="1" fill="red" />
<circle cx="-179" cy="-168" r="1" fill="red" />
<circle cx="-181" cy="-167" r="1" fill="red" />
<circle cx="-184" cy="-167" r="1" fill="red" />
<circle cx="-186" cy="-168" r="1" fill="red" />
<circle cx="-188" cy="-169" r="1" fill="red" />
<circle cx="-191" cy="-169" r="1" fill="red" />
<circle cx="-193" cy="-169" r="1" fill="red" />
<circle cx="-195" cy="-168" r="1" fill="red" />
<circle cx="-197" cy="-168" r="1" fill="red" />
<circle cx="-198" cy="-168" r="1" fill="red" />
<circle cx="-199" cy="-169" r="1" fill="red" />
<circle cx="-199" cy="-171" r="1" fill="red" />
<circle cx="-198" cy="-173" r="1" fill="red" />
<circle cx="-197" cy="-174" r="1" fill="red" />
<circle cx="-195" cy="-174" r="1" fill="red" />
<circle cx="-194" cy="-175" r="1" fill="red" />
<circle cx="-193" cy="-176" r="1" fill="red" />
<circle cx="-192" cy="-176" r="1" fill="red" />
<circle cx="-190" cy="-177" r="1" fill="red" />
<circle cx="-188" cy="-178" r="1" fill="red" />
<circle cx="-185" cy="-179" r="1" fill="red" />
<circle cx="-181" cy="-179" r="1" fill="red" />
<circle cx="-177" cy="-178" r="1" fill="red" />
<circle cx="-173" cy="-174" r="1" fill="red" />
<circle cx="-172" cy="-177" r="1" fill="red" />
<circle cx="-168" cy="-175" r="1" fill="red" />
<circle cx="-193" cy="-175" r="1" fill="red" />
<circle cx="-194" cy="-174" r="1" fill="red" />
</svg>