<?xml version="1.0" encoding="UTF-8"?>
<svg xmlns="http://www.w3.org/2000/svg" xmlns:xlink="http://www.w3.org/1999/xlink"
     width="1000" height="1625.0" viewBox="-6 -5 16 26">
<defs>
</defs>
<path d="M0,0 L-1,0" stroke="green" stroke-width="0.25" fill="none" />
<path d="M-1,0 L-1,1" stroke="green" stroke-width="0.25" fill="none" />
<path d="M-1,1 L-1,3" stroke="green" stroke-width="0.25" fill="none" />
<path d="M-1,3 L0,5" stroke="green" stroke-width="0.25" fill="none" />
<path d="M0,5 L1,8" stroke="green" stroke-width="0.25" fill="none" />
<path d="M1,8 L2,11" stroke="green" stroke-width="0.25" fill="none" />
<path d="M2,11 L3,13" stroke="green" stroke-width="0.25" fill="none" />
<path d="M3,13 L3,14" stroke="green" stroke-width="0.25" fill="none" />
<path d="M3,14 L4,15" stroke="green" stroke-width="0.25" fill="none" />
<path d="M4,15 L5,16" stroke="green" stroke-width="0.25" fill="none" />
<circle cx="0" cy="0" r="0.5" fill="blue" />
<circle cx="-1" cy="0" r="0.5" fill="red" />
<circle cx="-1" cy="1" r="0.5" fill="red" />
<circle cx="-1" cy="3" r="0.5" fill="red" />
<circle cx="0" cy="5" r="0.5" fill="red" />
<circle cx="1" cy="8" r="0.5" fill="red" />
<circle cx="2" cy="11" r="0.5" fill="red" />
<circle cx="3" cy="13" r="0.5" fill="red" />
<circle cx="3" cy="14" r="0.5" fill="red" />
<circle cx="4" cy="15" r="0.5" fill="red" />
<circle cx="5" cy="16" r="0.5" fill="red" />
</svg>