<?xml version="1.0" encoding="UTF-8"?>
<svg xmlns="http://www.w3.org/2000/svg" xmlns:xlink="http://www.w3.org/1999/xlink"
     width="1000" height="480.9338521400778" viewBox="-1277 -615 1285 618">
<defs>
</defs>
<path d="M0,0 L1,-2" stroke="green" stroke-width="0.25" fill="none" />
<path d="M1,-2 L2,-8" stroke="green" stroke-width="0.25" fill="none" />
<path d="M2,-8 L3,-16" stroke="green" stroke-width="0.25" fill="none" />
<path d="M3,-16 L-3,-22" stroke="green" stroke-width="0.25" fill="none" />
<path d="M-3,-22 L-9,-22" stroke="green" stroke-width="0.25" fill="none" />
<path d="M-9,-22 L-8,-27" stroke="green" stroke-width="0.25" fill="none" />
<path d="M-8,-27 L-9,-33" stroke="green" stroke-width="0.25" fill="none" />
<path d="M-9,-33 L-9,-38" stroke="green" stroke-width="0.25" fill="none" />
<path d="M-9,-38 L-13,-43" stroke="green" stroke-width="0.25" fill="none" />
<path d="M-13,-43 L-24,-43" stroke="green" stroke-width="0.25" fill="none" />
<path d="M-24,-43 L-31,-50" stroke="green" stroke-width="0.25" fill="none" />
<path d="M-31,-50 L-38,-56" stroke="green" stroke-width="0.25" fill="none" />
<path d="M-38,-56 L-41,-60" stroke="green" stroke-width="0.25" fill="none" />
<path d="M-41,-60 L-50,-60" stroke="green" stroke-width="0.25" fill="none" />
<path d="M-50,-60 L-56,-70" stroke="green" stroke-width="0.25" fill="none" />
<path d="M-56,-70 L-67,-73" stroke="green" stroke-width="0.25" fill="none" />
<path d="M-67,-73 L-74,-79" stroke="green" stroke-width="0.25" fill="none" />
<path d="M-74,-79 L-86,-91" stroke="green" stroke-width="0.25" fill="none" />
<path d="M-86,-91 L-95,-97" stroke="green" stroke-width="0.25" fill="none" />
<path d="M-95,-97 L-109,-112" stroke="green" stroke-width="0.25" fill="none" />
<path d="M-109,-112 L-127,-122" stroke="green" stroke-width="0.25" fill="none" />
<path d="M-127,-122 L-139,-130" stroke="green" stroke-width="0.25" fill="none" />
<path d="M-139,-130 L-156,-139" stroke="green" stroke-width="0.25" fill="none" />
<path d="M-156,-139 L-169,-146" stroke="green" stroke-width="0.25" fill="none" />
<path d="M-169,-146 L-189,-153" stroke="green" stroke-width="0.25" fill="none" />
<path d="M-189,-153 L-210,-167" stroke="green" stroke-width="0.25" fill="none" />
<path d="M-210,-167 L-227,-171" stroke="green" stroke-width="0.25" fill="none" />
<path d="M-227,-171 L-246,-179" stroke="green" stroke-width="0.25" fill="none" />
<path d="M-246,-179 L-262,-190" stroke="green" stroke-width="0.25" fill="none" />
<path d="M-262,-190 L-281,-204" stroke="green" stroke-width="0.25" fill="none" />
<path d="M-281,-204 L-298,-219" stroke="green" stroke-width="0.25" fill="none" />
<path d="M-298,-219 L-316,-229" stroke="green" stroke-width="0.25" fill="none" />
<path d="M-316,-229 L-335,-243" stroke="green" stroke-width="0.25" fill="none" />
<path d="M-335,-243 L-353,-257" stroke="green" stroke-width="0.25" fill="none" />
<path d="M-353,-257 L-373,-265" stroke="green" stroke-width="0.25" fill="none" />
<path d="M-373,-265 L-394,-277" stroke="green" stroke-width="0.25" fill="none" />
<path d="M-394,-277 L-421,-293" stroke="green" stroke-width="0.25" fill="none" />
<path d="M-421,-293 L-442,-300" stroke="green" stroke-width="0.25" fill="none" />
<path d="M-442,-300 L-469,-317" stroke="green" stroke-width="0.25" fill="none" />
<path d="M-469,-317 L-497,-328" stroke="green" stroke-width="0.25" fill="none" />
<path d="M-497,-328 L-521,-340" stroke="green" stroke-width="0.25" fill="none" />
<path d="M-521,-340 L-546,-350" stroke="green" stroke-width="0.25" fill="none" />
<path d="M-546,-350 L-570,-361" stroke="green" stroke-width="0.25" fill="none" />
<path d="M-570,-361 L-592,-369" stroke="green" stroke-width="0.25" fill="none" />
<path d="M-592,-369 L-615,-377" stroke="green" stroke-width="0.25" fill="none" />
<path d="M-615,-377 L-631,-388" stroke="green" stroke-width="0.25" fill="none" />
<path d="M-631,-388 L-661,-403" stroke="green" stroke-width="0.25" fill="none" />
<path d="M-661,-403 L-684,-405" stroke="green" stroke-width="0.25" fill="none" />
<path d="M-684,-405 L-705,-420" stroke="green" stroke-width="0.25" fill="none" />
<path d="M-705,-420 L-727,-429" stroke="green" stroke-width="0.25" fill="none" />
<path d="M-727,-429 L-755,-440" stroke="green" stroke-width="0.25" fill="none" />
<path d="M-755,-440 L-780,-452" stroke="green" stroke-width="0.25" fill="none" />
<path d="M-780,-452 L-805,-459" stroke="green" stroke-width="0.25" fill="none" />
<path d="M-805,-459 L-831,-470" stroke="green" stroke-width="0.25" fill="none" />
<path d="M-831,-470 L-854,-478" stroke="green" stroke-width="0.25" fill="none" />
<path d="M-854,-478 L-870,-482" stroke="green" stroke-width="0.25" fill="none" />
<path d="M-870,-482 L-890,-495" stroke="green" stroke-width="0.25" fill="none" />
<path d="M-890,-495 L-905,-501" stroke="green" stroke-width="0.25" fill="none" />
<path d="M-905,-501 L-921,-514" stroke="green" stroke-width="0.25" fill="none" />
<path d="M-921,-514 L-938,-528" stroke="green" stroke-width="0.25" fill="none" />
<path d="M-938,-528 L-948,-542" stroke="green" stroke-width="0.25" fill="none" />
<path d="M-948,-542 L-963,-549" stroke="green" stroke-width="0.25" fill="none" />
<path d="M-963,-549 L-975,-562" stroke="green" stroke-width="0.25" fill="none" />
<path d="M-975,-562 L-990,-572" stroke="green" stroke-width="0.25" fill="none" />
<path d="M-990,-572 L-1000,-579" stroke="green" stroke-width="0.25" fill="none" />
<path d="M-1000,-579 L-1014,-590" stroke="green" stroke-width="0.25" fill="none" />
<path d="M-1014,-590 L-1018,-598" stroke="green" stroke-width="0.25" fill="none" />
<path d="M-1018,-598 L-1030,-605" stroke="green" stroke-width="0.25" fill="none" />
<path d="M-1030,-605 L-1038,-606" stroke="green" stroke-width="0.25" fill="none" />
<path d="M-1038,-606 L-1048,-609" stroke="green" stroke-width="0.25" fill="none" />
<path d="M-1048,-609 L-1055,-607" stroke="green" stroke-width="0.25" fill="none" />
<path d="M-1055,-607 L-1060,-606" stroke="green" stroke-width="0.25" fill="none" />
<path d="M-1060,-606 L-1069,-610" stroke="green" stroke-width="0.25" fill="none" />
<path d="M-1069,-610 L-1078,-603" stroke="green" stroke-width="0.25" fill="none" />
<path d="M-1078,-603 L-1084,-603" stroke="green" stroke-width="0.25" fill="none" />
<path d="M-1084,-603 L-1090,-604" stroke="green" stroke-width="0.25" fill="none" />
<path d="M-1090,-604 L-1096,-604" stroke="green" stroke-width="0.25" fill="none" />
<path d="M-1096,-604 L-1095,-602" stroke="green" stroke-width="0.25" fill="none" />
<path d="M-1095,-602 L-1101,-600" stroke="green" stroke-width="0.25" fill="none" />
<path d="M-1101,-600 L-1107,-600" stroke="green" stroke-width="0.25" fill="none" />
<path d="M-1107,-600 L-1106,-603" stroke="green" stroke-width="0.25" fill="none" />
<path d="M-1106,-603 L-1114,-598" stroke="green" stroke-width="0.25" fill="none" />
<path d="M-1114,-598 L-1113,-596" stroke="green" stroke-width="0.25" fill="none" />
<path d="M-1113,-596 L-1106,-587" stroke="green" stroke-width="0.25" fill="none" />
<path d="M-1106,-587 L-1109,-580" stroke="green" stroke-width="0.25" fill="none" />
<path d="M-1109,-580 L-1112,-574" stroke="green" stroke-width="0.25" fill="none" />
<path d="M-1112,-574 L-1117,-568" stroke="green" stroke-width="0.25" fill="none" />
<path d="M-1117,-568 L-1119,-562" stroke="green" stroke-width="0.25" fill="none" />
<path d="M-1119,-562 L-1128,-560" stroke="green" stroke-width="0.25" fill="none" />
<path d="M-1128,-560 L-1134,-560" stroke="green" stroke-width="0.25" fill="none" />
<path d="M-1134,-560 L-1145,-551" stroke="green" stroke-width="0.25" fill="none" />
<path d="M-1145,-551 L-1157,-548" stroke="green" stroke-width="0.25" fill="none" />
<path d="M-1157,-548 L-1171,-544" stroke="green" stroke-width="0.25" fill="none" />
<path d="M-1171,-544 L-1189,-535" stroke="green" stroke-width="0.25" fill="none" />
<path d="M-1189,-535 L-1201,-535" stroke="green" stroke-width="0.25" fill="none" />
<path d="M-1201,-535 L-1212,-537" stroke="green" stroke-width="0.25" fill="none" />
<path d="M-1212,-537 L-1228,-536" stroke="green" stroke-width="0.25" fill="none" />
<path d="M-1228,-536 L-1242,-531" stroke="green" stroke-width="0.25" fill="none" />
<path d="M-1242,-531 L-1258,-522" stroke="green" stroke-width="0.25" fill="none" />
<path d="M-1258,-522 L-1272,-526" stroke="green" stroke-width="0.25" fill="none" />
<circle cx="0" cy="0" r="0.5" fill="blue" />
<circle cx="1" cy="-2" r="0.5" fill="red" />
<circle cx="2" cy="-8" r="0.5" fill="red" />
<circle cx="3" cy="-16" r="0.5" fill="red" />
<circle cx="-3" cy="-22" r="0.5" fill="red" />
<circle cx="-9" cy="-22" r="0.5" fill="red" />
<circle cx="-8" cy="-27" r="0.5" fill="red" />
<circle cx="-9" cy="-33" r="0.5" fill="red" />
<circle cx="-9" cy="-38" r="0.5" fill="red" />
<circle cx="-13" cy="-43" r="0.5" fill="red" />
<circle cx="-24" cy="-43" r="0.5" fill="red" />
<circle cx="-31" cy="-50" r="0.5" fill="red" />
<circle cx="-38" cy="-56" r="0.5" fill="red" />
<circle cx="-41" cy="-60" r="0.5" fill="red" />
<circle cx="-50" cy="-60" r="0.5" fill="red" />
<circle cx="-56" cy="-70" r="0.5" fill="red" />
<circle cx="-67" cy="-73" r="0.5" fill="red" />
<circle cx="-74" cy="-79" r="0.5" fill="red" />
<circle cx="-86" cy="-91" r="0.5" fill="red" />
<circle cx="-95" cy="-97" r="0.5" fill="red" />
<circle cx="-109" cy="-112" r="0.5" fill="red" />
<circle cx="-127" cy="-122" r="0.5" fill="red" />
<circle cx="-139" cy="-130" r="0.5" fill="red" />
<circle cx="-156" cy="-139" r="0.5" fill="red" />
<circle cx="-169" cy="-146" r="0.5" fill="red" />
<circle cx="-189" cy="-153" r="0.5" fill="red" />
<circle cx="-210" cy="-167" r="0.5" fill="red" />
<circle cx="-227" cy="-171" r="0.5" fill="red" />
<circle cx="-246" cy="-179" r="0.5" fill="red" />
<circle cx="-262" cy="-190" r="0.5" fill="red" />
<circle cx="-281" cy="-204" r="0.5" fill="red" />
<circle cx="-298" cy="-219" r="0.5" fill="red" />
<circle cx="-316" cy="-229" r="0.5" fill="red" />
<circle cx="-335" cy="-243" r="0.5" fill="red" />
<circle cx="-353" cy="-257" r="0.5" fill="red" />
<circle cx="-373" cy="-265" r="0.5" fill="red" />
<circle cx="-394" cy="-277" r="0.5" fill="red" />
<circle cx="-421" cy="-293" r="0.5" fill="red" />
<circle cx="-442" cy="-300" r="0.5" fill="red" />
<circle cx="-469" cy="-317" r="0.5" fill="red" />
<circle cx="-497" cy="-328" r="0.5" fill="red" />
<circle cx="-521" cy="-340" r="0.5" fill="red" />
<circle cx="-546" cy="-350" r="0.5" fill="red" />
<circle cx="-570" cy="-361" r="0.5" fill="red" />
<circle cx="-592" cy="-369" r="0.5" fill="red" />
<circle cx="-615" cy="-377" r="0.5" fill="red" />
<circle cx="-631" cy="-388" r="0.5" fill="red" />
<circle cx="-661" cy="-403" r="0.5" fill="red" />
<circle cx="-684" cy="-405" r="0.5" fill="red" />
<circle cx="-705" cy="-420" r="0.5" fill="red" />
<circle cx="-727" cy="-429" r="0.5" fill="red" />
<circle cx="-755" cy="-440" r="0.5" fill="red" />
<circle cx="-780" cy="-452" r="0.5" fill="red" />
<circle cx="-805" cy="-459" r="0.5" fill="red" />
<circle cx="-831" cy="-470" r="0.5" fill="red" />
<circle cx="-854" cy="-478" r="0.5" fill="red" />
<circle cx="-870" cy="-482" r="0.5" fill="red" />
<circle cx="-890" cy="-495" r="0.5" fill="red" />
<circle cx="-905" cy="-501" r="0.5" fill="red" />
<circle cx="-921" cy="-514" r="0.5" fill="red" />
<circle cx="-938" cy="-528" r="0.5" fill="red" />
<circle cx="-948" cy="-542" r="0.5" fill="red" />
<circle cx="-963" cy="-549" r="0.5" fill="red" />
<circle cx="-975" cy="-562" r="0.5" fill="red" />
<circle cx="-990" cy="-572" r="0.5" fill="red" />
<circle cx="-1000" cy="-579" r="0.5" fill="red" />
<circle cx="-1014" cy="-590" r="0.5" fill="red" />
<circle cx="-1018" cy="-598" r="0.5" fill="red" />
<circle cx="-1030" cy="-605" r="0.5" fill="red" />
<circle cx="-1038" cy="-606" r="0.5" fill="red" />
<circle cx="-1048" cy="-609" r="0.5" fill="red" />
<circle cx="-1055" cy="-607" r="0.5" fill="red" />
<circle cx="-1060" cy="-606" r="0.5" fill="red" />
<circle cx="-1069" cy="-610" r="0.5" fill="red" />
<circle cx="-1078" cy="-603" r="0.5" fill="red" />
<circle cx="-1084" cy="-603" r="0.5" fill="red" />
<circle cx="-1090" cy="-604" r="0.5" fill="red" />
<circle cx="-1096" cy="-604" r="0.5" fill="red" />
<circle cx="-1095" cy="-602" r="0.5" fill="red" />
<circle cx="-1101" cy="-600" r="0.5" fill="red" />
<circle cx="-1107" cy="-600" r="0.5" fill="red" />
<circle cx="-1106" cy="-603" r="0.5" fill="red" />
<circle cx="-1114" cy="-598" r="0.5" fill="red" />
<circle cx="-1113" cy="-596" r="0.5" fill="red" />
<circle cx="-1106" cy="-587" r="0.5" fill="red" />
<circle cx="-1109" cy="-580" r="0.5" fill="red" />
<circle cx="-1112" cy="-574" r="0.5" fill="red" />
<circle cx="-1117" cy="-568" r="0.5" fill="red" />
<circle cx="-1119" cy="-562" r="0.5" fill="red" />
<circle cx="-1128" cy="-560" r="0.5" fill="red" />
<circle cx="-1134" cy="-560" r="0.5" fill="red" />
<circle cx="-1145" cy="-551" r="0.5" fill="red" />
<circle cx="-1157" cy="-548" r="0.5" fill="red" />
<circle cx="-1171" cy="-544" r="0.5" fill="red" />
<circle cx="-1189" cy="-535" r="0.5" fill="red" />
<circle cx="-1201" cy="-535" r="0.5" fill="red" />
<circle cx="-1212" cy="-537" r="0.5" fill="red" />
<circle cx="-1228" cy="-536" r="0.5" fill="red" />
<circle cx="-1242" cy="-531" r="0.5" fill="red" />
<circle cx="-1258" cy="-522" r="0.5" fill="red" />
<circle cx="-1272" cy="-526" r="0.5" fill="red" />
</svg>