<?xml version="1.0" encoding="UTF-8"?>
<svg xmlns="http://www.w3.org/2000/svg" xmlns:xlink="http://www.w3.org/1999/xlink"
     width="1000" height="1421.487603305785" viewBox="-89 -164 242 344">
<defs>
</defs>
<path d="M0,0 L1,2" stroke="green" stroke-width="0.5" fill="none" />
<path d="M1,2 L3,7" stroke="green" stroke-width="0.5" fill="none" />
<path d="M3,7 L7,12" stroke="green" stroke-width="0.5" fill="none" />
<path d="M7,12 L13,18" stroke="green" stroke-width="0.5" fill="none" />
<path d="M13,18 L14,25" stroke="green" stroke-width="0.5" fill="none" />
<path d="M14,25 L17,31" stroke="green" stroke-width="0.5" fill="none" />
<path d="M17,31 L19,33" stroke="green" stroke-width="0.5" fill="none" />
<path d="M19,33 L24,36" stroke="green" stroke-width="0.5" fill="none" />
<path d="M24,36 L30,39" stroke="green" stroke-width="0.5" fill="none" />
<path d="M30,39 L35,44" stroke="green" stroke-width="0.5" fill="none" />
<path d="M35,44 L41,49" stroke="green" stroke-width="0.5" fill="none" />
<path d="M41,49 L45,56" stroke="green" stroke-width="0.5" fill="none" />
<path d="M45,56 L53,57" stroke="green" stroke-width="0.5" fill="none" />
<path d="M53,57 L59,58" stroke="green" stroke-width="0.5" fill="none" />
<path d="M59,58 L63,57" stroke="green" stroke-width="0.5" fill="none" />
<path d="M63,57 L70,58" stroke="green" stroke-width="0.5" fill="none" />
<path d="M70,58 L73,61" stroke="green" stroke-width="0.5" fill="none" />
<path d="M73,61 L78,62" stroke="green" stroke-width="0.5" fill="none" />
<path d="M78,62 L79,64" stroke="green" stroke-width="0.5" fill="none" />
<path d="M79,64 L80,66" stroke="green" stroke-width="0.5" fill="none" />
<path d="M80,66 L84,65" stroke="green" stroke-width="0.5" fill="none" />
<path d="M84,65 L87,67" stroke="green" stroke-width="0.5" fill="none" />
<path d="M87,67 L90,71" stroke="green" stroke-width="0.5" fill="none" />
<path d="M90,71 L94,72" stroke="green" stroke-width="0.5" fill="none" />
<path d="M94,72 L96,69" stroke="green" stroke-width="0.5" fill="none" />
<path d="M96,69 L102,68" stroke="green" stroke-width="0.5" fill="none" />
<path d="M102,68 L104,66" stroke="green" stroke-width="0.5" fill="none" />
<path d="M104,66 L107,67" stroke="green" stroke-width="0.5" fill="none" />
<path d="M107,67 L114,69" stroke="green" stroke-width="0.5" fill="none" />
<path d="M114,69 L118,71" stroke="green" stroke-width="0.5" fill="none" />
<path d="M118,71 L121,74" stroke="green" stroke-width="0.5" fill="none" />
<path d="M121,74 L127,77" stroke="green" stroke-width="0.5" fill="none" />
<path d="M127,77 L130,84" stroke="green" stroke-width="0.5" fill="none" />
<path d="M130,84 L133,91" stroke="green" stroke-width="0.5" fill="none" />
<path d="M133,91 L136,98" stroke="green" stroke-width="0.5" fill="none" />
<path d="M136,98 L136,106" stroke="green" stroke-width="0.5" fill="none" />
<path d="M136,106 L137,113" stroke="green" stroke-width="0.5" fill="none" />
<path d="M137,113 L138,119" stroke="green" stroke-width="0.5" fill="none" />
<path d="M138,119 L140,125" stroke="green" stroke-width="0.5" fill="none" />
<path d="M140,125 L141,132" stroke="green" stroke-width="0.5" fill="none" />
<path d="M141,132 L142,136" stroke="green" stroke-width="0.5" fill="none" />
<path d="M142,136 L146,141" stroke="green" stroke-width="0.5" fill="none" />
<path d="M146,141 L145,147" stroke="green" stroke-width="0.5" fill="none" />
<path d="M145,147 L138,153" stroke="green" stroke-width="0.5" fill="none" />
<path d="M138,153 L137,154" stroke="green" stroke-width="0.5" fill="none" />
<path d="M137,154 L137,155" stroke="green" stroke-width="0.5" fill="none" />
<path d="M137,155 L137,156" stroke="green" stroke-width="0.5" fill="none" />
<path d="M137,156 L135,158" stroke="green" stroke-width="0.5" fill="none" />
<path d="M135,158 L133,156" stroke="green" stroke-width="0.5" fill="none" />
<path d="M133,156 L130,157" stroke="green" stroke-width="0.5" fill="none" />
<path d="M130,157 L131,159" stroke="green" stroke-width="0.5" fill="none" />
<path d="M131,159 L132,160" stroke="green" stroke-width="0.5" fill="none" />
<path d="M132,160 L134,162" stroke="green" stroke-width="0.5" fill="none" />
<path d="M134,162 L137,165" stroke="green" stroke-width="0.5" fill="none" />
<path d="M137,165 L136,168" stroke="green" stroke-width="0.5" fill="none" />
<path d="M136,168 L134,172" stroke="green" stroke-width="0.5" fill="none" />
<path d="M134,172 L136,175" stroke="green" stroke-width="0.5" fill="none" />
<path d="M136,175 L141,175" stroke="green" stroke-width="0.5" fill="none" />
<path d="M141,175 L144,172" stroke="green" stroke-width="0.5" fill="none" />
<path d="M144,172 L146,167" stroke="green" stroke-width="0.5" fill="none" />
<path d="M146,167 L148,162" stroke="green" stroke-width="0.5" fill="none" />
<path d="M148,162 L136,153" stroke="green" stroke-width="0.5" fill="none" />
<path d="M136,153 L129,153" stroke="green" stroke-width="0.5" fill="none" />
<path d="M129,153 L127,151" stroke="green" stroke-width="0.5" fill="none" />
<path d="M127,151 L125,147" stroke="green" stroke-width="0.5" fill="none" />
<path d="M125,147 L122,143" stroke="green" stroke-width="0.5" fill="none" />
<path d="M122,143 L118,137" stroke="green" stroke-width="0.5" fill="none" />
<path d="M118,137 L115,130" stroke="green" stroke-width="0.5" fill="none" />
<path d="M115,130 L115,121" stroke="green" stroke-width="0.5" fill="none" />
<path d="M115,121 L112,112" stroke="green" stroke-width="0.5" fill="none" />
<path d="M112,112 L110,104" stroke="green" stroke-width="0.5" fill="none" />
<path d="M110,104 L103,95" stroke="green" stroke-width="0.5" fill="none" />
<path d="M103,95 L96,85" stroke="green" stroke-width="0.5" fill="none" />
<path d="M96,85 L94,73" stroke="green" stroke-width="0.5" fill="none" />
<path d="M94,73 L87,72" stroke="green" stroke-width="0.5" fill="none" />
<path d="M87,72 L81,61" stroke="green" stroke-width="0.5" fill="none" />
<path d="M81,61 L74,52" stroke="green" stroke-width="0.5" fill="none" />
<path d="M74,52 L69,38" stroke="green" stroke-width="0.5" fill="none" />
<path d="M69,38 L63,29" stroke="green" stroke-width="0.5" fill="none" />
<path d="M63,29 L57,18" stroke="green" stroke-width="0.5" fill="none" />
<path d="M57,18 L52,5" stroke="green" stroke-width="0.5" fill="none" />
<path d="M52,5 L43,-11" stroke="green" stroke-width="0.5" fill="none" />
<path d="M43,-11 L35,-21" stroke="green" stroke-width="0.5" fill="none" />
<path d="M35,-21 L24,-35" stroke="green" stroke-width="0.5" fill="none" />
<path d="M24,-35 L16,-46" stroke="green" stroke-width="0.5" fill="none" />
<path d="M16,-46 L7,-60" stroke="green" stroke-width="0.5" fill="none" />
<path d="M7,-60 L-2,-74" stroke="green" stroke-width="0.5" fill="none" />
<path d="M-2,-74 L-12,-88" stroke="green" stroke-width="0.5" fill="none" />
<path d="M-12,-88 L-21,-101" stroke="green" stroke-width="0.5" fill="none" />
<path d="M-21,-101 L-32,-115" stroke="green" stroke-width="0.5" fill="none" />
<path d="M-32,-115 L-45,-127" stroke="green" stroke-width="0.5" fill="none" />
<path d="M-45,-127 L-53,-137" stroke="green" stroke-width="0.5" fill="none" />
<path d="M-53,-137 L-61,-147" stroke="green" stroke-width="0.5" fill="none" />
<path d="M-61,-147 L-66,-152" stroke="green" stroke-width="0.5" fill="none" />
<path d="M-66,-152 L-75,-156" stroke="green" stroke-width="0.5" fill="none" />
<path d="M-75,-156 L-84,-159" stroke="green" stroke-width="0.5" fill="none" />
<path d="M-84,-159 L148,153" stroke="green" stroke-width="0.5" fill="none" />
<path d="M148,153 L136,159" stroke="green" stroke-width="0.5" fill="none" />
<path d="M136,159 L142,175" stroke="green" stroke-width="0.5" fill="none" />
<circle cx="0" cy="0" r="1" fill="blue" />
<circle cx="1" cy="2" r="1" fill="red" />
<circle cx="3" cy="7" r="1" fill="red" />
<circle cx="7" cy="12" r="1" fill="red" />
<circle cx="13" cy="18" r="1" fill="red" />
<circle cx="14" cy="25" r="1" fill="red" />
<circle cx="17" cy="31" r="1" fill="red" />
<circle cx="19" cy="33" r="1" fill="red" />
<circle cx="24" cy="36" r="1" fill="red" />
<circle cx="30" cy="39" r="1" fill="red" />
<circle cx="35" cy="44" r="1" fill="red" />
<circle cx="41" cy="49" r="1" fill="red" />
<circle cx="45" cy="56" r="1" fill="red" />
<circle cx="53" cy="57" r="1" fill="red" />
<circle cx="59" cy="58" r="1" fill="red" />
<circle cx="63" cy="57" r="1" fill="red" />
<circle cx="70" cy="58" r="1" fill="red" />
<circle cx="73" cy="61" r="1" fill="red" />
<circle cx="78" cy="62" r="1" fill="red" />
<circle cx="79" cy="64" r="1" fill="red" />
<circle cx="80" cy="66" r="1" fill="red" />
<circle cx="84" cy="65" r="1" fill="red" />
<circle cx="87" cy="67" r="1" fill="red" />
<circle cx="90" cy="71" r="1" fill="red" />
<circle cx="94" cy="72" r="1" fill="red" />
<circle cx="96" cy="69" r="1" fill="red" />
<circle cx="102" cy="68" r="1" fill="red" />
<circle cx="104" cy="66" r="1" fill="red" />
<circle cx="107" cy="67" r="1" fill="red" />
<circle cx="114" cy="69" r="1" fill="red" />
<circle cx="118" cy="71" r="1" fill="red" />
<circle cx="121" cy="74" r="1" fill="red" />
<circle cx="127" cy="77" r="1" fill="red" />
<circle cx="130" cy="84" r="1" fill="red" />
<circle cx="133" cy="91" r="1" fill="red" />
<circle cx="136" cy="98" r="1" fill="red" />
<circle cx="136" cy="106" r="1" fill="red" />
<circle cx="137" cy="113" r="1" fill="red" />
<circle cx="138" cy="119" r="1" fill="red" />
<circle cx="140" cy="125" r="1" fill="red" />
<circle cx="141" cy="132" r="1" fill="red" />
<circle cx="142" cy="136" r="1" fill="red" />
<circle cx="146" cy="141" r="1" fill="red" />
<circle cx="145" cy="147" r="1" fill="red" />
<circle cx="138" cy="153" r="1" fill="red" />
<circle cx="137" cy="154" r="1" fill="red" />
<circle cx="137" cy="155" r="1" fill="red" />
<circle cx="137" cy="156" r="1" fill="red" />
<circle cx="135" cy="158" r="1" fill="red" />
<circle cx="133" cy="156" r="1" fill="red" />
<circle cx="130" cy="157" r="1" fill="red" />
<circle cx="131" cy="159" r="1" fill="red" />
<circle cx="132" cy="160" r="1" fill="red" />
<circle cx="134" cy="162" r="1" fill="red" />
<circle cx="137" cy="165" r="1" fill="red" />
<circle cx="136" cy="168" r="1" fill="red" />
<circle cx="134" cy="172" r="1" fill="red" />
<circle cx="136" cy="175" r="1" fill="red" />
<circle cx="141" cy="175" r="1" fill="red" />
<circle cx="144" cy="172" r="1" fill="red" />
<circle cx="146" cy="167" r="1" fill="red" />
<circle cx="148" cy="162" r="1" fill="red" />
<circle cx="136" cy="153" r="1" fill="red" />
<circle cx="129" cy="153" r="1" fill="red" />
<circle cx="127" cy="151" r="1" fill="red" />
<circle cx="125" cy="147" r="1" fill="red" />
<circle cx="122" cy="143" r="1" fill="red" />
<circle cx="118" cy="137" r="1" fill="red" />
<circle cx="115" cy="130" r="1" fill="red" />
<circle cx="115" cy="121" r="1" fill="red" />
<circle cx="112" cy="112" r="1" fill="red" />
<circle cx="110" cy="104" r="1" fill="red" />
<circle cx="103" cy="95" r="1" fill="red" />
<circle cx="96" cy="85" r="1" fill="red" />
<circle cx="94" cy="73" r="1" fill="red" />
<circle cx="87" cy="72" r="1" fill="red" />
<circle cx="81" cy="61" r="1" fill="red" />
<circle cx="74" cy="52" r="1" fill="red" />
<circle cx="69" cy="38" r="1" fill="red" />
<circle cx="63" cy="29" r="1" fill="red" />
<circle cx="57" cy="18" r="1" fill="red" />
<circle cx="52" cy="5" r="1" fill="red" />
<circle cx="43" cy="-11" r="1" fill="red" />
<circle cx="35" cy="-21" r="1" fill="red" />
<circle cx="24" cy="-35" r="1" fill="red" />
<circle cx="16" cy="-46" r="1" fill="red" />
<circle cx="7" cy="-60" r="1" fill="red" />
<circle cx="-2" cy="-74" r="1" fill="red" />
<circle cx="-12" cy="-88" r="1" fill="red" />
<circle cx="-21" cy="-101" r="1" fill="red" />
<circle cx="-32" cy="-115" r="1" fill="red" />
<circle cx="-45" cy="-127" r="1" fill="red" />
<circle cx="-53" cy="-137" r="1" fill="red" />
<circle cx="-61" cy="-147" r="1" fill="red" />
<circle cx="-66" cy="-152" r="1" fill="red" />
<circle cx="-75" cy="-156" r="1" fill="red" />
<circle cx="-84" cy="-159" r="1" fill="red" />
<circle cx="148" cy="153" r="1" fill="red" />
<circle cx="136" cy="159" r="1" fill="red" />
<circle cx="142" cy="175" r="1" fill="red" />
</svg>