<?xml version="1.0" encoding="UTF-8"?>
<svg xmlns="http://www.w3.org/2000/svg" xmlns:xlink="http://www.w3.org/1999/xlink"
     width="1000" height="1512.0" viewBox="113 21 375 567">
<defs>
</defs>
<path d="M0,0 L118,29" stroke="green" stroke-width="0.5" fill="none" />
<path d="M118,29 L120,32" stroke="green" stroke-width="0.5" fill="none" />
<path d="M120,32 L124,48" stroke="green" stroke-width="0.5" fill="none" />
<path d="M124,48 L132,55" stroke="green" stroke-width="0.5" fill="none" />
<path d="M132,55 L139,65" stroke="green" stroke-width="0.5" fill="none" />
<path d="M139,65 L140,68" stroke="green" stroke-width="0.5" fill="none" />
<path d="M140,68 L148,75" stroke="green" stroke-width="0.5" fill="none" />
<path d="M148,75 L160,73" stroke="green" stroke-width="0.5" fill="none" />
<path d="M160,73 L165,83" stroke="green" stroke-width="0.5" fill="none" />
<path d="M165,83 L177,93" stroke="green" stroke-width="0.5" fill="none" />
<path d="M177,93 L181,91" stroke="green" stroke-width="0.5" fill="none" />
<path d="M181,91 L187,100" stroke="green" stroke-width="0.5" fill="none" />
<path d="M187,100 L178,104" stroke="green" stroke-width="0.5" fill="none" />
<path d="M178,104 L182,111" stroke="green" stroke-width="0.5" fill="none" />
<path d="M182,111 L182,127" stroke="green" stroke-width="0.5" fill="none" />
<path d="M182,127 L189,128" stroke="green" stroke-width="0.5" fill="none" />
<path d="M189,128 L190,135" stroke="green" stroke-width="0.5" fill="none" />
<path d="M190,135 L201,126" stroke="green" stroke-width="0.5" fill="none" />
<path d="M201,126 L202,137" stroke="green" stroke-width="0.5" fill="none" />
<path d="M202,137 L208,142" stroke="green" stroke-width="0.5" fill="none" />
<path d="M208,142 L204,155" stroke="green" stroke-width="0.5" fill="none" />
<path d="M204,155 L213,167" stroke="green" stroke-width="0.5" fill="none" />
<path d="M213,167 L225,175" stroke="green" stroke-width="0.5" fill="none" />
<path d="M225,175 L224,180" stroke="green" stroke-width="0.5" fill="none" />
<path d="M224,180 L216,185" stroke="green" stroke-width="0.5" fill="none" />
<path d="M216,185 L221,194" stroke="green" stroke-width="0.5" fill="none" />
<path d="M221,194 L217,197" stroke="green" stroke-width="0.5" fill="none" />
<path d="M217,197 L224,205" stroke="green" stroke-width="0.5" fill="none" />
<path d="M224,205 L234,210" stroke="green" stroke-width="0.5" fill="none" />
<path d="M234,210 L249,208" stroke="green" stroke-width="0.5" fill="none" />
<path d="M249,208 L267,211" stroke="green" stroke-width="0.5" fill="none" />
<path d="M267,211 L261,229" stroke="green" stroke-width="0.5" fill="none" />
<path d="M261,229 L253,238" stroke="green" stroke-width="0.5" fill="none" />
<path d="M253,238 L264,245" stroke="green" stroke-width="0.5" fill="none" />
<path d="M264,245 L266,250" stroke="green" stroke-width="0.5" fill="none" />
<path d="M266,250 L279,256" stroke="green" stroke-width="0.5" fill="none" />
<path d="M279,256 L268,271" stroke="green" stroke-width="0.5" fill="none" />
<path d="M268,271 L269,279" stroke="green" stroke-width="0.5" fill="none" />
<path d="M269,279 L274,282" stroke="green" stroke-width="0.5" fill="none" />
<path d="M274,282 L270,294" stroke="green" stroke-width="0.5" fill="none" />
<path d="M270,294 L276,304" stroke="green" stroke-width="0.5" fill="none" />
<path d="M276,304 L277,316" stroke="green" stroke-width="0.5" fill="none" />
<path d="M277,316 L294,330" stroke="green" stroke-width="0.5" fill="none" />
<path d="M294,330 L283,342" stroke="green" stroke-width="0.5" fill="none" />
<path d="M283,342 L291,359" stroke="green" stroke-width="0.5" fill="none" />
<path d="M291,359 L306,351" stroke="green" stroke-width="0.5" fill="none" />
<path d="M306,351 L308,349" stroke="green" stroke-width="0.5" fill="none" />
<path d="M308,349 L320,352" stroke="green" stroke-width="0.5" fill="none" />
<path d="M320,352 L326,351" stroke="green" stroke-width="0.5" fill="none" />
<path d="M326,351 L339,354" stroke="green" stroke-width="0.5" fill="none" />
<path d="M339,354 L341,346" stroke="green" stroke-width="0.5" fill="none" />
<path d="M341,346 L342,334" stroke="green" stroke-width="0.5" fill="none" />
<path d="M342,334 L347,327" stroke="green" stroke-width="0.5" fill="none" />
<path d="M347,327 L357,319" stroke="green" stroke-width="0.5" fill="none" />
<path d="M357,319 L361,330" stroke="green" stroke-width="0.5" fill="none" />
<path d="M361,330 L368,339" stroke="green" stroke-width="0.5" fill="none" />
<path d="M368,339 L359,341" stroke="green" stroke-width="0.5" fill="none" />
<path d="M359,341 L359,352" stroke="green" stroke-width="0.5" fill="none" />
<path d="M359,352 L361,365" stroke="green" stroke-width="0.5" fill="none" />
<path d="M361,365 L366,366" stroke="green" stroke-width="0.5" fill="none" />
<path d="M366,366 L370,371" stroke="green" stroke-width="0.5" fill="none" />
<path d="M370,371 L362,382" stroke="green" stroke-width="0.5" fill="none" />
<path d="M362,382 L363,385" stroke="green" stroke-width="0.5" fill="none" />
<path d="M363,385 L353,394" stroke="green" stroke-width="0.5" fill="none" />
<path d="M353,394 L351,408" stroke="green" stroke-width="0.5" fill="none" />
<path d="M351,408 L343,411" stroke="green" stroke-width="0.5" fill="none" />
<path d="M343,411 L329,405" stroke="green" stroke-width="0.5" fill="none" />
<path d="M329,405 L324,408" stroke="green" stroke-width="0.5" fill="none" />
<path d="M324,408 L319,421" stroke="green" stroke-width="0.5" fill="none" />
<path d="M319,421 L313,428" stroke="green" stroke-width="0.5" fill="none" />
<path d="M313,428 L306,418" stroke="green" stroke-width="0.5" fill="none" />
<path d="M306,418 L296,422" stroke="green" stroke-width="0.5" fill="none" />
<path d="M296,422 L293,432" stroke="green" stroke-width="0.5" fill="none" />
<path d="M293,432 L303,445" stroke="green" stroke-width="0.5" fill="none" />
<path d="M303,445 L303,456" stroke="green" stroke-width="0.5" fill="none" />
<path d="M303,456 L303,466" stroke="green" stroke-width="0.5" fill="none" />
<path d="M303,466 L296,468" stroke="green" stroke-width="0.5" fill="none" />
<path d="M296,468 L296,477" stroke="green" stroke-width="0.5" fill="none" />
<path d="M296,477 L293,486" stroke="green" stroke-width="0.5" fill="none" />
<path d="M293,486 L300,490" stroke="green" stroke-width="0.5" fill="none" />
<path d="M300,490 L304,496" stroke="green" stroke-width="0.5" fill="none" />
<path d="M304,496 L311,491" stroke="green" stroke-width="0.5" fill="none" />
<path d="M311,491 L321,498" stroke="green" stroke-width="0.5" fill="none" />
<path d="M321,498 L315,506" stroke="green" stroke-width="0.5" fill="none" />
<path d="M315,506 L300,524" stroke="green" stroke-width="0.5" fill="none" />
<path d="M300,524 L301,524" stroke="green" stroke-width="0.5" fill="none" />
<path d="M301,524 L302,525" stroke="green" stroke-width="0.5" fill="none" />
<path d="M302,525 L301,532" stroke="green" stroke-width="0.5" fill="none" />
<path d="M301,532 L296,538" stroke="green" stroke-width="0.5" fill="none" />
<path d="M296,538 L287,538" stroke="green" stroke-width="0.5" fill="none" />
<path d="M287,538 L282,529" stroke="green" stroke-width="0.5" fill="none" />
<path d="M282,529 L274,540" stroke="green" stroke-width="0.5" fill="none" />
<path d="M274,540 L268,545" stroke="green" stroke-width="0.5" fill="none" />
<path d="M268,545 L265,541" stroke="green" stroke-width="0.5" fill="none" />
<path d="M265,541 L256,546" stroke="green" stroke-width="0.5" fill="none" />
<path d="M256,546 L262,555" stroke="green" stroke-width="0.5" fill="none" />
<path d="M262,555 L257,563" stroke="green" stroke-width="0.5" fill="none" />
<path d="M257,563 L260,564" stroke="green" stroke-width="0.5" fill="none" />
<path d="M260,564 L256,571" stroke="green" stroke-width="0.5" fill="none" />
<path d="M256,571 L248,573" stroke="green" stroke-width="0.5" fill="none" />
<path d="M248,573 L243,579" stroke="green" stroke-width="0.5" fill="none" />
<path d="M243,579 L233,568" stroke="green" stroke-width="0.5" fill="none" />
<path d="M233,568 L225,580" stroke="green" stroke-width="0.5" fill="none" />
<path d="M225,580 L201,569" stroke="green" stroke-width="0.5" fill="none" />
<path d="M201,569 L181,550" stroke="green" stroke-width="0.5" fill="none" />
<path d="M181,550 L190,545" stroke="green" stroke-width="0.5" fill="none" />
<path d="M190,545 L191,534" stroke="green" stroke-width="0.5" fill="none" />
<path d="M191,534 L205,531" stroke="green" stroke-width="0.5" fill="none" />
<path d="M205,531 L232,555" stroke="green" stroke-width="0.5" fill="none" />
<path d="M232,555 L236,544" stroke="green" stroke-width="0.5" fill="none" />
<path d="M236,544 L249,531" stroke="green" stroke-width="0.5" fill="none" />
<path d="M249,531 L254,528" stroke="green" stroke-width="0.5" fill="none" />
<path d="M254,528 L256,527" stroke="green" stroke-width="0.5" fill="none" />
<path d="M256,527 L260,529" stroke="green" stroke-width="0.5" fill="none" />
<path d="M260,529 L263,523" stroke="green" stroke-width="0.5" fill="none" />
<path d="M263,523 L257,513" stroke="green" stroke-width="0.5" fill="none" />
<path d="M257,513 L273,498" stroke="green" stroke-width="0.5" fill="none" />
<path d="M273,498 L291,467" stroke="green" stroke-width="0.5" fill="none" />
<path d="M291,467 L317,485" stroke="green" stroke-width="0.5" fill="none" />
<path d="M317,485 L325,462" stroke="green" stroke-width="0.5" fill="none" />
<path d="M325,462 L320,453" stroke="green" stroke-width="0.5" fill="none" />
<path d="M320,453 L340,438" stroke="green" stroke-width="0.5" fill="none" />
<path d="M340,438 L329,425" stroke="green" stroke-width="0.5" fill="none" />
<path d="M329,425 L311,386" stroke="green" stroke-width="0.5" fill="none" />
<path d="M311,386 L324,384" stroke="green" stroke-width="0.5" fill="none" />
<path d="M324,384 L344,363" stroke="green" stroke-width="0.5" fill="none" />
<path d="M344,363 L346,357" stroke="green" stroke-width="0.5" fill="none" />
<path d="M346,357 L329,335" stroke="green" stroke-width="0.5" fill="none" />
<path d="M329,335 L313,312" stroke="green" stroke-width="0.5" fill="none" />
<path d="M313,312 L342,293" stroke="green" stroke-width="0.5" fill="none" />
<path d="M342,293 L346,288" stroke="green" stroke-width="0.5" fill="none" />
<path d="M346,288 L355,275" stroke="green" stroke-width="0.5" fill="none" />
<path d="M355,275 L357,266" stroke="green" stroke-width="0.5" fill="none" />
<path d="M357,266 L366,274" stroke="green" stroke-width="0.5" fill="none" />
<path d="M366,274 L370,272" stroke="green" stroke-width="0.5" fill="none" />
<path d="M370,272 L375,261" stroke="green" stroke-width="0.5" fill="none" />
<path d="M375,261 L377,254" stroke="green" stroke-width="0.5" fill="none" />
<path d="M377,254 L388,258" stroke="green" stroke-width="0.5" fill="none" />
<path d="M388,258 L398,256" stroke="green" stroke-width="0.5" fill="none" />
<path d="M398,256 L409,245" stroke="green" stroke-width="0.5" fill="none" />
<path d="M409,245 L401,244" stroke="green" stroke-width="0.5" fill="none" />
<path d="M401,244 L401,236" stroke="green" stroke-width="0.5" fill="none" />
<path d="M401,236 L417,221" stroke="green" stroke-width="0.5" fill="none" />
<path d="M417,221 L421,219" stroke="green" stroke-width="0.5" fill="none" />
<path d="M421,219 L431,215" stroke="green" stroke-width="0.5" fill="none" />
<path d="M431,215 L408,193" stroke="green" stroke-width="0.5" fill="none" />
<path d="M408,193 L413,186" stroke="green" stroke-width="0.5" fill="none" />
<path d="M413,186 L415,181" stroke="green" stroke-width="0.5" fill="none" />
<path d="M415,181 L395,160" stroke="green" stroke-width="0.5" fill="none" />
<path d="M395,160 L392,159" stroke="green" stroke-width="0.5" fill="none" />
<path d="M392,159 L390,148" stroke="green" stroke-width="0.5" fill="none" />
<path d="M390,148 L399,144" stroke="green" stroke-width="0.5" fill="none" />
<path d="M399,144 L402,141" stroke="green" stroke-width="0.5" fill="none" />
<path d="M402,141 L406,132" stroke="green" stroke-width="0.5" fill="none" />
<path d="M406,132 L408,124" stroke="green" stroke-width="0.5" fill="none" />
<path d="M408,124 L420,119" stroke="green" stroke-width="0.5" fill="none" />
<path d="M420,119 L423,119" stroke="green" stroke-width="0.5" fill="none" />
<path d="M423,119 L431,119" stroke="green" stroke-width="0.5" fill="none" />
<path d="M431,119 L440,107" stroke="green" stroke-width="0.5" fill="none" />
<path d="M440,107 L457,95" stroke="green" stroke-width="0.5" fill="none" />
<path d="M457,95 L467,79" stroke="green" stroke-width="0.5" fill="none" />
<path d="M467,79 L463,78" stroke="green" stroke-width="0.5" fill="none" />
<path d="M463,78 L477,64" stroke="green" stroke-width="0.5" fill="none" />
<path d="M477,64 L479,60" stroke="green" stroke-width="0.5" fill="none" />
<path d="M479,60 L473,52" stroke="green" stroke-width="0.5" fill="none" />
<path d="M473,52 L468,59" stroke="green" stroke-width="0.5" fill="none" />
<path d="M468,59 L462,61" stroke="green" stroke-width="0.5" fill="none" />
<path d="M462,61 L461,60" stroke="green" stroke-width="0.5" fill="none" />
<path d="M461,60 L454,51" stroke="green" stroke-width="0.5" fill="none" />
<path d="M454,51 L462,43" stroke="green" stroke-width="0.5" fill="none" />
<path d="M462,43 L471,40" stroke="green" stroke-width="0.5" fill="none" />
<path d="M471,40 L480,38" stroke="green" stroke-width="0.5" fill="none" />
<path d="M480,38 L483,37" stroke="green" stroke-width="0.5" fill="none" />
<path d="M483,37 L438,64" stroke="green" stroke-width="0.5" fill="none" />
<path d="M438,64 L437,73" stroke="green" stroke-width="0.5" fill="none" />
<path d="M437,73 L414,100" stroke="green" stroke-width="0.5" fill="none" />
<path d="M414,100 L408,120" stroke="green" stroke-width="0.5" fill="none" />
<path d="M408,120 L413,132" stroke="green" stroke-width="0.5" fill="none" />
<path d="M413,132 L416,140" stroke="green" stroke-width="0.5" fill="none" />
<path d="M416,140 L431,163" stroke="green" stroke-width="0.5" fill="none" />
<path d="M431,163 L417,191" stroke="green" stroke-width="0.5" fill="none" />
<path d="M417,191 L400,187" stroke="green" stroke-width="0.5" fill="none" />
<path d="M400,187 L375,198" stroke="green" stroke-width="0.5" fill="none" />
<path d="M375,198 L375,217" stroke="green" stroke-width="0.5" fill="none" />
<path d="M375,217 L382,226" stroke="green" stroke-width="0.5" fill="none" />
<path d="M382,226 L381,239" stroke="green" stroke-width="0.5" fill="none" />
<path d="M381,239 L391,244" stroke="green" stroke-width="0.5" fill="none" />
<path d="M391,244 L399,261" stroke="green" stroke-width="0.5" fill="none" />
<path d="M399,261 L383,277" stroke="green" stroke-width="0.5" fill="none" />
<path d="M383,277 L370,290" stroke="green" stroke-width="0.5" fill="none" />
<path d="M370,290 L349,289" stroke="green" stroke-width="0.5" fill="none" />
<path d="M349,289 L348,294" stroke="green" stroke-width="0.5" fill="none" />
<path d="M348,294 L299,303" stroke="green" stroke-width="0.5" fill="none" />
<path d="M299,303 L293,309" stroke="green" stroke-width="0.5" fill="none" />
<path d="M293,309 L272,294" stroke="green" stroke-width="0.5" fill="none" />
<path d="M272,294 L277,274" stroke="green" stroke-width="0.5" fill="none" />
<path d="M277,274 L265,243" stroke="green" stroke-width="0.5" fill="none" />
<path d="M265,243 L243,261" stroke="green" stroke-width="0.5" fill="none" />
<path d="M243,261 L237,253" stroke="green" stroke-width="0.5" fill="none" />
<path d="M237,253 L215,247" stroke="green" stroke-width="0.5" fill="none" />
<path d="M215,247 L213,225" stroke="green" stroke-width="0.5" fill="none" />
<path d="M213,225 L205,213" stroke="green" stroke-width="0.5" fill="none" />
<path d="M205,213 L204,208" stroke="green" stroke-width="0.5" fill="none" />
<path d="M204,208 L186,186" stroke="green" stroke-width="0.5" fill="none" />
<path d="M186,186 L189,167" stroke="green" stroke-width="0.5" fill="none" />
<path d="M189,167 L180,162" stroke="green" stroke-width="0.5" fill="none" />
<path d="M180,162 L181,145" stroke="green" stroke-width="0.5" fill="none" />
<path d="M181,145 L168,137" stroke="green" stroke-width="0.5" fill="none" />
<path d="M168,137 L158,120" stroke="green" stroke-width="0.5" fill="none" />
<path d="M158,120 L165,107" stroke="green" stroke-width="0.5" fill="none" />
<path d="M165,107 L154,95" stroke="green" stroke-width="0.5" fill="none" />
<path d="M154,95 L154,92" stroke="green" stroke-width="0.5" fill="none" />
<path d="M154,92 L148,79" stroke="green" stroke-width="0.5" fill="none" />
<path d="M148,79 L138,73" stroke="green" stroke-width="0.5" fill="none" />
<path d="M138,73 L136,55" stroke="green" stroke-width="0.5" fill="none" />
<path d="M136,55 L164,27" stroke="green" stroke-width="0.5" fill="none" />
<path d="M164,27 L177,36" stroke="green" stroke-width="0.5" fill="none" />
<path d="M177,36 L182,38" stroke="green" stroke-width="0.5" fill="none" />
<path d="M182,38 L191,51" stroke="green" stroke-width="0.5" fill="none" />
<path d="M191,51 L178,54" stroke="green" stroke-width="0.5" fill="none" />
<path d="M178,54 L204,85" stroke="green" stroke-width="0.5" fill="none" />
<path d="M204,85 L207,104" stroke="green" stroke-width="0.5" fill="none" />
<path d="M207,104 L213,106" stroke="green" stroke-width="0.5" fill="none" />
<path d="M213,106 L234,140" stroke="green" stroke-width="0.5" fill="none" />
<path d="M234,140 L229,143" stroke="green" stroke-width="0.5" fill="none" />
<path d="M229,143 L233,149" stroke="green" stroke-width="0.5" fill="none" />
<path d="M233,149 L226,159" stroke="green" stroke-width="0.5" fill="none" />
<path d="M226,159 L235,163" stroke="green" stroke-width="0.5" fill="none" />
<path d="M235,163 L235,173" stroke="green" stroke-width="0.5" fill="none" />
<path d="M235,173 L245,180" stroke="green" stroke-width="0.5" fill="none" />
<path d="M245,180 L251,181" stroke="green" stroke-width="0.5" fill="none" />
<path d="M251,181 L257,192" stroke="green" stroke-width="0.5" fill="none" />
<path d="M257,192 L234,218" stroke="green" stroke-width="0.5" fill="none" />
<path d="M234,218 L239,244" stroke="green" stroke-width="0.5" fill="none" />
<path d="M239,244 L253,300" stroke="green" stroke-width="0.5" fill="none" />
<path d="M253,300 L249,315" stroke="green" stroke-width="0.5" fill="none" />
<path d="M249,315 L251,327" stroke="green" stroke-width="0.5" fill="none" />
<path d="M251,327 L255,332" stroke="green" stroke-width="0.5" fill="none" />
<path d="M255,332 L285,362" stroke="green" stroke-width="0.5" fill="none" />
<path d="M285,362 L294,374" stroke="green" stroke-width="0.5" fill="none" />
<path d="M294,374 L300,377" stroke="green" stroke-width="0.5" fill="none" />
<path d="M300,377 L301,374" stroke="green" stroke-width="0.5" fill="none" />
<path d="M301,374 L361,368" stroke="green" stroke-width="0.5" fill="none" />
<path d="M361,368 L373,358" stroke="green" stroke-width="0.5" fill="none" />
<path d="M373,358 L383,327" stroke="green" stroke-width="0.5" fill="none" />
<path d="M383,327 L371,310" stroke="green" stroke-width="0.5" fill="none" />
<path d="M371,310 L370,297" stroke="green" stroke-width="0.5" fill="none" />
<path d="M370,297 L371,294" stroke="green" stroke-width="0.5" fill="none" />
<path d="M371,294 L389,281" stroke="green" stroke-width="0.5" fill="none" />
<path d="M389,281 L416,255" stroke="green" stroke-width="0.5" fill="none" />
<path d="M416,255 L414,248" stroke="green" stroke-width="0.5" fill="none" />
<path d="M414,248 L387,224" stroke="green" stroke-width="0.5" fill="none" />
<path d="M387,224 L378,172" stroke="green" stroke-width="0.5" fill="none" />
<path d="M378,172 L396,131" stroke="green" stroke-width="0.5" fill="none" />
<path d="M396,131 L424,140" stroke="green" stroke-width="0.5" fill="none" />
<path d="M424,140 L450,164" stroke="green" stroke-width="0.5" fill="none" />
<path d="M450,164 L455,141" stroke="green" stroke-width="0.5" fill="none" />
<path d="M455,141 L466,120" stroke="green" stroke-width="0.5" fill="none" />
<path d="M466,120 L466,118" stroke="green" stroke-width="0.5" fill="none" />
<path d="M466,118 L462,107" stroke="green" stroke-width="0.5" fill="none" />
<path d="M462,107 L478,85" stroke="green" stroke-width="0.5" fill="none" />
<path d="M478,85 L437,45" stroke="green" stroke-width="0.5" fill="none" />
<path d="M437,45 L433,102" stroke="green" stroke-width="0.5" fill="none" />
<path d="M433,102 L353,243" stroke="green" stroke-width="0.5" fill="none" />
<path d="M353,243 L348,252" stroke="green" stroke-width="0.5" fill="none" />
<path d="M348,252 L272,317" stroke="green" stroke-width="0.5" fill="none" />
<path d="M272,317 L271,368" stroke="green" stroke-width="0.5" fill="none" />
<path d="M271,368 L272,378" stroke="green" stroke-width="0.5" fill="none" />
<path d="M272,378 L317,431" stroke="green" stroke-width="0.5" fill="none" />
<path d="M317,431 L284,436" stroke="green" stroke-width="0.5" fill="none" />
<path d="M284,436 L277,454" stroke="green" stroke-width="0.5" fill="none" />
<path d="M277,454 L256,503" stroke="green" stroke-width="0.5" fill="none" />
<path d="M256,503 L236,538" stroke="green" stroke-width="0.5" fill="none" />
<path d="M236,538 L247,559" stroke="green" stroke-width="0.5" fill="none" />
<path d="M247,559 L275,548" stroke="green" stroke-width="0.5" fill="none" />
<path d="M275,548 L290,557" stroke="green" stroke-width="0.5" fill="none" />
<path d="M290,557 L279,564" stroke="green" stroke-width="0.5" fill="none" />
<path d="M279,564 L225,582" stroke="green" stroke-width="0.5" fill="none" />
<path d="M225,582 L187,575" stroke="green" stroke-width="0.5" fill="none" />
<path d="M187,575 L180,534" stroke="green" stroke-width="0.5" fill="none" />
<path d="M180,534 L283,432" stroke="green" stroke-width="0.5" fill="none" />
<path d="M283,432 L395,301" stroke="green" stroke-width="0.5" fill="none" />
<path d="M395,301 L357,264" stroke="green" stroke-width="0.5" fill="none" />
<path d="M357,264 L352,254" stroke="green" stroke-width="0.5" fill="none" />
<path d="M352,254 L267,242" stroke="green" stroke-width="0.5" fill="none" />
<path d="M267,242 L222,215" stroke="green" stroke-width="0.5" fill="none" />
<path d="M222,215 L217,208" stroke="green" stroke-width="0.5" fill="none" />
<path d="M217,208 L194,164" stroke="green" stroke-width="0.5" fill="none" />
<path d="M194,164 L211,141" stroke="green" stroke-width="0.5" fill="none" />
<path d="M211,141 L158,94" stroke="green" stroke-width="0.5" fill="none" />
<path d="M158,94 L180,87" stroke="green" stroke-width="0.5" fill="none" />
<path d="M180,87 L141,26" stroke="green" stroke-width="0.5" fill="none" />
<path d="M141,26 L146,95" stroke="green" stroke-width="0.5" fill="none" />
<path d="M146,95 L400,290" stroke="green" stroke-width="0.5" fill="none" />
<path d="M400,290 L283,436" stroke="green" stroke-width="0.5" fill="none" />
<path d="M283,436 L333,461" stroke="green" stroke-width="0.5" fill="none" />
<path d="M333,461 L344,436" stroke="green" stroke-width="0.5" fill="none" />
<path d="M344,436 L186,583" stroke="green" stroke-width="0.5" fill="none" />
<path d="M186,583 L185,575" stroke="green" stroke-width="0.5" fill="none" />
<circle cx="0" cy="0" r="1" fill="blue" />
<circle cx="118" cy="29" r="1" fill="red" />
<circle cx="120" cy="32" r="1" fill="red" />
<circle cx="124" cy="48" r="1" fill="red" />
<circle cx="132" cy="55" r="1" fill="red" />
<circle cx="139" cy="65" r="1" fill="red" />
<circle cx="140" cy="68" r="1" fill="red" />
<circle cx="148" cy="75" r="1" fill="red" />
<circle cx="160" cy="73" r="1" fill="red" />
<circle cx="165" cy="83" r="1" fill="red" />
<circle cx="177" cy="93" r="1" fill="red" />
<circle cx="181" cy="91" r="1" fill="red" />
<circle cx="187" cy="100" r="1" fill="red" />
<circle cx="178" cy="104" r="1" fill="red" />
<circle cx="182" cy="111" r="1" fill="red" />
<circle cx="182" cy="127" r="1" fill="red" />
<circle cx="189" cy="128" r="1" fill="red" />
<circle cx="190" cy="135" r="1" fill="red" />
<circle cx="201" cy="126" r="1" fill="red" />
<circle cx="202" cy="137" r="1" fill="red" />
<circle cx="208" cy="142" r="1" fill="red" />
<circle cx="204" cy="155" r="1" fill="red" />
<circle cx="213" cy="167" r="1" fill="red" />
<circle cx="225" cy="175" r="1" fill="red" />
<circle cx="224" cy="180" r="1" fill="red" />
<circle cx="216" cy="185" r="1" fill="red" />
<circle cx="221" cy="194" r="1" fill="red" />
<circle cx="217" cy="197" r="1" fill="red" />
<circle cx="224" cy="205" r="1" fill="red" />
<circle cx="234" cy="210" r="1" fill="red" />
<circle cx="249" cy="208" r="1" fill="red" />
<circle cx="267" cy="211" r="1" fill="red" />
<circle cx="261" cy="229" r="1" fill="red" />
<circle cx="253" cy="238" r="1" fill="red" />
<circle cx="264" cy="245" r="1" fill="red" />
<circle cx="266" cy="250" r="1" fill="red" />
<circle cx="279" cy="256" r="1" fill="red" />
<circle cx="268" cy="271" r="1" fill="red" />
<circle cx="269" cy="279" r="1" fill="red" />
<circle cx="274" cy="282" r="1" fill="red" />
<circle cx="270" cy="294" r="1" fill="red" />
<circle cx="276" cy="304" r="1" fill="red" />
<circle cx="277" cy="316" r="1" fill="red" />
<circle cx="294" cy="330" r="1" fill="red" />
<circle cx="283" cy="342" r="1" fill="red" />
<circle cx="291" cy="359" r="1" fill="red" />
<circle cx="306" cy="351" r="1" fill="red" />
<circle cx="308" cy="349" r="1" fill="red" />
<circle cx="320" cy="352" r="1" fill="red" />
<circle cx="326" cy="351" r="1" fill="red" />
<circle cx="339" cy="354" r="1" fill="red" />
<circle cx="341" cy="346" r="1" fill="red" />
<circle cx="342" cy="334" r="1" fill="red" />
<circle cx="347" cy="327" r="1" fill="red" />
<circle cx="357" cy="319" r="1" fill="red" />
<circle cx="361" cy="330" r="1" fill="red" />
<circle cx="368" cy="339" r="1" fill="red" />
<circle cx="359" cy="341" r="1" fill="red" />
<circle cx="359" cy="352" r="1" fill="red" />
<circle cx="361" cy="365" r="1" fill="red" />
<circle cx="366" cy="366" r="1" fill="red" />
<circle cx="370" cy="371" r="1" fill="red" />
<circle cx="362" cy="382" r="1" fill="red" />
<circle cx="363" cy="385" r="1" fill="red" />
<circle cx="353" cy="394" r="1" fill="red" />
<circle cx="351" cy="408" r="1" fill="red" />
<circle cx="343" cy="411" r="1" fill="red" />
<circle cx="329" cy="405" r="1" fill="red" />
<circle cx="324" cy="408" r="1" fill="red" />
<circle cx="319" cy="421" r="1" fill="red" />
<circle cx="313" cy="428" r="1" fill="red" />
<circle cx="306" cy="418" r="1" fill="red" />
<circle cx="296" cy="422" r="1" fill="red" />
<circle cx="293" cy="432" r="1" fill="red" />
<circle cx="303" cy="445" r="1" fill="red" />
<circle cx="303" cy="456" r="1" fill="red" />
<circle cx="303" cy="466" r="1" fill="red" />
<circle cx="296" cy="468" r="1" fill="red" />
<circle cx="296" cy="477" r="1" fill="red" />
<circle cx="293" cy="486" r="1" fill="red" />
<circle cx="300" cy="490" r="1" fill="red" />
<circle cx="304" cy="496" r="1" fill="red" />
<circle cx="311" cy="491" r="1" fill="red" />
<circle cx="321" cy="498" r="1" fill="red" />
<circle cx="315" cy="506" r="1" fill="red" />
<circle cx="300" cy="524" r="1" fill="red" />
<circle cx="301" cy="524" r="1" fill="red" />
<circle cx="302" cy="525" r="1" fill="red" />
<circle cx="301" cy="532" r="1" fill="red" />
<circle cx="296" cy="538" r="1" fill="red" />
<circle cx="287" cy="538" r="1" fill="red" />
<circle cx="282" cy="529" r="1" fill="red" />
<circle cx="274" cy="540" r="1" fill="red" />
<circle cx="268" cy="545" r="1" fill="red" />
<circle cx="265" cy="541" r="1" fill="red" />
<circle cx="256" cy="546" r="1" fill="red" />
<circle cx="262" cy="555" r="1" fill="red" />
<circle cx="257" cy="563" r="1" fill="red" />
<circle cx="260" cy="564" r="1" fill="red" />
<circle cx="256" cy="571" r="1" fill="red" />
<circle cx="248" cy="573" r="1" fill="red" />
<circle cx="243" cy="579" r="1" fill="red" />
<circle cx="233" cy="568" r="1" fill="red" />
<circle cx="225" cy="580" r="1" fill="red" />
<circle cx="201" cy="569" r="1" fill="red" />
<circle cx="181" cy="550" r="1" fill="red" />
<circle cx="190" cy="545" r="1" fill="red" />
<circle cx="191" cy="534" r="1" fill="red" />
<circle cx="205" cy="531" r="1" fill="red" />
<circle cx="232" cy="555" r="1" fill="red" />
<circle cx="236" cy="544" r="1" fill="red" />
<circle cx="249" cy="531" r="1" fill="red" />
<circle cx="254" cy="528" r="1" fill="red" />
<circle cx="256" cy="527" r="1" fill="red" />
<circle cx="260" cy="529" r="1" fill="red" />
<circle cx="263" cy="523" r="1" fill="red" />
<circle cx="257" cy="513" r="1" fill="red" />
<circle cx="273" cy="498" r="1" fill="red" />
<circle cx="291" cy="467" r="1" fill="red" />
<circle cx="317" cy="485" r="1" fill="red" />
<circle cx="325" cy="462" r="1" fill="red" />
<circle cx="320" cy="453" r="1" fill="red" />
<circle cx="340" cy="438" r="1" fill="red" />
<circle cx="329" cy="425" r="1" fill="red" />
<circle cx="311" cy="386" r="1" fill="red" />
<circle cx="324" cy="384" r="1" fill="red" />
<circle cx="344" cy="363" r="1" fill="red" />
<circle cx="346" cy="357" r="1" fill="red" />
<circle cx="329" cy="335" r="1" fill="red" />
<circle cx="313" cy="312" r="1" fill="red" />
<circle cx="342" cy="293" r="1" fill="red" />
<circle cx="346" cy="288" r="1" fill="red" />
<circle cx="355" cy="275" r="1" fill="red" />
<circle cx="357" cy="266" r="1" fill="red" />
<circle cx="366" cy="274" r="1" fill="red" />
<circle cx="370" cy="272" r="1" fill="red" />
<circle cx="375" cy="261" r="1" fill="red" />
<circle cx="377" cy="254" r="1" fill="red" />
<circle cx="388" cy="258" r="1" fill="red" />
<circle cx="398" cy="256" r="1" fill="red" />
<circle cx="409" cy="245" r="1" fill="red" />
<circle cx="401" cy="244" r="1" fill="red" />
<circle cx="401" cy="236" r="1" fill="red" />
<circle cx="417" cy="221" r="1" fill="red" />
<circle cx="421" cy="219" r="1" fill="red" />
<circle cx="431" cy="215" r="1" fill="red" />
<circle cx="408" cy="193" r="1" fill="red" />
<circle cx="413" cy="186" r="1" fill="red" />
<circle cx="415" cy="181" r="1" fill="red" />
<circle cx="395" cy="160" r="1" fill="red" />
<circle cx="392" cy="159" r="1" fill="red" />
<circle cx="390" cy="148" r="1" fill="red" />
<circle cx="399" cy="144" r="1" fill="red" />
<circle cx="402" cy="141" r="1" fill="red" />
<circle cx="406" cy="132" r="1" fill="red" />
<circle cx="408" cy="124" r="1" fill="red" />
<circle cx="420" cy="119" r="1" fill="red" />
<circle cx="423" cy="119" r="1" fill="red" />
<circle cx="431" cy="119" r="1" fill="red" />
<circle cx="440" cy="107" r="1" fill="red" />
<circle cx="457" cy="95" r="1" fill="red" />
<circle cx="467" cy="79" r="1" fill="red" />
<circle cx="463" cy="78" r="1" fill="red" />
<circle cx="477" cy="64" r="1" fill="red" />
<circle cx="479" cy="60" r="1" fill="red" />
<circle cx="473" cy="52" r="1" fill="red" />
<circle cx="468" cy="59" r="1" fill="red" />
<circle cx="462" cy="61" r="1" fill="red" />
<circle cx="461" cy="60" r="1" fill="red" />
<circle cx="454" cy="51" r="1" fill="red" />
<circle cx="462" cy="43" r="1" fill="red" />
<circle cx="471" cy="40" r="1" fill="red" />
<circle cx="480" cy="38" r="1" fill="red" />
<circle cx="483" cy="37" r="1" fill="red" />
<circle cx="438" cy="64" r="1" fill="red" />
<circle cx="437" cy="73" r="1" fill="red" />
<circle cx="414" cy="100" r="1" fill="red" />
<circle cx="408" cy="120" r="1" fill="red" />
<circle cx="413" cy="132" r="1" fill="red" />
<circle cx="416" cy="140" r="1" fill="red" />
<circle cx="431" cy="163" r="1" fill="red" />
<circle cx="417" cy="191" r="1" fill="red" />
<circle cx="400" cy="187" r="1" fill="red" />
<circle cx="375" cy="198" r="1" fill="red" />
<circle cx="375" cy="217" r="1" fill="red" />
<circle cx="382" cy="226" r="1" fill="red" />
<circle cx="381" cy="239" r="1" fill="red" />
<circle cx="391" cy="244" r="1" fill="red" />
<circle cx="399" cy="261" r="1" fill="red" />
<circle cx="383" cy="277" r="1" fill="red" />
<circle cx="370" cy="290" r="1" fill="red" />
<circle cx="349" cy="289" r="1" fill="red" />
<circle cx="348" cy="294" r="1" fill="red" />
<circle cx="299" cy="303" r="1" fill="red" />
<circle cx="293" cy="309" r="1" fill="red" />
<circle cx="272" cy="294" r="1" fill="red" />
<circle cx="277" cy="274" r="1" fill="red" />
<circle cx="265" cy="243" r="1" fill="red" />
<circle cx="243" cy="261" r="1" fill="red" />
<circle cx="237" cy="253" r="1" fill="red" />
<circle cx="215" cy="247" r="1" fill="red" />
<circle cx="213" cy="225" r="1" fill="red" />
<circle cx="205" cy="213" r="1" fill="red" />
<circle cx="204" cy="208" r="1" fill="red" />
<circle cx="186" cy="186" r="1" fill="red" />
<circle cx="189" cy="167" r="1" fill="red" />
<circle cx="180" cy="162" r="1" fill="red" />
<circle cx="181" cy="145" r="1" fill="red" />
<circle cx="168" cy="137" r="1" fill="red" />
<circle cx="158" cy="120" r="1" fill="red" />
<circle cx="165" cy="107" r="1" fill="red" />
<circle cx="154" cy="95" r="1" fill="red" />
<circle cx="154" cy="92" r="1" fill="red" />
<circle cx="148" cy="79" r="1" fill="red" />
<circle cx="138" cy="73" r="1" fill="red" />
<circle cx="136" cy="55" r="1" fill="red" />
<circle cx="164" cy="27" r="1" fill="red" />
<circle cx="177" cy="36" r="1" fill="red" />
<circle cx="182" cy="38" r="1" fill="red" />
<circle cx="191" cy="51" r="1" fill="red" />
<circle cx="178" cy="54" r="1" fill="red" />
<circle cx="204" cy="85" r="1" fill="red" />
<circle cx="207" cy="104" r="1" fill="red" />
<circle cx="213" cy="106" r="1" fill="red" />
<circle cx="234" cy="140" r="1" fill="red" />
<circle cx="229" cy="143" r="1" fill="red" />
<circle cx="233" cy="149" r="1" fill="red" />
<circle cx="226" cy="159" r="1" fill="red" />
<circle cx="235" cy="163" r="1" fill="red" />
<circle cx="235" cy="173" r="1" fill="red" />
<circle cx="245" cy="180" r="1" fill="red" />
<circle cx="251" cy="181" r="1" fill="red" />
<circle cx="257" cy="192" r="1" fill="red" />
<circle cx="234" cy="218" r="1" fill="red" />
<circle cx="239" cy="244" r="1" fill="red" />
<circle cx="253" cy="300" r="1" fill="red" />
<circle cx="249" cy="315" r="1" fill="red" />
<circle cx="251" cy="327" r="1" fill="red" />
<circle cx="255" cy="332" r="1" fill="red" />
<circle cx="285" cy="362" r="1" fill="red" />
<circle cx="294" cy="374" r="1" fill="red" />
<circle cx="300" cy="377" r="1" fill="red" />
<circle cx="301" cy="374" r="1" fill="red" />
<circle cx="361" cy="368" r="1" fill="red" />
<circle cx="373" cy="358" r="1" fill="red" />
<circle cx="383" cy="327" r="1" fill="red" />
<circle cx="371" cy="310" r="1" fill="red" />
<circle cx="370" cy="297" r="1" fill="red" />
<circle cx="371" cy="294" r="1" fill="red" />
<circle cx="389" cy="281" r="1" fill="red" />
<circle cx="416" cy="255" r="1" fill="red" />
<circle cx="414" cy="248" r="1" fill="red" />
<circle cx="387" cy="224" r="1" fill="red" />
<circle cx="378" cy="172" r="1" fill="red" />
<circle cx="396" cy="131" r="1" fill="red" />
<circle cx="424" cy="140" r="1" fill="red" />
<circle cx="450" cy="164" r="1" fill="red" />
<circle cx="455" cy="141" r="1" fill="red" />
<circle cx="466" cy="120" r="1" fill="red" />
<circle cx="466" cy="118" r="1" fill="red" />
<circle cx="462" cy="107" r="1" fill="red" />
<circle cx="478" cy="85" r="1" fill="red" />
<circle cx="437" cy="45" r="1" fill="red" />
<circle cx="433" cy="102" r="1" fill="red" />
<circle cx="353" cy="243" r="1" fill="red" />
<circle cx="348" cy="252" r="1" fill="red" />
<circle cx="272" cy="317" r="1" fill="red" />
<circle cx="271" cy="368" r="1" fill="red" />
<circle cx="272" cy="378" r="1" fill="red" />
<circle cx="317" cy="431" r="1" fill="red" />
<circle cx="284" cy="436" r="1" fill="red" />
<circle cx="277" cy="454" r="1" fill="red" />
<circle cx="256" cy="503" r="1" fill="red" />
<circle cx="236" cy="538" r="1" fill="red" />
<circle cx="247" cy="559" r="1" fill="red" />
<circle cx="275" cy="548" r="1" fill="red" />
<circle cx="290" cy="557" r="1" fill="red" />
<circle cx="279" cy="564" r="1" fill="red" />
<circle cx="225" cy="582" r="1" fill="red" />
<circle cx="187" cy="575" r="1" fill="red" />
<circle cx="180" cy="534" r="1" fill="red" />
<circle cx="283" cy="432" r="1" fill="red" />
<circle cx="395" cy="301" r="1" fill="red" />
<circle cx="357" cy="264" r="1" fill="red" />
<circle cx="352" cy="254" r="1" fill="red" />
<circle cx="267" cy="242" r="1" fill="red" />
<circle cx="222" cy="215" r="1" fill="red" />
<circle cx="217" cy="208" r="1" fill="red" />
<circle cx="194" cy="164" r="1" fill="red" />
<circle cx="211" cy="141" r="1" fill="red" />
<circle cx="158" cy="94" r="1" fill="red" />
<circle cx="180" cy="87" r="1" fill="red" />
<circle cx="141" cy="26" r="1" fill="red" />
<circle cx="146" cy="95" r="1" fill="red" />
<circle cx="400" cy="290" r="1" fill="red" />
<circle cx="283" cy="436" r="1" fill="red" />
<circle cx="333" cy="461" r="1" fill="red" />
<circle cx="344" cy="436" r="1" fill="red" />
<circle cx="186" cy="583" r="1" fill="red" />
<circle cx="185" cy="575" r="1" fill="red" />
</svg>