<?xml version="1.0" encoding="UTF-8"?>
<svg xmlns="http://www.w3.org/2000/svg" xmlns:xlink="http://www.w3.org/1999/xlink"
     width="1000" height="710.2040816326531" viewBox="-19 -3 245 174">
<defs>
</defs>
<path d="M0,0 L-3,2" stroke="green" stroke-width="0.25" fill="none" />
<path d="M-3,2 L-5,4" stroke="green" stroke-width="0.25" fill="none" />
<path d="M-5,4 L-7,5" stroke="green" stroke-width="0.25" fill="none" />
<path d="M-7,5 L-8,6" stroke="green" stroke-width="0.25" fill="none" />
<path d="M-8,6 L-9,6" stroke="green" stroke-width="0.25" fill="none" />
<path d="M-9,6 L-10,7" stroke="green" stroke-width="0.25" fill="none" />
<path d="M-10,7 L-11,8" stroke="green" stroke-width="0.25" fill="none" />
<path d="M-11,8 L-13,9" stroke="green" stroke-width="0.25" fill="none" />
<path d="M-13,9 L-14,11" stroke="green" stroke-width="0.25" fill="none" />
<path d="M-14,11 L-14,14" stroke="green" stroke-width="0.25" fill="none" />
<path d="M-14,14 L-14,17" stroke="green" stroke-width="0.25" fill="none" />
<path d="M-14,17 L-13,19" stroke="green" stroke-width="0.25" fill="none" />
<path d="M-13,19 L-12,22" stroke="green" stroke-width="0.25" fill="none" />
<path d="M-12,22 L-12,25" stroke="green" stroke-width="0.25" fill="none" />
<path d="M-12,25 L-11,28" stroke="green" stroke-width="0.25" fill="none" />
<path d="M-11,28 L-10,30" stroke="green" stroke-width="0.25" fill="none" />
<path d="M-10,30 L-10,33" stroke="green" stroke-width="0.25" fill="none" />
<path d="M-10,33 L-9,37" stroke="green" stroke-width="0.25" fill="none" />
<path d="M-9,37 L-7,41" stroke="green" stroke-width="0.25" fill="none" />
<path d="M-7,41 L-5,46" stroke="green" stroke-width="0.25" fill="none" />
<path d="M-5,46 L-3,50" stroke="green" stroke-width="0.25" fill="none" />
<path d="M-3,50 L0,54" stroke="green" stroke-width="0.25" fill="none" />
<path d="M0,54 L3,57" stroke="green" stroke-width="0.25" fill="none" />
<path d="M3,57 L7,59" stroke="green" stroke-width="0.25" fill="none" />
<path d="M7,59 L10,62" stroke="green" stroke-width="0.25" fill="none" />
<path d="M10,62 L12,64" stroke="green" stroke-width="0.25" fill="none" />
<path d="M12,64 L13,66" stroke="green" stroke-width="0.25" fill="none" />
<path d="M13,66 L14,67" stroke="green" stroke-width="0.25" fill="none" />
<path d="M14,67 L16,67" stroke="green" stroke-width="0.25" fill="none" />
<path d="M16,67 L18,68" stroke="green" stroke-width="0.25" fill="none" />
<path d="M18,68 L19,68" stroke="green" stroke-width="0.25" fill="none" />
<path d="M19,68 L20,67" stroke="green" stroke-width="0.25" fill="none" />
<path d="M20,67 L22,67" stroke="green" stroke-width="0.25" fill="none" />
<path d="M22,67 L23,66" stroke="green" stroke-width="0.25" fill="none" />
<path d="M23,66 L25,64" stroke="green" stroke-width="0.25" fill="none" />
<path d="M25,64 L28,63" stroke="green" stroke-width="0.25" fill="none" />
<path d="M28,63 L32,63" stroke="green" stroke-width="0.25" fill="none" />
<path d="M32,63 L37,64" stroke="green" stroke-width="0.25" fill="none" />
<path d="M37,64 L41,64" stroke="green" stroke-width="0.25" fill="none" />
<path d="M41,64 L44,64" stroke="green" stroke-width="0.25" fill="none" />
<path d="M44,64 L48,64" stroke="green" stroke-width="0.25" fill="none" />
<path d="M48,64 L53,63" stroke="green" stroke-width="0.25" fill="none" />
<path d="M53,63 L59,63" stroke="green" stroke-width="0.25" fill="none" />
<path d="M59,63 L64,63" stroke="green" stroke-width="0.25" fill="none" />
<path d="M64,63 L70,62" stroke="green" stroke-width="0.25" fill="none" />
<path d="M70,62 L76,62" stroke="green" stroke-width="0.25" fill="none" />
<path d="M76,62 L83,62" stroke="green" stroke-width="0.25" fill="none" />
<path d="M83,62 L89,62" stroke="green" stroke-width="0.25" fill="none" />
<path d="M89,62 L95,61" stroke="green" stroke-width="0.25" fill="none" />
<path d="M95,61 L102,60" stroke="green" stroke-width="0.25" fill="none" />
<path d="M102,60 L108,60" stroke="green" stroke-width="0.25" fill="none" />
<path d="M108,60 L113,59" stroke="green" stroke-width="0.25" fill="none" />
<path d="M113,59 L118,59" stroke="green" stroke-width="0.25" fill="none" />
<path d="M118,59 L123,59" stroke="green" stroke-width="0.25" fill="none" />
<path d="M123,59 L129,60" stroke="green" stroke-width="0.25" fill="none" />
<path d="M129,60 L135,60" stroke="green" stroke-width="0.25" fill="none" />
<path d="M135,60 L140,59" stroke="green" stroke-width="0.25" fill="none" />
<path d="M140,59 L144,59" stroke="green" stroke-width="0.25" fill="none" />
<path d="M144,59 L148,59" stroke="green" stroke-width="0.25" fill="none" />
<path d="M148,59 L152,58" stroke="green" stroke-width="0.25" fill="none" />
<path d="M152,58 L157,58" stroke="green" stroke-width="0.25" fill="none" />
<path d="M157,58 L161,57" stroke="green" stroke-width="0.25" fill="none" />
<path d="M161,57 L164,55" stroke="green" stroke-width="0.25" fill="none" />
<path d="M164,55 L166,54" stroke="green" stroke-width="0.25" fill="none" />
<path d="M166,54 L169,53" stroke="green" stroke-width="0.25" fill="none" />
<path d="M169,53 L174,48" stroke="green" stroke-width="0.25" fill="none" />
<path d="M174,48 L176,45" stroke="green" stroke-width="0.25" fill="none" />
<path d="M176,45 L178,43" stroke="green" stroke-width="0.25" fill="none" />
<path d="M178,43 L181,42" stroke="green" stroke-width="0.25" fill="none" />
<path d="M181,42 L182,43" stroke="green" stroke-width="0.25" fill="none" />
<path d="M182,43 L182,44" stroke="green" stroke-width="0.25" fill="none" />
<path d="M182,44 L182,45" stroke="green" stroke-width="0.25" fill="none" />
<path d="M182,45 L181,47" stroke="green" stroke-width="0.25" fill="none" />
<path d="M181,47 L179,48" stroke="green" stroke-width="0.25" fill="none" />
<path d="M179,48 L177,50" stroke="green" stroke-width="0.25" fill="none" />
<path d="M177,50 L176,51" stroke="green" stroke-width="0.25" fill="none" />
<path d="M176,51 L175,51" stroke="green" stroke-width="0.25" fill="none" />
<path d="M175,51 L175,52" stroke="green" stroke-width="0.25" fill="none" />
<path d="M175,52 L174,53" stroke="green" stroke-width="0.25" fill="none" />
<path d="M174,53 L172,51" stroke="green" stroke-width="0.25" fill="none" />
<path d="M172,51 L172,53" stroke="green" stroke-width="0.25" fill="none" />
<path d="M172,53 L171,54" stroke="green" stroke-width="0.25" fill="none" />
<path d="M171,54 L170,55" stroke="green" stroke-width="0.25" fill="none" />
<path d="M170,55 L170,57" stroke="green" stroke-width="0.25" fill="none" />
<path d="M170,57 L171,59" stroke="green" stroke-width="0.25" fill="none" />
<path d="M171,59 L173,61" stroke="green" stroke-width="0.25" fill="none" />
<path d="M173,61 L174,63" stroke="green" stroke-width="0.25" fill="none" />
<path d="M174,63 L176,64" stroke="green" stroke-width="0.25" fill="none" />
<path d="M176,64 L179,64" stroke="green" stroke-width="0.25" fill="none" />
<path d="M179,64 L182,65" stroke="green" stroke-width="0.25" fill="none" />
<path d="M182,65 L184,66" stroke="green" stroke-width="0.25" fill="none" />
<path d="M184,66 L187,68" stroke="green" stroke-width="0.25" fill="none" />
<path d="M187,68 L190,70" stroke="green" stroke-width="0.25" fill="none" />
<path d="M190,70 L194,72" stroke="green" stroke-width="0.25" fill="none" />
<path d="M194,72 L201,75" stroke="green" stroke-width="0.25" fill="none" />
<path d="M201,75 L205,77" stroke="green" stroke-width="0.25" fill="none" />
<path d="M205,77 L208,80" stroke="green" stroke-width="0.25" fill="none" />
<path d="M208,80 L210,84" stroke="green" stroke-width="0.25" fill="none" />
<path d="M210,84 L211,88" stroke="green" stroke-width="0.25" fill="none" />
<path d="M211,88 L212,93" stroke="green" stroke-width="0.25" fill="none" />
<path d="M212,93 L214,97" stroke="green" stroke-width="0.25" fill="none" />
<path d="M214,97 L216,102" stroke="green" stroke-width="0.25" fill="none" />
<path d="M216,102 L217,108" stroke="green" stroke-width="0.25" fill="none" />
<path d="M217,108 L217,114" stroke="green" stroke-width="0.25" fill="none" />
<path d="M217,114 L217,120" stroke="green" stroke-width="0.25" fill="none" />
<path d="M217,120 L216,126" stroke="green" stroke-width="0.25" fill="none" />
<path d="M216,126 L216,132" stroke="green" stroke-width="0.25" fill="none" />
<path d="M216,132 L217,139" stroke="green" stroke-width="0.25" fill="none" />
<path d="M217,139 L219,145" stroke="green" stroke-width="0.25" fill="none" />
<path d="M219,145 L220,150" stroke="green" stroke-width="0.25" fill="none" />
<path d="M220,150 L221,155" stroke="green" stroke-width="0.25" fill="none" />
<path d="M221,155 L221,161" stroke="green" stroke-width="0.25" fill="none" />
<path d="M221,161 L220,166" stroke="green" stroke-width="0.25" fill="none" />
<circle cx="0" cy="0" r="0.5" fill="blue" />
<circle cx="-3" cy="2" r="0.5" fill="red" />
<circle cx="-5" cy="4" r="0.5" fill="red" />
<circle cx="-7" cy="5" r="0.5" fill="red" />
<circle cx="-8" cy="6" r="0.5" fill="red" />
<circle cx="-9" cy="6" r="0.5" fill="red" />
<circle cx="-10" cy="7" r="0.5" fill="red" />
<circle cx="-11" cy="8" r="0.5" fill="red" />
<circle cx="-13" cy="9" r="0.5" fill="red" />
<circle cx="-14" cy="11" r="0.5" fill="red" />
<circle cx="-14" cy="14" r="0.5" fill="red" />
<circle cx="-14" cy="17" r="0.5" fill="red" />
<circle cx="-13" cy="19" r="0.5" fill="red" />
<circle cx="-12" cy="22" r="0.5" fill="red" />
<circle cx="-12" cy="25" r="0.5" fill="red" />
<circle cx="-11" cy="28" r="0.5" fill="red" />
<circle cx="-10" cy="30" r="0.5" fill="red" />
<circle cx="-10" cy="33" r="0.5" fill="red" />
<circle cx="-9" cy="37" r="0.5" fill="red" />
<circle cx="-7" cy="41" r="0.5" fill="red" />
<circle cx="-5" cy="46" r="0.5" fill="red" />
<circle cx="-3" cy="50" r="0.5" fill="red" />
<circle cx="0" cy="54" r="0.5" fill="red" />
<circle cx="3" cy="57" r="0.5" fill="red" />
<circle cx="7" cy="59" r="0.5" fill="red" />
<circle cx="10" cy="62" r="0.5" fill="red" />
<circle cx="12" cy="64" r="0.5" fill="red" />
<circle cx="13" cy="66" r="0.5" fill="red" />
<circle cx="14" cy="67" r="0.5" fill="red" />
<circle cx="16" cy="67" r="0.5" fill="red" />
<circle cx="18" cy="68" r="0.5" fill="red" />
<circle cx="19" cy="68" r="0.5" fill="red" />
<circle cx="20" cy="67" r="0.5" fill="red" />
<circle cx="22" cy="67" r="0.5" fill="red" />
<circle cx="23" cy="66" r="0.5" fill="red" />
<circle cx="25" cy="64" r="0.5" fill="red" />
<circle cx="28" cy="63" r="0.5" fill="red" />
<circle cx="32" cy="63" r="0.5" fill="red" />
<circle cx="37" cy="64" r="0.5" fill="red" />
<circle cx="41" cy="64" r="0.5" fill="red" />
<circle cx="44" cy="64" r="0.5" fill="red" />
<circle cx="48" cy="64" r="0.5" fill="red" />
<circle cx="53" cy="63" r="0.5" fill="red" />
<circle cx="59" cy="63" r="0.5" fill="red" />
<circle cx="64" cy="63" r="0.5" fill="red" />
<circle cx="70" cy="62" r="0.5" fill="red" />
<circle cx="76" cy="62" r="0.5" fill="red" />
<circle cx="83" cy="62" r="0.5" fill="red" />
<circle cx="89" cy="62" r="0.5" fill="red" />
<circle cx="95" cy="61" r="0.5" fill="red" />
<circle cx="102" cy="60" r="0.5" fill="red" />
<circle cx="108" cy="60" r="0.5" fill="red" />
<circle cx="113" cy="59" r="0.5" fill="red" />
<circle cx="118" cy="59" r="0.5" fill="red" />
<circle cx="123" cy="59" r="0.5" fill="red" />
<circle cx="129" cy="60" r="0.5" fill="red" />
<circle cx="135" cy="60" r="0.5" fill="red" />
<circle cx="140" cy="59" r="0.5" fill="red" />
<circle cx="144" cy="59" r="0.5" fill="red" />
<circle cx="148" cy="59" r="0.5" fill="red" />
<circle cx="152" cy="58" r="0.5" fill="red" />
<circle cx="157" cy="58" r="0.5" fill="red" />
<circle cx="161" cy="57" r="0.5" fill="red" />
<circle cx="164" cy="55" r="0.5" fill="red" />
<circle cx="166" cy="54" r="0.5" fill="red" />
<circle cx="169" cy="53" r="0.5" fill="red" />
<circle cx="174" cy="48" r="0.5" fill="red" />
<circle cx="176" cy="45" r="0.5" fill="red" />
<circle cx="178" cy="43" r="0.5" fill="red" />
<circle cx="181" cy="42" r="0.5" fill="red" />
<circle cx="182" cy="43" r="0.5" fill="red" />
<circle cx="182" cy="44" r="0.5" fill="red" />
<circle cx="182" cy="45" r="0.5" fill="red" />
<circle cx="181" cy="47" r="0.5" fill="red" />
<circle cx="179" cy="48" r="0.5" fill="red" />
<circle cx="177" cy="50" r="0.5" fill="red" />
<circle cx="176" cy="51" r="0.5" fill="red" />
<circle cx="175" cy="51" r="0.5" fill="red" />
<circle cx="175" cy="52" r="0.5" fill="red" />
<circle cx="174" cy="53" r="0.5" fill="red" />
<circle cx="172" cy="51" r="0.5" fill="red" />
<circle cx="172" cy="53" r="0.5" fill="red" />
<circle cx="171" cy="54" r="0.5" fill="red" />
<circle cx="170" cy="55" r="0.5" fill="red" />
<circle cx="170" cy="57" r="0.5" fill="red" />
<circle cx="171" cy="59" r="0.5" fill="red" />
<circle cx="173" cy="61" r="0.5" fill="red" />
<circle cx="174" cy="63" r="0.5" fill="red" />
<circle cx="176" cy="64" r="0.5" fill="red" />
<circle cx="179" cy="64" r="0.5" fill="red" />
<circle cx="182" cy="65" r="0.5" fill="red" />
<circle cx="184" cy="66" r="0.5" fill="red" />
<circle cx="187" cy="68" r="0.5" fill="red" />
<circle cx="190" cy="70" r="0.5" fill="red" />
<circle cx="194" cy="72" r="0.5" fill="red" />
<circle cx="201" cy="75" r="0.5" fill="red" />
<circle cx="205" cy="77" r="0.5" fill="red" />
<circle cx="208" cy="80" r="0.5" fill="red" />
<circle cx="210" cy="84" r="0.5" fill="red" />
<circle cx="211" cy="88" r="0.5" fill="red" />
<circle cx="212" cy="93" r="0.5" fill="red" />
<circle cx="214" cy="97" r="0.5" fill="red" />
<circle cx="216" cy="102" r="0.5" fill="red" />
<circle cx="217" cy="108" r="0.5" fill="red" />
<circle cx="217" cy="114" r="0.5" fill="red" />
<circle cx="217" cy="120" r="0.5" fill="red" />
<circle cx="216" cy="126" r="0.5" fill="red" />
<circle cx="216" cy="132" r="0.5" fill="red" />
<circle cx="217" cy="139" r="0.5" fill="red" />
<circle cx="219" cy="145" r="0.5" fill="red" />
<circle cx="220" cy="150" r="0.5" fill="red" />
<circle cx="221" cy="155" r="0.5" fill="red" />
<circle cx="221" cy="161" r="0.5" fill="red" />
<circle cx="220" cy="166" r="0.5" fill="red" />
</svg>