<?xml version="1.0" encoding="UTF-8"?>
<svg xmlns="http://www.w3.org/2000/svg" xmlns:xlink="http://www.w3.org/1999/xlink"
     width="1000" height="1014.6341463414634" viewBox="-100 -104 205 208">
<defs>
</defs>
<path d="M0,0 L11,-12" stroke="green" stroke-width="0.5" fill="none" />
<path d="M11,-12 L25,-18" stroke="green" stroke-width="0.5" fill="none" />
<path d="M25,-18 L39,-17" stroke="green" stroke-width="0.5" fill="none" />
<path d="M39,-17 L54,-1" stroke="green" stroke-width="0.5" fill="none" />
<path d="M54,-1 L62,9" stroke="green" stroke-width="0.5" fill="none" />
<path d="M62,9 L52,23" stroke="green" stroke-width="0.5" fill="none" />
<path d="M52,23 L52,28" stroke="green" stroke-width="0.5" fill="none" />
<path d="M52,28 L68,43" stroke="green" stroke-width="0.5" fill="none" />
<path d="M68,43 L74,59" stroke="green" stroke-width="0.5" fill="none" />
<path d="M74,59 L66,60" stroke="green" stroke-width="0.5" fill="none" />
<path d="M66,60 L58,76" stroke="green" stroke-width="0.5" fill="none" />
<path d="M58,76 L40,84" stroke="green" stroke-width="0.5" fill="none" />
<path d="M40,84 L31,67" stroke="green" stroke-width="0.5" fill="none" />
<path d="M31,67 L10,77" stroke="green" stroke-width="0.5" fill="none" />
<path d="M10,77 L7,80" stroke="green" stroke-width="0.5" fill="none" />
<path d="M7,80 L4,83" stroke="green" stroke-width="0.5" fill="none" />
<path d="M4,83 L-11,94" stroke="green" stroke-width="0.5" fill="none" />
<path d="M-11,94 L-38,91" stroke="green" stroke-width="0.5" fill="none" />
<path d="M-38,91 L-49,77" stroke="green" stroke-width="0.5" fill="none" />
<path d="M-49,77 L-68,98" stroke="green" stroke-width="0.5" fill="none" />
<path d="M-68,98 L-84,87" stroke="green" stroke-width="0.5" fill="none" />
<path d="M-84,87 L-90,86" stroke="green" stroke-width="0.5" fill="none" />
<path d="M-90,86 L-95,74" stroke="green" stroke-width="0.5" fill="none" />
<path d="M-95,74 L-93,70" stroke="green" stroke-width="0.5" fill="none" />
<path d="M-93,70 L-61,76" stroke="green" stroke-width="0.5" fill="none" />
<path d="M-61,76 L-45,68" stroke="green" stroke-width="0.5" fill="none" />
<path d="M-45,68 L-25,39" stroke="green" stroke-width="0.5" fill="none" />
<path d="M-25,39 L-6,52" stroke="green" stroke-width="0.5" fill="none" />
<path d="M-6,52 L8,39" stroke="green" stroke-width="0.5" fill="none" />
<path d="M8,39 L11,20" stroke="green" stroke-width="0.5" fill="none" />
<path d="M11,20 L-2,2" stroke="green" stroke-width="0.5" fill="none" />
<path d="M-2,2 L-20,-19" stroke="green" stroke-width="0.5" fill="none" />
<path d="M-20,-19 L-7,-38" stroke="green" stroke-width="0.5" fill="none" />
<path d="M-7,-38 L-26,-57" stroke="green" stroke-width="0.5" fill="none" />
<path d="M-26,-57 L-10,-76" stroke="green" stroke-width="0.5" fill="none" />
<path d="M-10,-76 L1,-93" stroke="green" stroke-width="0.5" fill="none" />
<path d="M1,-93 L9,-88" stroke="green" stroke-width="0.5" fill="none" />
<path d="M9,-88 L21,-92" stroke="green" stroke-width="0.5" fill="none" />
<path d="M21,-92 L30,-89" stroke="green" stroke-width="0.5" fill="none" />
<path d="M30,-89 L39,-86" stroke="green" stroke-width="0.5" fill="none" />
<path d="M39,-86 L33,-72" stroke="green" stroke-width="0.5" fill="none" />
<path d="M33,-72 L37,-69" stroke="green" stroke-width="0.5" fill="none" />
<path d="M37,-69 L48,-54" stroke="green" stroke-width="0.5" fill="none" />
<path d="M48,-54 L68,-48" stroke="green" stroke-width="0.5" fill="none" />
<path d="M68,-48 L72,-39" stroke="green" stroke-width="0.5" fill="none" />
<path d="M72,-39 L73,-30" stroke="green" stroke-width="0.5" fill="none" />
<path d="M73,-30 L59,-20" stroke="green" stroke-width="0.5" fill="none" />
<path d="M59,-20 L59,-2" stroke="green" stroke-width="0.5" fill="none" />
<path d="M59,-2 L70,8" stroke="green" stroke-width="0.5" fill="none" />
<path d="M70,8 L95,-1" stroke="green" stroke-width="0.5" fill="none" />
<path d="M95,-1 L95,22" stroke="green" stroke-width="0.5" fill="none" />
<path d="M95,22 L39,40" stroke="green" stroke-width="0.5" fill="none" />
<path d="M39,40 L18,53" stroke="green" stroke-width="0.5" fill="none" />
<path d="M18,53 L17,48" stroke="green" stroke-width="0.5" fill="none" />
<path d="M17,48 L-26,9" stroke="green" stroke-width="0.5" fill="none" />
<path d="M-26,9 L-48,12" stroke="green" stroke-width="0.5" fill="none" />
<path d="M-48,12 L-64,1" stroke="green" stroke-width="0.5" fill="none" />
<path d="M-64,1 L-40,-22" stroke="green" stroke-width="0.5" fill="none" />
<path d="M-40,-22 L-38,-18" stroke="green" stroke-width="0.5" fill="none" />
<path d="M-38,-18 L-29,-18" stroke="green" stroke-width="0.5" fill="none" />
<path d="M-29,-18 L4,-45" stroke="green" stroke-width="0.5" fill="none" />
<path d="M4,-45 L27,-39" stroke="green" stroke-width="0.5" fill="none" />
<path d="M27,-39 L28,-57" stroke="green" stroke-width="0.5" fill="none" />
<path d="M28,-57 L32,-61" stroke="green" stroke-width="0.5" fill="none" />
<path d="M32,-61 L55,-92" stroke="green" stroke-width="0.5" fill="none" />
<path d="M55,-92 L56,-92" stroke="green" stroke-width="0.5" fill="none" />
<path d="M56,-92 L64,-99" stroke="green" stroke-width="0.5" fill="none" />
<path d="M64,-99 L77,-96" stroke="green" stroke-width="0.5" fill="none" />
<path d="M77,-96 L82,-92" stroke="green" stroke-width="0.5" fill="none" />
<path d="M82,-92 L99,-77" stroke="green" stroke-width="0.5" fill="none" />
<path d="M99,-77 L100,-89" stroke="green" stroke-width="0.5" fill="none" />
<path d="M100,-89 L79,-80" stroke="green" stroke-width="0.5" fill="none" />
<path d="M79,-80 L91,-49" stroke="green" stroke-width="0.5" fill="none" />
<path d="M91,-49 L33,20" stroke="green" stroke-width="0.5" fill="none" />
<path d="M33,20 L-36,-50" stroke="green" stroke-width="0.5" fill="none" />
<path d="M-36,-50 L-41,-63" stroke="green" stroke-width="0.5" fill="none" />
<path d="M-41,-63 L-44,-64" stroke="green" stroke-width="0.5" fill="none" />
<path d="M-44,-64 L-59,-84" stroke="green" stroke-width="0.5" fill="none" />
<path d="M-59,-84 L-75,-83" stroke="green" stroke-width="0.5" fill="none" />
<path d="M-75,-83 L-85,-75" stroke="green" stroke-width="0.5" fill="none" />
<path d="M-85,-75 L-81,-68" stroke="green" stroke-width="0.5" fill="none" />
<path d="M-81,-68 L-89,-62" stroke="green" stroke-width="0.5" fill="none" />
<path d="M-89,-62 L-83,-49" stroke="green" stroke-width="0.5" fill="none" />
<path d="M-83,-49 L-95,-30" stroke="green" stroke-width="0.5" fill="none" />
<path d="M-95,-30 L-74,4" stroke="green" stroke-width="0.5" fill="none" />
<path d="M-74,4 L-93,88" stroke="green" stroke-width="0.5" fill="none" />
<path d="M-93,88 L9,55" stroke="green" stroke-width="0.5" fill="none" />
<path d="M9,55 L10,53" stroke="green" stroke-width="0.5" fill="none" />
<path d="M10,53 L-67,-45" stroke="green" stroke-width="0.5" fill="none" />
<path d="M-67,-45 L-80,-66" stroke="green" stroke-width="0.5" fill="none" />
<path d="M-80,-66 L-75,-72" stroke="green" stroke-width="0.5" fill="none" />
<path d="M-75,-72 L-49,-86" stroke="green" stroke-width="0.5" fill="none" />
<path d="M-49,-86 L45,-98" stroke="green" stroke-width="0.5" fill="none" />
<path d="M45,-98 L49,-93" stroke="green" stroke-width="0.5" fill="none" />
<path d="M49,-93 L-81,-90" stroke="green" stroke-width="0.5" fill="none" />
<path d="M-81,-90 L-89,-94" stroke="green" stroke-width="0.5" fill="none" />
<path d="M-89,-94 L-89,-88" stroke="green" stroke-width="0.5" fill="none" />
<path d="M-89,-88 L74,78" stroke="green" stroke-width="0.5" fill="none" />
<path d="M74,78 L82,99" stroke="green" stroke-width="0.5" fill="none" />
<path d="M82,99 L54,98" stroke="green" stroke-width="0.5" fill="none" />
<circle cx="0" cy="0" r="1" fill="blue" />
<circle cx="11" cy="-12" r="1" fill="red" />
<circle cx="25" cy="-18" r="1" fill="red" />
<circle cx="39" cy="-17" r="1" fill="red" />
<circle cx="54" cy="-1" r="1" fill="red" />
<circle cx="62" cy="9" r="1" fill="red" />
<circle cx="52" cy="23" r="1" fill="red" />
<circle cx="52" cy="28" r="1" fill="red" />
<circle cx="68" cy="43" r="1" fill="red" />
<circle cx="74" cy="59" r="1" fill="red" />
<circle cx="66" cy="60" r="1" fill="red" />
<circle cx="58" cy="76" r="1" fill="red" />
<circle cx="40" cy="84" r="1" fill="red" />
<circle cx="31" cy="67" r="1" fill="red" />
<circle cx="10" cy="77" r="1" fill="red" />
<circle cx="7" cy="80" r="1" fill="red" />
<circle cx="4" cy="83" r="1" fill="red" />
<circle cx="-11" cy="94" r="1" fill="red" />
<circle cx="-38" cy="91" r="1" fill="red" />
<circle cx="-49" cy="77" r="1" fill="red" />
<circle cx="-68" cy="98" r="1" fill="red" />
<circle cx="-84" cy="87" r="1" fill="red" />
<circle cx="-90" cy="86" r="1" fill="red" />
<circle cx="-95" cy="74" r="1" fill="red" />
<circle cx="-93" cy="70" r="1" fill="red" />
<circle cx="-61" cy="76" r="1" fill="red" />
<circle cx="-45" cy="68" r="1" fill="red" />
<circle cx="-25" cy="39" r="1" fill="red" />
<circle cx="-6" cy="52" r="1" fill="red" />
<circle cx="8" cy="39" r="1" fill="red" />
<circle cx="11" cy="20" r="1" fill="red" />
<circle cx="-2" cy="2" r="1" fill="red" />
<circle cx="-20" cy="-19" r="1" fill="red" />
<circle cx="-7" cy="-38" r="1" fill="red" />
<circle cx="-26" cy="-57" r="1" fill="red" />
<circle cx="-10" cy="-76" r="1" fill="red" />
<circle cx="1" cy="-93" r="1" fill="red" />
<circle cx="9" cy="-88" r="1" fill="red" />
<circle cx="21" cy="-92" r="1" fill="red" />
<circle cx="30" cy="-89" r="1" fill="red" />
<circle cx="39" cy="-86" r="1" fill="red" />
<circle cx="33" cy="-72" r="1" fill="red" />
<circle cx="37" cy="-69" r="1" fill="red" />
<circle cx="48" cy="-54" r="1" fill="red" />
<circle cx="68" cy="-48" r="1" fill="red" />
<circle cx="72" cy="-39" r="1" fill="red" />
<circle cx="73" cy="-30" r="1" fill="red" />
<circle cx="59" cy="-20" r="1" fill="red" />
<circle cx="59" cy="-2" r="1" fill="red" />
<circle cx="70" cy="8" r="1" fill="red" />
<circle cx="95" cy="-1" r="1" fill="red" />
<circle cx="95" cy="22" r="1" fill="red" />
<circle cx="39" cy="40" r="1" fill="red" />
<circle cx="18" cy="53" r="1" fill="red" />
<circle cx="17" cy="48" r="1" fill="red" />
<circle cx="-26" cy="9" r="1" fill="red" />
<circle cx="-48" cy="12" r="1" fill="red" />
<circle cx="-64" cy="1" r="1" fill="red" />
<circle cx="-40" cy="-22" r="1" fill="red" />
<circle cx="-38" cy="-18" r="1" fill="red" />
<circle cx="-29" cy="-18" r="1" fill="red" />
<circle cx="4" cy="-45" r="1" fill="red" />
<circle cx="27" cy="-39" r="1" fill="red" />
<circle cx="28" cy="-57" r="1" fill="red" />
<circle cx="32" cy="-61" r="1" fill="red" />
<circle cx="55" cy="-92" r="1" fill="red" />
<circle cx="56" cy="-92" r="1" fill="red" />
<circle cx="64" cy="-99" r="1" fill="red" />
<circle cx="77" cy="-96" r="1" fill="red" />
<circle cx="82" cy="-92" r="1" fill="red" />
<circle cx="99" cy="-77" r="1" fill="red" />
<circle cx="100" cy="-89" r="1" fill="red" />
<circle cx="79" cy="-80" r="1" fill="red" />
<circle cx="91" cy="-49" r="1" fill="red" />
<circle cx="33" cy="20" r="1" fill="red" />
<circle cx="-36" cy="-50" r="1" fill="red" />
<circle cx="-41" cy="-63" r="1" fill="red" />
<circle cx="-44" cy="-64" r="1" fill="red" />
<circle cx="-59" cy="-84" r="1" fill="red" />
<circle cx="-75" cy="-83" r="1" fill="red" />
<circle cx="-85" cy="-75" r="1" fill="red" />
<circle cx="-81" cy="-68" r="1" fill="red" />
<circle cx="-89" cy="-62" r="1" fill="red" />
<circle cx="-83" cy="-49" r="1" fill="red" />
<circle cx="-95" cy="-30" r="1" fill="red" />
<circle cx="-74" cy="4" r="1" fill="red" />
<circle cx="-93" cy="88" r="1" fill="red" />
<circle cx="9" cy="55" r="1" fill="red" />
<circle cx="10" cy="53" r="1" fill="red" />
<circle cx="-67" cy="-45" r="1" fill="red" />
<circle cx="-80" cy="-66" r="1" fill="red" />
<circle cx="-75" cy="-72" r="1" fill="red" />
<circle cx="-49" cy="-86" r="1" fill="red" />
<circle cx="45" cy="-98" r="1" fill="red" />
<circle cx="49" cy="-93" r="1" fill="red" />
<circle cx="-81" cy="-90" r="1" fill="red" />
<circle cx="-89" cy="-94" r="1" fill="red" />
<circle cx="-89" cy="-88" r="1" fill="red" />
<circle cx="74" cy="78" r="1" fill="red" />
<circle cx="82" cy="99" r="1" fill="red" />
<circle cx="54" cy="98" r="1" fill="red" />
</svg>