<?xml version="1.0" encoding="UTF-8"?>
<svg xmlns="http://www.w3.org/2000/svg" xmlns:xlink="http://www.w3.org/1999/xlink"
     width="1000" height="1000.0000000000001" viewBox="-15 -15 30 30">
<defs>
</defs>
<path d="M0,0 L0,-1" stroke="green" stroke-width="0.25" fill="none" />
<path d="M0,-1 L-6,-1" stroke="green" stroke-width="0.25" fill="none" />
<path d="M-6,-1 L-8,-1" stroke="green" stroke-width="0.25" fill="none" />
<path d="M-8,-1 L-10,4" stroke="green" stroke-width="0.25" fill="none" />
<path d="M-10,4 L-8,7" stroke="green" stroke-width="0.25" fill="none" />
<path d="M-8,7 L-8,-2" stroke="green" stroke-width="0.25" fill="none" />
<path d="M-8,-2 L-9,-4" stroke="green" stroke-width="0.25" fill="none" />
<path d="M-9,-4 L-7,-3" stroke="green" stroke-width="0.25" fill="none" />
<path d="M-7,-3 L-5,-4" stroke="green" stroke-width="0.25" fill="none" />
<path d="M-5,-4 L-5,-8" stroke="green" stroke-width="0.25" fill="none" />
<path d="M-5,-8 L-7,-10" stroke="green" stroke-width="0.25" fill="none" />
<path d="M-7,-10 L6,-5" stroke="green" stroke-width="0.25" fill="none" />
<path d="M6,-5 L9,-5" stroke="green" stroke-width="0.25" fill="none" />
<path d="M9,-5 L10,1" stroke="green" stroke-width="0.25" fill="none" />
<path d="M10,1 L5,4" stroke="green" stroke-width="0.25" fill="none" />
<path d="M5,4 L-1,5" stroke="green" stroke-width="0.25" fill="none" />
<path d="M-1,5 L2,8" stroke="green" stroke-width="0.25" fill="none" />
<path d="M2,8 L4,10" stroke="green" stroke-width="0.25" fill="none" />
<circle cx="0" cy="0" r="0.5" fill="blue" />
<circle cx="0" cy="-1" r="0.5" fill="red" />
<circle cx="-6" cy="-1" r="0.5" fill="red" />
<circle cx="-8" cy="-1" r="0.5" fill="red" />
<circle cx="-10" cy="4" r="0.5" fill="red" />
<circle cx="-8" cy="7" r="0.5" fill="red" />
<circle cx="-8" cy="-2" r="0.5" fill="red" />
<circle cx="-9" cy="-4" r="0.5" fill="red" />
<circle cx="-7" cy="-3" r="0.5" fill="red" />
<circle cx="-5" cy="-4" r="0.5" fill="red" />
<circle cx="-5" cy="-8" r="0.5" fill="red" />
<circle cx="-7" cy="-10" r="0.5" fill="red" />
<circle cx="6" cy="-5" r="0.5" fill="red" />
<circle cx="9" cy="-5" r="0.5" fill="red" />
<circle cx="10" cy="1" r="0.5" fill="red" />
<circle cx="5" cy="4" r="0.5" fill="red" />
<circle cx="-1" cy="5" r="0.5" fill="red" />
<circle cx="2" cy="8" r="0.5" fill="red" />
<circle cx="4" cy="10" r="0.5" fill="red" />
</svg>