<?xml version="1.0" encoding="UTF-8"?>
<svg xmlns="http://www.w3.org/2000/svg" xmlns:xlink="http://www.w3.org/1999/xlink"
     width="1000" height="680.5555555555555" viewBox="-99 -93 144 98">
<defs>
</defs>
<path d="M0,0 L-1,0" stroke="green" stroke-width="0.5" fill="none" />
<path d="M-1,0 L-4,-2" stroke="green" stroke-width="0.5" fill="none" />
<path d="M-4,-2 L-6,-6" stroke="green" stroke-width="0.5" fill="none" />
<path d="M-6,-6 L-7,-9" stroke="green" stroke-width="0.5" fill="none" />
<path d="M-7,-9 L-10,-11" stroke="green" stroke-width="0.5" fill="none" />
<path d="M-10,-11 L-11,-12" stroke="green" stroke-width="0.5" fill="none" />
<path d="M-11,-12 L-12,-15" stroke="green" stroke-width="0.5" fill="none" />
<path d="M-12,-15 L-15,-20" stroke="green" stroke-width="0.5" fill="none" />
<path d="M-15,-20 L-17,-23" stroke="green" stroke-width="0.5" fill="none" />
<path d="M-17,-23 L-17,-28" stroke="green" stroke-width="0.5" fill="none" />
<path d="M-17,-28 L-15,-32" stroke="green" stroke-width="0.5" fill="none" />
<path d="M-15,-32 L-11,-36" stroke="green" stroke-width="0.5" fill="none" />
<path d="M-11,-36 L-5,-42" stroke="green" stroke-width="0.5" fill="none" />
<path d="M-5,-42 L2,-46" stroke="green" stroke-width="0.5" fill="none" />
<path d="M2,-46 L8,-50" stroke="green" stroke-width="0.5" fill="none" />
<path d="M8,-50 L16,-52" stroke="green" stroke-width="0.5" fill="none" />
<path d="M16,-52 L22,-54" stroke="green" stroke-width="0.5" fill="none" />
<path d="M22,-54 L26,-55" stroke="green" stroke-width="0.5" fill="none" />
<path d="M26,-55 L31,-57" stroke="green" stroke-width="0.5" fill="none" />
<path d="M31,-57 L35,-61" stroke="green" stroke-width="0.5" fill="none" />
<path d="M35,-61 L37,-67" stroke="green" stroke-width="0.5" fill="none" />
<path d="M37,-67 L38,-71" stroke="green" stroke-width="0.5" fill="none" />
<path d="M38,-71 L40,-73" stroke="green" stroke-width="0.5" fill="none" />
<path d="M40,-73 L38,-75" stroke="green" stroke-width="0.5" fill="none" />
<path d="M38,-75 L35,-75" stroke="green" stroke-width="0.5" fill="none" />
<path d="M35,-75 L31,-77" stroke="green" stroke-width="0.5" fill="none" />
<path d="M31,-77 L29,-81" stroke="green" stroke-width="0.5" fill="none" />
<path d="M29,-81 L27,-85" stroke="green" stroke-width="0.5" fill="none" />
<path d="M27,-85 L23,-87" stroke="green" stroke-width="0.5" fill="none" />
<path d="M23,-87 L19,-88" stroke="green" stroke-width="0.5" fill="none" />
<path d="M19,-88 L14,-87" stroke="green" stroke-width="0.5" fill="none" />
<path d="M14,-87 L8,-85" stroke="green" stroke-width="0.5" fill="none" />
<path d="M8,-85 L1,-82" stroke="green" stroke-width="0.5" fill="none" />
<path d="M1,-82 L-4,-78" stroke="green" stroke-width="0.5" fill="none" />
<path d="M-4,-78 L-11,-75" stroke="green" stroke-width="0.5" fill="none" />
<path d="M-11,-75 L-20,-73" stroke="green" stroke-width="0.5" fill="none" />
<path d="M-20,-73 L-29,-70" stroke="green" stroke-width="0.5" fill="none" />
<path d="M-29,-70 L-36,-68" stroke="green" stroke-width="0.5" fill="none" />
<path d="M-36,-68 L-45,-66" stroke="green" stroke-width="0.5" fill="none" />
<path d="M-45,-66 L-54,-63" stroke="green" stroke-width="0.5" fill="none" />
<path d="M-54,-63 L-61,-59" stroke="green" stroke-width="0.5" fill="none" />
<path d="M-61,-59 L-66,-55" stroke="green" stroke-width="0.5" fill="none" />
<path d="M-66,-55 L-73,-52" stroke="green" stroke-width="0.5" fill="none" />
<path d="M-73,-52 L-78,-49" stroke="green" stroke-width="0.5" fill="none" />
<path d="M-78,-49 L-81,-45" stroke="green" stroke-width="0.5" fill="none" />
<path d="M-81,-45 L-83,-42" stroke="green" stroke-width="0.5" fill="none" />
<path d="M-83,-42 L-86,-41" stroke="green" stroke-width="0.5" fill="none" />
<path d="M-86,-41 L-91,-38" stroke="green" stroke-width="0.5" fill="none" />
<path d="M-91,-38 L-94,-35" stroke="green" stroke-width="0.5" fill="none" />
<circle cx="0" cy="0" r="1" fill="blue" />
<circle cx="-1" cy="0" r="1" fill="red" />
<circle cx="-4" cy="-2" r="1" fill="red" />
<circle cx="-6" cy="-6" r="1" fill="red" />
<circle cx="-7" cy="-9" r="1" fill="red" />
<circle cx="-10" cy="-11" r="1" fill="red" />
<circle cx="-11" cy="-12" r="1" fill="red" />
<circle cx="-12" cy="-15" r="1" fill="red" />
<circle cx="-15" cy="-20" r="1" fill="red" />
<circle cx="-17" cy="-23" r="1" fill="red" />
<circle cx="-17" cy="-28" r="1" fill="red" />
<circle cx="-15" cy="-32" r="1" fill="red" />
<circle cx="-11" cy="-36" r="1" fill="red" />
<circle cx="-5" cy="-42" r="1" fill="red" />
<circle cx="2" cy="-46" r="1" fill="red" />
<circle cx="8" cy="-50" r="1" fill="red" />
<circle cx="16" cy="-52" r="1" fill="red" />
<circle cx="22" cy="-54" r="1" fill="red" />
<circle cx="26" cy="-55" r="1" fill="red" />
<circle cx="31" cy="-57" r="1" fill="red" />
<circle cx="35" cy="-61" r="1" fill="red" />
<circle cx="37" cy="-67" r="1" fill="red" />
<circle cx="38" cy="-71" r="1" fill="red" />
<circle cx="40" cy="-73" r="1" fill="red" />
<circle cx="38" cy="-75" r="1" fill="red" />
<circle cx="35" cy="-75" r="1" fill="red" />
<circle cx="31" cy="-77" r="1" fill="red" />
<circle cx="29" cy="-81" r="1" fill="red" />
<circle cx="27" cy="-85" r="1" fill="red" />
<circle cx="23" cy="-87" r="1" fill="red" />
<circle cx="19" cy="-88" r="1" fill="red" />
<circle cx="14" cy="-87" r="1" fill="red" />
<circle cx="8" cy="-85" r="1" fill="red" />
<circle cx="1" cy="-82" r="1" fill="red" />
<circle cx="-4" cy="-78" r="1" fill="red" />
<circle cx="-11" cy="-75" r="1" fill="red" />
<circle cx="-20" cy="-73" r="1" fill="red" />
<circle cx="-29" cy="-70" r="1" fill="red" />
<circle cx="-36" cy="-68" r="1" fill="red" />
<circle cx="-45" cy="-66" r="1" fill="red" />
<circle cx="-54" cy="-63" r="1" fill="red" />
<circle cx="-61" cy="-59" r="1" fill="red" />
<circle cx="-66" cy="-55" r="1" fill="red" />
<circle cx="-73" cy="-52" r="1" fill="red" />
<circle cx="-78" cy="-49" r="1" fill="red" />
<circle cx="-81" cy="-45" r="1" fill="red" />
<circle cx="-83" cy="-42" r="1" fill="red" />
<circle cx="-86" cy="-41" r="1" fill="red" />
<circle cx="-91" cy="-38" r="1" fill="red" />
<circle cx="-94" cy="-35" r="1" fill="red" />
</svg>