<?xml version="1.0" encoding="UTF-8"?>
<svg xmlns="http://www.w3.org/2000/svg" xmlns:xlink="http://www.w3.org/1999/xlink"
     width="1000" height="996.9586374695864" viewBox="19 18 1644 1639">
<defs>
</defs>
<path d="M0,0 L24,23" stroke="green" stroke-width="5.0" fill="none" />
<path d="M24,23 L37,40" stroke="green" stroke-width="5.0" fill="none" />
<path d="M37,40 L50,57" stroke="green" stroke-width="5.0" fill="none" />
<path d="M50,57 L62,73" stroke="green" stroke-width="5.0" fill="none" />
<path d="M62,73 L73,90" stroke="green" stroke-width="5.0" fill="none" />
<path d="M73,90 L83,106" stroke="green" stroke-width="5.0" fill="none" />
<path d="M83,106 L94,121" stroke="green" stroke-width="5.0" fill="none" />
<path d="M94,121 L106,136" stroke="green" stroke-width="5.0" fill="none" />
<path d="M106,136 L118,150" stroke="green" stroke-width="5.0" fill="none" />
<path d="M118,150 L131,165" stroke="green" stroke-width="5.0" fill="none" />
<path d="M131,165 L145,180" stroke="green" stroke-width="5.0" fill="none" />
<path d="M145,180 L158,194" stroke="green" stroke-width="5.0" fill="none" />
<path d="M158,194 L172,208" stroke="green" stroke-width="5.0" fill="none" />
<path d="M172,208 L186,222" stroke="green" stroke-width="5.0" fill="none" />
<path d="M186,222 L201,235" stroke="green" stroke-width="5.0" fill="none" />
<path d="M201,235 L217,247" stroke="green" stroke-width="5.0" fill="none" />
<path d="M217,247 L233,260" stroke="green" stroke-width="5.0" fill="none" />
<path d="M233,260 L248,273" stroke="green" stroke-width="5.0" fill="none" />
<path d="M248,273 L263,285" stroke="green" stroke-width="5.0" fill="none" />
<path d="M263,285 L277,298" stroke="green" stroke-width="5.0" fill="none" />
<path d="M277,298 L291,310" stroke="green" stroke-width="5.0" fill="none" />
<path d="M291,310 L304,321" stroke="green" stroke-width="5.0" fill="none" />
<path d="M304,321 L317,332" stroke="green" stroke-width="5.0" fill="none" />
<path d="M317,332 L331,344" stroke="green" stroke-width="5.0" fill="none" />
<path d="M331,344 L345,355" stroke="green" stroke-width="5.0" fill="none" />
<path d="M345,355 L359,366" stroke="green" stroke-width="5.0" fill="none" />
<path d="M359,366 L374,378" stroke="green" stroke-width="5.0" fill="none" />
<path d="M374,378 L390,390" stroke="green" stroke-width="5.0" fill="none" />
<path d="M390,390 L407,403" stroke="green" stroke-width="5.0" fill="none" />
<path d="M407,403 L423,415" stroke="green" stroke-width="5.0" fill="none" />
<path d="M423,415 L440,428" stroke="green" stroke-width="5.0" fill="none" />
<path d="M440,428 L458,440" stroke="green" stroke-width="5.0" fill="none" />
<path d="M458,440 L477,452" stroke="green" stroke-width="5.0" fill="none" />
<path d="M477,452 L496,464" stroke="green" stroke-width="5.0" fill="none" />
<path d="M496,464 L514,477" stroke="green" stroke-width="5.0" fill="none" />
<path d="M514,477 L533,490" stroke="green" stroke-width="5.0" fill="none" />
<path d="M533,490 L552,504" stroke="green" stroke-width="5.0" fill="none" />
<path d="M552,504 L571,517" stroke="green" stroke-width="5.0" fill="none" />
<path d="M571,517 L590,529" stroke="green" stroke-width="5.0" fill="none" />
<path d="M590,529 L609,542" stroke="green" stroke-width="5.0" fill="none" />
<path d="M609,542 L628,555" stroke="green" stroke-width="5.0" fill="none" />
<path d="M628,555 L646,568" stroke="green" stroke-width="5.0" fill="none" />
<path d="M646,568 L665,581" stroke="green" stroke-width="5.0" fill="none" />
<path d="M665,581 L683,594" stroke="green" stroke-width="5.0" fill="none" />
<path d="M683,594 L702,607" stroke="green" stroke-width="5.0" fill="none" />
<path d="M702,607 L720,619" stroke="green" stroke-width="5.0" fill="none" />
<path d="M720,619 L739,632" stroke="green" stroke-width="5.0" fill="none" />
<path d="M739,632 L757,645" stroke="green" stroke-width="5.0" fill="none" />
<path d="M757,645 L776,657" stroke="green" stroke-width="5.0" fill="none" />
<path d="M776,657 L795,668" stroke="green" stroke-width="5.0" fill="none" />
<path d="M795,668 L813,680" stroke="green" stroke-width="5.0" fill="none" />
<path d="M813,680 L832,693" stroke="green" stroke-width="5.0" fill="none" />
<path d="M832,693 L852,706" stroke="green" stroke-width="5.0" fill="none" />
<path d="M852,706 L873,720" stroke="green" stroke-width="5.0" fill="none" />
<path d="M873,720 L893,734" stroke="green" stroke-width="5.0" fill="none" />
<path d="M893,734 L912,748" stroke="green" stroke-width="5.0" fill="none" />
<path d="M912,748 L932,762" stroke="green" stroke-width="5.0" fill="none" />
<path d="M932,762 L952,777" stroke="green" stroke-width="5.0" fill="none" />
<path d="M952,777 L972,792" stroke="green" stroke-width="5.0" fill="none" />
<path d="M972,792 L992,808" stroke="green" stroke-width="5.0" fill="none" />
<path d="M992,808 L1012,824" stroke="green" stroke-width="5.0" fill="none" />
<path d="M1012,824 L1032,841" stroke="green" stroke-width="5.0" fill="none" />
<path d="M1032,841 L1053,858" stroke="green" stroke-width="5.0" fill="none" />
<path d="M1053,858 L1073,876" stroke="green" stroke-width="5.0" fill="none" />
<path d="M1073,876 L1093,894" stroke="green" stroke-width="5.0" fill="none" />
<path d="M1093,894 L1114,913" stroke="green" stroke-width="5.0" fill="none" />
<path d="M1114,913 L1135,931" stroke="green" stroke-width="5.0" fill="none" />
<path d="M1135,931 L1156,948" stroke="green" stroke-width="5.0" fill="none" />
<path d="M1156,948 L1176,966" stroke="green" stroke-width="5.0" fill="none" />
<path d="M1176,966 L1196,985" stroke="green" stroke-width="5.0" fill="none" />
<path d="M1196,985 L1215,1005" stroke="green" stroke-width="5.0" fill="none" />
<path d="M1215,1005 L1233,1025" stroke="green" stroke-width="5.0" fill="none" />
<path d="M1233,1025 L1250,1046" stroke="green" stroke-width="5.0" fill="none" />
<path d="M1250,1046 L1267,1067" stroke="green" stroke-width="5.0" fill="none" />
<path d="M1267,1067 L1284,1089" stroke="green" stroke-width="5.0" fill="none" />
<path d="M1284,1089 L1302,1110" stroke="green" stroke-width="5.0" fill="none" />
<path d="M1302,1110 L1321,1130" stroke="green" stroke-width="5.0" fill="none" />
<path d="M1321,1130 L1340,1149" stroke="green" stroke-width="5.0" fill="none" />
<path d="M1340,1149 L1358,1169" stroke="green" stroke-width="5.0" fill="none" />
<path d="M1358,1169 L1376,1190" stroke="green" stroke-width="5.0" fill="none" />
<path d="M1376,1190 L1393,1212" stroke="green" stroke-width="5.0" fill="none" />
<path d="M1393,1212 L1409,1233" stroke="green" stroke-width="5.0" fill="none" />
<path d="M1409,1233 L1425,1253" stroke="green" stroke-width="5.0" fill="none" />
<path d="M1425,1253 L1442,1274" stroke="green" stroke-width="5.0" fill="none" />
<path d="M1442,1274 L1458,1294" stroke="green" stroke-width="5.0" fill="none" />
<path d="M1458,1294 L1473,1314" stroke="green" stroke-width="5.0" fill="none" />
<path d="M1473,1314 L1488,1335" stroke="green" stroke-width="5.0" fill="none" />
<path d="M1488,1335 L1502,1356" stroke="green" stroke-width="5.0" fill="none" />
<path d="M1502,1356 L1515,1378" stroke="green" stroke-width="5.0" fill="none" />
<path d="M1515,1378 L1529,1399" stroke="green" stroke-width="5.0" fill="none" />
<path d="M1529,1399 L1543,1421" stroke="green" stroke-width="5.0" fill="none" />
<path d="M1543,1421 L1556,1444" stroke="green" stroke-width="5.0" fill="none" />
<path d="M1556,1444 L1568,1468" stroke="green" stroke-width="5.0" fill="none" />
<path d="M1568,1468 L1579,1493" stroke="green" stroke-width="5.0" fill="none" />
<path d="M1579,1493 L1591,1518" stroke="green" stroke-width="5.0" fill="none" />
<path d="M1591,1518 L1604,1544" stroke="green" stroke-width="5.0" fill="none" />
<path d="M1604,1544 L1618,1571" stroke="green" stroke-width="5.0" fill="none" />
<path d="M1618,1571 L1631,1599" stroke="green" stroke-width="5.0" fill="none" />
<path d="M1631,1599 L1644,1626" stroke="green" stroke-width="5.0" fill="none" />
<path d="M1644,1626 L1658,1652" stroke="green" stroke-width="5.0" fill="none" />
<circle cx="0" cy="0" r="10" fill="blue" />
<circle cx="24" cy="23" r="10" fill="red" />
<circle cx="37" cy="40" r="10" fill="red" />
<circle cx="50" cy="57" r="10" fill="red" />
<circle cx="62" cy="73" r="10" fill="red" />
<circle cx="73" cy="90" r="10" fill="red" />
<circle cx="83" cy="106" r="10" fill="red" />
<circle cx="94" cy="121" r="10" fill="red" />
<circle cx="106" cy="136" r="10" fill="red" />
<circle cx="118" cy="150" r="10" fill="red" />
<circle cx="131" cy="165" r="10" fill="red" />
<circle cx="145" cy="180" r="10" fill="red" />
<circle cx="158" cy="194" r="10" fill="red" />
<circle cx="172" cy="208" r="10" fill="red" />
<circle cx="186" cy="222" r="10" fill="red" />
<circle cx="201" cy="235" r="10" fill="red" />
<circle cx="217" cy="247" r="10" fill="red" />
<circle cx="233" cy="260" r="10" fill="red" />
<circle cx="248" cy="273" r="10" fill="red" />
<circle cx="263" cy="285" r="10" fill="red" />
<circle cx="277" cy="298" r="10" fill="red" />
<circle cx="291" cy="310" r="10" fill="red" />
<circle cx="304" cy="321" r="10" fill="red" />
<circle cx="317" cy="332" r="10" fill="red" />
<circle cx="331" cy="344" r="10" fill="red" />
<circle cx="345" cy="355" r="10" fill="red" />
<circle cx="359" cy="366" r="10" fill="red" />
<circle cx="374" cy="378" r="10" fill="red" />
<circle cx="390" cy="390" r="10" fill="red" />
<circle cx="407" cy="403" r="10" fill="red" />
<circle cx="423" cy="415" r="10" fill="red" />
<circle cx="440" cy="428" r="10" fill="red" />
<circle cx="458" cy="440" r="10" fill="red" />
<circle cx="477" cy="452" r="10" fill="red" />
<circle cx="496" cy="464" r="10" fill="red" />
<circle cx="514" cy="477" r="10" fill="red" />
<circle cx="533" cy="490" r="10" fill="red" />
<circle cx="552" cy="504" r="10" fill="red" />
<circle cx="571" cy="517" r="10" fill="red" />
<circle cx="590" cy="529" r="10" fill="red" />
<circle cx="609" cy="542" r="10" fill="red" />
<circle cx="628" cy="555" r="10" fill="red" />
<circle cx="646" cy="568" r="10" fill="red" />
<circle cx="665" cy="581" r="10" fill="red" />
<circle cx="683" cy="594" r="10" fill="red" />
<circle cx="702" cy="607" r="10" fill="red" />
<circle cx="720" cy="619" r="10" fill="red" />
<circle cx="739" cy="632" r="10" fill="red" />
<circle cx="757" cy="645" r="10" fill="red" />
<circle cx="776" cy="657" r="10" fill="red" />
<circle cx="795" cy="668" r="10" fill="red" />
<circle cx="813" cy="680" r="10" fill="red" />
<circle cx="832" cy="693" r="10" fill="red" />
<circle cx="852" cy="706" r="10" fill="red" />
<circle cx="873" cy="720" r="10" fill="red" />
<circle cx="893" cy="734" r="10" fill="red" />
<circle cx="912" cy="748" r="10" fill="red" />
<circle cx="932" cy="762" r="10" fill="red" />
<circle cx="952" cy="777" r="10" fill="red" />
<circle cx="972" cy="792" r="10" fill="red" />
<circle cx="992" cy="808" r="10" fill="red" />
<circle cx="1012" cy="824" r="10" fill="red" />
<circle cx="1032" cy="841" r="10" fill="red" />
<circle cx="1053" cy="858" r="10" fill="red" />
<circle cx="1073" cy="876" r="10" fill="red" />
<circle cx="1093" cy="894" r="10" fill="red" />
<circle cx="1114" cy="913" r="10" fill="red" />
<circle cx="1135" cy="931" r="10" fill="red" />
<circle cx="1156" cy="948" r="10" fill="red" />
<circle cx="1176" cy="966" r="10" fill="red" />
<circle cx="1196" cy="985" r="10" fill="red" />
<circle cx="1215" cy="1005" r="10" fill="red" />
<circle cx="1233" cy="1025" r="10" fill="red" />
<circle cx="1250" cy="1046" r="10" fill="red" />
<circle cx="1267" cy="1067" r="10" fill="red" />
<circle cx="1284" cy="1089" r="10" fill="red" />
<circle cx="1302" cy="1110" r="10" fill="red" />
<circle cx="1321" cy="1130" r="10" fill="red" />
<circle cx="1340" cy="1149" r="10" fill="red" />
<circle cx="1358" cy="1169" r="10" fill="red" />
<circle cx="1376" cy="1190" r="10" fill="red" />
<circle cx="1393" cy="1212" r="10" fill="red" />
<circle cx="1409" cy="1233" r="10" fill="red" />
<circle cx="1425" cy="1253" r="10" fill="red" />
<circle cx="1442" cy="1274" r="10" fill="red" />
<circle cx="1458" cy="1294" r="10" fill="red" />
<circle cx="1473" cy="1314" r="10" fill="red" />
<circle cx="1488" cy="1335" r="10" fill="red" />
<circle cx="1502" cy="1356" r="10" fill="red" />
<circle cx="1515" cy="1378" r="10" fill="red" />
<circle cx="1529" cy="1399" r="10" fill="red" />
<circle cx="1543" cy="1421" r="10" fill="red" />
<circle cx="1556" cy="1444" r="10" fill="red" />
<circle cx="1568" cy="1468" r="10" fill="red" />
<circle cx="1579" cy="1493" r="10" fill="red" />
<circle cx="1591" cy="1518" r="10" fill="red" />
<circle cx="1604" cy="1544" r="10" fill="red" />
<circle cx="1618" cy="1571" r="10" fill="red" />
<circle cx="1631" cy="1599" r="10" fill="red" />
<circle cx="1644" cy="1626" r="10" fill="red" />
<circle cx="1658" cy="1652" r="10" fill="red" />
</svg>