<?xml version="1.0" encoding="UTF-8"?>
<svg xmlns="http://www.w3.org/2000/svg" xmlns:xlink="http://www.w3.org/1999/xlink"
     width="1000" height="1566.0377358490566" viewBox="-6 -145 106 166">
<defs>
</defs>
<path d="M0,0 L0,1" stroke="green" stroke-width="0.5" fill="none" />
<path d="M0,1 L-1,2" stroke="green" stroke-width="0.5" fill="none" />
<path d="M-1,2 L-1,4" stroke="green" stroke-width="0.5" fill="none" />
<path d="M-1,4 L0,7" stroke="green" stroke-width="0.5" fill="none" />
<path d="M0,7 L1,10" stroke="green" stroke-width="0.5" fill="none" />
<path d="M1,10 L3,12" stroke="green" stroke-width="0.5" fill="none" />
<path d="M3,12 L5,13" stroke="green" stroke-width="0.5" fill="none" />
<path d="M5,13 L7,14" stroke="green" stroke-width="0.5" fill="none" />
<path d="M7,14 L8,14" stroke="green" stroke-width="0.5" fill="none" />
<path d="M8,14 L8,13" stroke="green" stroke-width="0.5" fill="none" />
<path d="M8,13 L9,13" stroke="green" stroke-width="0.5" fill="none" />
<path d="M9,13 L10,14" stroke="green" stroke-width="0.5" fill="none" />
<path d="M10,14 L11,15" stroke="green" stroke-width="0.5" fill="none" />
<path d="M11,15 L12,15" stroke="green" stroke-width="0.5" fill="none" />
<path d="M12,15 L14,16" stroke="green" stroke-width="0.5" fill="none" />
<path d="M14,16 L17,16" stroke="green" stroke-width="0.5" fill="none" />
<path d="M17,16 L20,15" stroke="green" stroke-width="0.5" fill="none" />
<path d="M20,15 L22,15" stroke="green" stroke-width="0.5" fill="none" />
<path d="M22,15 L23,14" stroke="green" stroke-width="0.5" fill="none" />
<path d="M23,14 L25,12" stroke="green" stroke-width="0.5" fill="none" />
<path d="M25,12 L27,10" stroke="green" stroke-width="0.5" fill="none" />
<path d="M27,10 L29,8" stroke="green" stroke-width="0.5" fill="none" />
<path d="M29,8 L32,6" stroke="green" stroke-width="0.5" fill="none" />
<path d="M32,6 L35,4" stroke="green" stroke-width="0.5" fill="none" />
<path d="M35,4 L37,2" stroke="green" stroke-width="0.5" fill="none" />
<path d="M37,2 L40,-1" stroke="green" stroke-width="0.5" fill="none" />
<path d="M40,-1 L44,-4" stroke="green" stroke-width="0.5" fill="none" />
<path d="M44,-4 L49,-8" stroke="green" stroke-width="0.5" fill="none" />
<path d="M49,-8 L53,-11" stroke="green" stroke-width="0.5" fill="none" />
<path d="M53,-11 L58,-14" stroke="green" stroke-width="0.5" fill="none" />
<path d="M58,-14 L63,-18" stroke="green" stroke-width="0.5" fill="none" />
<path d="M63,-18 L68,-22" stroke="green" stroke-width="0.5" fill="none" />
<path d="M68,-22 L72,-26" stroke="green" stroke-width="0.5" fill="none" />
<path d="M72,-26 L77,-29" stroke="green" stroke-width="0.5" fill="none" />
<path d="M77,-29 L81,-33" stroke="green" stroke-width="0.5" fill="none" />
<path d="M81,-33 L85,-37" stroke="green" stroke-width="0.5" fill="none" />
<path d="M85,-37 L88,-42" stroke="green" stroke-width="0.5" fill="none" />
<path d="M88,-42 L90,-48" stroke="green" stroke-width="0.5" fill="none" />
<path d="M90,-48 L92,-55" stroke="green" stroke-width="0.5" fill="none" />
<path d="M92,-55 L94,-61" stroke="green" stroke-width="0.5" fill="none" />
<path d="M94,-61 L95,-68" stroke="green" stroke-width="0.5" fill="none" />
<path d="M95,-68 L95,-76" stroke="green" stroke-width="0.5" fill="none" />
<path d="M95,-76 L94,-84" stroke="green" stroke-width="0.5" fill="none" />
<path d="M94,-84 L93,-93" stroke="green" stroke-width="0.5" fill="none" />
<path d="M93,-93 L92,-102" stroke="green" stroke-width="0.5" fill="none" />
<path d="M92,-102 L92,-112" stroke="green" stroke-width="0.5" fill="none" />
<path d="M92,-112 L92,-122" stroke="green" stroke-width="0.5" fill="none" />
<path d="M92,-122 L93,-131" stroke="green" stroke-width="0.5" fill="none" />
<path d="M93,-131 L94,-140" stroke="green" stroke-width="0.5" fill="none" />
<circle cx="0" cy="0" r="1" fill="blue" />
<circle cx="0" cy="1" r="1" fill="red" />
<circle cx="-1" cy="2" r="1" fill="red" />
<circle cx="-1" cy="4" r="1" fill="red" />
<circle cx="0" cy="7" r="1" fill="red" />
<circle cx="1" cy="10" r="1" fill="red" />
<circle cx="3" cy="12" r="1" fill="red" />
<circle cx="5" cy="13" r="1" fill="red" />
<circle cx="7" cy="14" r="1" fill="red" />
<circle cx="8" cy="14" r="1" fill="red" />
<circle cx="8" cy="13" r="1" fill="red" />
<circle cx="9" cy="13" r="1" fill="red" />
<circle cx="10" cy="14" r="1" fill="red" />
<circle cx="11" cy="15" r="1" fill="red" />
<circle cx="12" cy="15" r="1" fill="red" />
<circle cx="14" cy="16" r="1" fill="red" />
<circle cx="17" cy="16" r="1" fill="red" />
<circle cx="20" cy="15" r="1" fill="red" />
<circle cx="22" cy="15" r="1" fill="red" />
<circle cx="23" cy="14" r="1" fill="red" />
<circle cx="25" cy="12" r="1" fill="red" />
<circle cx="27" cy="10" r="1" fill="red" />
<circle cx="29" cy="8" r="1" fill="red" />
<circle cx="32" cy="6" r="1" fill="red" />
<circle cx="35" cy="4" r="1" fill="red" />
<circle cx="37" cy="2" r="1" fill="red" />
<circle cx="40" cy="-1" r="1" fill="red" />
<circle cx="44" cy="-4" r="1" fill="red" />
<circle cx="49" cy="-8" r="1" fill="red" />
<circle cx="53" cy="-11" r="1" fill="red" />
<circle cx="58" cy="-14" r="1" fill="red" />
<circle cx="63" cy="-18" r="1" fill="red" />
<circle cx="68" cy="-22" r="1" fill="red" />
<circle cx="72" cy="-26" r="1" fill="red" />
<circle cx="77" cy="-29" r="1" fill="red" />
<circle cx="81" cy="-33" r="1" fill="red" />
<circle cx="85" cy="-37" r="1" fill="red" />
<circle cx="88" cy="-42" r="1" fill="red" />
<circle cx="90" cy="-48" r="1" fill="red" />
<circle cx="92" cy="-55" r="1" fill="red" />
<circle cx="94" cy="-61" r="1" fill="red" />
<circle cx="95" cy="-68" r="1" fill="red" />
<circle cx="95" cy="-76" r="1" fill="red" />
<circle cx="94" cy="-84" r="1" fill="red" />
<circle cx="93" cy="-93" r="1" fill="red" />
<circle cx="92" cy="-102" r="1" fill="red" />
<circle cx="92" cy="-112" r="1" fill="red" />
<circle cx="92" cy="-122" r="1" fill="red" />
<circle cx="93" cy="-131" r="1" fill="red" />
<circle cx="94" cy="-140" r="1" fill="red" />
</svg>