<?xml version="1.0" encoding="UTF-8"?>
<svg xmlns="http://www.w3.org/2000/svg" xmlns:xlink="http://www.w3.org/1999/xlink"
     width="1000" height="1994.8453608247423" viewBox="-173 -2 194 387">
<defs>
</defs>
<path d="M0,0 L4,3" stroke="green" stroke-width="0.5" fill="none" />
<path d="M4,3 L7,4" stroke="green" stroke-width="0.5" fill="none" />
<path d="M7,4 L10,4" stroke="green" stroke-width="0.5" fill="none" />
<path d="M10,4 L12,5" stroke="green" stroke-width="0.5" fill="none" />
<path d="M12,5 L13,6" stroke="green" stroke-width="0.5" fill="none" />
<path d="M13,6 L15,8" stroke="green" stroke-width="0.5" fill="none" />
<path d="M15,8 L16,9" stroke="green" stroke-width="0.5" fill="none" />
<path d="M16,9 L16,10" stroke="green" stroke-width="0.5" fill="none" />
<path d="M16,10 L15,12" stroke="green" stroke-width="0.5" fill="none" />
<path d="M15,12 L13,14" stroke="green" stroke-width="0.5" fill="none" />
<path d="M13,14 L11,15" stroke="green" stroke-width="0.5" fill="none" />
<path d="M11,15 L9,18" stroke="green" stroke-width="0.5" fill="none" />
<path d="M9,18 L8,20" stroke="green" stroke-width="0.5" fill="none" />
<path d="M8,20 L7,23" stroke="green" stroke-width="0.5" fill="none" />
<path d="M7,23 L5,27" stroke="green" stroke-width="0.5" fill="none" />
<path d="M5,27 L4,31" stroke="green" stroke-width="0.5" fill="none" />
<path d="M4,31 L1,38" stroke="green" stroke-width="0.5" fill="none" />
<path d="M1,38 L-1,42" stroke="green" stroke-width="0.5" fill="none" />
<path d="M-1,42 L-4,48" stroke="green" stroke-width="0.5" fill="none" />
<path d="M-4,48 L-6,50" stroke="green" stroke-width="0.5" fill="none" />
<path d="M-6,50 L-9,53" stroke="green" stroke-width="0.5" fill="none" />
<path d="M-9,53 L-17,55" stroke="green" stroke-width="0.5" fill="none" />
<path d="M-17,55 L-19,57" stroke="green" stroke-width="0.5" fill="none" />
<path d="M-19,57 L-20,60" stroke="green" stroke-width="0.5" fill="none" />
<path d="M-20,60 L-20,63" stroke="green" stroke-width="0.5" fill="none" />
<path d="M-20,63 L-20,66" stroke="green" stroke-width="0.5" fill="none" />
<path d="M-20,66 L-19,69" stroke="green" stroke-width="0.5" fill="none" />
<path d="M-19,69 L-18,71" stroke="green" stroke-width="0.5" fill="none" />
<path d="M-18,71 L-19,76" stroke="green" stroke-width="0.5" fill="none" />
<path d="M-19,76 L-20,79" stroke="green" stroke-width="0.5" fill="none" />
<path d="M-20,79 L-22,81" stroke="green" stroke-width="0.5" fill="none" />
<path d="M-22,81 L-24,82" stroke="green" stroke-width="0.5" fill="none" />
<path d="M-24,82 L-25,84" stroke="green" stroke-width="0.5" fill="none" />
<path d="M-25,84 L-26,91" stroke="green" stroke-width="0.5" fill="none" />
<path d="M-26,91 L-27,101" stroke="green" stroke-width="0.5" fill="none" />
<path d="M-27,101 L-28,106" stroke="green" stroke-width="0.5" fill="none" />
<path d="M-28,106 L-28,118" stroke="green" stroke-width="0.5" fill="none" />
<path d="M-28,118 L-28,128" stroke="green" stroke-width="0.5" fill="none" />
<path d="M-28,128 L-29,133" stroke="green" stroke-width="0.5" fill="none" />
<path d="M-29,133 L-25,163" stroke="green" stroke-width="0.5" fill="none" />
<path d="M-25,163 L-24,171" stroke="green" stroke-width="0.5" fill="none" />
<path d="M-24,171 L-19,184" stroke="green" stroke-width="0.5" fill="none" />
<path d="M-19,184 L-17,189" stroke="green" stroke-width="0.5" fill="none" />
<path d="M-17,189 L-15,193" stroke="green" stroke-width="0.5" fill="none" />
<path d="M-15,193 L-13,197" stroke="green" stroke-width="0.5" fill="none" />
<path d="M-13,197 L-12,202" stroke="green" stroke-width="0.5" fill="none" />
<path d="M-12,202 L-11,207" stroke="green" stroke-width="0.5" fill="none" />
<path d="M-11,207 L-11,218" stroke="green" stroke-width="0.5" fill="none" />
<path d="M-11,218 L-11,222" stroke="green" stroke-width="0.5" fill="none" />
<path d="M-11,222 L-11,225" stroke="green" stroke-width="0.5" fill="none" />
<path d="M-11,225 L-17,231" stroke="green" stroke-width="0.5" fill="none" />
<path d="M-17,231 L-20,234" stroke="green" stroke-width="0.5" fill="none" />
<path d="M-20,234 L-23,236" stroke="green" stroke-width="0.5" fill="none" />
<path d="M-23,236 L-25,238" stroke="green" stroke-width="0.5" fill="none" />
<path d="M-25,238 L-26,240" stroke="green" stroke-width="0.5" fill="none" />
<path d="M-26,240 L-28,242" stroke="green" stroke-width="0.5" fill="none" />
<path d="M-28,242 L-31,244" stroke="green" stroke-width="0.5" fill="none" />
<path d="M-31,244 L-35,246" stroke="green" stroke-width="0.5" fill="none" />
<path d="M-35,246 L-40,248" stroke="green" stroke-width="0.5" fill="none" />
<path d="M-40,248 L-45,249" stroke="green" stroke-width="0.5" fill="none" />
<path d="M-45,249 L-51,251" stroke="green" stroke-width="0.5" fill="none" />
<path d="M-51,251 L-56,253" stroke="green" stroke-width="0.5" fill="none" />
<path d="M-56,253 L-62,255" stroke="green" stroke-width="0.5" fill="none" />
<path d="M-62,255 L-67,258" stroke="green" stroke-width="0.5" fill="none" />
<path d="M-67,258 L-76,265" stroke="green" stroke-width="0.5" fill="none" />
<path d="M-76,265 L-83,272" stroke="green" stroke-width="0.5" fill="none" />
<path d="M-83,272 L-92,287" stroke="green" stroke-width="0.5" fill="none" />
<path d="M-92,287 L-97,301" stroke="green" stroke-width="0.5" fill="none" />
<path d="M-97,301 L-105,318" stroke="green" stroke-width="0.5" fill="none" />
<path d="M-105,318 L-110,326" stroke="green" stroke-width="0.5" fill="none" />
<path d="M-110,326 L-114,333" stroke="green" stroke-width="0.5" fill="none" />
<path d="M-114,333 L-117,339" stroke="green" stroke-width="0.5" fill="none" />
<path d="M-117,339 L-119,344" stroke="green" stroke-width="0.5" fill="none" />
<path d="M-119,344 L-121,350" stroke="green" stroke-width="0.5" fill="none" />
<path d="M-121,350 L-132,366" stroke="green" stroke-width="0.5" fill="none" />
<path d="M-132,366 L-141,369" stroke="green" stroke-width="0.5" fill="none" />
<path d="M-141,369 L-145,369" stroke="green" stroke-width="0.5" fill="none" />
<path d="M-145,369 L-152,368" stroke="green" stroke-width="0.5" fill="none" />
<path d="M-152,368 L-155,368" stroke="green" stroke-width="0.5" fill="none" />
<path d="M-155,368 L-157,368" stroke="green" stroke-width="0.5" fill="none" />
<path d="M-157,368 L-162,371" stroke="green" stroke-width="0.5" fill="none" />
<path d="M-162,371 L-165,374" stroke="green" stroke-width="0.5" fill="none" />
<path d="M-165,374 L-167,376" stroke="green" stroke-width="0.5" fill="none" />
<path d="M-167,376 L-168,378" stroke="green" stroke-width="0.5" fill="none" />
<path d="M-168,378 L-168,380" stroke="green" stroke-width="0.5" fill="none" />
<circle cx="0" cy="0" r="1" fill="blue" />
<circle cx="4" cy="3" r="1" fill="red" />
<circle cx="7" cy="4" r="1" fill="red" />
<circle cx="10" cy="4" r="1" fill="red" />
<circle cx="12" cy="5" r="1" fill="red" />
<circle cx="13" cy="6" r="1" fill="red" />
<circle cx="15" cy="8" r="1" fill="red" />
<circle cx="16" cy="9" r="1" fill="red" />
<circle cx="16" cy="10" r="1" fill="red" />
<circle cx="15" cy="12" r="1" fill="red" />
<circle cx="13" cy="14" r="1" fill="red" />
<circle cx="11" cy="15" r="1" fill="red" />
<circle cx="9" cy="18" r="1" fill="red" />
<circle cx="8" cy="20" r="1" fill="red" />
<circle cx="7" cy="23" r="1" fill="red" />
<circle cx="5" cy="27" r="1" fill="red" />
<circle cx="4" cy="31" r="1" fill="red" />
<circle cx="1" cy="38" r="1" fill="red" />
<circle cx="-1" cy="42" r="1" fill="red" />
<circle cx="-4" cy="48" r="1" fill="red" />
<circle cx="-6" cy="50" r="1" fill="red" />
<circle cx="-9" cy="53" r="1" fill="red" />
<circle cx="-17" cy="55" r="1" fill="red" />
<circle cx="-19" cy="57" r="1" fill="red" />
<circle cx="-20" cy="60" r="1" fill="red" />
<circle cx="-20" cy="63" r="1" fill="red" />
<circle cx="-20" cy="66" r="1" fill="red" />
<circle cx="-19" cy="69" r="1" fill="red" />
<circle cx="-18" cy="71" r="1" fill="red" />
<circle cx="-19" cy="76" r="1" fill="red" />
<circle cx="-20" cy="79" r="1" fill="red" />
<circle cx="-22" cy="81" r="1" fill="red" />
<circle cx="-24" cy="82" r="1" fill="red" />
<circle cx="-25" cy="84" r="1" fill="red" />
<circle cx="-26" cy="91" r="1" fill="red" />
<circle cx="-27" cy="101" r="1" fill="red" />
<circle cx="-28" cy="106" r="1" fill="red" />
<circle cx="-28" cy="118" r="1" fill="red" />
<circle cx="-28" cy="128" r="1" fill="red" />
<circle cx="-29" cy="133" r="1" fill="red" />
<circle cx="-25" cy="163" r="1" fill="red" />
<circle cx="-24" cy="171" r="1" fill="red" />
<circle cx="-19" cy="184" r="1" fill="red" />
<circle cx="-17" cy="189" r="1" fill="red" />
<circle cx="-15" cy="193" r="1" fill="red" />
<circle cx="-13" cy="197" r="1" fill="red" />
<circle cx="-12" cy="202" r="1" fill="red" />
<circle cx="-11" cy="207" r="1" fill="red" />
<circle cx="-11" cy="218" r="1" fill="red" />
<circle cx="-11" cy="222" r="1" fill="red" />
<circle cx="-11" cy="225" r="1" fill="red" />
<circle cx="-17" cy="231" r="1" fill="red" />
<circle cx="-20" cy="234" r="1" fill="red" />
<circle cx="-23" cy="236" r="1" fill="red" />
<circle cx="-25" cy="238" r="1" fill="red" />
<circle cx="-26" cy="240" r="1" fill="red" />
<circle cx="-28" cy="242" r="1" fill="red" />
<circle cx="-31" cy="244" r="1" fill="red" />
<circle cx="-35" cy="246" r="1" fill="red" />
<circle cx="-40" cy="248" r="1" fill="red" />
<circle cx="-45" cy="249" r="1" fill="red" />
<circle cx="-51" cy="251" r="1" fill="red" />
<circle cx="-56" cy="253" r="1" fill="red" />
<circle cx="-62" cy="255" r="1" fill="red" />
<circle cx="-67" cy="258" r="1" fill="red" />
<circle cx="-76" cy="265" r="1" fill="red" />
<circle cx="-83" cy="272" r="1" fill="red" />
<circle cx="-92" cy="287" r="1" fill="red" />
<circle cx="-97" cy="301" r="1" fill="red" />
<circle cx="-105" cy="318" r="1" fill="red" />
<circle cx="-110" cy="326" r="1" fill="red" />
<circle cx="-114" cy="333" r="1" fill="red" />
<circle cx="-117" cy="339" r="1" fill="red" />
<circle cx="-119" cy="344" r="1" fill="red" />
<circle cx="-121" cy="350" r="1" fill="red" />
<circle cx="-132" cy="366" r="1" fill="red" />
<circle cx="-141" cy="369" r="1" fill="red" />
<circle cx="-145" cy="369" r="1" fill="red" />
<circle cx="-152" cy="368" r="1" fill="red" />
<circle cx="-155" cy="368" r="1" fill="red" />
<circle cx="-157" cy="368" r="1" fill="red" />
<circle cx="-162" cy="371" r="1" fill="red" />
<circle cx="-165" cy="374" r="1" fill="red" />
<circle cx="-167" cy="376" r="1" fill="red" />
<circle cx="-168" cy="378" r="1" fill="red" />
<circle cx="-168" cy="380" r="1" fill="red" />
</svg>