<?xml version="1.0" encoding="UTF-8"?>
<svg xmlns="http://www.w3.org/2000/svg" xmlns:xlink="http://www.w3.org/1999/xlink"
     width="1000" height="1009.1024020227559" viewBox="-1954 -1991 3955 3991">
<defs>
</defs>
<path d="M0,0 L-130,-102" stroke="green" stroke-width="5.0" fill="none" />
<path d="M-130,-102 L-268,-319" stroke="green" stroke-width="5.0" fill="none" />
<path d="M-268,-319 L-390,-593" stroke="green" stroke-width="5.0" fill="none" />
<path d="M-390,-593 L-630,-615" stroke="green" stroke-width="5.0" fill="none" />
<path d="M-630,-615 L-739,-208" stroke="green" stroke-width="5.0" fill="none" />
<path d="M-739,-208 L-834,102" stroke="green" stroke-width="5.0" fill="none" />
<path d="M-834,102 L-636,-965" stroke="green" stroke-width="5.0" fill="none" />
<path d="M-636,-965 L-764,-959" stroke="green" stroke-width="5.0" fill="none" />
<path d="M-764,-959 L-833,-1113" stroke="green" stroke-width="5.0" fill="none" />
<path d="M-833,-1113 L-913,-1273" stroke="green" stroke-width="5.0" fill="none" />
<path d="M-913,-1273 L-980,-1304" stroke="green" stroke-width="5.0" fill="none" />
<path d="M-980,-1304 L-1221,-1071" stroke="green" stroke-width="5.0" fill="none" />
<path d="M-1221,-1071 L-1250,-985" stroke="green" stroke-width="5.0" fill="none" />
<path d="M-1250,-985 L-1224,-787" stroke="green" stroke-width="5.0" fill="none" />
<path d="M-1224,-787 L-1379,-915" stroke="green" stroke-width="5.0" fill="none" />
<path d="M-1379,-915 L-1733,-958" stroke="green" stroke-width="5.0" fill="none" />
<path d="M-1733,-958 L-1653,-1303" stroke="green" stroke-width="5.0" fill="none" />
<path d="M-1653,-1303 L-1423,-1596" stroke="green" stroke-width="5.0" fill="none" />
<path d="M-1423,-1596 L-1505,-1985" stroke="green" stroke-width="5.0" fill="none" />
<path d="M-1505,-1985 L-1196,-1698" stroke="green" stroke-width="5.0" fill="none" />
<path d="M-1196,-1698 L-1249,-1744" stroke="green" stroke-width="5.0" fill="none" />
<path d="M-1249,-1744 L-1663,-772" stroke="green" stroke-width="5.0" fill="none" />
<path d="M-1663,-772 L-1949,-522" stroke="green" stroke-width="5.0" fill="none" />
<path d="M-1949,-522 L-1939,-149" stroke="green" stroke-width="5.0" fill="none" />
<path d="M-1939,-149 L-1749,119" stroke="green" stroke-width="5.0" fill="none" />
<path d="M-1749,119 L-1869,302" stroke="green" stroke-width="5.0" fill="none" />
<path d="M-1869,302 L-1941,543" stroke="green" stroke-width="5.0" fill="none" />
<path d="M-1941,543 L-1678,501" stroke="green" stroke-width="5.0" fill="none" />
<path d="M-1678,501 L-1437,508" stroke="green" stroke-width="5.0" fill="none" />
<path d="M-1437,508 L-1520,399" stroke="green" stroke-width="5.0" fill="none" />
<path d="M-1520,399 L-1708,989" stroke="green" stroke-width="5.0" fill="none" />
<path d="M-1708,989 L-1847,1177" stroke="green" stroke-width="5.0" fill="none" />
<path d="M-1847,1177 L-1908,1714" stroke="green" stroke-width="5.0" fill="none" />
<path d="M-1908,1714 L-1292,1995" stroke="green" stroke-width="5.0" fill="none" />
<path d="M-1292,1995 L-1260,1668" stroke="green" stroke-width="5.0" fill="none" />
<path d="M-1260,1668 L-1358,1200" stroke="green" stroke-width="5.0" fill="none" />
<path d="M-1358,1200 L-1149,1131" stroke="green" stroke-width="5.0" fill="none" />
<path d="M-1149,1131 L-1069,884" stroke="green" stroke-width="5.0" fill="none" />
<path d="M-1069,884 L-560,1039" stroke="green" stroke-width="5.0" fill="none" />
<path d="M-560,1039 L-118,898" stroke="green" stroke-width="5.0" fill="none" />
<path d="M-118,898 L-473,1265" stroke="green" stroke-width="5.0" fill="none" />
<path d="M-473,1265 L-475,1416" stroke="green" stroke-width="5.0" fill="none" />
<path d="M-475,1416 L-651,1403" stroke="green" stroke-width="5.0" fill="none" />
<path d="M-651,1403 L-582,1644" stroke="green" stroke-width="5.0" fill="none" />
<path d="M-582,1644 L-429,1384" stroke="green" stroke-width="5.0" fill="none" />
<path d="M-429,1384 L11,1364" stroke="green" stroke-width="5.0" fill="none" />
<path d="M11,1364 L222,1664" stroke="green" stroke-width="5.0" fill="none" />
<path d="M222,1664 L1259,1814" stroke="green" stroke-width="5.0" fill="none" />
<path d="M1259,1814 L1461,1991" stroke="green" stroke-width="5.0" fill="none" />
<path d="M1461,1991 L1573,1341" stroke="green" stroke-width="5.0" fill="none" />
<path d="M1573,1341 L1928,1456" stroke="green" stroke-width="5.0" fill="none" />
<path d="M1928,1456 L1623,1167" stroke="green" stroke-width="5.0" fill="none" />
<path d="M1623,1167 L1432,1057" stroke="green" stroke-width="5.0" fill="none" />
<path d="M1432,1057 L1733,1069" stroke="green" stroke-width="5.0" fill="none" />
<path d="M1733,1069 L1759,611" stroke="green" stroke-width="5.0" fill="none" />
<path d="M1759,611 L1965,663" stroke="green" stroke-width="5.0" fill="none" />
<path d="M1965,663 L1967,806" stroke="green" stroke-width="5.0" fill="none" />
<path d="M1967,806 L1342,632" stroke="green" stroke-width="5.0" fill="none" />
<path d="M1342,632 L1261,276" stroke="green" stroke-width="5.0" fill="none" />
<path d="M1261,276 L1376,210" stroke="green" stroke-width="5.0" fill="none" />
<path d="M1376,210 L1336,147" stroke="green" stroke-width="5.0" fill="none" />
<path d="M1336,147 L1599,115" stroke="green" stroke-width="5.0" fill="none" />
<path d="M1599,115 L1011,3" stroke="green" stroke-width="5.0" fill="none" />
<path d="M1011,3 L1055,-114" stroke="green" stroke-width="5.0" fill="none" />
<path d="M1055,-114 L1173,-289" stroke="green" stroke-width="5.0" fill="none" />
<path d="M1173,-289 L1079,-763" stroke="green" stroke-width="5.0" fill="none" />
<path d="M1079,-763 L872,-865" stroke="green" stroke-width="5.0" fill="none" />
<path d="M872,-865 L-41,-964" stroke="green" stroke-width="5.0" fill="none" />
<path d="M-41,-964 L-22,-537" stroke="green" stroke-width="5.0" fill="none" />
<path d="M-22,-537 L-85,-556" stroke="green" stroke-width="5.0" fill="none" />
<path d="M-85,-556 L-440,-1215" stroke="green" stroke-width="5.0" fill="none" />
<path d="M-440,-1215 L-297,-1734" stroke="green" stroke-width="5.0" fill="none" />
<path d="M-297,-1734 L-588,-1827" stroke="green" stroke-width="5.0" fill="none" />
<path d="M-588,-1827 L-568,-1951" stroke="green" stroke-width="5.0" fill="none" />
<path d="M-568,-1951 L213,-1792" stroke="green" stroke-width="5.0" fill="none" />
<path d="M213,-1792 L276,-1626" stroke="green" stroke-width="5.0" fill="none" />
<path d="M276,-1626 L427,-1765" stroke="green" stroke-width="5.0" fill="none" />
<path d="M427,-1765 L604,-1532" stroke="green" stroke-width="5.0" fill="none" />
<path d="M604,-1532 L1031,-1785" stroke="green" stroke-width="5.0" fill="none" />
<path d="M1031,-1785 L1016,-1986" stroke="green" stroke-width="5.0" fill="none" />
<path d="M1016,-1986 L1128,-1766" stroke="green" stroke-width="5.0" fill="none" />
<path d="M1128,-1766 L1193,-1381" stroke="green" stroke-width="5.0" fill="none" />
<path d="M1193,-1381 L1488,-1680" stroke="green" stroke-width="5.0" fill="none" />
<path d="M1488,-1680 L1604,-1743" stroke="green" stroke-width="5.0" fill="none" />
<path d="M1604,-1743 L1502,-1603" stroke="green" stroke-width="5.0" fill="none" />
<path d="M1502,-1603 L1726,-1018" stroke="green" stroke-width="5.0" fill="none" />
<path d="M1726,-1018 L1920,-829" stroke="green" stroke-width="5.0" fill="none" />
<path d="M1920,-829 L1851,-617" stroke="green" stroke-width="5.0" fill="none" />
<path d="M1851,-617 L1996,-395" stroke="green" stroke-width="5.0" fill="none" />
<path d="M1996,-395 L1434,-259" stroke="green" stroke-width="5.0" fill="none" />
<path d="M1434,-259 L1337,-350" stroke="green" stroke-width="5.0" fill="none" />
<path d="M1337,-350 L656,-35" stroke="green" stroke-width="5.0" fill="none" />
<path d="M656,-35 L693,-200" stroke="green" stroke-width="5.0" fill="none" />
<path d="M693,-200 L784,172" stroke="green" stroke-width="5.0" fill="none" />
<path d="M784,172 L865,515" stroke="green" stroke-width="5.0" fill="none" />
<path d="M865,515 L848,824" stroke="green" stroke-width="5.0" fill="none" />
<path d="M848,824 L498,663" stroke="green" stroke-width="5.0" fill="none" />
<path d="M498,663 L347,679" stroke="green" stroke-width="5.0" fill="none" />
<path d="M347,679 L351,353" stroke="green" stroke-width="5.0" fill="none" />
<path d="M351,353 L-44,270" stroke="green" stroke-width="5.0" fill="none" />
<circle cx="0" cy="0" r="10" fill="blue" />
<circle cx="-130" cy="-102" r="10" fill="red" />
<circle cx="-268" cy="-319" r="10" fill="red" />
<circle cx="-390" cy="-593" r="10" fill="red" />
<circle cx="-630" cy="-615" r="10" fill="red" />
<circle cx="-739" cy="-208" r="10" fill="red" />
<circle cx="-834" cy="102" r="10" fill="red" />
<circle cx="-636" cy="-965" r="10" fill="red" />
<circle cx="-764" cy="-959" r="10" fill="red" />
<circle cx="-833" cy="-1113" r="10" fill="red" />
<circle cx="-913" cy="-1273" r="10" fill="red" />
<circle cx="-980" cy="-1304" r="10" fill="red" />
<circle cx="-1221" cy="-1071" r="10" fill="red" />
<circle cx="-1250" cy="-985" r="10" fill="red" />
<circle cx="-1224" cy="-787" r="10" fill="red" />
<circle cx="-1379" cy="-915" r="10" fill="red" />
<circle cx="-1733" cy="-958" r="10" fill="red" />
<circle cx="-1653" cy="-1303" r="10" fill="red" />
<circle cx="-1423" cy="-1596" r="10" fill="red" />
<circle cx="-1505" cy="-1985" r="10" fill="red" />
<circle cx="-1196" cy="-1698" r="10" fill="red" />
<circle cx="-1249" cy="-1744" r="10" fill="red" />
<circle cx="-1663" cy="-772" r="10" fill="red" />
<circle cx="-1949" cy="-522" r="10" fill="red" />
<circle cx="-1939" cy="-149" r="10" fill="red" />
<circle cx="-1749" cy="119" r="10" fill="red" />
<circle cx="-1869" cy="302" r="10" fill="red" />
<circle cx="-1941" cy="543" r="10" fill="red" />
<circle cx="-1678" cy="501" r="10" fill="red" />
<circle cx="-1437" cy="508" r="10" fill="red" />
<circle cx="-1520" cy="399" r="10" fill="red" />
<circle cx="-1708" cy="989" r="10" fill="red" />
<circle cx="-1847" cy="1177" r="10" fill="red" />
<circle cx="-1908" cy="1714" r="10" fill="red" />
<circle cx="-1292" cy="1995" r="10" fill="red" />
<circle cx="-1260" cy="1668" r="10" fill="red" />
<circle cx="-1358" cy="1200" r="10" fill="red" />
<circle cx="-1149" cy="1131" r="10" fill="red" />
<circle cx="-1069" cy="884" r="10" fill="red" />
<circle cx="-560" cy="1039" r="10" fill="red" />
<circle cx="-118" cy="898" r="10" fill="red" />
<circle cx="-473" cy="1265" r="10" fill="red" />
<circle cx="-475" cy="1416" r="10" fill="red" />
<circle cx="-651" cy="1403" r="10" fill="red" />
<circle cx="-582" cy="1644" r="10" fill="red" />
<circle cx="-429" cy="1384" r="10" fill="red" />
<circle cx="11" cy="1364" r="10" fill="red" />
<circle cx="222" cy="1664" r="10" fill="red" />
<circle cx="1259" cy="1814" r="10" fill="red" />
<circle cx="1461" cy="1991" r="10" fill="red" />
<circle cx="1573" cy="1341" r="10" fill="red" />
<circle cx="1928" cy="1456" r="10" fill="red" />
<circle cx="1623" cy="1167" r="10" fill="red" />
<circle cx="1432" cy="1057" r="10" fill="red" />
<circle cx="1733" cy="1069" r="10" fill="red" />
<circle cx="1759" cy="611" r="10" fill="red" />
<circle cx="1965" cy="663" r="10" fill="red" />
<circle cx="1967" cy="806" r="10" fill="red" />
<circle cx="1342" cy="632" r="10" fill="red" />
<circle cx="1261" cy="276" r="10" fill="red" />
<circle cx="1376" cy="210" r="10" fill="red" />
<circle cx="1336" cy="147" r="10" fill="red" />
<circle cx="1599" cy="115" r="10" fill="red" />
<circle cx="1011" cy="3" r="10" fill="red" />
<circle cx="1055" cy="-114" r="10" fill="red" />
<circle cx="1173" cy="-289" r="10" fill="red" />
<circle cx="1079" cy="-763" r="10" fill="red" />
<circle cx="872" cy="-865" r="10" fill="red" />
<circle cx="-41" cy="-964" r="10" fill="red" />
<circle cx="-22" cy="-537" r="10" fill="red" />
<circle cx="-85" cy="-556" r="10" fill="red" />
<circle cx="-440" cy="-1215" r="10" fill="red" />
<circle cx="-297" cy="-1734" r="10" fill="red" />
<circle cx="-588" cy="-1827" r="10" fill="red" />
<circle cx="-568" cy="-1951" r="10" fill="red" />
<circle cx="213" cy="-1792" r="10" fill="red" />
<circle cx="276" cy="-1626" r="10" fill="red" />
<circle cx="427" cy="-1765" r="10" fill="red" />
<circle cx="604" cy="-1532" r="10" fill="red" />
<circle cx="1031" cy="-1785" r="10" fill="red" />
<circle cx="1016" cy="-1986" r="10" fill="red" />
<circle cx="1128" cy="-1766" r="10" fill="red" />
<circle cx="1193" cy="-1381" r="10" fill="red" />
<circle cx="1488" cy="-1680" r="10" fill="red" />
<circle cx="1604" cy="-1743" r="10" fill="red" />
<circle cx="1502" cy="-1603" r="10" fill="red" />
<circle cx="1726" cy="-1018" r="10" fill="red" />
<circle cx="1920" cy="-829" r="10" fill="red" />
<circle cx="1851" cy="-617" r="10" fill="red" />
<circle cx="1996" cy="-395" r="10" fill="red" />
<circle cx="1434" cy="-259" r="10" fill="red" />
<circle cx="1337" cy="-350" r="10" fill="red" />
<circle cx="656" cy="-35" r="10" fill="red" />
<circle cx="693" cy="-200" r="10" fill="red" />
<circle cx="784" cy="172" r="10" fill="red" />
<circle cx="865" cy="515" r="10" fill="red" />
<circle cx="848" cy="824" r="10" fill="red" />
<circle cx="498" cy="663" r="10" fill="red" />
<circle cx="347" cy="679" r="10" fill="red" />
<circle cx="351" cy="353" r="10" fill="red" />
<circle cx="-44" cy="270" r="10" fill="red" />
</svg>