<svg xmlns="http://www.w3.org/2000/svg" width="800" height="800">
<g transform="translate(0.0 0.0) scale(40.0)">
<rect fill="#000000" width="20" height="20"></rect>
<g fill="#ffffff" transform="translate(0, 20) scale(1, -1)">
<ellipse cx="2" cy="17" rx="0.5" ry="0.5"></ellipse>
<ellipse cx="0" cy="14" rx="0.5" ry="0.5"></ellipse>
<ellipse cx="4" cy="9" rx="0.5" ry="0.5"></ellipse>
<ellipse cx="5" cy="2" rx="0.5" ry="0.5"></ellipse>
<ellipse cx="14" cy="20" rx="0.5" ry="0.5"></ellipse>
<ellipse cx="10" cy="9" rx="0.5" ry="0.5"></ellipse>
<ellipse cx="2" cy="9" rx="0.5" ry="0.5"></ellipse>
<ellipse cx="3" cy="0" rx="0.5" ry="0.5"></ellipse>
<ellipse cx="12" cy="18" rx="0.5" ry="0.5"></ellipse>
<ellipse cx="20" cy="11" rx="0.5" ry="0.5"></ellipse>
<ellipse cx="15" cy="14" rx="0.5" ry="0.5"></ellipse>
<ellipse cx="2" cy="8" rx="0.5" ry="0.5"></ellipse>
<ellipse cx="9" cy="15" rx="0.5" ry="0.5"></ellipse>
<ellipse cx="16" cy="5" rx="0.5" ry="0.5"></ellipse>
<ellipse cx="3" cy="7" rx="0.5" ry="0.5"></ellipse>
<ellipse cx="5" cy="6" rx="0.5" ry="0.5"></ellipse>
<ellipse cx="19" cy="5" rx="0.5" ry="0.5"></ellipse>
<ellipse cx="10" cy="10" rx="0.5" ry="0.5"></ellipse>
<ellipse cx="1" cy="6" rx="0.5" ry="0.5"></ellipse>
</g>
</g>
</svg>