<svg xmlns="http://www.w3.org/2000/svg" width="800" height="800">
<g transform="translate(3.617181612660147 0.0) scale(0.2009545340366742)">
<rect fill="#000000" width="3945" height="3981"></rect>
<g fill="#ffffff" transform="translate(0, 3981) scale(1, -1)">
<ellipse cx="2821" cy="1121" rx="0.5" ry="0.5"></ellipse>
<ellipse cx="1681" cy="1667" rx="0.5" ry="0.5"></ellipse>
<ellipse cx="1298" cy="3389" rx="0.5" ry="0.5"></ellipse>
<ellipse cx="969" cy="682" rx="0.5" ry="0.5"></ellipse>
<ellipse cx="216" cy="1028" rx="0.5" ry="0.5"></ellipse>
<ellipse cx="3142" cy="605" rx="0.5" ry="0.5"></ellipse>
<ellipse cx="2605" cy="1951" rx="0.5" ry="0.5"></ellipse>
<ellipse cx="512" cy="2494" rx="0.5" ry="0.5"></ellipse>
<ellipse cx="2980" cy="201" rx="0.5" ry="0.5"></ellipse>
<ellipse cx="1036" cy="713" rx="0.5" ry="0.5"></ellipse>
<ellipse cx="80" cy="2288" rx="0.5" ry="0.5"></ellipse>
<ellipse cx="1819" cy="1884" rx="0.5" ry="0.5"></ellipse>
<ellipse cx="271" cy="2487" rx="0.5" ry="0.5"></ellipse>
<ellipse cx="3522" cy="3327" rx="0.5" ry="0.5"></ellipse>
<ellipse cx="286" cy="1214" rx="0.5" ry="0.5"></ellipse>
<ellipse cx="1361" cy="159" rx="0.5" ry="0.5"></ellipse>
<ellipse cx="1115" cy="2088" rx="0.5" ry="0.5"></ellipse>
<ellipse cx="102" cy="3163" rx="0.5" ry="0.5"></ellipse>
<ellipse cx="3945" cy="1591" rx="0.5" ry="0.5"></ellipse>
<ellipse cx="1520" cy="3370" rx="0.5" ry="0.5"></ellipse>
<ellipse cx="526" cy="390" rx="0.5" ry="0.5"></ellipse>
<ellipse cx="3286" cy="1636" rx="0.5" ry="0.5"></ellipse>
<ellipse cx="699" cy="1001" rx="0.5" ry="0.5"></ellipse>
<ellipse cx="3914" cy="2649" rx="0.5" ry="0.5"></ellipse>
<ellipse cx="2814" cy="2501" rx="0.5" ry="0.5"></ellipse>
<ellipse cx="2965" cy="0" rx="0.5" ry="0.5"></ellipse>
<ellipse cx="2447" cy="2649" rx="0.5" ry="0.5"></ellipse>
<ellipse cx="3410" cy="3977" rx="0.5" ry="0.5"></ellipse>
<ellipse cx="2733" cy="2158" rx="0.5" ry="0.5"></ellipse>
<ellipse cx="800" cy="3117" rx="0.5" ry="0.5"></ellipse>
<ellipse cx="3916" cy="2792" rx="0.5" ry="0.5"></ellipse>
<ellipse cx="2225" cy="360" rx="0.5" ry="0.5"></ellipse>
<ellipse cx="1905" cy="2256" rx="0.5" ry="0.5"></ellipse>
<ellipse cx="200" cy="2105" rx="0.5" ry="0.5"></ellipse>
<ellipse cx="41" cy="3700" rx="0.5" ry="0.5"></ellipse>
<ellipse cx="1210" cy="1778" rx="0.5" ry="0.5"></ellipse>
<ellipse cx="2300" cy="2339" rx="0.5" ry="0.5"></ellipse>
<ellipse cx="8" cy="2529" rx="0.5" ry="0.5"></ellipse>
<ellipse cx="429" cy="2385" rx="0.5" ry="0.5"></ellipse>
<ellipse cx="3869" cy="1157" rx="0.5" ry="0.5"></ellipse>
<ellipse cx="880" cy="2870" rx="0.5" ry="0.5"></ellipse>
<ellipse cx="1319" cy="1371" rx="0.5" ry="0.5"></ellipse>
<ellipse cx="3451" cy="383" rx="0.5" ry="0.5"></ellipse>
<ellipse cx="3383" cy="1727" rx="0.5" ry="0.5"></ellipse>
<ellipse cx="1476" cy="3251" rx="0.5" ry="0.5"></ellipse>
<ellipse cx="2797" cy="2810" rx="0.5" ry="0.5"></ellipse>
<ellipse cx="3553" cy="243" rx="0.5" ry="0.5"></ellipse>
<ellipse cx="700" cy="242" rx="0.5" ry="0.5"></ellipse>
<ellipse cx="3285" cy="2133" rx="0.5" ry="0.5"></ellipse>
<ellipse cx="1474" cy="3402" rx="0.5" ry="0.5"></ellipse>
<ellipse cx="3122" cy="1697" rx="0.5" ry="0.5"></ellipse>
<ellipse cx="1652" cy="252" rx="0.5" ry="0.5"></ellipse>
<ellipse cx="3291" cy="2618" rx="0.5" ry="0.5"></ellipse>
<ellipse cx="3004" cy="1872" rx="0.5" ry="0.5"></ellipse>
<ellipse cx="2171" cy="3650" rx="0.5" ry="0.5"></ellipse>
<ellipse cx="1313" cy="1021" rx="0.5" ry="0.5"></ellipse>
<ellipse cx="1927" cy="1449" rx="0.5" ry="0.5"></ellipse>
<ellipse cx="657" cy="3981" rx="0.5" ry="0.5"></ellipse>
<ellipse cx="3208" cy="3800" rx="0.5" ry="0.5"></ellipse>
<ellipse cx="753" cy="288" rx="0.5" ry="0.5"></ellipse>
<ellipse cx="3708" cy="2597" rx="0.5" ry="0.5"></ellipse>
<ellipse cx="1367" cy="3630" rx="0.5" ry="0.5"></ellipse>
<ellipse cx="444" cy="1" rx="0.5" ry="0.5"></ellipse>
<ellipse cx="3800" cy="1369" rx="0.5" ry="0.5"></ellipse>
<ellipse cx="570" cy="1071" rx="0.5" ry="0.5"></ellipse>
<ellipse cx="10" cy="1837" rx="0.5" ry="0.5"></ellipse>
<ellipse cx="1960" cy="3350" rx="0.5" ry="0.5"></ellipse>
<ellipse cx="1381" cy="35" rx="0.5" ry="0.5"></ellipse>
<ellipse cx="2162" cy="194" rx="0.5" ry="0.5"></ellipse>
<ellipse cx="2960" cy="1989" rx="0.5" ry="0.5"></ellipse>
<ellipse cx="591" cy="3186" rx="0.5" ry="0.5"></ellipse>
<ellipse cx="3325" cy="2196" rx="0.5" ry="0.5"></ellipse>
<ellipse cx="3381" cy="3043" rx="0.5" ry="0.5"></ellipse>
<ellipse cx="0" cy="1464" rx="0.5" ry="0.5"></ellipse>
<ellipse cx="1831" cy="2884" rx="0.5" ry="0.5"></ellipse>
<ellipse cx="1389" cy="3025" rx="0.5" ry="0.5"></ellipse>
<ellipse cx="3682" cy="3055" rx="0.5" ry="0.5"></ellipse>
<ellipse cx="241" cy="2975" rx="0.5" ry="0.5"></ellipse>
<ellipse cx="1559" cy="1393" rx="0.5" ry="0.5"></ellipse>
<ellipse cx="2642" cy="1786" rx="0.5" ry="0.5"></ellipse>
<ellipse cx="3437" cy="306" rx="0.5" ry="0.5"></ellipse>
<ellipse cx="1908" cy="1022" rx="0.5" ry="0.5"></ellipse>
<ellipse cx="296" cy="683" rx="0.5" ry="0.5"></ellipse>
<ellipse cx="3572" cy="3153" rx="0.5" ry="0.5"></ellipse>
<ellipse cx="1864" cy="1430" rx="0.5" ry="0.5"></ellipse>
<ellipse cx="3077" cy="220" rx="0.5" ry="0.5"></ellipse>
<ellipse cx="3548" cy="2101" rx="0.5" ry="0.5"></ellipse>
<ellipse cx="689" cy="3654" rx="0.5" ry="0.5"></ellipse>
<ellipse cx="2376" cy="221" rx="0.5" ry="0.5"></ellipse>
<ellipse cx="2553" cy="454" rx="0.5" ry="0.5"></ellipse>
<ellipse cx="1116" cy="873" rx="0.5" ry="0.5"></ellipse>
<ellipse cx="3675" cy="968" rx="0.5" ry="0.5"></ellipse>
<ellipse cx="1509" cy="771" rx="0.5" ry="0.5"></ellipse>
<ellipse cx="3028" cy="1223" rx="0.5" ry="0.5"></ellipse>
<ellipse cx="3877" cy="3442" rx="0.5" ry="0.5"></ellipse>
<ellipse cx="1185" cy="1027" rx="0.5" ry="0.5"></ellipse>
<ellipse cx="728" cy="915" rx="0.5" ry="0.5"></ellipse>
<ellipse cx="725" cy="1199" rx="0.5" ry="0.5"></ellipse>
<ellipse cx="3210" cy="2262" rx="0.5" ry="0.5"></ellipse>
<ellipse cx="2296" cy="2665" rx="0.5" ry="0.5"></ellipse>
</g>
</g>
</svg>