<svg xmlns="http://www.w3.org/2000/svg" width="800" height="800">
<g transform="translate(0.0 0.0) scale(4.0)">
<rect fill="#000000" width="200" height="200"></rect>
<g fill="#ffffff" transform="translate(0, 200) scale(1, -1)">
<ellipse cx="141" cy="17" rx="0.5" ry="0.5"></ellipse>
<ellipse cx="3" cy="54" rx="0.5" ry="0.5"></ellipse>
<ellipse cx="127" cy="14" rx="0.5" ry="0.5"></ellipse>
<ellipse cx="127" cy="117" rx="0.5" ry="0.5"></ellipse>
<ellipse cx="0" cy="75" rx="0.5" ry="0.5"></ellipse>
<ellipse cx="111" cy="157" rx="0.5" ry="0.5"></ellipse>
<ellipse cx="70" cy="111" rx="0.5" ry="0.5"></ellipse>
<ellipse cx="63" cy="17" rx="0.5" ry="0.5"></ellipse>
<ellipse cx="72" cy="183" rx="0.5" ry="0.5"></ellipse>
<ellipse cx="53" cy="146" rx="0.5" ry="0.5"></ellipse>
<ellipse cx="47" cy="162" rx="0.5" ry="0.5"></ellipse>
<ellipse cx="14" cy="40" rx="0.5" ry="0.5"></ellipse>
<ellipse cx="19" cy="95" rx="0.5" ry="0.5"></ellipse>
<ellipse cx="97" cy="71" rx="0.5" ry="0.5"></ellipse>
<ellipse cx="33" cy="4" rx="0.5" ry="0.5"></ellipse>
<ellipse cx="102" cy="124" rx="0.5" ry="0.5"></ellipse>
<ellipse cx="106" cy="81" rx="0.5" ry="0.5"></ellipse>
<ellipse cx="177" cy="51" rx="0.5" ry="0.5"></ellipse>
<ellipse cx="76" cy="114" rx="0.5" ry="0.5"></ellipse>
<ellipse cx="30" cy="182" rx="0.5" ry="0.5"></ellipse>
<ellipse cx="179" cy="33" rx="0.5" ry="0.5"></ellipse>
<ellipse cx="144" cy="156" rx="0.5" ry="0.5"></ellipse>
<ellipse cx="51" cy="16" rx="0.5" ry="0.5"></ellipse>
<ellipse cx="169" cy="93" rx="0.5" ry="0.5"></ellipse>
<ellipse cx="193" cy="67" rx="0.5" ry="0.5"></ellipse>
<ellipse cx="8" cy="66" rx="0.5" ry="0.5"></ellipse>
<ellipse cx="109" cy="80" rx="0.5" ry="0.5"></ellipse>
<ellipse cx="194" cy="95" rx="0.5" ry="0.5"></ellipse>
<ellipse cx="91" cy="106" rx="0.5" ry="0.5"></ellipse>
<ellipse cx="75" cy="36" rx="0.5" ry="0.5"></ellipse>
<ellipse cx="109" cy="155" rx="0.5" ry="0.5"></ellipse>
<ellipse cx="63" cy="5" rx="0.5" ry="0.5"></ellipse>
<ellipse cx="93" cy="86" rx="0.5" ry="0.5"></ellipse>
<ellipse cx="6" cy="128" rx="0.5" ry="0.5"></ellipse>
<ellipse cx="67" cy="4" rx="0.5" ry="0.5"></ellipse>
<ellipse cx="99" cy="37" rx="0.5" ry="0.5"></ellipse>
<ellipse cx="181" cy="113" rx="0.5" ry="0.5"></ellipse>
<ellipse cx="43" cy="57" rx="0.5" ry="0.5"></ellipse>
<ellipse cx="80" cy="78" rx="0.5" ry="0.5"></ellipse>
<ellipse cx="104" cy="151" rx="0.5" ry="0.5"></ellipse>
<ellipse cx="103" cy="46" rx="0.5" ry="0.5"></ellipse>
<ellipse cx="179" cy="59" rx="0.5" ry="0.5"></ellipse>
<ellipse cx="18" cy="187" rx="0.5" ry="0.5"></ellipse>
<ellipse cx="162" cy="32" rx="0.5" ry="0.5"></ellipse>
<ellipse cx="133" cy="115" rx="0.5" ry="0.5"></ellipse>
<ellipse cx="1" cy="26" rx="0.5" ry="0.5"></ellipse>
<ellipse cx="199" cy="159" rx="0.5" ry="0.5"></ellipse>
<ellipse cx="92" cy="106" rx="0.5" ry="0.5"></ellipse>
<ellipse cx="98" cy="95" rx="0.5" ry="0.5"></ellipse>
<ellipse cx="14" cy="168" rx="0.5" ry="0.5"></ellipse>
<ellipse cx="34" cy="94" rx="0.5" ry="0.5"></ellipse>
<ellipse cx="26" cy="162" rx="0.5" ry="0.5"></ellipse>
<ellipse cx="141" cy="180" rx="0.5" ry="0.5"></ellipse>
<ellipse cx="121" cy="87" rx="0.5" ry="0.5"></ellipse>
<ellipse cx="49" cy="197" rx="0.5" ry="0.5"></ellipse>
<ellipse cx="8" cy="16" rx="0.5" ry="0.5"></ellipse>
<ellipse cx="44" cy="138" rx="0.5" ry="0.5"></ellipse>
<ellipse cx="175" cy="186" rx="0.5" ry="0.5"></ellipse>
<ellipse cx="184" cy="138" rx="0.5" ry="0.5"></ellipse>
<ellipse cx="136" cy="80" rx="0.5" ry="0.5"></ellipse>
<ellipse cx="34" cy="40" rx="0.5" ry="0.5"></ellipse>
<ellipse cx="186" cy="20" rx="0.5" ry="0.5"></ellipse>
<ellipse cx="28" cy="6" rx="0.5" ry="0.5"></ellipse>
<ellipse cx="158" cy="185" rx="0.5" ry="0.5"></ellipse>
<ellipse cx="138" cy="123" rx="0.5" ry="0.5"></ellipse>
<ellipse cx="57" cy="53" rx="0.5" ry="0.5"></ellipse>
<ellipse cx="158" cy="117" rx="0.5" ry="0.5"></ellipse>
<ellipse cx="48" cy="59" rx="0.5" ry="0.5"></ellipse>
<ellipse cx="113" cy="19" rx="0.5" ry="0.5"></ellipse>
<ellipse cx="74" cy="58" rx="0.5" ry="0.5"></ellipse>
<ellipse cx="46" cy="140" rx="0.5" ry="0.5"></ellipse>
<ellipse cx="164" cy="57" rx="0.5" ry="0.5"></ellipse>
<ellipse cx="121" cy="186" rx="0.5" ry="0.5"></ellipse>
<ellipse cx="175" cy="70" rx="0.5" ry="0.5"></ellipse>
<ellipse cx="186" cy="10" rx="0.5" ry="0.5"></ellipse>
<ellipse cx="127" cy="140" rx="0.5" ry="0.5"></ellipse>
<ellipse cx="153" cy="56" rx="0.5" ry="0.5"></ellipse>
<ellipse cx="173" cy="25" rx="0.5" ry="0.5"></ellipse>
<ellipse cx="138" cy="11" rx="0.5" ry="0.5"></ellipse>
<ellipse cx="197" cy="54" rx="0.5" ry="0.5"></ellipse>
<ellipse cx="93" cy="129" rx="0.5" ry="0.5"></ellipse>
<ellipse cx="48" cy="41" rx="0.5" ry="0.5"></ellipse>
<ellipse cx="4" cy="20" rx="0.5" ry="0.5"></ellipse>
<ellipse cx="167" cy="39" rx="0.5" ry="0.5"></ellipse>
<ellipse cx="82" cy="124" rx="0.5" ry="0.5"></ellipse>
<ellipse cx="71" cy="178" rx="0.5" ry="0.5"></ellipse>
<ellipse cx="58" cy="67" rx="0.5" ry="0.5"></ellipse>
<ellipse cx="112" cy="136" rx="0.5" ry="0.5"></ellipse>
<ellipse cx="132" cy="33" rx="0.5" ry="0.5"></ellipse>
<ellipse cx="158" cy="138" rx="0.5" ry="0.5"></ellipse>
<ellipse cx="160" cy="88" rx="0.5" ry="0.5"></ellipse>
<ellipse cx="125" cy="108" rx="0.5" ry="0.5"></ellipse>
<ellipse cx="191" cy="135" rx="0.5" ry="0.5"></ellipse>
<ellipse cx="114" cy="92" rx="0.5" ry="0.5"></ellipse>
<ellipse cx="198" cy="68" rx="0.5" ry="0.5"></ellipse>
<ellipse cx="181" cy="150" rx="0.5" ry="0.5"></ellipse>
<ellipse cx="76" cy="128" rx="0.5" ry="0.5"></ellipse>
<ellipse cx="85" cy="84" rx="0.5" ry="0.5"></ellipse>
<ellipse cx="118" cy="63" rx="0.5" ry="0.5"></ellipse>
<ellipse cx="151" cy="18" rx="0.5" ry="0.5"></ellipse>
<ellipse cx="58" cy="146" rx="0.5" ry="0.5"></ellipse>
<ellipse cx="128" cy="12" rx="0.5" ry="0.5"></ellipse>
<ellipse cx="136" cy="140" rx="0.5" ry="0.5"></ellipse>
<ellipse cx="15" cy="11" rx="0.5" ry="0.5"></ellipse>
<ellipse cx="152" cy="200" rx="0.5" ry="0.5"></ellipse>
<ellipse cx="92" cy="126" rx="0.5" ry="0.5"></ellipse>
<ellipse cx="25" cy="13" rx="0.5" ry="0.5"></ellipse>
<ellipse cx="87" cy="84" rx="0.5" ry="0.5"></ellipse>
<ellipse cx="119" cy="174" rx="0.5" ry="0.5"></ellipse>
<ellipse cx="0" cy="72" rx="0.5" ry="0.5"></ellipse>
<ellipse cx="7" cy="118" rx="0.5" ry="0.5"></ellipse>
<ellipse cx="123" cy="161" rx="0.5" ry="0.5"></ellipse>
<ellipse cx="175" cy="26" rx="0.5" ry="0.5"></ellipse>
<ellipse cx="60" cy="124" rx="0.5" ry="0.5"></ellipse>
<ellipse cx="110" cy="170" rx="0.5" ry="0.5"></ellipse>
<ellipse cx="31" cy="147" rx="0.5" ry="0.5"></ellipse>
<ellipse cx="195" cy="152" rx="0.5" ry="0.5"></ellipse>
<ellipse cx="103" cy="144" rx="0.5" ry="0.5"></ellipse>
<ellipse cx="142" cy="43" rx="0.5" ry="0.5"></ellipse>
<ellipse cx="167" cy="68" rx="0.5" ry="0.5"></ellipse>
<ellipse cx="46" cy="105" rx="0.5" ry="0.5"></ellipse>
<ellipse cx="14" cy="126" rx="0.5" ry="0.5"></ellipse>
<ellipse cx="23" cy="37" rx="0.5" ry="0.5"></ellipse>
<ellipse cx="124" cy="154" rx="0.5" ry="0.5"></ellipse>
<ellipse cx="188" cy="53" rx="0.5" ry="0.5"></ellipse>
<ellipse cx="33" cy="35" rx="0.5" ry="0.5"></ellipse>
<ellipse cx="158" cy="120" rx="0.5" ry="0.5"></ellipse>
<ellipse cx="73" cy="115" rx="0.5" ry="0.5"></ellipse>
<ellipse cx="181" cy="176" rx="0.5" ry="0.5"></ellipse>
<ellipse cx="198" cy="39" rx="0.5" ry="0.5"></ellipse>
<ellipse cx="130" cy="25" rx="0.5" ry="0.5"></ellipse>
<ellipse cx="187" cy="46" rx="0.5" ry="0.5"></ellipse>
<ellipse cx="182" cy="37" rx="0.5" ry="0.5"></ellipse>
<ellipse cx="33" cy="108" rx="0.5" ry="0.5"></ellipse>
<ellipse cx="77" cy="99" rx="0.5" ry="0.5"></ellipse>
<ellipse cx="122" cy="56" rx="0.5" ry="0.5"></ellipse>
<ellipse cx="41" cy="98" rx="0.5" ry="0.5"></ellipse>
<ellipse cx="8" cy="78" rx="0.5" ry="0.5"></ellipse>
<ellipse cx="110" cy="35" rx="0.5" ry="0.5"></ellipse>
<ellipse cx="104" cy="171" rx="0.5" ry="0.5"></ellipse>
<ellipse cx="62" cy="12" rx="0.5" ry="0.5"></ellipse>
<ellipse cx="62" cy="40" rx="0.5" ry="0.5"></ellipse>
<ellipse cx="191" cy="159" rx="0.5" ry="0.5"></ellipse>
<ellipse cx="159" cy="80" rx="0.5" ry="0.5"></ellipse>
<ellipse cx="155" cy="49" rx="0.5" ry="0.5"></ellipse>
<ellipse cx="1" cy="176" rx="0.5" ry="0.5"></ellipse>
<ellipse cx="89" cy="197" rx="0.5" ry="0.5"></ellipse>
<ellipse cx="98" cy="170" rx="0.5" ry="0.5"></ellipse>
<ellipse cx="175" cy="39" rx="0.5" ry="0.5"></ellipse>
<ellipse cx="8" cy="29" rx="0.5" ry="0.5"></ellipse>
<ellipse cx="134" cy="64" rx="0.5" ry="0.5"></ellipse>
<ellipse cx="78" cy="0" rx="0.5" ry="0.5"></ellipse>
<ellipse cx="179" cy="188" rx="0.5" ry="0.5"></ellipse>
<ellipse cx="139" cy="94" rx="0.5" ry="0.5"></ellipse>
<ellipse cx="3" cy="41" rx="0.5" ry="0.5"></ellipse>
<ellipse cx="96" cy="8" rx="0.5" ry="0.5"></ellipse>
<ellipse cx="44" cy="8" rx="0.5" ry="0.5"></ellipse>
<ellipse cx="6" cy="58" rx="0.5" ry="0.5"></ellipse>
<ellipse cx="87" cy="50" rx="0.5" ry="0.5"></ellipse>
<ellipse cx="86" cy="155" rx="0.5" ry="0.5"></ellipse>
<ellipse cx="69" cy="25" rx="0.5" ry="0.5"></ellipse>
<ellipse cx="108" cy="2" rx="0.5" ry="0.5"></ellipse>
<ellipse cx="42" cy="128" rx="0.5" ry="0.5"></ellipse>
<ellipse cx="82" cy="16" rx="0.5" ry="0.5"></ellipse>
<ellipse cx="98" cy="108" rx="0.5" ry="0.5"></ellipse>
<ellipse cx="108" cy="12" rx="0.5" ry="0.5"></ellipse>
<ellipse cx="147" cy="183" rx="0.5" ry="0.5"></ellipse>
<ellipse cx="120" cy="80" rx="0.5" ry="0.5"></ellipse>
<ellipse cx="23" cy="177" rx="0.5" ry="0.5"></ellipse>
<ellipse cx="122" cy="14" rx="0.5" ry="0.5"></ellipse>
<ellipse cx="145" cy="6" rx="0.5" ry="0.5"></ellipse>
<ellipse cx="158" cy="93" rx="0.5" ry="0.5"></ellipse>
<ellipse cx="134" cy="197" rx="0.5" ry="0.5"></ellipse>
<ellipse cx="92" cy="145" rx="0.5" ry="0.5"></ellipse>
<ellipse cx="86" cy="172" rx="0.5" ry="0.5"></ellipse>
<ellipse cx="27" cy="29" rx="0.5" ry="0.5"></ellipse>
<ellipse cx="131" cy="69" rx="0.5" ry="0.5"></ellipse>
<ellipse cx="13" cy="166" rx="0.5" ry="0.5"></ellipse>
<ellipse cx="113" cy="73" rx="0.5" ry="0.5"></ellipse>
<ellipse cx="43" cy="113" rx="0.5" ry="0.5"></ellipse>
<ellipse cx="9" cy="151" rx="0.5" ry="0.5"></ellipse>
<ellipse cx="147" cy="18" rx="0.5" ry="0.5"></ellipse>
<ellipse cx="192" cy="71" rx="0.5" ry="0.5"></ellipse>
<ellipse cx="70" cy="77" rx="0.5" ry="0.5"></ellipse>
<ellipse cx="17" cy="60" rx="0.5" ry="0.5"></ellipse>
<ellipse cx="59" cy="175" rx="0.5" ry="0.5"></ellipse>
<ellipse cx="90" cy="153" rx="0.5" ry="0.5"></ellipse>
<ellipse cx="36" cy="29" rx="0.5" ry="0.5"></ellipse>
<ellipse cx="32" cy="70" rx="0.5" ry="0.5"></ellipse>
<ellipse cx="159" cy="77" rx="0.5" ry="0.5"></ellipse>
<ellipse cx="170" cy="90" rx="0.5" ry="0.5"></ellipse>
<ellipse cx="192" cy="96" rx="0.5" ry="0.5"></ellipse>
<ellipse cx="18" cy="18" rx="0.5" ry="0.5"></ellipse>
<ellipse cx="87" cy="148" rx="0.5" ry="0.5"></ellipse>
<ellipse cx="193" cy="34" rx="0.5" ry="0.5"></ellipse>
<ellipse cx="31" cy="24" rx="0.5" ry="0.5"></ellipse>
<ellipse cx="98" cy="80" rx="0.5" ry="0.5"></ellipse>
<ellipse cx="193" cy="78" rx="0.5" ry="0.5"></ellipse>
<ellipse cx="164" cy="71" rx="0.5" ry="0.5"></ellipse>
<ellipse cx="90" cy="150" rx="0.5" ry="0.5"></ellipse>
<ellipse cx="192" cy="9" rx="0.5" ry="0.5"></ellipse>
<ellipse cx="178" cy="17" rx="0.5" ry="0.5"></ellipse>
<ellipse cx="33" cy="128" rx="0.5" ry="0.5"></ellipse>
<ellipse cx="125" cy="145" rx="0.5" ry="0.5"></ellipse>
<ellipse cx="34" cy="73" rx="0.5" ry="0.5"></ellipse>
<ellipse cx="5" cy="91" rx="0.5" ry="0.5"></ellipse>
<ellipse cx="133" cy="77" rx="0.5" ry="0.5"></ellipse>
<ellipse cx="9" cy="159" rx="0.5" ry="0.5"></ellipse>
<ellipse cx="88" cy="137" rx="0.5" ry="0.5"></ellipse>
<ellipse cx="195" cy="56" rx="0.5" ry="0.5"></ellipse>
<ellipse cx="181" cy="26" rx="0.5" ry="0.5"></ellipse>
<ellipse cx="110" cy="162" rx="0.5" ry="0.5"></ellipse>
<ellipse cx="114" cy="16" rx="0.5" ry="0.5"></ellipse>
<ellipse cx="115" cy="92" rx="0.5" ry="0.5"></ellipse>
<ellipse cx="71" cy="88" rx="0.5" ry="0.5"></ellipse>
<ellipse cx="197" cy="3" rx="0.5" ry="0.5"></ellipse>
<ellipse cx="113" cy="104" rx="0.5" ry="0.5"></ellipse>
<ellipse cx="98" cy="2" rx="0.5" ry="0.5"></ellipse>
<ellipse cx="103" cy="168" rx="0.5" ry="0.5"></ellipse>
<ellipse cx="16" cy="118" rx="0.5" ry="0.5"></ellipse>
<ellipse cx="128" cy="28" rx="0.5" ry="0.5"></ellipse>
<ellipse cx="44" cy="174" rx="0.5" ry="0.5"></ellipse>
<ellipse cx="147" cy="26" rx="0.5" ry="0.5"></ellipse>
<ellipse cx="158" cy="136" rx="0.5" ry="0.5"></ellipse>
<ellipse cx="64" cy="70" rx="0.5" ry="0.5"></ellipse>
<ellipse cx="184" cy="194" rx="0.5" ry="0.5"></ellipse>
<ellipse cx="157" cy="4" rx="0.5" ry="0.5"></ellipse>
<ellipse cx="17" cy="84" rx="0.5" ry="0.5"></ellipse>
<ellipse cx="147" cy="40" rx="0.5" ry="0.5"></ellipse>
<ellipse cx="50" cy="131" rx="0.5" ry="0.5"></ellipse>
<ellipse cx="49" cy="72" rx="0.5" ry="0.5"></ellipse>
<ellipse cx="25" cy="186" rx="0.5" ry="0.5"></ellipse>
<ellipse cx="134" cy="93" rx="0.5" ry="0.5"></ellipse>
<ellipse cx="161" cy="141" rx="0.5" ry="0.5"></ellipse>
<ellipse cx="49" cy="46" rx="0.5" ry="0.5"></ellipse>
<ellipse cx="19" cy="183" rx="0.5" ry="0.5"></ellipse>
<ellipse cx="132" cy="80" rx="0.5" ry="0.5"></ellipse>
<ellipse cx="27" cy="74" rx="0.5" ry="0.5"></ellipse>
<ellipse cx="181" cy="34" rx="0.5" ry="0.5"></ellipse>
<ellipse cx="31" cy="23" rx="0.5" ry="0.5"></ellipse>
<ellipse cx="123" cy="113" rx="0.5" ry="0.5"></ellipse>
<ellipse cx="28" cy="179" rx="0.5" ry="0.5"></ellipse>
<ellipse cx="36" cy="7" rx="0.5" ry="0.5"></ellipse>
<ellipse cx="143" cy="44" rx="0.5" ry="0.5"></ellipse>
<ellipse cx="53" cy="42" rx="0.5" ry="0.5"></ellipse>
<ellipse cx="79" cy="168" rx="0.5" ry="0.5"></ellipse>
<ellipse cx="194" cy="29" rx="0.5" ry="0.5"></ellipse>
<ellipse cx="24" cy="33" rx="0.5" ry="0.5"></ellipse>
<ellipse cx="96" cy="196" rx="0.5" ry="0.5"></ellipse>
<ellipse cx="71" cy="183" rx="0.5" ry="0.5"></ellipse>
<ellipse cx="149" cy="151" rx="0.5" ry="0.5"></ellipse>
<ellipse cx="96" cy="90" rx="0.5" ry="0.5"></ellipse>
<ellipse cx="148" cy="89" rx="0.5" ry="0.5"></ellipse>
<ellipse cx="194" cy="191" rx="0.5" ry="0.5"></ellipse>
<ellipse cx="182" cy="8" rx="0.5" ry="0.5"></ellipse>
<ellipse cx="123" cy="61" rx="0.5" ry="0.5"></ellipse>
<ellipse cx="100" cy="158" rx="0.5" ry="0.5"></ellipse>
<ellipse cx="147" cy="6" rx="0.5" ry="0.5"></ellipse>
<ellipse cx="185" cy="176" rx="0.5" ry="0.5"></ellipse>
<ellipse cx="87" cy="43" rx="0.5" ry="0.5"></ellipse>
<ellipse cx="153" cy="149" rx="0.5" ry="0.5"></ellipse>
<ellipse cx="147" cy="146" rx="0.5" ry="0.5"></ellipse>
<ellipse cx="20" cy="25" rx="0.5" ry="0.5"></ellipse>
<ellipse cx="66" cy="196" rx="0.5" ry="0.5"></ellipse>
<ellipse cx="163" cy="43" rx="0.5" ry="0.5"></ellipse>
<ellipse cx="78" cy="186" rx="0.5" ry="0.5"></ellipse>
<ellipse cx="130" cy="181" rx="0.5" ry="0.5"></ellipse>
<ellipse cx="119" cy="94" rx="0.5" ry="0.5"></ellipse>
<ellipse cx="88" cy="161" rx="0.5" ry="0.5"></ellipse>
<ellipse cx="127" cy="30" rx="0.5" ry="0.5"></ellipse>
<ellipse cx="87" cy="94" rx="0.5" ry="0.5"></ellipse>
<ellipse cx="56" cy="37" rx="0.5" ry="0.5"></ellipse>
<ellipse cx="187" cy="173" rx="0.5" ry="0.5"></ellipse>
<ellipse cx="144" cy="110" rx="0.5" ry="0.5"></ellipse>
<ellipse cx="34" cy="103" rx="0.5" ry="0.5"></ellipse>
<ellipse cx="50" cy="144" rx="0.5" ry="0.5"></ellipse>
<ellipse cx="84" cy="102" rx="0.5" ry="0.5"></ellipse>
<ellipse cx="164" cy="81" rx="0.5" ry="0.5"></ellipse>
<ellipse cx="12" cy="104" rx="0.5" ry="0.5"></ellipse>
<ellipse cx="23" cy="176" rx="0.5" ry="0.5"></ellipse>
<ellipse cx="66" cy="159" rx="0.5" ry="0.5"></ellipse>
<ellipse cx="145" cy="196" rx="0.5" ry="0.5"></ellipse>
<ellipse cx="164" cy="175" rx="0.5" ry="0.5"></ellipse>
<ellipse cx="125" cy="68" rx="0.5" ry="0.5"></ellipse>
<ellipse cx="2" cy="103" rx="0.5" ry="0.5"></ellipse>
<ellipse cx="135" cy="181" rx="0.5" ry="0.5"></ellipse>
<ellipse cx="96" cy="160" rx="0.5" ry="0.5"></ellipse>
<ellipse cx="132" cy="41" rx="0.5" ry="0.5"></ellipse>
<ellipse cx="101" cy="52" rx="0.5" ry="0.5"></ellipse>
<ellipse cx="196" cy="19" rx="0.5" ry="0.5"></ellipse>
<ellipse cx="109" cy="158" rx="0.5" ry="0.5"></ellipse>
<ellipse cx="156" cy="81" rx="0.5" ry="0.5"></ellipse>
<ellipse cx="73" cy="10" rx="0.5" ry="0.5"></ellipse>
<ellipse cx="11" cy="153" rx="0.5" ry="0.5"></ellipse>
<ellipse cx="41" cy="138" rx="0.5" ry="0.5"></ellipse>
<ellipse cx="140" cy="42" rx="0.5" ry="0.5"></ellipse>
<ellipse cx="169" cy="140" rx="0.5" ry="0.5"></ellipse>
<ellipse cx="6" cy="103" rx="0.5" ry="0.5"></ellipse>
<ellipse cx="110" cy="82" rx="0.5" ry="0.5"></ellipse>
<ellipse cx="5" cy="175" rx="0.5" ry="0.5"></ellipse>
<ellipse cx="199" cy="193" rx="0.5" ry="0.5"></ellipse>
<ellipse cx="19" cy="23" rx="0.5" ry="0.5"></ellipse>
<ellipse cx="16" cy="33" rx="0.5" ry="0.5"></ellipse>
<ellipse cx="193" cy="65" rx="0.5" ry="0.5"></ellipse>
<ellipse cx="81" cy="134" rx="0.5" ry="0.5"></ellipse>
<ellipse cx="139" cy="15" rx="0.5" ry="0.5"></ellipse>
<ellipse cx="173" cy="154" rx="0.5" ry="0.5"></ellipse>
<ellipse cx="39" cy="96" rx="0.5" ry="0.5"></ellipse>
<ellipse cx="192" cy="152" rx="0.5" ry="0.5"></ellipse>
<ellipse cx="177" cy="198" rx="0.5" ry="0.5"></ellipse>
<ellipse cx="193" cy="156" rx="0.5" ry="0.5"></ellipse>
<ellipse cx="163" cy="38" rx="0.5" ry="0.5"></ellipse>
<ellipse cx="110" cy="126" rx="0.5" ry="0.5"></ellipse>
<ellipse cx="101" cy="22" rx="0.5" ry="0.5"></ellipse>
<ellipse cx="190" cy="154" rx="0.5" ry="0.5"></ellipse>
<ellipse cx="150" cy="124" rx="0.5" ry="0.5"></ellipse>
<ellipse cx="32" cy="163" rx="0.5" ry="0.5"></ellipse>
<ellipse cx="152" cy="138" rx="0.5" ry="0.5"></ellipse>
<ellipse cx="198" cy="102" rx="0.5" ry="0.5"></ellipse>
<ellipse cx="144" cy="108" rx="0.5" ry="0.5"></ellipse>
<ellipse cx="110" cy="125" rx="0.5" ry="0.5"></ellipse>
<ellipse cx="164" cy="138" rx="0.5" ry="0.5"></ellipse>
<ellipse cx="80" cy="5" rx="0.5" ry="0.5"></ellipse>
<ellipse cx="105" cy="37" rx="0.5" ry="0.5"></ellipse>
<ellipse cx="193" cy="101" rx="0.5" ry="0.5"></ellipse>
<ellipse cx="109" cy="150" rx="0.5" ry="0.5"></ellipse>
<ellipse cx="75" cy="41" rx="0.5" ry="0.5"></ellipse>
<ellipse cx="153" cy="179" rx="0.5" ry="0.5"></ellipse>
<ellipse cx="108" cy="114" rx="0.5" ry="0.5"></ellipse>
<ellipse cx="147" cy="68" rx="0.5" ry="0.5"></ellipse>
<ellipse cx="114" cy="111" rx="0.5" ry="0.5"></ellipse>
<ellipse cx="65" cy="80" rx="0.5" ry="0.5"></ellipse>
<ellipse cx="23" cy="151" rx="0.5" ry="0.5"></ellipse>
<ellipse cx="15" cy="20" rx="0.5" ry="0.5"></ellipse>
<ellipse cx="155" cy="16" rx="0.5" ry="0.5"></ellipse>
<ellipse cx="101" cy="35" rx="0.5" ry="0.5"></ellipse>
<ellipse cx="128" cy="158" rx="0.5" ry="0.5"></ellipse>
<ellipse cx="139" cy="100" rx="0.5" ry="0.5"></ellipse>
<ellipse cx="4" cy="45" rx="0.5" ry="0.5"></ellipse>
<ellipse cx="13" cy="195" rx="0.5" ry="0.5"></ellipse>
<ellipse cx="173" cy="41" rx="0.5" ry="0.5"></ellipse>
<ellipse cx="138" cy="44" rx="0.5" ry="0.5"></ellipse>
<ellipse cx="81" cy="142" rx="0.5" ry="0.5"></ellipse>
<ellipse cx="126" cy="156" rx="0.5" ry="0.5"></ellipse>
<ellipse cx="68" cy="190" rx="0.5" ry="0.5"></ellipse>
<ellipse cx="117" cy="4" rx="0.5" ry="0.5"></ellipse>
<ellipse cx="124" cy="88" rx="0.5" ry="0.5"></ellipse>
<ellipse cx="188" cy="73" rx="0.5" ry="0.5"></ellipse>
<ellipse cx="12" cy="131" rx="0.5" ry="0.5"></ellipse>
<ellipse cx="50" cy="84" rx="0.5" ry="0.5"></ellipse>
<ellipse cx="22" cy="4" rx="0.5" ry="0.5"></ellipse>
<ellipse cx="122" cy="109" rx="0.5" ry="0.5"></ellipse>
<ellipse cx="63" cy="107" rx="0.5" ry="0.5"></ellipse>
<ellipse cx="27" cy="28" rx="0.5" ry="0.5"></ellipse>
<ellipse cx="163" cy="72" rx="0.5" ry="0.5"></ellipse>
<ellipse cx="18" cy="138" rx="0.5" ry="0.5"></ellipse>
<ellipse cx="143" cy="152" rx="0.5" ry="0.5"></ellipse>
<ellipse cx="185" cy="10" rx="0.5" ry="0.5"></ellipse>
<ellipse cx="137" cy="138" rx="0.5" ry="0.5"></ellipse>
<ellipse cx="42" cy="176" rx="0.5" ry="0.5"></ellipse>
<ellipse cx="153" cy="130" rx="0.5" ry="0.5"></ellipse>
<ellipse cx="144" cy="55" rx="0.5" ry="0.5"></ellipse>
<ellipse cx="106" cy="156" rx="0.5" ry="0.5"></ellipse>
<ellipse cx="133" cy="3" rx="0.5" ry="0.5"></ellipse>
<ellipse cx="87" cy="69" rx="0.5" ry="0.5"></ellipse>
<ellipse cx="31" cy="74" rx="0.5" ry="0.5"></ellipse>
<ellipse cx="36" cy="141" rx="0.5" ry="0.5"></ellipse>
<ellipse cx="94" cy="77" rx="0.5" ry="0.5"></ellipse>
<ellipse cx="181" cy="173" rx="0.5" ry="0.5"></ellipse>
<ellipse cx="96" cy="34" rx="0.5" ry="0.5"></ellipse>
<ellipse cx="79" cy="60" rx="0.5" ry="0.5"></ellipse>
<ellipse cx="176" cy="77" rx="0.5" ry="0.5"></ellipse>
<ellipse cx="28" cy="189" rx="0.5" ry="0.5"></ellipse>
<ellipse cx="91" cy="165" rx="0.5" ry="0.5"></ellipse>
<ellipse cx="147" cy="89" rx="0.5" ry="0.5"></ellipse>
<ellipse cx="3" cy="178" rx="0.5" ry="0.5"></ellipse>
<ellipse cx="65" cy="28" rx="0.5" ry="0.5"></ellipse>
<ellipse cx="65" cy="29" rx="0.5" ry="0.5"></ellipse>
<ellipse cx="97" cy="46" rx="0.5" ry="0.5"></ellipse>
<ellipse cx="66" cy="131" rx="0.5" ry="0.5"></ellipse>
<ellipse cx="143" cy="29" rx="0.5" ry="0.5"></ellipse>
<ellipse cx="136" cy="133" rx="0.5" ry="0.5"></ellipse>
<ellipse cx="6" cy="182" rx="0.5" ry="0.5"></ellipse>
<ellipse cx="19" cy="50" rx="0.5" ry="0.5"></ellipse>
<ellipse cx="29" cy="29" rx="0.5" ry="0.5"></ellipse>
<ellipse cx="134" cy="60" rx="0.5" ry="0.5"></ellipse>
<ellipse cx="130" cy="69" rx="0.5" ry="0.5"></ellipse>
<ellipse cx="82" cy="69" rx="0.5" ry="0.5"></ellipse>
<ellipse cx="91" cy="131" rx="0.5" ry="0.5"></ellipse>
<ellipse cx="171" cy="20" rx="0.5" ry="0.5"></ellipse>
<ellipse cx="61" cy="146" rx="0.5" ry="0.5"></ellipse>
<ellipse cx="153" cy="74" rx="0.5" ry="0.5"></ellipse>
<ellipse cx="71" cy="56" rx="0.5" ry="0.5"></ellipse>
<ellipse cx="22" cy="87" rx="0.5" ry="0.5"></ellipse>
<ellipse cx="41" cy="108" rx="0.5" ry="0.5"></ellipse>
<ellipse cx="10" cy="132" rx="0.5" ry="0.5"></ellipse>
<ellipse cx="137" cy="51" rx="0.5" ry="0.5"></ellipse>
<ellipse cx="144" cy="139" rx="0.5" ry="0.5"></ellipse>
<ellipse cx="56" cy="197" rx="0.5" ry="0.5"></ellipse>
<ellipse cx="115" cy="54" rx="0.5" ry="0.5"></ellipse>
<ellipse cx="4" cy="96" rx="0.5" ry="0.5"></ellipse>
<ellipse cx="66" cy="12" rx="0.5" ry="0.5"></ellipse>
<ellipse cx="113" cy="40" rx="0.5" ry="0.5"></ellipse>
<ellipse cx="94" cy="58" rx="0.5" ry="0.5"></ellipse>
<ellipse cx="114" cy="117" rx="0.5" ry="0.5"></ellipse>
<ellipse cx="121" cy="10" rx="0.5" ry="0.5"></ellipse>
<ellipse cx="161" cy="146" rx="0.5" ry="0.5"></ellipse>
<ellipse cx="78" cy="162" rx="0.5" ry="0.5"></ellipse>
<ellipse cx="156" cy="104" rx="0.5" ry="0.5"></ellipse>
<ellipse cx="30" cy="102" rx="0.5" ry="0.5"></ellipse>
<ellipse cx="112" cy="46" rx="0.5" ry="0.5"></ellipse>
<ellipse cx="135" cy="70" rx="0.5" ry="0.5"></ellipse>
<ellipse cx="157" cy="165" rx="0.5" ry="0.5"></ellipse>
<ellipse cx="90" cy="48" rx="0.5" ry="0.5"></ellipse>
<ellipse cx="19" cy="148" rx="0.5" ry="0.5"></ellipse>
<ellipse cx="88" cy="45" rx="0.5" ry="0.5"></ellipse>
<ellipse cx="56" cy="7" rx="0.5" ry="0.5"></ellipse>
<ellipse cx="83" cy="182" rx="0.5" ry="0.5"></ellipse>
<ellipse cx="6" cy="34" rx="0.5" ry="0.5"></ellipse>
<ellipse cx="199" cy="158" rx="0.5" ry="0.5"></ellipse>
<ellipse cx="187" cy="1" rx="0.5" ry="0.5"></ellipse>
<ellipse cx="165" cy="137" rx="0.5" ry="0.5"></ellipse>
<ellipse cx="123" cy="187" rx="0.5" ry="0.5"></ellipse>
<ellipse cx="66" cy="82" rx="0.5" ry="0.5"></ellipse>
<ellipse cx="1" cy="20" rx="0.5" ry="0.5"></ellipse>
<ellipse cx="129" cy="94" rx="0.5" ry="0.5"></ellipse>
<ellipse cx="53" cy="68" rx="0.5" ry="0.5"></ellipse>
<ellipse cx="104" cy="106" rx="0.5" ry="0.5"></ellipse>
<ellipse cx="14" cy="52" rx="0.5" ry="0.5"></ellipse>
<ellipse cx="24" cy="150" rx="0.5" ry="0.5"></ellipse>
<ellipse cx="161" cy="22" rx="0.5" ry="0.5"></ellipse>
<ellipse cx="55" cy="18" rx="0.5" ry="0.5"></ellipse>
<ellipse cx="69" cy="44" rx="0.5" ry="0.5"></ellipse>
<ellipse cx="6" cy="196" rx="0.5" ry="0.5"></ellipse>
<ellipse cx="144" cy="158" rx="0.5" ry="0.5"></ellipse>
<ellipse cx="155" cy="47" rx="0.5" ry="0.5"></ellipse>
<ellipse cx="169" cy="117" rx="0.5" ry="0.5"></ellipse>
<ellipse cx="137" cy="110" rx="0.5" ry="0.5"></ellipse>
<ellipse cx="199" cy="46" rx="0.5" ry="0.5"></ellipse>
<ellipse cx="8" cy="50" rx="0.5" ry="0.5"></ellipse>
<ellipse cx="194" cy="168" rx="0.5" ry="0.5"></ellipse>
<ellipse cx="18" cy="19" rx="0.5" ry="0.5"></ellipse>
<ellipse cx="130" cy="136" rx="0.5" ry="0.5"></ellipse>
<ellipse cx="17" cy="131" rx="0.5" ry="0.5"></ellipse>
<ellipse cx="9" cy="124" rx="0.5" ry="0.5"></ellipse>
<ellipse cx="44" cy="19" rx="0.5" ry="0.5"></ellipse>
<ellipse cx="32" cy="67" rx="0.5" ry="0.5"></ellipse>
<ellipse cx="107" cy="108" rx="0.5" ry="0.5"></ellipse>
<ellipse cx="56" cy="169" rx="0.5" ry="0.5"></ellipse>
<ellipse cx="52" cy="58" rx="0.5" ry="0.5"></ellipse>
<ellipse cx="181" cy="161" rx="0.5" ry="0.5"></ellipse>
<ellipse cx="37" cy="167" rx="0.5" ry="0.5"></ellipse>
<ellipse cx="200" cy="21" rx="0.5" ry="0.5"></ellipse>
<ellipse cx="93" cy="72" rx="0.5" ry="0.5"></ellipse>
<ellipse cx="66" cy="151" rx="0.5" ry="0.5"></ellipse>
<ellipse cx="149" cy="100" rx="0.5" ry="0.5"></ellipse>
<ellipse cx="17" cy="8" rx="0.5" ry="0.5"></ellipse>
<ellipse cx="36" cy="87" rx="0.5" ry="0.5"></ellipse>
<ellipse cx="8" cy="15" rx="0.5" ry="0.5"></ellipse>
<ellipse cx="128" cy="97" rx="0.5" ry="0.5"></ellipse>
<ellipse cx="80" cy="97" rx="0.5" ry="0.5"></ellipse>
<ellipse cx="80" cy="94" rx="0.5" ry="0.5"></ellipse>
<ellipse cx="8" cy="67" rx="0.5" ry="0.5"></ellipse>
<ellipse cx="26" cy="134" rx="0.5" ry="0.5"></ellipse>
<ellipse cx="157" cy="151" rx="0.5" ry="0.5"></ellipse>
<ellipse cx="85" cy="59" rx="0.5" ry="0.5"></ellipse>
<ellipse cx="62" cy="139" rx="0.5" ry="0.5"></ellipse>
<ellipse cx="6" cy="170" rx="0.5" ry="0.5"></ellipse>
<ellipse cx="18" cy="21" rx="0.5" ry="0.5"></ellipse>
<ellipse cx="178" cy="93" rx="0.5" ry="0.5"></ellipse>
<ellipse cx="22" cy="127" rx="0.5" ry="0.5"></ellipse>
<ellipse cx="197" cy="180" rx="0.5" ry="0.5"></ellipse>
<ellipse cx="123" cy="45" rx="0.5" ry="0.5"></ellipse>
<ellipse cx="10" cy="143" rx="0.5" ry="0.5"></ellipse>
<ellipse cx="120" cy="134" rx="0.5" ry="0.5"></ellipse>
<ellipse cx="63" cy="27" rx="0.5" ry="0.5"></ellipse>
<ellipse cx="120" cy="132" rx="0.5" ry="0.5"></ellipse>
<ellipse cx="59" cy="168" rx="0.5" ry="0.5"></ellipse>
<ellipse cx="73" cy="17" rx="0.5" ry="0.5"></ellipse>
<ellipse cx="80" cy="74" rx="0.5" ry="0.5"></ellipse>
<ellipse cx="128" cy="138" rx="0.5" ry="0.5"></ellipse>
<ellipse cx="61" cy="195" rx="0.5" ry="0.5"></ellipse>
<ellipse cx="83" cy="46" rx="0.5" ry="0.5"></ellipse>
<ellipse cx="121" cy="172" rx="0.5" ry="0.5"></ellipse>
<ellipse cx="134" cy="171" rx="0.5" ry="0.5"></ellipse>
<ellipse cx="164" cy="160" rx="0.5" ry="0.5"></ellipse>
<ellipse cx="129" cy="167" rx="0.5" ry="0.5"></ellipse>
<ellipse cx="38" cy="29" rx="0.5" ry="0.5"></ellipse>
<ellipse cx="113" cy="84" rx="0.5" ry="0.5"></ellipse>
<ellipse cx="8" cy="33" rx="0.5" ry="0.5"></ellipse>
<ellipse cx="52" cy="90" rx="0.5" ry="0.5"></ellipse>
<ellipse cx="7" cy="181" rx="0.5" ry="0.5"></ellipse>
<ellipse cx="182" cy="17" rx="0.5" ry="0.5"></ellipse>
<ellipse cx="72" cy="43" rx="0.5" ry="0.5"></ellipse>
<ellipse cx="125" cy="172" rx="0.5" ry="0.5"></ellipse>
<ellipse cx="108" cy="143" rx="0.5" ry="0.5"></ellipse>
<ellipse cx="138" cy="182" rx="0.5" ry="0.5"></ellipse>
</g>
</g>
</svg>