<svg xmlns="http://www.w3.org/2000/svg" width="800" height="800">
<g transform="translate(153.8461538461538 -5.684341886080802e-14) scale(5.128205128205129)">
<rect fill="#000000" width="96" height="156"></rect>
<g fill="#ffffff" transform="translate(0, 156) scale(1, -1)">
<ellipse cx="1" cy="141" rx="0.5" ry="0.5"></ellipse>
<ellipse cx="1" cy="141" rx="0.5" ry="0.5"></ellipse>
<ellipse cx="0" cy="142" rx="0.5" ry="0.5"></ellipse>
<ellipse cx="0" cy="144" rx="0.5" ry="0.5"></ellipse>
<ellipse cx="1" cy="147" rx="0.5" ry="0.5"></ellipse>
<ellipse cx="2" cy="150" rx="0.5" ry="0.5"></ellipse>
<ellipse cx="4" cy="152" rx="0.5" ry="0.5"></ellipse>
<ellipse cx="6" cy="153" rx="0.5" ry="0.5"></ellipse>
<ellipse cx="8" cy="154" rx="0.5" ry="0.5"></ellipse>
<ellipse cx="9" cy="154" rx="0.5" ry="0.5"></ellipse>
<ellipse cx="9" cy="153" rx="0.5" ry="0.5"></ellipse>
<ellipse cx="10" cy="153" rx="0.5" ry="0.5"></ellipse>
<ellipse cx="11" cy="154" rx="0.5" ry="0.5"></ellipse>
<ellipse cx="12" cy="155" rx="0.5" ry="0.5"></ellipse>
<ellipse cx="13" cy="155" rx="0.5" ry="0.5"></ellipse>
<ellipse cx="15" cy="156" rx="0.5" ry="0.5"></ellipse>
<ellipse cx="18" cy="156" rx="0.5" ry="0.5"></ellipse>
<ellipse cx="21" cy="155" rx="0.5" ry="0.5"></ellipse>
<ellipse cx="23" cy="155" rx="0.5" ry="0.5"></ellipse>
<ellipse cx="24" cy="154" rx="0.5" ry="0.5"></ellipse>
<ellipse cx="26" cy="152" rx="0.5" ry="0.5"></ellipse>
<ellipse cx="28" cy="150" rx="0.5" ry="0.5"></ellipse>
<ellipse cx="30" cy="148" rx="0.5" ry="0.5"></ellipse>
<ellipse cx="33" cy="146" rx="0.5" ry="0.5"></ellipse>
<ellipse cx="36" cy="144" rx="0.5" ry="0.5"></ellipse>
<ellipse cx="38" cy="142" rx="0.5" ry="0.5"></ellipse>
<ellipse cx="41" cy="139" rx="0.5" ry="0.5"></ellipse>
<ellipse cx="45" cy="136" rx="0.5" ry="0.5"></ellipse>
<ellipse cx="50" cy="132" rx="0.5" ry="0.5"></ellipse>
<ellipse cx="54" cy="129" rx="0.5" ry="0.5"></ellipse>
<ellipse cx="59" cy="126" rx="0.5" ry="0.5"></ellipse>
<ellipse cx="64" cy="122" rx="0.5" ry="0.5"></ellipse>
<ellipse cx="69" cy="118" rx="0.5" ry="0.5"></ellipse>
<ellipse cx="73" cy="114" rx="0.5" ry="0.5"></ellipse>
<ellipse cx="78" cy="111" rx="0.5" ry="0.5"></ellipse>
<ellipse cx="82" cy="107" rx="0.5" ry="0.5"></ellipse>
<ellipse cx="86" cy="103" rx="0.5" ry="0.5"></ellipse>
<ellipse cx="89" cy="98" rx="0.5" ry="0.5"></ellipse>
<ellipse cx="91" cy="92" rx="0.5" ry="0.5"></ellipse>
<ellipse cx="93" cy="85" rx="0.5" ry="0.5"></ellipse>
<ellipse cx="95" cy="79" rx="0.5" ry="0.5"></ellipse>
<ellipse cx="96" cy="72" rx="0.5" ry="0.5"></ellipse>
<ellipse cx="96" cy="64" rx="0.5" ry="0.5"></ellipse>
<ellipse cx="95" cy="56" rx="0.5" ry="0.5"></ellipse>
<ellipse cx="94" cy="47" rx="0.5" ry="0.5"></ellipse>
<ellipse cx="93" cy="38" rx="0.5" ry="0.5"></ellipse>
<ellipse cx="93" cy="28" rx="0.5" ry="0.5"></ellipse>
<ellipse cx="93" cy="18" rx="0.5" ry="0.5"></ellipse>
<ellipse cx="94" cy="9" rx="0.5" ry="0.5"></ellipse>
<ellipse cx="95" cy="0" rx="0.5" ry="0.5"></ellipse>
</g>
</g>
</svg>