<svg xmlns="http://www.w3.org/2000/svg" width="800" height="800">
<g transform="translate(204.77453580901854 -5.684341886080802e-14) scale(2.1220159151193636)">
<rect fill="#000000" width="184" height="377"></rect>
<g fill="#ffffff" transform="translate(0, 377) scale(1, -1)">
<ellipse cx="159" cy="50" rx="0.5" ry="0.5"></ellipse>
<ellipse cx="143" cy="81" rx="0.5" ry="0.5"></ellipse>
<ellipse cx="167" cy="39" rx="0.5" ry="0.5"></ellipse>
<ellipse cx="157" cy="215" rx="0.5" ry="0.5"></ellipse>
<ellipse cx="169" cy="35" rx="0.5" ry="0.5"></ellipse>
<ellipse cx="145" cy="233" rx="0.5" ry="0.5"></ellipse>
<ellipse cx="149" cy="66" rx="0.5" ry="0.5"></ellipse>
<ellipse cx="36" cy="363" rx="0.5" ry="0.5"></ellipse>
<ellipse cx="176" cy="17" rx="0.5" ry="0.5"></ellipse>
<ellipse cx="153" cy="190" rx="0.5" ry="0.5"></ellipse>
<ellipse cx="139" cy="130" rx="0.5" ry="0.5"></ellipse>
<ellipse cx="47" cy="347" rx="0.5" ry="0.5"></ellipse>
<ellipse cx="133" cy="243" rx="0.5" ry="0.5"></ellipse>
<ellipse cx="76" cy="284" rx="0.5" ry="0.5"></ellipse>
<ellipse cx="184" cy="7" rx="0.5" ry="0.5"></ellipse>
<ellipse cx="85" cy="269" rx="0.5" ry="0.5"></ellipse>
<ellipse cx="49" cy="341" rx="0.5" ry="0.5"></ellipse>
<ellipse cx="181" cy="11" rx="0.5" ry="0.5"></ellipse>
<ellipse cx="151" cy="186" rx="0.5" ry="0.5"></ellipse>
<ellipse cx="140" cy="103" rx="0.5" ry="0.5"></ellipse>
<ellipse cx="172" cy="0" rx="0.5" ry="0.5"></ellipse>
<ellipse cx="141" cy="98" rx="0.5" ry="0.5"></ellipse>
<ellipse cx="63" cy="315" rx="0.5" ry="0.5"></ellipse>
<ellipse cx="157" cy="219" rx="0.5" ry="0.5"></ellipse>
<ellipse cx="137" cy="241" rx="0.5" ry="0.5"></ellipse>
<ellipse cx="148" cy="76" rx="0.5" ry="0.5"></ellipse>
<ellipse cx="16" cy="365" rx="0.5" ry="0.5"></ellipse>
<ellipse cx="144" cy="79" rx="0.5" ry="0.5"></ellipse>
<ellipse cx="183" cy="5" rx="0.5" ry="0.5"></ellipse>
<ellipse cx="6" cy="368" rx="0.5" ry="0.5"></ellipse>
<ellipse cx="175" cy="1" rx="0.5" ry="0.5"></ellipse>
<ellipse cx="54" cy="330" rx="0.5" ry="0.5"></ellipse>
<ellipse cx="181" cy="3" rx="0.5" ry="0.5"></ellipse>
<ellipse cx="148" cy="63" rx="0.5" ry="0.5"></ellipse>
<ellipse cx="177" cy="15" rx="0.5" ry="0.5"></ellipse>
<ellipse cx="27" cy="366" rx="0.5" ry="0.5"></ellipse>
<ellipse cx="140" cy="115" rx="0.5" ry="0.5"></ellipse>
<ellipse cx="140" cy="125" rx="0.5" ry="0.5"></ellipse>
<ellipse cx="178" cy="1" rx="0.5" ry="0.5"></ellipse>
<ellipse cx="142" cy="88" rx="0.5" ry="0.5"></ellipse>
<ellipse cx="148" cy="57" rx="0.5" ry="0.5"></ellipse>
<ellipse cx="101" cy="255" rx="0.5" ry="0.5"></ellipse>
<ellipse cx="144" cy="168" rx="0.5" ry="0.5"></ellipse>
<ellipse cx="140" cy="239" rx="0.5" ry="0.5"></ellipse>
<ellipse cx="1" cy="373" rx="0.5" ry="0.5"></ellipse>
<ellipse cx="148" cy="231" rx="0.5" ry="0.5"></ellipse>
<ellipse cx="157" cy="204" rx="0.5" ry="0.5"></ellipse>
<ellipse cx="0" cy="375" rx="0.5" ry="0.5"></ellipse>
<ellipse cx="51" cy="336" rx="0.5" ry="0.5"></ellipse>
<ellipse cx="13" cy="365" rx="0.5" ry="0.5"></ellipse>
<ellipse cx="151" cy="228" rx="0.5" ry="0.5"></ellipse>
<ellipse cx="3" cy="371" rx="0.5" ry="0.5"></ellipse>
<ellipse cx="156" cy="199" rx="0.5" ry="0.5"></ellipse>
<ellipse cx="117" cy="248" rx="0.5" ry="0.5"></ellipse>
<ellipse cx="151" cy="52" rx="0.5" ry="0.5"></ellipse>
<ellipse cx="164" cy="45" rx="0.5" ry="0.5"></ellipse>
<ellipse cx="0" cy="377" rx="0.5" ry="0.5"></ellipse>
<ellipse cx="143" cy="235" rx="0.5" ry="0.5"></ellipse>
<ellipse cx="149" cy="54" rx="0.5" ry="0.5"></ellipse>
<ellipse cx="148" cy="60" rx="0.5" ry="0.5"></ellipse>
<ellipse cx="143" cy="160" rx="0.5" ry="0.5"></ellipse>
<ellipse cx="155" cy="194" rx="0.5" ry="0.5"></ellipse>
<ellipse cx="183" cy="9" rx="0.5" ry="0.5"></ellipse>
<ellipse cx="150" cy="68" rx="0.5" ry="0.5"></ellipse>
<ellipse cx="106" cy="252" rx="0.5" ry="0.5"></ellipse>
<ellipse cx="179" cy="12" rx="0.5" ry="0.5"></ellipse>
<ellipse cx="173" cy="24" rx="0.5" ry="0.5"></ellipse>
<ellipse cx="149" cy="73" rx="0.5" ry="0.5"></ellipse>
<ellipse cx="142" cy="237" rx="0.5" ry="0.5"></ellipse>
<ellipse cx="162" cy="47" rx="0.5" ry="0.5"></ellipse>
<ellipse cx="184" cy="6" rx="0.5" ry="0.5"></ellipse>
<ellipse cx="11" cy="365" rx="0.5" ry="0.5"></ellipse>
<ellipse cx="58" cy="323" rx="0.5" ry="0.5"></ellipse>
<ellipse cx="180" cy="2" rx="0.5" ry="0.5"></ellipse>
<ellipse cx="71" cy="298" rx="0.5" ry="0.5"></ellipse>
<ellipse cx="175" cy="20" rx="0.5" ry="0.5"></ellipse>
<ellipse cx="149" cy="181" rx="0.5" ry="0.5"></ellipse>
<ellipse cx="112" cy="250" rx="0.5" ry="0.5"></ellipse>
<ellipse cx="123" cy="246" rx="0.5" ry="0.5"></ellipse>
<ellipse cx="157" cy="222" rx="0.5" ry="0.5"></ellipse>
<ellipse cx="146" cy="78" rx="0.5" ry="0.5"></ellipse>
<ellipse cx="128" cy="245" rx="0.5" ry="0.5"></ellipse>
<ellipse cx="23" cy="366" rx="0.5" ry="0.5"></ellipse>
<ellipse cx="92" cy="262" rx="0.5" ry="0.5"></ellipse>
<ellipse cx="172" cy="28" rx="0.5" ry="0.5"></ellipse>
</g>
</g>
</svg>