<svg xmlns="http://www.w3.org/2000/svg" width="800" height="800">
<g transform="translate(0.0 1.2239902080783622) scale(0.48959608323133413)">
<rect fill="#000000" width="1634" height="1629"></rect>
<g fill="#ffffff" transform="translate(0, 1629) scale(1, -1)">
<ellipse cx="1316" cy="1126" rx="0.5" ry="0.5"></ellipse>
<ellipse cx="1532" cy="1421" rx="0.5" ry="0.5"></ellipse>
<ellipse cx="988" cy="801" rx="0.5" ry="0.5"></ellipse>
<ellipse cx="948" cy="769" rx="0.5" ry="0.5"></ellipse>
<ellipse cx="849" cy="697" rx="0.5" ry="0.5"></ellipse>
<ellipse cx="335" cy="343" rx="0.5" ry="0.5"></ellipse>
<ellipse cx="1555" cy="1470" rx="0.5" ry="0.5"></ellipse>
<ellipse cx="1505" cy="1376" rx="0.5" ry="0.5"></ellipse>
<ellipse cx="1607" cy="1576" rx="0.5" ry="0.5"></ellipse>
<ellipse cx="399" cy="392" rx="0.5" ry="0.5"></ellipse>
<ellipse cx="453" cy="429" rx="0.5" ry="0.5"></ellipse>
<ellipse cx="267" cy="287" rx="0.5" ry="0.5"></ellipse>
<ellipse cx="107" cy="142" rx="0.5" ry="0.5"></ellipse>
<ellipse cx="383" cy="380" rx="0.5" ry="0.5"></ellipse>
<ellipse cx="604" cy="532" rx="0.5" ry="0.5"></ellipse>
<ellipse cx="1620" cy="1603" rx="0.5" ry="0.5"></ellipse>
<ellipse cx="733" cy="622" rx="0.5" ry="0.5"></ellipse>
<ellipse cx="1029" cy="835" rx="0.5" ry="0.5"></ellipse>
<ellipse cx="1069" cy="871" rx="0.5" ry="0.5"></ellipse>
<ellipse cx="547" cy="494" rx="0.5" ry="0.5"></ellipse>
<ellipse cx="678" cy="584" rx="0.5" ry="0.5"></ellipse>
<ellipse cx="321" cy="332" rx="0.5" ry="0.5"></ellipse>
<ellipse cx="1369" cy="1189" rx="0.5" ry="0.5"></ellipse>
<ellipse cx="121" cy="157" rx="0.5" ry="0.5"></ellipse>
<ellipse cx="1278" cy="1087" rx="0.5" ry="0.5"></ellipse>
<ellipse cx="528" cy="481" rx="0.5" ry="0.5"></ellipse>
<ellipse cx="1464" cy="1312" rx="0.5" ry="0.5"></ellipse>
<ellipse cx="1191" cy="982" rx="0.5" ry="0.5"></ellipse>
<ellipse cx="908" cy="739" rx="0.5" ry="0.5"></ellipse>
<ellipse cx="968" cy="785" rx="0.5" ry="0.5"></ellipse>
<ellipse cx="70" cy="98" rx="0.5" ry="0.5"></ellipse>
<ellipse cx="148" cy="185" rx="0.5" ry="0.5"></ellipse>
<ellipse cx="1209" cy="1002" rx="0.5" ry="0.5"></ellipse>
<ellipse cx="1260" cy="1066" rx="0.5" ry="0.5"></ellipse>
<ellipse cx="472" cy="441" rx="0.5" ry="0.5"></ellipse>
<ellipse cx="715" cy="609" rx="0.5" ry="0.5"></ellipse>
<ellipse cx="193" cy="224" rx="0.5" ry="0.5"></ellipse>
<ellipse cx="366" cy="367" rx="0.5" ry="0.5"></ellipse>
<ellipse cx="307" cy="321" rx="0.5" ry="0.5"></ellipse>
<ellipse cx="177" cy="212" rx="0.5" ry="0.5"></ellipse>
<ellipse cx="622" cy="545" rx="0.5" ry="0.5"></ellipse>
<ellipse cx="585" cy="519" rx="0.5" ry="0.5"></ellipse>
<ellipse cx="13" cy="17" rx="0.5" ry="0.5"></ellipse>
<ellipse cx="82" cy="113" rx="0.5" ry="0.5"></ellipse>
<ellipse cx="1634" cy="1629" rx="0.5" ry="0.5"></ellipse>
<ellipse cx="224" cy="250" rx="0.5" ry="0.5"></ellipse>
<ellipse cx="888" cy="725" rx="0.5" ry="0.5"></ellipse>
<ellipse cx="1352" cy="1167" rx="0.5" ry="0.5"></ellipse>
<ellipse cx="350" cy="355" rx="0.5" ry="0.5"></ellipse>
<ellipse cx="771" cy="645" rx="0.5" ry="0.5"></ellipse>
<ellipse cx="1434" cy="1271" rx="0.5" ry="0.5"></ellipse>
<ellipse cx="696" cy="596" rx="0.5" ry="0.5"></ellipse>
<ellipse cx="1243" cy="1044" rx="0.5" ry="0.5"></ellipse>
<ellipse cx="416" cy="405" rx="0.5" ry="0.5"></ellipse>
<ellipse cx="434" cy="417" rx="0.5" ry="0.5"></ellipse>
<ellipse cx="59" cy="83" rx="0.5" ry="0.5"></ellipse>
<ellipse cx="1478" cy="1333" rx="0.5" ry="0.5"></ellipse>
<ellipse cx="1049" cy="853" rx="0.5" ry="0.5"></ellipse>
<ellipse cx="1334" cy="1146" rx="0.5" ry="0.5"></ellipse>
<ellipse cx="280" cy="298" rx="0.5" ry="0.5"></ellipse>
<ellipse cx="928" cy="754" rx="0.5" ry="0.5"></ellipse>
<ellipse cx="0" cy="0" rx="0.5" ry="0.5"></ellipse>
<ellipse cx="1297" cy="1107" rx="0.5" ry="0.5"></ellipse>
<ellipse cx="253" cy="275" rx="0.5" ry="0.5"></ellipse>
<ellipse cx="659" cy="571" rx="0.5" ry="0.5"></ellipse>
<ellipse cx="1567" cy="1495" rx="0.5" ry="0.5"></ellipse>
<ellipse cx="490" cy="454" rx="0.5" ry="0.5"></ellipse>
<ellipse cx="1491" cy="1355" rx="0.5" ry="0.5"></ellipse>
<ellipse cx="1580" cy="1521" rx="0.5" ry="0.5"></ellipse>
<ellipse cx="1090" cy="890" rx="0.5" ry="0.5"></ellipse>
<ellipse cx="1172" cy="962" rx="0.5" ry="0.5"></ellipse>
<ellipse cx="1111" cy="908" rx="0.5" ry="0.5"></ellipse>
<ellipse cx="509" cy="467" rx="0.5" ry="0.5"></ellipse>
<ellipse cx="1132" cy="925" rx="0.5" ry="0.5"></ellipse>
<ellipse cx="209" cy="237" rx="0.5" ry="0.5"></ellipse>
<ellipse cx="566" cy="506" rx="0.5" ry="0.5"></ellipse>
<ellipse cx="828" cy="683" rx="0.5" ry="0.5"></ellipse>
<ellipse cx="1385" cy="1210" rx="0.5" ry="0.5"></ellipse>
<ellipse cx="789" cy="657" rx="0.5" ry="0.5"></ellipse>
<ellipse cx="1519" cy="1398" rx="0.5" ry="0.5"></ellipse>
<ellipse cx="1594" cy="1548" rx="0.5" ry="0.5"></ellipse>
<ellipse cx="239" cy="262" rx="0.5" ry="0.5"></ellipse>
<ellipse cx="641" cy="558" rx="0.5" ry="0.5"></ellipse>
<ellipse cx="49" cy="67" rx="0.5" ry="0.5"></ellipse>
<ellipse cx="38" cy="50" rx="0.5" ry="0.5"></ellipse>
<ellipse cx="94" cy="127" rx="0.5" ry="0.5"></ellipse>
<ellipse cx="1418" cy="1251" rx="0.5" ry="0.5"></ellipse>
<ellipse cx="1226" cy="1023" rx="0.5" ry="0.5"></ellipse>
<ellipse cx="293" cy="309" rx="0.5" ry="0.5"></ellipse>
<ellipse cx="26" cy="34" rx="0.5" ry="0.5"></ellipse>
<ellipse cx="1401" cy="1230" rx="0.5" ry="0.5"></ellipse>
<ellipse cx="1544" cy="1445" rx="0.5" ry="0.5"></ellipse>
<ellipse cx="752" cy="634" rx="0.5" ry="0.5"></ellipse>
<ellipse cx="1449" cy="1291" rx="0.5" ry="0.5"></ellipse>
<ellipse cx="1152" cy="943" rx="0.5" ry="0.5"></ellipse>
<ellipse cx="808" cy="670" rx="0.5" ry="0.5"></ellipse>
<ellipse cx="162" cy="199" rx="0.5" ry="0.5"></ellipse>
<ellipse cx="1008" cy="818" rx="0.5" ry="0.5"></ellipse>
<ellipse cx="869" cy="711" rx="0.5" ry="0.5"></ellipse>
<ellipse cx="134" cy="171" rx="0.5" ry="0.5"></ellipse>
</g>
</g>
</svg>