<svg xmlns="http://www.w3.org/2000/svg" width="800" height="800">
<g transform="translate(122.1556886227545 5.684341886080802e-14) scale(2.395209580838323)">
<rect fill="#000000" width="232" height="334"></rect>
<g fill="#ffffff" transform="translate(0, 334) scale(1, -1)">
<ellipse cx="147" cy="216" rx="0.5" ry="0.5"></ellipse>
<ellipse cx="85" cy="161" rx="0.5" ry="0.5"></ellipse>
<ellipse cx="162" cy="221" rx="0.5" ry="0.5"></ellipse>
<ellipse cx="222" cy="312" rx="0.5" ry="0.5"></ellipse>
<ellipse cx="119" cy="203" rx="0.5" ry="0.5"></ellipse>
<ellipse cx="194" cy="263" rx="0.5" ry="0.5"></ellipse>
<ellipse cx="225" cy="334" rx="0.5" ry="0.5"></ellipse>
<ellipse cx="31" cy="22" rx="0.5" ry="0.5"></ellipse>
<ellipse cx="82" cy="85" rx="0.5" ry="0.5"></ellipse>
<ellipse cx="119" cy="138" rx="0.5" ry="0.5"></ellipse>
<ellipse cx="220" cy="312" rx="0.5" ry="0.5"></ellipse>
<ellipse cx="228" cy="331" rx="0.5" ry="0.5"></ellipse>
<ellipse cx="226" cy="295" rx="0.5" ry="0.5"></ellipse>
<ellipse cx="226" cy="334" rx="0.5" ry="0.5"></ellipse>
<ellipse cx="72" cy="71" rx="0.5" ry="0.5"></ellipse>
<ellipse cx="202" cy="230" rx="0.5" ry="0.5"></ellipse>
<ellipse cx="187" cy="254" rx="0.5" ry="0.5"></ellipse>
<ellipse cx="202" cy="296" rx="0.5" ry="0.5"></ellipse>
<ellipse cx="108" cy="124" rx="0.5" ry="0.5"></ellipse>
<ellipse cx="230" cy="300" rx="0.5" ry="0.5"></ellipse>
<ellipse cx="218" cy="321" rx="0.5" ry="0.5"></ellipse>
<ellipse cx="191" cy="226" rx="0.5" ry="0.5"></ellipse>
<ellipse cx="215" cy="318" rx="0.5" ry="0.5"></ellipse>
<ellipse cx="127" cy="148" rx="0.5" ry="0.5"></ellipse>
<ellipse cx="0" cy="0" rx="0.5" ry="0.5"></ellipse>
<ellipse cx="63" cy="58" rx="0.5" ry="0.5"></ellipse>
<ellipse cx="180" cy="228" rx="0.5" ry="0.5"></ellipse>
<ellipse cx="180" cy="244" rx="0.5" ry="0.5"></ellipse>
<ellipse cx="178" cy="231" rx="0.5" ry="0.5"></ellipse>
<ellipse cx="216" cy="319" rx="0.5" ry="0.5"></ellipse>
<ellipse cx="220" cy="334" rx="0.5" ry="0.5"></ellipse>
<ellipse cx="91" cy="99" rx="0.5" ry="0.5"></ellipse>
<ellipse cx="222" cy="278" rx="0.5" ry="0.5"></ellipse>
<ellipse cx="220" cy="257" rx="0.5" ry="0.5"></ellipse>
<ellipse cx="220" cy="265" rx="0.5" ry="0.5"></ellipse>
<ellipse cx="196" cy="271" rx="0.5" ry="0.5"></ellipse>
<ellipse cx="136" cy="164" rx="0.5" ry="0.5"></ellipse>
<ellipse cx="125" cy="208" rx="0.5" ry="0.5"></ellipse>
<ellipse cx="52" cy="44" rx="0.5" ry="0.5"></ellipse>
<ellipse cx="186" cy="227" rx="0.5" ry="0.5"></ellipse>
<ellipse cx="9" cy="3" rx="0.5" ry="0.5"></ellipse>
<ellipse cx="153" cy="197" rx="0.5" ry="0.5"></ellipse>
<ellipse cx="188" cy="225" rx="0.5" ry="0.5"></ellipse>
<ellipse cx="206" cy="302" rx="0.5" ry="0.5"></ellipse>
<ellipse cx="232" cy="312" rx="0.5" ry="0.5"></ellipse>
<ellipse cx="137" cy="216" rx="0.5" ry="0.5"></ellipse>
<ellipse cx="232" cy="321" rx="0.5" ry="0.5"></ellipse>
<ellipse cx="23" cy="12" rx="0.5" ry="0.5"></ellipse>
<ellipse cx="221" cy="315" rx="0.5" ry="0.5"></ellipse>
<ellipse cx="211" cy="236" rx="0.5" ry="0.5"></ellipse>
<ellipse cx="108" cy="195" rx="0.5" ry="0.5"></ellipse>
<ellipse cx="221" cy="272" rx="0.5" ry="0.5"></ellipse>
<ellipse cx="221" cy="314" rx="0.5" ry="0.5"></ellipse>
<ellipse cx="171" cy="231" rx="0.5" ry="0.5"></ellipse>
<ellipse cx="103" cy="192" rx="0.5" ry="0.5"></ellipse>
<ellipse cx="141" cy="177" rx="0.5" ry="0.5"></ellipse>
<ellipse cx="224" cy="284" rx="0.5" ry="0.5"></ellipse>
<ellipse cx="39" cy="32" rx="0.5" ry="0.5"></ellipse>
<ellipse cx="174" cy="230" rx="0.5" ry="0.5"></ellipse>
<ellipse cx="230" cy="326" rx="0.5" ry="0.5"></ellipse>
<ellipse cx="168" cy="224" rx="0.5" ry="0.5"></ellipse>
<ellipse cx="163" cy="223" rx="0.5" ry="0.5"></ellipse>
<ellipse cx="165" cy="220" rx="0.5" ry="0.5"></ellipse>
<ellipse cx="87" cy="166" rx="0.5" ry="0.5"></ellipse>
<ellipse cx="198" cy="228" rx="0.5" ry="0.5"></ellipse>
<ellipse cx="164" cy="225" rx="0.5" ry="0.5"></ellipse>
<ellipse cx="199" cy="280" rx="0.5" ry="0.5"></ellipse>
<ellipse cx="98" cy="184" rx="0.5" ry="0.5"></ellipse>
<ellipse cx="91" cy="171" rx="0.5" ry="0.5"></ellipse>
<ellipse cx="158" cy="211" rx="0.5" ry="0.5"></ellipse>
<ellipse cx="214" cy="243" rx="0.5" ry="0.5"></ellipse>
<ellipse cx="97" cy="177" rx="0.5" ry="0.5"></ellipse>
<ellipse cx="221" cy="324" rx="0.5" ry="0.5"></ellipse>
<ellipse cx="178" cy="232" rx="0.5" ry="0.5"></ellipse>
<ellipse cx="143" cy="217" rx="0.5" ry="0.5"></ellipse>
<ellipse cx="225" cy="291" rx="0.5" ry="0.5"></ellipse>
<ellipse cx="213" cy="312" rx="0.5" ry="0.5"></ellipse>
<ellipse cx="147" cy="188" rx="0.5" ry="0.5"></ellipse>
<ellipse cx="220" cy="318" rx="0.5" ry="0.5"></ellipse>
<ellipse cx="229" cy="306" rx="0.5" ry="0.5"></ellipse>
<ellipse cx="157" cy="220" rx="0.5" ry="0.5"></ellipse>
<ellipse cx="219" cy="317" rx="0.5" ry="0.5"></ellipse>
<ellipse cx="220" cy="312" rx="0.5" ry="0.5"></ellipse>
<ellipse cx="205" cy="233" rx="0.5" ry="0.5"></ellipse>
<ellipse cx="217" cy="250" rx="0.5" ry="0.5"></ellipse>
<ellipse cx="18" cy="7" rx="0.5" ry="0.5"></ellipse>
<ellipse cx="220" cy="327" rx="0.5" ry="0.5"></ellipse>
<ellipse cx="221" cy="313" rx="0.5" ry="0.5"></ellipse>
<ellipse cx="211" cy="310" rx="0.5" ry="0.5"></ellipse>
<ellipse cx="114" cy="198" rx="0.5" ry="0.5"></ellipse>
<ellipse cx="171" cy="226" rx="0.5" ry="0.5"></ellipse>
<ellipse cx="100" cy="113" rx="0.5" ry="0.5"></ellipse>
<ellipse cx="129" cy="215" rx="0.5" ry="0.5"></ellipse>
<ellipse cx="217" cy="315" rx="0.5" ry="0.5"></ellipse>
<ellipse cx="154" cy="217" rx="0.5" ry="0.5"></ellipse>
<ellipse cx="199" cy="289" rx="0.5" ry="0.5"></ellipse>
<ellipse cx="209" cy="306" rx="0.5" ry="0.5"></ellipse>
<ellipse cx="218" cy="331" rx="0.5" ry="0.5"></ellipse>
<ellipse cx="214" cy="316" rx="0.5" ry="0.5"></ellipse>
<ellipse cx="101" cy="190" rx="0.5" ry="0.5"></ellipse>
</g>
</g>
</svg>