<svg xmlns="http://www.w3.org/2000/svg" width="800" height="800">
<g transform="translate(0.0 120.85106382978722) scale(3.404255319148936)">
<rect fill="#000000" width="235" height="164"></rect>
<g fill="#ffffff" transform="translate(0, 164) scale(1, -1)">
<ellipse cx="11" cy="0" rx="0.5" ry="0.5"></ellipse>
<ellipse cx="9" cy="2" rx="0.5" ry="0.5"></ellipse>
<ellipse cx="7" cy="3" rx="0.5" ry="0.5"></ellipse>
<ellipse cx="6" cy="4" rx="0.5" ry="0.5"></ellipse>
<ellipse cx="5" cy="4" rx="0.5" ry="0.5"></ellipse>
<ellipse cx="4" cy="5" rx="0.5" ry="0.5"></ellipse>
<ellipse cx="4" cy="5" rx="0.5" ry="0.5"></ellipse>
<ellipse cx="3" cy="6" rx="0.5" ry="0.5"></ellipse>
<ellipse cx="1" cy="7" rx="0.5" ry="0.5"></ellipse>
<ellipse cx="0" cy="9" rx="0.5" ry="0.5"></ellipse>
<ellipse cx="0" cy="12" rx="0.5" ry="0.5"></ellipse>
<ellipse cx="0" cy="15" rx="0.5" ry="0.5"></ellipse>
<ellipse cx="1" cy="17" rx="0.5" ry="0.5"></ellipse>
<ellipse cx="2" cy="20" rx="0.5" ry="0.5"></ellipse>
<ellipse cx="2" cy="23" rx="0.5" ry="0.5"></ellipse>
<ellipse cx="3" cy="26" rx="0.5" ry="0.5"></ellipse>
<ellipse cx="4" cy="28" rx="0.5" ry="0.5"></ellipse>
<ellipse cx="4" cy="31" rx="0.5" ry="0.5"></ellipse>
<ellipse cx="5" cy="35" rx="0.5" ry="0.5"></ellipse>
<ellipse cx="7" cy="39" rx="0.5" ry="0.5"></ellipse>
<ellipse cx="9" cy="44" rx="0.5" ry="0.5"></ellipse>
<ellipse cx="11" cy="48" rx="0.5" ry="0.5"></ellipse>
<ellipse cx="14" cy="52" rx="0.5" ry="0.5"></ellipse>
<ellipse cx="17" cy="55" rx="0.5" ry="0.5"></ellipse>
<ellipse cx="21" cy="57" rx="0.5" ry="0.5"></ellipse>
<ellipse cx="24" cy="60" rx="0.5" ry="0.5"></ellipse>
<ellipse cx="26" cy="62" rx="0.5" ry="0.5"></ellipse>
<ellipse cx="27" cy="64" rx="0.5" ry="0.5"></ellipse>
<ellipse cx="28" cy="65" rx="0.5" ry="0.5"></ellipse>
<ellipse cx="30" cy="65" rx="0.5" ry="0.5"></ellipse>
<ellipse cx="32" cy="66" rx="0.5" ry="0.5"></ellipse>
<ellipse cx="33" cy="66" rx="0.5" ry="0.5"></ellipse>
<ellipse cx="34" cy="65" rx="0.5" ry="0.5"></ellipse>
<ellipse cx="36" cy="65" rx="0.5" ry="0.5"></ellipse>
<ellipse cx="37" cy="64" rx="0.5" ry="0.5"></ellipse>
<ellipse cx="39" cy="62" rx="0.5" ry="0.5"></ellipse>
<ellipse cx="42" cy="61" rx="0.5" ry="0.5"></ellipse>
<ellipse cx="46" cy="61" rx="0.5" ry="0.5"></ellipse>
<ellipse cx="51" cy="62" rx="0.5" ry="0.5"></ellipse>
<ellipse cx="55" cy="62" rx="0.5" ry="0.5"></ellipse>
<ellipse cx="58" cy="62" rx="0.5" ry="0.5"></ellipse>
<ellipse cx="62" cy="62" rx="0.5" ry="0.5"></ellipse>
<ellipse cx="67" cy="61" rx="0.5" ry="0.5"></ellipse>
<ellipse cx="73" cy="61" rx="0.5" ry="0.5"></ellipse>
<ellipse cx="78" cy="61" rx="0.5" ry="0.5"></ellipse>
<ellipse cx="84" cy="60" rx="0.5" ry="0.5"></ellipse>
<ellipse cx="90" cy="60" rx="0.5" ry="0.5"></ellipse>
<ellipse cx="97" cy="60" rx="0.5" ry="0.5"></ellipse>
<ellipse cx="103" cy="60" rx="0.5" ry="0.5"></ellipse>
<ellipse cx="109" cy="59" rx="0.5" ry="0.5"></ellipse>
<ellipse cx="116" cy="58" rx="0.5" ry="0.5"></ellipse>
<ellipse cx="122" cy="58" rx="0.5" ry="0.5"></ellipse>
<ellipse cx="127" cy="57" rx="0.5" ry="0.5"></ellipse>
<ellipse cx="132" cy="57" rx="0.5" ry="0.5"></ellipse>
<ellipse cx="137" cy="57" rx="0.5" ry="0.5"></ellipse>
<ellipse cx="143" cy="58" rx="0.5" ry="0.5"></ellipse>
<ellipse cx="149" cy="58" rx="0.5" ry="0.5"></ellipse>
<ellipse cx="154" cy="57" rx="0.5" ry="0.5"></ellipse>
<ellipse cx="158" cy="57" rx="0.5" ry="0.5"></ellipse>
<ellipse cx="162" cy="57" rx="0.5" ry="0.5"></ellipse>
<ellipse cx="166" cy="56" rx="0.5" ry="0.5"></ellipse>
<ellipse cx="171" cy="56" rx="0.5" ry="0.5"></ellipse>
<ellipse cx="175" cy="55" rx="0.5" ry="0.5"></ellipse>
<ellipse cx="178" cy="53" rx="0.5" ry="0.5"></ellipse>
<ellipse cx="180" cy="52" rx="0.5" ry="0.5"></ellipse>
<ellipse cx="183" cy="51" rx="0.5" ry="0.5"></ellipse>
<ellipse cx="186" cy="49" rx="0.5" ry="0.5"></ellipse>
<ellipse cx="188" cy="46" rx="0.5" ry="0.5"></ellipse>
<ellipse cx="190" cy="43" rx="0.5" ry="0.5"></ellipse>
<ellipse cx="192" cy="41" rx="0.5" ry="0.5"></ellipse>
<ellipse cx="195" cy="40" rx="0.5" ry="0.5"></ellipse>
<ellipse cx="196" cy="41" rx="0.5" ry="0.5"></ellipse>
<ellipse cx="196" cy="42" rx="0.5" ry="0.5"></ellipse>
<ellipse cx="196" cy="42" rx="0.5" ry="0.5"></ellipse>
<ellipse cx="196" cy="42" rx="0.5" ry="0.5"></ellipse>
<ellipse cx="196" cy="43" rx="0.5" ry="0.5"></ellipse>
<ellipse cx="195" cy="45" rx="0.5" ry="0.5"></ellipse>
<ellipse cx="193" cy="46" rx="0.5" ry="0.5"></ellipse>
<ellipse cx="191" cy="48" rx="0.5" ry="0.5"></ellipse>
<ellipse cx="190" cy="49" rx="0.5" ry="0.5"></ellipse>
<ellipse cx="189" cy="49" rx="0.5" ry="0.5"></ellipse>
<ellipse cx="189" cy="50" rx="0.5" ry="0.5"></ellipse>
<ellipse cx="188" cy="51" rx="0.5" ry="0.5"></ellipse>
<ellipse cx="186" cy="51" rx="0.5" ry="0.5"></ellipse>
<ellipse cx="185" cy="52" rx="0.5" ry="0.5"></ellipse>
<ellipse cx="184" cy="53" rx="0.5" ry="0.5"></ellipse>
<ellipse cx="184" cy="55" rx="0.5" ry="0.5"></ellipse>
<ellipse cx="185" cy="57" rx="0.5" ry="0.5"></ellipse>
<ellipse cx="187" cy="59" rx="0.5" ry="0.5"></ellipse>
<ellipse cx="188" cy="61" rx="0.5" ry="0.5"></ellipse>
<ellipse cx="190" cy="62" rx="0.5" ry="0.5"></ellipse>
<ellipse cx="193" cy="62" rx="0.5" ry="0.5"></ellipse>
<ellipse cx="196" cy="63" rx="0.5" ry="0.5"></ellipse>
<ellipse cx="198" cy="64" rx="0.5" ry="0.5"></ellipse>
<ellipse cx="201" cy="66" rx="0.5" ry="0.5"></ellipse>
<ellipse cx="204" cy="68" rx="0.5" ry="0.5"></ellipse>
<ellipse cx="208" cy="70" rx="0.5" ry="0.5"></ellipse>
<ellipse cx="215" cy="73" rx="0.5" ry="0.5"></ellipse>
<ellipse cx="219" cy="75" rx="0.5" ry="0.5"></ellipse>
<ellipse cx="222" cy="78" rx="0.5" ry="0.5"></ellipse>
<ellipse cx="224" cy="82" rx="0.5" ry="0.5"></ellipse>
<ellipse cx="225" cy="86" rx="0.5" ry="0.5"></ellipse>
<ellipse cx="226" cy="91" rx="0.5" ry="0.5"></ellipse>
<ellipse cx="228" cy="95" rx="0.5" ry="0.5"></ellipse>
<ellipse cx="230" cy="100" rx="0.5" ry="0.5"></ellipse>
<ellipse cx="231" cy="106" rx="0.5" ry="0.5"></ellipse>
<ellipse cx="231" cy="112" rx="0.5" ry="0.5"></ellipse>
<ellipse cx="231" cy="118" rx="0.5" ry="0.5"></ellipse>
<ellipse cx="230" cy="124" rx="0.5" ry="0.5"></ellipse>
<ellipse cx="230" cy="130" rx="0.5" ry="0.5"></ellipse>
<ellipse cx="231" cy="137" rx="0.5" ry="0.5"></ellipse>
<ellipse cx="233" cy="143" rx="0.5" ry="0.5"></ellipse>
<ellipse cx="234" cy="148" rx="0.5" ry="0.5"></ellipse>
<ellipse cx="235" cy="153" rx="0.5" ry="0.5"></ellipse>
<ellipse cx="235" cy="159" rx="0.5" ry="0.5"></ellipse>
<ellipse cx="234" cy="164" rx="0.5" ry="0.5"></ellipse>
</g>
</g>
</svg>