<svg xmlns="http://www.w3.org/2000/svg" width="800" height="800">
<g transform="translate(0.0 209.2549019607843) scale(0.6274509803921569)">
<rect fill="#000000" width="1275" height="608"></rect>
<g fill="#ffffff" transform="translate(0, 608) scale(1, -1)">
<ellipse cx="282" cy="38" rx="0.5" ry="0.5"></ellipse>
<ellipse cx="467" cy="151" rx="0.5" ry="0.5"></ellipse>
<ellipse cx="1248" cy="567" rx="0.5" ry="0.5"></ellipse>
<ellipse cx="1198" cy="531" rx="0.5" ry="0.5"></ellipse>
<ellipse cx="1263" cy="572" rx="0.5" ry="0.5"></ellipse>
<ellipse cx="1216" cy="540" rx="0.5" ry="0.5"></ellipse>
<ellipse cx="680" cy="241" rx="0.5" ry="0.5"></ellipse>
<ellipse cx="1045" cy="439" rx="0.5" ry="0.5"></ellipse>
<ellipse cx="641" cy="222" rx="0.5" ry="0.5"></ellipse>
<ellipse cx="14" cy="88" rx="0.5" ry="0.5"></ellipse>
<ellipse cx="937" cy="367" rx="0.5" ry="0.5"></ellipse>
<ellipse cx="1263" cy="577" rx="0.5" ry="0.5"></ellipse>
<ellipse cx="351" cy="96" rx="0.5" ry="0.5"></ellipse>
<ellipse cx="588" cy="205" rx="0.5" ry="0.5"></ellipse>
<ellipse cx="1010" cy="420" rx="0.5" ry="0.5"></ellipse>
<ellipse cx="899" cy="345" rx="0.5" ry="0.5"></ellipse>
<ellipse cx="702" cy="249" rx="0.5" ry="0.5"></ellipse>
<ellipse cx="1264" cy="583" rx="0.5" ry="0.5"></ellipse>
<ellipse cx="803" cy="293" rx="0.5" ry="0.5"></ellipse>
<ellipse cx="611" cy="207" rx="0.5" ry="0.5"></ellipse>
<ellipse cx="165" cy="10" rx="0.5" ry="0.5"></ellipse>
<ellipse cx="1103" cy="464" rx="0.5" ry="0.5"></ellipse>
<ellipse cx="30" cy="79" rx="0.5" ry="0.5"></ellipse>
<ellipse cx="1273" cy="608" rx="0.5" ry="0.5"></ellipse>
<ellipse cx="176" cy="6" rx="0.5" ry="0.5"></ellipse>
<ellipse cx="217" cy="3" rx="0.5" ry="0.5"></ellipse>
<ellipse cx="0" cy="84" rx="0.5" ry="0.5"></ellipse>
<ellipse cx="567" cy="190" rx="0.5" ry="0.5"></ellipse>
<ellipse cx="242" cy="5" rx="0.5" ry="0.5"></ellipse>
<ellipse cx="1186" cy="519" rx="0.5" ry="0.5"></ellipse>
<ellipse cx="44" cy="74" rx="0.5" ry="0.5"></ellipse>
<ellipse cx="1083" cy="457" rx="0.5" ry="0.5"></ellipse>
<ellipse cx="367" cy="109" rx="0.5" ry="0.5"></ellipse>
<ellipse cx="83" cy="75" rx="0.5" ry="0.5"></ellipse>
<ellipse cx="334" cy="82" rx="0.5" ry="0.5"></ellipse>
<ellipse cx="1177" cy="513" rx="0.5" ry="0.5"></ellipse>
<ellipse cx="1259" cy="567" rx="0.5" ry="0.5"></ellipse>
<ellipse cx="153" cy="48" rx="0.5" ry="0.5"></ellipse>
<ellipse cx="212" cy="4" rx="0.5" ry="0.5"></ellipse>
<ellipse cx="1241" cy="560" rx="0.5" ry="0.5"></ellipse>
<ellipse cx="144" cy="50" rx="0.5" ry="0.5"></ellipse>
<ellipse cx="751" cy="270" rx="0.5" ry="0.5"></ellipse>
<ellipse cx="203" cy="0" rx="0.5" ry="0.5"></ellipse>
<ellipse cx="297" cy="48" rx="0.5" ry="0.5"></ellipse>
<ellipse cx="1269" cy="588" rx="0.5" ry="0.5"></ellipse>
<ellipse cx="1234" cy="554" rx="0.5" ry="0.5"></ellipse>
<ellipse cx="1133" cy="480" rx="0.5" ry="0.5"></ellipse>
<ellipse cx="272" cy="31" rx="0.5" ry="0.5"></ellipse>
<ellipse cx="726" cy="260" rx="0.5" ry="0.5"></ellipse>
<ellipse cx="155" cy="42" rx="0.5" ry="0.5"></ellipse>
<ellipse cx="1275" cy="594" rx="0.5" ry="0.5"></ellipse>
<ellipse cx="182" cy="6" rx="0.5" ry="0.5"></ellipse>
<ellipse cx="1062" cy="443" rx="0.5" ry="0.5"></ellipse>
<ellipse cx="309" cy="61" rx="0.5" ry="0.5"></ellipse>
<ellipse cx="194" cy="7" rx="0.5" ry="0.5"></ellipse>
<ellipse cx="919" cy="353" rx="0.5" ry="0.5"></ellipse>
<ellipse cx="878" cy="333" rx="0.5" ry="0.5"></ellipse>
<ellipse cx="402" cy="128" rx="0.5" ry="0.5"></ellipse>
<ellipse cx="163" cy="30" rx="0.5" ry="0.5"></ellipse>
<ellipse cx="166" cy="7" rx="0.5" ry="0.5"></ellipse>
<ellipse cx="382" cy="115" rx="0.5" ry="0.5"></ellipse>
<ellipse cx="1263" cy="588" rx="0.5" ry="0.5"></ellipse>
<ellipse cx="1116" cy="471" rx="0.5" ry="0.5"></ellipse>
<ellipse cx="851" cy="317" rx="0.5" ry="0.5"></ellipse>
<ellipse cx="1026" cy="431" rx="0.5" ry="0.5"></ellipse>
<ellipse cx="492" cy="158" rx="0.5" ry="0.5"></ellipse>
<ellipse cx="224" cy="1" rx="0.5" ry="0.5"></ellipse>
<ellipse cx="171" cy="10" rx="0.5" ry="0.5"></ellipse>
<ellipse cx="60" cy="73" rx="0.5" ry="0.5"></ellipse>
<ellipse cx="160" cy="36" rx="0.5" ry="0.5"></ellipse>
<ellipse cx="991" cy="406" rx="0.5" ry="0.5"></ellipse>
<ellipse cx="545" cy="181" rx="0.5" ry="0.5"></ellipse>
<ellipse cx="1145" cy="488" rx="0.5" ry="0.5"></ellipse>
<ellipse cx="1274" cy="602" rx="0.5" ry="0.5"></ellipse>
<ellipse cx="166" cy="23" rx="0.5" ry="0.5"></ellipse>
<ellipse cx="71" cy="75" rx="0.5" ry="0.5"></ellipse>
<ellipse cx="956" cy="381" rx="0.5" ry="0.5"></ellipse>
<ellipse cx="177" cy="8" rx="0.5" ry="0.5"></ellipse>
<ellipse cx="324" cy="68" rx="0.5" ry="0.5"></ellipse>
<ellipse cx="254" cy="12" rx="0.5" ry="0.5"></ellipse>
<ellipse cx="657" cy="233" rx="0.5" ry="0.5"></ellipse>
<ellipse cx="115" cy="62" rx="0.5" ry="0.5"></ellipse>
<ellipse cx="234" cy="4" rx="0.5" ry="0.5"></ellipse>
<ellipse cx="830" cy="310" rx="0.5" ry="0.5"></ellipse>
<ellipse cx="775" cy="282" rx="0.5" ry="0.5"></ellipse>
<ellipse cx="158" cy="12" rx="0.5" ry="0.5"></ellipse>
<ellipse cx="418" cy="132" rx="0.5" ry="0.5"></ellipse>
<ellipse cx="1222" cy="550" rx="0.5" ry="0.5"></ellipse>
<ellipse cx="974" cy="391" rx="0.5" ry="0.5"></ellipse>
<ellipse cx="1205" cy="537" rx="0.5" ry="0.5"></ellipse>
<ellipse cx="101" cy="66" rx="0.5" ry="0.5"></ellipse>
<ellipse cx="1231" cy="550" rx="0.5" ry="0.5"></ellipse>
<ellipse cx="517" cy="170" rx="0.5" ry="0.5"></ellipse>
<ellipse cx="138" cy="50" rx="0.5" ry="0.5"></ellipse>
<ellipse cx="159" cy="14" rx="0.5" ry="0.5"></ellipse>
<ellipse cx="258" cy="20" rx="0.5" ry="0.5"></ellipse>
<ellipse cx="1163" cy="498" rx="0.5" ry="0.5"></ellipse>
<ellipse cx="441" cy="140" rx="0.5" ry="0.5"></ellipse>
<ellipse cx="127" cy="59" rx="0.5" ry="0.5"></ellipse>
<ellipse cx="188" cy="7" rx="0.5" ry="0.5"></ellipse>
</g>
</g>
</svg>