<svg xmlns="http://www.w3.org/2000/svg" width="800" height="800">
<g transform="translate(137.8815080789946 0.0) scale(1.436265709156194)">
<rect fill="#000000" width="365" height="557"></rect>
<g fill="#ffffff" transform="translate(0, 557) scale(1, -1)">
<ellipse cx="290" cy="167" rx="0.5" ry="0.5"></ellipse>
<ellipse cx="303" cy="193" rx="0.5" ry="0.5"></ellipse>
<ellipse cx="98" cy="159" rx="0.5" ry="0.5"></ellipse>
<ellipse cx="152" cy="268" rx="0.5" ry="0.5"></ellipse>
<ellipse cx="138" cy="477" rx="0.5" ry="0.5"></ellipse>
<ellipse cx="136" cy="502" rx="0.5" ry="0.5"></ellipse>
<ellipse cx="265" cy="251" rx="0.5" ry="0.5"></ellipse>
<ellipse cx="6" cy="22" rx="0.5" ry="0.5"></ellipse>
<ellipse cx="76" cy="138" rx="0.5" ry="0.5"></ellipse>
<ellipse cx="211" cy="379" rx="0.5" ry="0.5"></ellipse>
<ellipse cx="46" cy="1" rx="0.5" ry="0.5"></ellipse>
<ellipse cx="302" cy="93" rx="0.5" ry="0.5"></ellipse>
<ellipse cx="62" cy="508" rx="0.5" ry="0.5"></ellipse>
<ellipse cx="234" cy="228" rx="0.5" ry="0.5"></ellipse>
<ellipse cx="274" cy="133" rx="0.5" ry="0.5"></ellipse>
<ellipse cx="339" cy="69" rx="0.5" ry="0.5"></ellipse>
<ellipse cx="169" cy="512" rx="0.5" ry="0.5"></ellipse>
<ellipse cx="30" cy="53" rx="0.5" ry="0.5"></ellipse>
<ellipse cx="60" cy="78" rx="0.5" ry="0.5"></ellipse>
<ellipse cx="158" cy="278" rx="0.5" ry="0.5"></ellipse>
<ellipse cx="203" cy="472" rx="0.5" ry="0.5"></ellipse>
<ellipse cx="295" cy="106" rx="0.5" ry="0.5"></ellipse>
<ellipse cx="50" cy="111" rx="0.5" ry="0.5"></ellipse>
<ellipse cx="115" cy="542" rx="0.5" ry="0.5"></ellipse>
<ellipse cx="165" cy="406" rx="0.5" ry="0.5"></ellipse>
<ellipse cx="115" cy="123" rx="0.5" ry="0.5"></ellipse>
<ellipse cx="259" cy="228" rx="0.5" ry="0.5"></ellipse>
<ellipse cx="68" cy="160" rx="0.5" ry="0.5"></ellipse>
<ellipse cx="138" cy="520" rx="0.5" ry="0.5"></ellipse>
<ellipse cx="87" cy="505" rx="0.5" ry="0.5"></ellipse>
<ellipse cx="248" cy="248" rx="0.5" ry="0.5"></ellipse>
<ellipse cx="154" cy="352" rx="0.5" ry="0.5"></ellipse>
<ellipse cx="176" cy="304" rx="0.5" ry="0.5"></ellipse>
<ellipse cx="360" cy="59" rx="0.5" ry="0.5"></ellipse>
<ellipse cx="298" cy="114" rx="0.5" ry="0.5"></ellipse>
<ellipse cx="62" cy="61" rx="0.5" ry="0.5"></ellipse>
<ellipse cx="245" cy="359" rx="0.5" ry="0.5"></ellipse>
<ellipse cx="63" cy="524" rx="0.5" ry="0.5"></ellipse>
<ellipse cx="156" cy="514" rx="0.5" ry="0.5"></ellipse>
<ellipse cx="365" cy="11" rx="0.5" ry="0.5"></ellipse>
<ellipse cx="241" cy="326" rx="0.5" ry="0.5"></ellipse>
<ellipse cx="68" cy="557" rx="0.5" ry="0.5"></ellipse>
<ellipse cx="89" cy="78" rx="0.5" ry="0.5"></ellipse>
<ellipse cx="280" cy="230" rx="0.5" ry="0.5"></ellipse>
<ellipse cx="159" cy="428" rx="0.5" ry="0.5"></ellipse>
<ellipse cx="107" cy="149" rx="0.5" ry="0.5"></ellipse>
<ellipse cx="59" cy="67" rx="0.5" ry="0.5"></ellipse>
<ellipse cx="344" cy="81" rx="0.5" ry="0.5"></ellipse>
<ellipse cx="83" cy="100" rx="0.5" ry="0.5"></ellipse>
<ellipse cx="185" cy="430" rx="0.5" ry="0.5"></ellipse>
<ellipse cx="241" cy="315" rx="0.5" ry="0.5"></ellipse>
<ellipse cx="161" cy="538" rx="0.5" ry="0.5"></ellipse>
<ellipse cx="165" cy="410" rx="0.5" ry="0.5"></ellipse>
<ellipse cx="195" cy="402" rx="0.5" ry="0.5"></ellipse>
<ellipse cx="257" cy="172" rx="0.5" ry="0.5"></ellipse>
<ellipse cx="345" cy="52" rx="0.5" ry="0.5"></ellipse>
<ellipse cx="337" cy="115" rx="0.5" ry="0.5"></ellipse>
<ellipse cx="255" cy="332" rx="0.5" ry="0.5"></ellipse>
<ellipse cx="131" cy="505" rx="0.5" ry="0.5"></ellipse>
<ellipse cx="125" cy="235" rx="0.5" ry="0.5"></ellipse>
<ellipse cx="322" cy="81" rx="0.5" ry="0.5"></ellipse>
<ellipse cx="118" cy="512" rx="0.5" ry="0.5"></ellipse>
<ellipse cx="257" cy="235" rx="0.5" ry="0.5"></ellipse>
<ellipse cx="226" cy="337" rx="0.5" ry="0.5"></ellipse>
<ellipse cx="197" cy="480" rx="0.5" ry="0.5"></ellipse>
<ellipse cx="116" cy="184" rx="0.5" ry="0.5"></ellipse>
<ellipse cx="183" cy="506" rx="0.5" ry="0.5"></ellipse>
<ellipse cx="20" cy="47" rx="0.5" ry="0.5"></ellipse>
<ellipse cx="84" cy="111" rx="0.5" ry="0.5"></ellipse>
<ellipse cx="344" cy="17" rx="0.5" ry="0.5"></ellipse>
<ellipse cx="253" cy="284" rx="0.5" ry="0.5"></ellipse>
<ellipse cx="193" cy="360" rx="0.5" ry="0.5"></ellipse>
<ellipse cx="252" cy="246" rx="0.5" ry="0.5"></ellipse>
<ellipse cx="185" cy="419" rx="0.5" ry="0.5"></ellipse>
<ellipse cx="343" cy="34" rx="0.5" ry="0.5"></ellipse>
<ellipse cx="175" cy="460" rx="0.5" ry="0.5"></ellipse>
<ellipse cx="229" cy="301" rx="0.5" ry="0.5"></ellipse>
<ellipse cx="40" cy="94" rx="0.5" ry="0.5"></ellipse>
<ellipse cx="306" cy="114" rx="0.5" ry="0.5"></ellipse>
<ellipse cx="153" cy="342" rx="0.5" ry="0.5"></ellipse>
<ellipse cx="313" cy="93" rx="0.5" ry="0.5"></ellipse>
<ellipse cx="336" cy="25" rx="0.5" ry="0.5"></ellipse>
<ellipse cx="147" cy="515" rx="0.5" ry="0.5"></ellipse>
<ellipse cx="47" cy="81" rx="0.5" ry="0.5"></ellipse>
<ellipse cx="14" cy="29" rx="0.5" ry="0.5"></ellipse>
<ellipse cx="173" cy="441" rx="0.5" ry="0.5"></ellipse>
<ellipse cx="95" cy="199" rx="0.5" ry="0.5"></ellipse>
<ellipse cx="291" cy="219" rx="0.5" ry="0.5"></ellipse>
<ellipse cx="73" cy="25" rx="0.5" ry="0.5"></ellipse>
<ellipse cx="181" cy="277" rx="0.5" ry="0.5"></ellipse>
<ellipse cx="348" cy="94" rx="0.5" ry="0.5"></ellipse>
<ellipse cx="195" cy="286" rx="0.5" ry="0.5"></ellipse>
<ellipse cx="211" cy="309" rx="0.5" ry="0.5"></ellipse>
<ellipse cx="42" cy="47" rx="0.5" ry="0.5"></ellipse>
<ellipse cx="243" cy="304" rx="0.5" ry="0.5"></ellipse>
<ellipse cx="106" cy="154" rx="0.5" ry="0.5"></ellipse>
<ellipse cx="178" cy="451" rx="0.5" ry="0.5"></ellipse>
<ellipse cx="257" cy="191" rx="0.5" ry="0.5"></ellipse>
<ellipse cx="125" cy="553" rx="0.5" ry="0.5"></ellipse>
<ellipse cx="230" cy="268" rx="0.5" ry="0.5"></ellipse>
<ellipse cx="114" cy="529" rx="0.5" ry="0.5"></ellipse>
<ellipse cx="138" cy="545" rx="0.5" ry="0.5"></ellipse>
<ellipse cx="182" cy="498" rx="0.5" ry="0.5"></ellipse>
<ellipse cx="361" cy="34" rx="0.5" ry="0.5"></ellipse>
<ellipse cx="21" cy="39" rx="0.5" ry="0.5"></ellipse>
<ellipse cx="148" cy="224" rx="0.5" ry="0.5"></ellipse>
<ellipse cx="299" cy="165" rx="0.5" ry="0.5"></ellipse>
<ellipse cx="202" cy="326" rx="0.5" ry="0.5"></ellipse>
<ellipse cx="269" cy="198" rx="0.5" ry="0.5"></ellipse>
<ellipse cx="252" cy="271" rx="0.5" ry="0.5"></ellipse>
<ellipse cx="188" cy="392" rx="0.5" ry="0.5"></ellipse>
<ellipse cx="206" cy="358" rx="0.5" ry="0.5"></ellipse>
<ellipse cx="40" cy="68" rx="0.5" ry="0.5"></ellipse>
<ellipse cx="129" cy="533" rx="0.5" ry="0.5"></ellipse>
<ellipse cx="183" cy="348" rx="0.5" ry="0.5"></ellipse>
<ellipse cx="60" cy="28" rx="0.5" ry="0.5"></ellipse>
<ellipse cx="319" cy="19" rx="0.5" ry="0.5"></ellipse>
<ellipse cx="95" cy="141" rx="0.5" ry="0.5"></ellipse>
<ellipse cx="18" cy="29" rx="0.5" ry="0.5"></ellipse>
<ellipse cx="272" cy="122" rx="0.5" ry="0.5"></ellipse>
<ellipse cx="201" cy="395" rx="0.5" ry="0.5"></ellipse>
<ellipse cx="2" cy="6" rx="0.5" ry="0.5"></ellipse>
<ellipse cx="284" cy="115" rx="0.5" ry="0.5"></ellipse>
<ellipse cx="86" cy="59" rx="0.5" ry="0.5"></ellipse>
<ellipse cx="175" cy="283" rx="0.5" ry="0.5"></ellipse>
<ellipse cx="182" cy="464" rx="0.5" ry="0.5"></ellipse>
<ellipse cx="106" cy="179" rx="0.5" ry="0.5"></ellipse>
<ellipse cx="288" cy="106" rx="0.5" ry="0.5"></ellipse>
<ellipse cx="28" cy="69" rx="0.5" ry="0.5"></ellipse>
<ellipse cx="188" cy="325" rx="0.5" ry="0.5"></ellipse>
<ellipse cx="86" cy="129" rx="0.5" ry="0.5"></ellipse>
<ellipse cx="121" cy="218" rx="0.5" ry="0.5"></ellipse>
<ellipse cx="178" cy="512" rx="0.5" ry="0.5"></ellipse>
<ellipse cx="193" cy="465" rx="0.5" ry="0.5"></ellipse>
<ellipse cx="0" cy="3" rx="0.5" ry="0.5"></ellipse>
<ellipse cx="252" cy="345" rx="0.5" ry="0.5"></ellipse>
<ellipse cx="173" cy="333" rx="0.5" ry="0.5"></ellipse>
<ellipse cx="313" cy="137" rx="0.5" ry="0.5"></ellipse>
<ellipse cx="133" cy="155" rx="0.5" ry="0.5"></ellipse>
<ellipse cx="253" cy="268" rx="0.5" ry="0.5"></ellipse>
<ellipse cx="131" cy="289" rx="0.5" ry="0.5"></ellipse>
<ellipse cx="221" cy="328" rx="0.5" ry="0.5"></ellipse>
<ellipse cx="175" cy="406" rx="0.5" ry="0.5"></ellipse>
<ellipse cx="230" cy="226" rx="0.5" ry="0.5"></ellipse>
<ellipse cx="353" cy="14" rx="0.5" ry="0.5"></ellipse>
<ellipse cx="150" cy="519" rx="0.5" ry="0.5"></ellipse>
<ellipse cx="265" cy="301" rx="0.5" ry="0.5"></ellipse>
<ellipse cx="282" cy="264" rx="0.5" ry="0.5"></ellipse>
<ellipse cx="182" cy="351" rx="0.5" ry="0.5"></ellipse>
<ellipse cx="184" cy="499" rx="0.5" ry="0.5"></ellipse>
<ellipse cx="135" cy="212" rx="0.5" ry="0.5"></ellipse>
<ellipse cx="202" cy="427" rx="0.5" ry="0.5"></ellipse>
<ellipse cx="239" cy="240" rx="0.5" ry="0.5"></ellipse>
<ellipse cx="87" cy="187" rx="0.5" ry="0.5"></ellipse>
<ellipse cx="133" cy="301" rx="0.5" ry="0.5"></ellipse>
<ellipse cx="283" cy="210" rx="0.5" ry="0.5"></ellipse>
<ellipse cx="305" cy="93" rx="0.5" ry="0.5"></ellipse>
<ellipse cx="144" cy="529" rx="0.5" ry="0.5"></ellipse>
<ellipse cx="355" cy="26" rx="0.5" ry="0.5"></ellipse>
<ellipse cx="185" cy="440" rx="0.5" ry="0.5"></ellipse>
<ellipse cx="206" cy="382" rx="0.5" ry="0.5"></ellipse>
<ellipse cx="97" cy="221" rx="0.5" ry="0.5"></ellipse>
<ellipse cx="248" cy="340" rx="0.5" ry="0.5"></ellipse>
<ellipse cx="69" cy="74" rx="0.5" ry="0.5"></ellipse>
<ellipse cx="315" cy="76" rx="0.5" ry="0.5"></ellipse>
<ellipse cx="117" cy="147" rx="0.5" ry="0.5"></ellipse>
<ellipse cx="59" cy="10" rx="0.5" ry="0.5"></ellipse>
<ellipse cx="157" cy="522" rx="0.5" ry="0.5"></ellipse>
<ellipse cx="243" cy="339" rx="0.5" ry="0.5"></ellipse>
<ellipse cx="278" cy="105" rx="0.5" ry="0.5"></ellipse>
<ellipse cx="22" cy="42" rx="0.5" ry="0.5"></ellipse>
<ellipse cx="161" cy="230" rx="0.5" ry="0.5"></ellipse>
<ellipse cx="233" cy="382" rx="0.5" ry="0.5"></ellipse>
<ellipse cx="223" cy="320" rx="0.5" ry="0.5"></ellipse>
<ellipse cx="277" cy="275" rx="0.5" ry="0.5"></ellipse>
<ellipse cx="119" cy="227" rx="0.5" ry="0.5"></ellipse>
<ellipse cx="252" cy="264" rx="0.5" ry="0.5"></ellipse>
<ellipse cx="282" cy="161" rx="0.5" ry="0.5"></ellipse>
<ellipse cx="297" cy="155" rx="0.5" ry="0.5"></ellipse>
<ellipse cx="208" cy="325" rx="0.5" ry="0.5"></ellipse>
<ellipse cx="296" cy="74" rx="0.5" ry="0.5"></ellipse>
<ellipse cx="290" cy="94" rx="0.5" ry="0.5"></ellipse>
<ellipse cx="149" cy="185" rx="0.5" ry="0.5"></ellipse>
<ellipse cx="99" cy="171" rx="0.5" ry="0.5"></ellipse>
<ellipse cx="290" cy="98" rx="0.5" ry="0.5"></ellipse>
<ellipse cx="111" cy="117" rx="0.5" ry="0.5"></ellipse>
<ellipse cx="36" cy="66" rx="0.5" ry="0.5"></ellipse>
<ellipse cx="243" cy="342" rx="0.5" ry="0.5"></ellipse>
<ellipse cx="295" cy="160" rx="0.5" ry="0.5"></ellipse>
<ellipse cx="107" cy="554" rx="0.5" ry="0.5"></ellipse>
<ellipse cx="146" cy="219" rx="0.5" ry="0.5"></ellipse>
<ellipse cx="235" cy="368" rx="0.5" ry="0.5"></ellipse>
<ellipse cx="165" cy="316" rx="0.5" ry="0.5"></ellipse>
<ellipse cx="237" cy="249" rx="0.5" ry="0.5"></ellipse>
<ellipse cx="298" cy="229" rx="0.5" ry="0.5"></ellipse>
<ellipse cx="137" cy="306" rx="0.5" ry="0.5"></ellipse>
<ellipse cx="231" cy="263" rx="0.5" ry="0.5"></ellipse>
<ellipse cx="73" cy="508" rx="0.5" ry="0.5"></ellipse>
<ellipse cx="178" cy="442" rx="0.5" ry="0.5"></ellipse>
<ellipse cx="71" cy="102" rx="0.5" ry="0.5"></ellipse>
<ellipse cx="62" cy="136" rx="0.5" ry="0.5"></ellipse>
<ellipse cx="71" cy="141" rx="0.5" ry="0.5"></ellipse>
<ellipse cx="362" cy="12" rx="0.5" ry="0.5"></ellipse>
<ellipse cx="164" cy="503" rx="0.5" ry="0.5"></ellipse>
<ellipse cx="350" cy="33" rx="0.5" ry="0.5"></ellipse>
<ellipse cx="199" cy="405" rx="0.5" ry="0.5"></ellipse>
<ellipse cx="270" cy="232" rx="0.5" ry="0.5"></ellipse>
<ellipse cx="211" cy="399" rx="0.5" ry="0.5"></ellipse>
<ellipse cx="83" cy="543" rx="0.5" ry="0.5"></ellipse>
<ellipse cx="172" cy="531" rx="0.5" ry="0.5"></ellipse>
<ellipse cx="359" cy="38" rx="0.5" ry="0.5"></ellipse>
<ellipse cx="228" cy="262" rx="0.5" ry="0.5"></ellipse>
<ellipse cx="183" cy="498" rx="0.5" ry="0.5"></ellipse>
<ellipse cx="145" cy="497" rx="0.5" ry="0.5"></ellipse>
<ellipse cx="104" cy="189" rx="0.5" ry="0.5"></ellipse>
<ellipse cx="320" cy="38" rx="0.5" ry="0.5"></ellipse>
<ellipse cx="178" cy="396" rx="0.5" ry="0.5"></ellipse>
<ellipse cx="117" cy="137" rx="0.5" ry="0.5"></ellipse>
<ellipse cx="72" cy="519" rx="0.5" ry="0.5"></ellipse>
<ellipse cx="67" cy="549" rx="0.5" ry="0.5"></ellipse>
<ellipse cx="149" cy="216" rx="0.5" ry="0.5"></ellipse>
<ellipse cx="159" cy="248" rx="0.5" ry="0.5"></ellipse>
<ellipse cx="250" cy="313" rx="0.5" ry="0.5"></ellipse>
<ellipse cx="225" cy="385" rx="0.5" ry="0.5"></ellipse>
<ellipse cx="63" cy="119" rx="0.5" ry="0.5"></ellipse>
<ellipse cx="239" cy="293" rx="0.5" ry="0.5"></ellipse>
<ellipse cx="154" cy="268" rx="0.5" ry="0.5"></ellipse>
<ellipse cx="271" cy="255" rx="0.5" ry="0.5"></ellipse>
<ellipse cx="116" cy="192" rx="0.5" ry="0.5"></ellipse>
<ellipse cx="139" cy="166" rx="0.5" ry="0.5"></ellipse>
<ellipse cx="224" cy="267" rx="0.5" ry="0.5"></ellipse>
<ellipse cx="264" cy="200" rx="0.5" ry="0.5"></ellipse>
<ellipse cx="263" cy="213" rx="0.5" ry="0.5"></ellipse>
<ellipse cx="235" cy="217" rx="0.5" ry="0.5"></ellipse>
<ellipse cx="159" cy="290" rx="0.5" ry="0.5"></ellipse>
<ellipse cx="281" cy="235" rx="0.5" ry="0.5"></ellipse>
<ellipse cx="199" cy="459" rx="0.5" ry="0.5"></ellipse>
<ellipse cx="222" cy="412" rx="0.5" ry="0.5"></ellipse>
<ellipse cx="147" cy="217" rx="0.5" ry="0.5"></ellipse>
<ellipse cx="166" cy="410" rx="0.5" ry="0.5"></ellipse>
<ellipse cx="273" cy="218" rx="0.5" ry="0.5"></ellipse>
<ellipse cx="47" cy="57" rx="0.5" ry="0.5"></ellipse>
<ellipse cx="142" cy="538" rx="0.5" ry="0.5"></ellipse>
<ellipse cx="332" cy="138" rx="0.5" ry="0.5"></ellipse>
<ellipse cx="138" cy="501" rx="0.5" ry="0.5"></ellipse>
<ellipse cx="283" cy="218" rx="0.5" ry="0.5"></ellipse>
<ellipse cx="69" cy="549" rx="0.5" ry="0.5"></ellipse>
<ellipse cx="118" cy="518" rx="0.5" ry="0.5"></ellipse>
<ellipse cx="68" cy="160" rx="0.5" ry="0.5"></ellipse>
<ellipse cx="348" cy="92" rx="0.5" ry="0.5"></ellipse>
<ellipse cx="344" cy="35" rx="0.5" ry="0.5"></ellipse>
<ellipse cx="150" cy="245" rx="0.5" ry="0.5"></ellipse>
<ellipse cx="116" cy="114" rx="0.5" ry="0.5"></ellipse>
<ellipse cx="99" cy="182" rx="0.5" ry="0.5"></ellipse>
<ellipse cx="156" cy="256" rx="0.5" ry="0.5"></ellipse>
<ellipse cx="277" cy="134" rx="0.5" ry="0.5"></ellipse>
<ellipse cx="108" cy="133" rx="0.5" ry="0.5"></ellipse>
<ellipse cx="93" cy="115" rx="0.5" ry="0.5"></ellipse>
<ellipse cx="260" cy="146" rx="0.5" ry="0.5"></ellipse>
<ellipse cx="135" cy="274" rx="0.5" ry="0.5"></ellipse>
<ellipse cx="107" cy="556" rx="0.5" ry="0.5"></ellipse>
<ellipse cx="95" cy="80" rx="0.5" ry="0.5"></ellipse>
<ellipse cx="281" cy="118" rx="0.5" ry="0.5"></ellipse>
<ellipse cx="155" cy="472" rx="0.5" ry="0.5"></ellipse>
<ellipse cx="131" cy="182" rx="0.5" ry="0.5"></ellipse>
<ellipse cx="151" cy="253" rx="0.5" ry="0.5"></ellipse>
<ellipse cx="167" cy="336" rx="0.5" ry="0.5"></ellipse>
<ellipse cx="130" cy="547" rx="0.5" ry="0.5"></ellipse>
<ellipse cx="190" cy="323" rx="0.5" ry="0.5"></ellipse>
<ellipse cx="142" cy="503" rx="0.5" ry="0.5"></ellipse>
<ellipse cx="239" cy="238" rx="0.5" ry="0.5"></ellipse>
<ellipse cx="207" cy="436" rx="0.5" ry="0.5"></ellipse>
<ellipse cx="64" cy="101" rx="0.5" ry="0.5"></ellipse>
<ellipse cx="349" cy="53" rx="0.5" ry="0.5"></ellipse>
<ellipse cx="86" cy="182" rx="0.5" ry="0.5"></ellipse>
<ellipse cx="103" cy="168" rx="0.5" ry="0.5"></ellipse>
<ellipse cx="36" cy="69" rx="0.5" ry="0.5"></ellipse>
<ellipse cx="64" cy="12" rx="0.5" ry="0.5"></ellipse>
<ellipse cx="224" cy="308" rx="0.5" ry="0.5"></ellipse>
<ellipse cx="313" cy="189" rx="0.5" ry="0.5"></ellipse>
<ellipse cx="228" cy="331" rx="0.5" ry="0.5"></ellipse>
<ellipse cx="244" cy="356" rx="0.5" ry="0.5"></ellipse>
<ellipse cx="215" cy="435" rx="0.5" ry="0.5"></ellipse>
<ellipse cx="72" cy="109" rx="0.5" ry="0.5"></ellipse>
<ellipse cx="139" cy="537" rx="0.5" ry="0.5"></ellipse>
<ellipse cx="176" cy="348" rx="0.5" ry="0.5"></ellipse>
<ellipse cx="186" cy="470" rx="0.5" ry="0.5"></ellipse>
<ellipse cx="154" cy="291" rx="0.5" ry="0.5"></ellipse>
<ellipse cx="319" cy="47" rx="0.5" ry="0.5"></ellipse>
<ellipse cx="23" cy="0" rx="0.5" ry="0.5"></ellipse>
<ellipse cx="226" cy="410" rx="0.5" ry="0.5"></ellipse>
<ellipse cx="30" cy="49" rx="0.5" ry="0.5"></ellipse>
<ellipse cx="139" cy="487" rx="0.5" ry="0.5"></ellipse>
<ellipse cx="63" cy="65" rx="0.5" ry="0.5"></ellipse>
<ellipse cx="299" cy="195" rx="0.5" ry="0.5"></ellipse>
<ellipse cx="296" cy="222" rx="0.5" ry="0.5"></ellipse>
<ellipse cx="127" cy="154" rx="0.5" ry="0.5"></ellipse>
<ellipse cx="143" cy="203" rx="0.5" ry="0.5"></ellipse>
<ellipse cx="64" cy="85" rx="0.5" ry="0.5"></ellipse>
<ellipse cx="90" cy="116" rx="0.5" ry="0.5"></ellipse>
</g>
</g>
</svg>