<svg xmlns="http://www.w3.org/2000/svg" width="800" height="800">
<g transform="translate(5.684341886080802e-14 42.211055276381956) scale(4.0201005025125625)">
<rect fill="#000000" width="199" height="178"></rect>
<g fill="#ffffff" transform="translate(0, 178) scale(1, -1)">
<ellipse cx="75" cy="20" rx="0.5" ry="0.5"></ellipse>
<ellipse cx="164" cy="87" rx="0.5" ry="0.5"></ellipse>
<ellipse cx="31" cy="4" rx="0.5" ry="0.5"></ellipse>
<ellipse cx="1" cy="6" rx="0.5" ry="0.5"></ellipse>
<ellipse cx="0" cy="8" rx="0.5" ry="0.5"></ellipse>
<ellipse cx="154" cy="77" rx="0.5" ry="0.5"></ellipse>
<ellipse cx="41" cy="12" rx="0.5" ry="0.5"></ellipse>
<ellipse cx="4" cy="5" rx="0.5" ry="0.5"></ellipse>
<ellipse cx="195" cy="154" rx="0.5" ry="0.5"></ellipse>
<ellipse cx="9" cy="2" rx="0.5" ry="0.5"></ellipse>
<ellipse cx="15" cy="12" rx="0.5" ry="0.5"></ellipse>
<ellipse cx="124" cy="49" rx="0.5" ry="0.5"></ellipse>
<ellipse cx="58" cy="11" rx="0.5" ry="0.5"></ellipse>
<ellipse cx="97" cy="34" rx="0.5" ry="0.5"></ellipse>
<ellipse cx="24" cy="7" rx="0.5" ry="0.5"></ellipse>
<ellipse cx="184" cy="119" rx="0.5" ry="0.5"></ellipse>
<ellipse cx="198" cy="174" rx="0.5" ry="0.5"></ellipse>
<ellipse cx="50" cy="11" rx="0.5" ry="0.5"></ellipse>
<ellipse cx="11" cy="10" rx="0.5" ry="0.5"></ellipse>
<ellipse cx="18" cy="12" rx="0.5" ry="0.5"></ellipse>
<ellipse cx="0" cy="10" rx="0.5" ry="0.5"></ellipse>
<ellipse cx="48" cy="12" rx="0.5" ry="0.5"></ellipse>
<ellipse cx="121" cy="41" rx="0.5" ry="0.5"></ellipse>
<ellipse cx="26" cy="6" rx="0.5" ry="0.5"></ellipse>
<ellipse cx="18" cy="0" rx="0.5" ry="0.5"></ellipse>
<ellipse cx="43" cy="13" rx="0.5" ry="0.5"></ellipse>
<ellipse cx="126" cy="52" rx="0.5" ry="0.5"></ellipse>
<ellipse cx="123" cy="45" rx="0.5" ry="0.5"></ellipse>
<ellipse cx="192" cy="145" rx="0.5" ry="0.5"></ellipse>
<ellipse cx="27" cy="2" rx="0.5" ry="0.5"></ellipse>
<ellipse cx="135" cy="60" rx="0.5" ry="0.5"></ellipse>
<ellipse cx="169" cy="90" rx="0.5" ry="0.5"></ellipse>
<ellipse cx="114" cy="36" rx="0.5" ry="0.5"></ellipse>
<ellipse cx="186" cy="125" rx="0.5" ry="0.5"></ellipse>
<ellipse cx="181" cy="106" rx="0.5" ry="0.5"></ellipse>
<ellipse cx="1" cy="11" rx="0.5" ry="0.5"></ellipse>
<ellipse cx="199" cy="176" rx="0.5" ry="0.5"></ellipse>
<ellipse cx="84" cy="28" rx="0.5" ry="0.5"></ellipse>
<ellipse cx="147" cy="70" rx="0.5" ry="0.5"></ellipse>
<ellipse cx="29" cy="7" rx="0.5" ry="0.5"></ellipse>
<ellipse cx="27" cy="7" rx="0.5" ry="0.5"></ellipse>
<ellipse cx="2" cy="5" rx="0.5" ry="0.5"></ellipse>
<ellipse cx="32" cy="7" rx="0.5" ry="0.5"></ellipse>
<ellipse cx="11" cy="1" rx="0.5" ry="0.5"></ellipse>
<ellipse cx="199" cy="178" rx="0.5" ry="0.5"></ellipse>
<ellipse cx="13" cy="11" rx="0.5" ry="0.5"></ellipse>
<ellipse cx="20" cy="11" rx="0.5" ry="0.5"></ellipse>
<ellipse cx="128" cy="55" rx="0.5" ry="0.5"></ellipse>
<ellipse cx="197" cy="169" rx="0.5" ry="0.5"></ellipse>
<ellipse cx="34" cy="6" rx="0.5" ry="0.5"></ellipse>
<ellipse cx="157" cy="80" rx="0.5" ry="0.5"></ellipse>
<ellipse cx="39" cy="11" rx="0.5" ry="0.5"></ellipse>
<ellipse cx="196" cy="158" rx="0.5" ry="0.5"></ellipse>
<ellipse cx="26" cy="5" rx="0.5" ry="0.5"></ellipse>
<ellipse cx="21" cy="10" rx="0.5" ry="0.5"></ellipse>
<ellipse cx="22" cy="1" rx="0.5" ry="0.5"></ellipse>
<ellipse cx="55" cy="11" rx="0.5" ry="0.5"></ellipse>
<ellipse cx="118" cy="38" rx="0.5" ry="0.5"></ellipse>
<ellipse cx="189" cy="130" rx="0.5" ry="0.5"></ellipse>
<ellipse cx="14" cy="0" rx="0.5" ry="0.5"></ellipse>
<ellipse cx="105" cy="35" rx="0.5" ry="0.5"></ellipse>
<ellipse cx="2" cy="11" rx="0.5" ry="0.5"></ellipse>
<ellipse cx="6" cy="10" rx="0.5" ry="0.5"></ellipse>
<ellipse cx="143" cy="67" rx="0.5" ry="0.5"></ellipse>
<ellipse cx="160" cy="83" rx="0.5" ry="0.5"></ellipse>
<ellipse cx="66" cy="14" rx="0.5" ry="0.5"></ellipse>
<ellipse cx="5" cy="5" rx="0.5" ry="0.5"></ellipse>
<ellipse cx="131" cy="57" rx="0.5" ry="0.5"></ellipse>
<ellipse cx="198" cy="172" rx="0.5" ry="0.5"></ellipse>
<ellipse cx="4" cy="11" rx="0.5" ry="0.5"></ellipse>
<ellipse cx="176" cy="97" rx="0.5" ry="0.5"></ellipse>
<ellipse cx="191" cy="136" rx="0.5" ry="0.5"></ellipse>
<ellipse cx="88" cy="31" rx="0.5" ry="0.5"></ellipse>
<ellipse cx="36" cy="9" rx="0.5" ry="0.5"></ellipse>
<ellipse cx="5" cy="4" rx="0.5" ry="0.5"></ellipse>
<ellipse cx="26" cy="5" rx="0.5" ry="0.5"></ellipse>
<ellipse cx="93" cy="33" rx="0.5" ry="0.5"></ellipse>
<ellipse cx="79" cy="24" rx="0.5" ry="0.5"></ellipse>
<ellipse cx="101" cy="34" rx="0.5" ry="0.5"></ellipse>
<ellipse cx="24" cy="6" rx="0.5" ry="0.5"></ellipse>
<ellipse cx="178" cy="101" rx="0.5" ry="0.5"></ellipse>
<ellipse cx="139" cy="63" rx="0.5" ry="0.5"></ellipse>
<ellipse cx="53" cy="11" rx="0.5" ry="0.5"></ellipse>
<ellipse cx="6" cy="3" rx="0.5" ry="0.5"></ellipse>
<ellipse cx="25" cy="5" rx="0.5" ry="0.5"></ellipse>
<ellipse cx="197" cy="166" rx="0.5" ry="0.5"></ellipse>
<ellipse cx="192" cy="141" rx="0.5" ry="0.5"></ellipse>
<ellipse cx="62" cy="12" rx="0.5" ry="0.5"></ellipse>
<ellipse cx="23" cy="9" rx="0.5" ry="0.5"></ellipse>
<ellipse cx="6" cy="4" rx="0.5" ry="0.5"></ellipse>
<ellipse cx="8" cy="10" rx="0.5" ry="0.5"></ellipse>
<ellipse cx="7" cy="3" rx="0.5" ry="0.5"></ellipse>
<ellipse cx="183" cy="112" rx="0.5" ry="0.5"></ellipse>
<ellipse cx="151" cy="73" rx="0.5" ry="0.5"></ellipse>
<ellipse cx="193" cy="150" rx="0.5" ry="0.5"></ellipse>
<ellipse cx="196" cy="162" rx="0.5" ry="0.5"></ellipse>
<ellipse cx="71" cy="17" rx="0.5" ry="0.5"></ellipse>
<ellipse cx="173" cy="93" rx="0.5" ry="0.5"></ellipse>
<ellipse cx="109" cy="35" rx="0.5" ry="0.5"></ellipse>
<ellipse cx="45" cy="13" rx="0.5" ry="0.5"></ellipse>
</g>
</g>
</svg>