<svg xmlns="http://www.w3.org/2000/svg" width="800" height="800">
<g transform="translate(6.060606060606062 0.0) scale(4.040404040404041)">
<rect fill="#000000" width="195" height="198"></rect>
<g fill="#ffffff" transform="translate(0, 198) scale(1, -1)">
<ellipse cx="54" cy="36" rx="0.5" ry="0.5"></ellipse>
<ellipse cx="163" cy="142" rx="0.5" ry="0.5"></ellipse>
<ellipse cx="151" cy="7" rx="0.5" ry="0.5"></ellipse>
<ellipse cx="20" cy="16" rx="0.5" ry="0.5"></ellipse>
<ellipse cx="34" cy="175" rx="0.5" ry="0.5"></ellipse>
<ellipse cx="21" cy="103" rx="0.5" ry="0.5"></ellipse>
<ellipse cx="5" cy="185" rx="0.5" ry="0.5"></ellipse>
<ellipse cx="163" cy="51" rx="0.5" ry="0.5"></ellipse>
<ellipse cx="149" cy="197" rx="0.5" ry="0.5"></ellipse>
<ellipse cx="105" cy="152" rx="0.5" ry="0.5"></ellipse>
<ellipse cx="84" cy="193" rx="0.5" ry="0.5"></ellipse>
<ellipse cx="103" cy="138" rx="0.5" ry="0.5"></ellipse>
<ellipse cx="88" cy="61" rx="0.5" ry="0.5"></ellipse>
<ellipse cx="126" cy="166" rx="0.5" ry="0.5"></ellipse>
<ellipse cx="104" cy="154" rx="0.5" ry="0.5"></ellipse>
<ellipse cx="116" cy="7" rx="0.5" ry="0.5"></ellipse>
<ellipse cx="50" cy="167" rx="0.5" ry="0.5"></ellipse>
<ellipse cx="134" cy="82" rx="0.5" ry="0.5"></ellipse>
<ellipse cx="167" cy="60" rx="0.5" ry="0.5"></ellipse>
<ellipse cx="51" cy="35" rx="0.5" ry="0.5"></ellipse>
<ellipse cx="14" cy="31" rx="0.5" ry="0.5"></ellipse>
<ellipse cx="69" cy="42" rx="0.5" ry="0.5"></ellipse>
<ellipse cx="0" cy="173" rx="0.5" ry="0.5"></ellipse>
<ellipse cx="172" cy="3" rx="0.5" ry="0.5"></ellipse>
<ellipse cx="154" cy="79" rx="0.5" ry="0.5"></ellipse>
<ellipse cx="31" cy="100" rx="0.5" ry="0.5"></ellipse>
<ellipse cx="10" cy="24" rx="0.5" ry="0.5"></ellipse>
<ellipse cx="186" cy="50" rx="0.5" ry="0.5"></ellipse>
<ellipse cx="15" cy="33" rx="0.5" ry="0.5"></ellipse>
<ellipse cx="140" cy="1" rx="0.5" ry="0.5"></ellipse>
<ellipse cx="85" cy="23" rx="0.5" ry="0.5"></ellipse>
<ellipse cx="177" cy="7" rx="0.5" ry="0.5"></ellipse>
<ellipse cx="2" cy="169" rx="0.5" ry="0.5"></ellipse>
<ellipse cx="120" cy="81" rx="0.5" ry="0.5"></ellipse>
<ellipse cx="6" cy="11" rx="0.5" ry="0.5"></ellipse>
<ellipse cx="102" cy="179" rx="0.5" ry="0.5"></ellipse>
<ellipse cx="89" cy="151" rx="0.5" ry="0.5"></ellipse>
<ellipse cx="153" cy="175" rx="0.5" ry="0.5"></ellipse>
<ellipse cx="143" cy="45" rx="0.5" ry="0.5"></ellipse>
<ellipse cx="75" cy="80" rx="0.5" ry="0.5"></ellipse>
<ellipse cx="174" cy="19" rx="0.5" ry="0.5"></ellipse>
<ellipse cx="0" cy="69" rx="0.5" ry="0.5"></ellipse>
<ellipse cx="195" cy="10" rx="0.5" ry="0.5"></ellipse>
<ellipse cx="93" cy="101" rx="0.5" ry="0.5"></ellipse>
<ellipse cx="55" cy="77" rx="0.5" ry="0.5"></ellipse>
<ellipse cx="106" cy="87" rx="0.5" ry="0.5"></ellipse>
<ellipse cx="70" cy="138" rx="0.5" ry="0.5"></ellipse>
<ellipse cx="14" cy="9" rx="0.5" ry="0.5"></ellipse>
<ellipse cx="165" cy="107" rx="0.5" ry="0.5"></ellipse>
<ellipse cx="128" cy="119" rx="0.5" ry="0.5"></ellipse>
<ellipse cx="106" cy="119" rx="0.5" ry="0.5"></ellipse>
<ellipse cx="113" cy="152" rx="0.5" ry="0.5"></ellipse>
<ellipse cx="27" cy="197" rx="0.5" ry="0.5"></ellipse>
<ellipse cx="46" cy="13" rx="0.5" ry="0.5"></ellipse>
<ellipse cx="104" cy="11" rx="0.5" ry="0.5"></ellipse>
<ellipse cx="157" cy="108" rx="0.5" ry="0.5"></ellipse>
<ellipse cx="169" cy="177" rx="0.5" ry="0.5"></ellipse>
<ellipse cx="149" cy="98" rx="0.5" ry="0.5"></ellipse>
<ellipse cx="59" cy="49" rx="0.5" ry="0.5"></ellipse>
<ellipse cx="66" cy="81" rx="0.5" ry="0.5"></ellipse>
<ellipse cx="169" cy="158" rx="0.5" ry="0.5"></ellipse>
<ellipse cx="168" cy="69" rx="0.5" ry="0.5"></ellipse>
<ellipse cx="57" cy="81" rx="0.5" ry="0.5"></ellipse>
<ellipse cx="6" cy="37" rx="0.5" ry="0.5"></ellipse>
<ellipse cx="57" cy="190" rx="0.5" ry="0.5"></ellipse>
<ellipse cx="194" cy="22" rx="0.5" ry="0.5"></ellipse>
<ellipse cx="144" cy="6" rx="0.5" ry="0.5"></ellipse>
<ellipse cx="112" cy="147" rx="0.5" ry="0.5"></ellipse>
<ellipse cx="147" cy="122" rx="0.5" ry="0.5"></ellipse>
<ellipse cx="127" cy="38" rx="0.5" ry="0.5"></ellipse>
<ellipse cx="2" cy="187" rx="0.5" ry="0.5"></ellipse>
<ellipse cx="36" cy="15" rx="0.5" ry="0.5"></ellipse>
<ellipse cx="190" cy="98" rx="0.5" ry="0.5"></ellipse>
<ellipse cx="46" cy="176" rx="0.5" ry="0.5"></ellipse>
<ellipse cx="135" cy="183" rx="0.5" ry="0.5"></ellipse>
<ellipse cx="159" cy="0" rx="0.5" ry="0.5"></ellipse>
<ellipse cx="123" cy="42" rx="0.5" ry="0.5"></ellipse>
<ellipse cx="132" cy="30" rx="0.5" ry="0.5"></ellipse>
<ellipse cx="20" cy="27" rx="0.5" ry="0.5"></ellipse>
<ellipse cx="6" cy="5" rx="0.5" ry="0.5"></ellipse>
<ellipse cx="190" cy="121" rx="0.5" ry="0.5"></ellipse>
<ellipse cx="128" cy="27" rx="0.5" ry="0.5"></ellipse>
<ellipse cx="105" cy="176" rx="0.5" ry="0.5"></ellipse>
<ellipse cx="11" cy="186" rx="0.5" ry="0.5"></ellipse>
<ellipse cx="28" cy="54" rx="0.5" ry="0.5"></ellipse>
<ellipse cx="99" cy="54" rx="0.5" ry="0.5"></ellipse>
<ellipse cx="122" cy="60" rx="0.5" ry="0.5"></ellipse>
<ellipse cx="125" cy="10" rx="0.5" ry="0.5"></ellipse>
<ellipse cx="150" cy="7" rx="0.5" ry="0.5"></ellipse>
<ellipse cx="99" cy="182" rx="0.5" ry="0.5"></ellipse>
<ellipse cx="147" cy="127" rx="0.5" ry="0.5"></ellipse>
<ellipse cx="134" cy="139" rx="0.5" ry="0.5"></ellipse>
<ellipse cx="154" cy="97" rx="0.5" ry="0.5"></ellipse>
<ellipse cx="177" cy="198" rx="0.5" ry="0.5"></ellipse>
<ellipse cx="161" cy="159" rx="0.5" ry="0.5"></ellipse>
<ellipse cx="96" cy="6" rx="0.5" ry="0.5"></ellipse>
<ellipse cx="47" cy="111" rx="0.5" ry="0.5"></ellipse>
<ellipse cx="69" cy="108" rx="0.5" ry="0.5"></ellipse>
<ellipse cx="12" cy="50" rx="0.5" ry="0.5"></ellipse>
<ellipse cx="134" cy="13" rx="0.5" ry="0.5"></ellipse>
</g>
</g>
</svg>