<svg xmlns="http://www.w3.org/2000/svg" width="800" height="800">
<g transform="translate(0.0 34.285714285714334) scale(4.571428571428571)">
<rect fill="#000000" width="175" height="160"></rect>
<g fill="#ffffff" transform="translate(0, 160) scale(1, -1)">
<ellipse cx="0" cy="160" rx="0.5" ry="0.5"></ellipse>
<ellipse cx="0" cy="159" rx="0.5" ry="0.5"></ellipse>
<ellipse cx="3" cy="157" rx="0.5" ry="0.5"></ellipse>
<ellipse cx="3" cy="156" rx="0.5" ry="0.5"></ellipse>
<ellipse cx="4" cy="153" rx="0.5" ry="0.5"></ellipse>
<ellipse cx="6" cy="150" rx="0.5" ry="0.5"></ellipse>
<ellipse cx="8" cy="144" rx="0.5" ry="0.5"></ellipse>
<ellipse cx="8" cy="141" rx="0.5" ry="0.5"></ellipse>
<ellipse cx="13" cy="136" rx="0.5" ry="0.5"></ellipse>
<ellipse cx="14" cy="132" rx="0.5" ry="0.5"></ellipse>
<ellipse cx="20" cy="127" rx="0.5" ry="0.5"></ellipse>
<ellipse cx="23" cy="123" rx="0.5" ry="0.5"></ellipse>
<ellipse cx="31" cy="117" rx="0.5" ry="0.5"></ellipse>
<ellipse cx="37" cy="113" rx="0.5" ry="0.5"></ellipse>
<ellipse cx="43" cy="108" rx="0.5" ry="0.5"></ellipse>
<ellipse cx="50" cy="104" rx="0.5" ry="0.5"></ellipse>
<ellipse cx="57" cy="101" rx="0.5" ry="0.5"></ellipse>
<ellipse cx="61" cy="98" rx="0.5" ry="0.5"></ellipse>
<ellipse cx="65" cy="96" rx="0.5" ry="0.5"></ellipse>
<ellipse cx="72" cy="93" rx="0.5" ry="0.5"></ellipse>
<ellipse cx="76" cy="93" rx="0.5" ry="0.5"></ellipse>
<ellipse cx="81" cy="92" rx="0.5" ry="0.5"></ellipse>
<ellipse cx="87" cy="91" rx="0.5" ry="0.5"></ellipse>
<ellipse cx="89" cy="88" rx="0.5" ry="0.5"></ellipse>
<ellipse cx="92" cy="87" rx="0.5" ry="0.5"></ellipse>
<ellipse cx="96" cy="83" rx="0.5" ry="0.5"></ellipse>
<ellipse cx="98" cy="81" rx="0.5" ry="0.5"></ellipse>
<ellipse cx="99" cy="77" rx="0.5" ry="0.5"></ellipse>
<ellipse cx="102" cy="73" rx="0.5" ry="0.5"></ellipse>
<ellipse cx="105" cy="67" rx="0.5" ry="0.5"></ellipse>
<ellipse cx="107" cy="65" rx="0.5" ry="0.5"></ellipse>
<ellipse cx="109" cy="59" rx="0.5" ry="0.5"></ellipse>
<ellipse cx="111" cy="56" rx="0.5" ry="0.5"></ellipse>
<ellipse cx="114" cy="50" rx="0.5" ry="0.5"></ellipse>
<ellipse cx="116" cy="48" rx="0.5" ry="0.5"></ellipse>
<ellipse cx="118" cy="44" rx="0.5" ry="0.5"></ellipse>
<ellipse cx="120" cy="40" rx="0.5" ry="0.5"></ellipse>
<ellipse cx="124" cy="36" rx="0.5" ry="0.5"></ellipse>
<ellipse cx="128" cy="33" rx="0.5" ry="0.5"></ellipse>
<ellipse cx="131" cy="28" rx="0.5" ry="0.5"></ellipse>
<ellipse cx="135" cy="25" rx="0.5" ry="0.5"></ellipse>
<ellipse cx="139" cy="21" rx="0.5" ry="0.5"></ellipse>
<ellipse cx="143" cy="17" rx="0.5" ry="0.5"></ellipse>
<ellipse cx="145" cy="14" rx="0.5" ry="0.5"></ellipse>
<ellipse cx="151" cy="9" rx="0.5" ry="0.5"></ellipse>
<ellipse cx="155" cy="7" rx="0.5" ry="0.5"></ellipse>
<ellipse cx="158" cy="5" rx="0.5" ry="0.5"></ellipse>
<ellipse cx="163" cy="3" rx="0.5" ry="0.5"></ellipse>
<ellipse cx="167" cy="1" rx="0.5" ry="0.5"></ellipse>
<ellipse cx="175" cy="0" rx="0.5" ry="0.5"></ellipse>
</g>
</g>
</svg>