<svg xmlns="http://www.w3.org/2000/svg" width="800" height="800">
<g transform="translate(0.0 137.3134328358209) scale(5.970149253731344)">
<rect fill="#000000" width="134" height="88"></rect>
<g fill="#ffffff" transform="translate(0, 88) scale(1, -1)">
<ellipse cx="93" cy="88" rx="0.5" ry="0.5"></ellipse>
<ellipse cx="90" cy="86" rx="0.5" ry="0.5"></ellipse>
<ellipse cx="88" cy="82" rx="0.5" ry="0.5"></ellipse>
<ellipse cx="87" cy="79" rx="0.5" ry="0.5"></ellipse>
<ellipse cx="84" cy="77" rx="0.5" ry="0.5"></ellipse>
<ellipse cx="83" cy="76" rx="0.5" ry="0.5"></ellipse>
<ellipse cx="82" cy="73" rx="0.5" ry="0.5"></ellipse>
<ellipse cx="79" cy="68" rx="0.5" ry="0.5"></ellipse>
<ellipse cx="77" cy="65" rx="0.5" ry="0.5"></ellipse>
<ellipse cx="77" cy="60" rx="0.5" ry="0.5"></ellipse>
<ellipse cx="79" cy="56" rx="0.5" ry="0.5"></ellipse>
<ellipse cx="83" cy="52" rx="0.5" ry="0.5"></ellipse>
<ellipse cx="89" cy="46" rx="0.5" ry="0.5"></ellipse>
<ellipse cx="96" cy="42" rx="0.5" ry="0.5"></ellipse>
<ellipse cx="102" cy="38" rx="0.5" ry="0.5"></ellipse>
<ellipse cx="110" cy="36" rx="0.5" ry="0.5"></ellipse>
<ellipse cx="116" cy="34" rx="0.5" ry="0.5"></ellipse>
<ellipse cx="120" cy="33" rx="0.5" ry="0.5"></ellipse>
<ellipse cx="125" cy="31" rx="0.5" ry="0.5"></ellipse>
<ellipse cx="129" cy="27" rx="0.5" ry="0.5"></ellipse>
<ellipse cx="131" cy="21" rx="0.5" ry="0.5"></ellipse>
<ellipse cx="132" cy="17" rx="0.5" ry="0.5"></ellipse>
<ellipse cx="134" cy="15" rx="0.5" ry="0.5"></ellipse>
<ellipse cx="134" cy="15" rx="0.5" ry="0.5"></ellipse>
<ellipse cx="132" cy="13" rx="0.5" ry="0.5"></ellipse>
<ellipse cx="129" cy="13" rx="0.5" ry="0.5"></ellipse>
<ellipse cx="125" cy="11" rx="0.5" ry="0.5"></ellipse>
<ellipse cx="123" cy="7" rx="0.5" ry="0.5"></ellipse>
<ellipse cx="121" cy="3" rx="0.5" ry="0.5"></ellipse>
<ellipse cx="117" cy="1" rx="0.5" ry="0.5"></ellipse>
<ellipse cx="113" cy="0" rx="0.5" ry="0.5"></ellipse>
<ellipse cx="108" cy="1" rx="0.5" ry="0.5"></ellipse>
<ellipse cx="102" cy="3" rx="0.5" ry="0.5"></ellipse>
<ellipse cx="95" cy="6" rx="0.5" ry="0.5"></ellipse>
<ellipse cx="90" cy="10" rx="0.5" ry="0.5"></ellipse>
<ellipse cx="83" cy="13" rx="0.5" ry="0.5"></ellipse>
<ellipse cx="74" cy="15" rx="0.5" ry="0.5"></ellipse>
<ellipse cx="65" cy="18" rx="0.5" ry="0.5"></ellipse>
<ellipse cx="58" cy="20" rx="0.5" ry="0.5"></ellipse>
<ellipse cx="49" cy="22" rx="0.5" ry="0.5"></ellipse>
<ellipse cx="40" cy="25" rx="0.5" ry="0.5"></ellipse>
<ellipse cx="33" cy="29" rx="0.5" ry="0.5"></ellipse>
<ellipse cx="28" cy="33" rx="0.5" ry="0.5"></ellipse>
<ellipse cx="21" cy="36" rx="0.5" ry="0.5"></ellipse>
<ellipse cx="16" cy="39" rx="0.5" ry="0.5"></ellipse>
<ellipse cx="13" cy="43" rx="0.5" ry="0.5"></ellipse>
<ellipse cx="11" cy="46" rx="0.5" ry="0.5"></ellipse>
<ellipse cx="8" cy="47" rx="0.5" ry="0.5"></ellipse>
<ellipse cx="3" cy="50" rx="0.5" ry="0.5"></ellipse>
<ellipse cx="0" cy="53" rx="0.5" ry="0.5"></ellipse>
</g>
</g>
</svg>